<svg id="Layer_1" data-name="Layer 1" xmlns="http://www.w3.org/2000/svg" viewBox="0 0 25 25"><defs><style>.cls-1{fill:#fff;}.cls-2{fill:#f3f3f3;}</style></defs><title>signs-pattern</title><rect class="cls-1" width="25" height="25"/><polygon class="cls-2" points="6.14 4.27 5.63 3.77 5.66 3.74 6.17 4.24 6.14 4.27"/><polygon class="cls-2" points="5.66 4.27 5.63 4.24 6.14 3.74 6.17 3.77 5.66 4.27"/><path class="cls-2" d="M3.25,2.4c-.05,0-.11-.07-.17-.15S3,2.11,2.95,2.12l0,0c.06,0,.13.06.19.14s.1.13.13.13h0s0-.12,0-.19,0-.21,0-.24.13.05.19.14.1.13.13.13h0s0-.12,0-.19,0-.21,0-.24.13.06.19.14S3.94,2,4,2H4l0,0c-.06,0-.13-.06-.19-.14s-.11-.14-.14-.13,0,.12,0,.19,0,.21,0,.24-.13-.06-.19-.14S3.33,2,3.3,2s0,.12,0,.19,0,.21,0,.24Z"/><path class="cls-2" d="M4,4.74s0-.08,0-.13,0-.09,0-.1-.06,0-.09,0-.1.07-.13,0,0-.08,0-.13,0-.09,0-.1-.06,0-.09,0-.1.07-.13,0,0-.08,0-.13,0-.09,0-.1l0,0s0,.08,0,.13,0,.09,0,.1.06,0,.09,0,.1-.07.13,0,0,.08,0,.13,0,.09,0,.1.06,0,.09,0,.1-.07.13,0,0,.08,0,.13,0,.09,0,.1Z"/><path class="cls-2" d="M.73,4.64H.27V4.18H.73Zm-.41,0H.68V4.23H.32Z"/><path class="cls-2" d="M2.32,4.81,2,4.46l.35-.35.35.35ZM2,4.46l.28.28.28-.28-.28-.28Z"/><polygon class="cls-2" points="0.23 1.31 0.02 0.8 0.5 0.93 0.32 0.47 0.85 0.61 0.84 0.67 0.41 0.55 0.6 1.01 0.11 0.88 0.28 1.29 0.23 1.31"/><polygon class="cls-2" points="5.69 2.46 5.68 2.43 5.99 2.36 5.72 2.13 6.08 2.06 5.84 1.84 5.87 1.81 6.16 2.08 5.81 2.15 6.08 2.39 5.69 2.46"/><path class="cls-2" d="M2.27,1.55l-.05,0A.39.39,0,0,0,2,1a.4.4,0,0,0-.53.18l-.05,0A.46.46,0,0,1,2.06,1,.45.45,0,0,1,2.27,1.55Z"/><path class="cls-2" d="M5.24.9l0,0a.32.32,0,0,0,0-.25A.33.33,0,0,0,5,.44.33.33,0,0,0,4.6.59l0,0A.38.38,0,0,1,5.07.4a.38.38,0,0,1,.17.5Z"/><path class="cls-2" d="M1.49,4a.21.21,0,0,1-.13,0,.2.2,0,0,1,0-.28l0,0a.18.18,0,0,0,.27.23l0,0A.2.2,0,0,1,1.49,4Z"/><path class="cls-2" d="M5,4.29H5a.17.17,0,0,0-.13-.21.18.18,0,0,0-.21.13h0a.2.2,0,0,1,.09-.13.2.2,0,0,1,.15,0A.2.2,0,0,1,5,4.14.2.2,0,0,1,5,4.29Z"/><path class="cls-2" d="M.38,3.28A.38.38,0,1,1,.76,2.9.38.38,0,0,1,.38,3.28Zm0-.71a.33.33,0,1,0,.33.33A.33.33,0,0,0,.38,2.57Z"/><path class="cls-2" d="M2.74,3.32a.18.18,0,1,1,.18-.18A.18.18,0,0,1,2.74,3.32Zm0-.33a.15.15,0,1,0,.15.15A.15.15,0,0,0,2.74,3Z"/><path class="cls-2" d="M4.84,3.25H4.06l.39-.67Zm-.68-.06h.58l-.29-.5Z"/><path class="cls-2" d="M1,2.22V1.85L1.3,2ZM1,1.9v.27L1.24,2Z"/><path class="cls-2" d="M6,.81H6L5.69.62,6,.44ZM5.75.62,6,.76V.48Z"/><path class="cls-2" d="M5,2H5l-.3-.17L5,1.59Zm-.27-.19L5,1.91V1.64Z"/><path class="cls-2" d="M3.7.58H3.22L3.46.17Zm-.41,0h.35L3.46.24Z"/><path class="cls-2" d="M5.36,5.14s0,0-.06,0,0,0,0,0,0,0,0,0,0,0-.06,0,0,0-.05,0,0,0,0,0,0,0,0,0,0,0-.05,0,0,0-.05,0,0,0,0,0,0,0,0,0,0,0-.05,0,0,0-.05,0,0,0,0,0,0,0,0,0,0,0-.05,0,0,0-.05,0,0,0,0,0,0,0,0,0,0,0-.05,0,0,0-.05,0,0,0,0,0,0,0,0,0,0,0-.05,0,0,0-.05,0,0,0,0,0,0,0,0,0,0,0-.05,0,0,0-.05,0,0,0,0,0,0,0,0,0,0,0-.05,0,0,0-.05,0,0,0,0,0,0,0,0,0,0,0-.05,0,0,0-.05,0,0,0,0,0h0s0,0,.05,0,0,0,0,0,0,0,0,0,0,0,.05,0,0,0,.05,0,0,0,0,0,0,0,0,0,0,0,.05,0,0,0,.05,0,0,0,0,0,0,0,0,0,0,0,.05,0,0,0,.05,0,0,0,0,0,0,0,0,0,0,0,.05,0,0,0,.05,0,0,0,0,0,0,0,0,0,0,0,.05,0,0,0,.05,0,0,0,0,0,0,0,0,0,0,0,.05,0,0,0,.05,0,0,0,0,0,0,0,0,0,0,0,.05,0,0,0,.05,0,0,0,0,0,0,0,0,0,0,0,.05,0,0,0,.05,0,0,0,0,0,0,0,0,0,0,0,.05,0,0,0,.05,0,0,0,0,0,0,0,0,0,0,0,.05,0h0s0,0,0,0S5.39,5.14,5.36,5.14Z"/><path class="cls-2" d="M1.35,3H1.28a.05.05,0,0,1,0,0h0s0,0,0,0a0,0,0,0,1,0,0,.05.05,0,0,1,0,0h0s0,0,0,0a0,0,0,0,1,.06,0h0s0,0,0,0a0,0,0,0,1,0,0,0,0,0,0,1,0,0h0a0,0,0,0,0,0,0,0,0,0,0,1,0,0,0,0,0,0,1,0,0h0s0,0,0,0a0,0,0,0,1,0,0,.05.05,0,0,1,0,0h0a0,0,0,0,0,0,0,0,0,0,0,1,0,0,.05.05,0,0,1,0,0h0a0,0,0,0,0,0,0,0,0,0,0,1,.07,0h0s0,0,0,0a0,0,0,0,1,0,0,.05.05,0,0,1,0,0h0s0,0,0,0a.05.05,0,0,1,0,0,.05.05,0,0,1,0,0h0a0,0,0,0,0,0,0,.05.05,0,0,1,0,0h0a0,0,0,0,0,0,0,.05.05,0,0,1,0,0,.05.05,0,0,1,0,0h0s0,0,0,0a.05.05,0,0,1,0,0,.05.05,0,0,1,0,0h0a0,0,0,0,0,0,0,.05.05,0,0,1,0,0,0,0,0,0,1,0,0h0a0,0,0,0,0,0,0,.05.05,0,0,1,0,0,.05.05,0,0,1,0,0H2s0,0,0,0a.05.05,0,0,1,0,0,.05.05,0,0,1,0,0h0s0,0,0,0a.05.05,0,0,1,0,0,0,0,0,0,1,0,0h0s0,0,0,0a.05.05,0,0,1,0,0,0,0,0,0,1,0,0h0s0,0,0,0a.05.05,0,0,1,0,0,0,0,0,0,1,0,0h0s0,0,0,0a0,0,0,0,1,0,0,.05.05,0,0,1,0,0h0s0,0,0,0a0,0,0,0,1,0,0Z"/><path class="cls-2" d="M2.63.37h0s0,0,0,0,0,0,0,0h0s0,0,0,0,0,0-.06,0,0,0,0,0,0,0,0,0,0,0,0,0,0,0-.06,0,0,0,0,0,0,0,0,0,0,0,0,0,0,0-.06,0,0,0,0,0,0,0,0,0H2s0,0,0,0,0,0-.06,0,0,0,0,0,0,0,0,0,0,0,0,0,0,0-.06,0,0,0,0,0,0,0,0,0h0s0,0,0,0a.07.07,0,0,1-.05,0h0s0,0,0,0,0,0,0,0h0s0,0,0,0a.07.07,0,0,1-.06,0s0,0,0,0,0,0,0,0h0s0,0,0,0a.07.07,0,0,1-.05,0h0s0,0,0,0,0,0,0,0H1s0,0,0,0,0,0-.06,0,0,0,0,0,0,0,0,0V0s0,0,0,0,0,0,0,0,0,0,0,0S1,0,1,0s0,0,0,0,0,0,0,0,0,0,0,0a.07.07,0,0,1,.05,0h0s0,0,0,0,0,0,0,0h0s0,0,0,0a.07.07,0,0,1,.05,0h0s0,0,0,0,0,0,0,0,0,0,0,0,0,0,.06,0,0,0,0,0,0,0,0,0h0s0,0,0,0a.07.07,0,0,1,.05,0h0s0,0,0,0,0,0,0,0h0s0,0,0,0A.07.07,0,0,1,2,.17H2s0,0,0,0,0,0,0,0,0,0,0,0a.07.07,0,0,1,.05,0h0s0,0,0,0,0,0,0,0,0,0,0,0,0,0,.06,0,0,0,0,0,0,0,0,0,0,0,0,0a.07.07,0,0,1,.06,0s0,0,0,0,0,0,0,0,0,0,0,0,0,0,.06,0h0s0,0,0,0A.07.07,0,0,1,2.63.37Z"/><path class="cls-2" d="M5.57,1.36h0s0,0,0,0,0,0,0,0l0,0,0,0h0s0,0,0,0,0,0,0,0h0l0,0,0,0h0s0,0,0,0,0,0,0,0h0l0,0a0,0,0,0,1,0,0s0,0,0,0,0,0,0,0h0l0,0a0,0,0,0,1,0,0s0,0,0,0,0,0,0,0H5l0,0,0,0H5s0,0,0,0,0,0,0,0h0l0,0,0,0h0s0,0,0,0,0,0,0,0l0,0,0,0h0s0,0,0,0,0,0,0,0l0,0,0,0h0s0,0,0,0,0,0,0,0h0l0,0,0,0h0s0,0,0,0,0,0,0,0h0s0,0,0,0,0,0,0,0h0l0,0a0,0,0,0,1,0,0s0,0,0,0,0,0,0,0h0l0,0,0,0h0s0,0,0,0,0,0,0,0h0l0,0,0,0h0s0,0,0,0,0,0,0,0h0l0,0,0,0h0s0,0,0,0,0,0,0,0H5l0,0,0,0H5s0,0,0,0,0,0,0,0h0l0,0,0,0h0s0,0,0,0,0,0,0,0h0l0,0,0,0h0s0,0,0,0,0,0,0,0h0l0,0,0,0h0s0,0,0,0,0,0,0,0l0,0,0,0h0s0,0,0,0,0,0,0,0h0l0,0,0,0h0l0,0Z"/><polygon class="cls-2" points="12.39 4.27 11.88 3.77 11.91 3.74 12.42 4.24 12.39 4.27"/><polygon class="cls-2" points="11.91 4.27 11.88 4.24 12.39 3.74 12.42 3.77 11.91 4.27"/><path class="cls-2" d="M9.5,2.4c-.05,0-.11-.07-.17-.15s-.11-.14-.14-.13l0,0c.06,0,.13.06.2.14s.1.13.13.13h0s0-.12,0-.19,0-.21,0-.24.13.05.19.14.1.13.13.13h0s0-.12,0-.19,0-.21,0-.24.13.06.19.14.1.13.13.13h0l0,0c-.06,0-.13-.06-.19-.14s-.11-.14-.14-.13,0,.12,0,.19,0,.21,0,.24-.13-.06-.19-.14S9.58,2,9.55,2s0,.12,0,.19,0,.21,0,.24Z"/><path class="cls-2" d="M10.26,4.74s0-.08,0-.13,0-.09,0-.1-.06,0-.09,0-.1.07-.13,0,0-.08,0-.13,0-.09,0-.1-.06,0-.09,0-.1.07-.13,0,0-.08,0-.13,0-.09,0-.1l0,0s0,.08,0,.13,0,.09,0,.1.06,0,.09,0,.1-.07.13,0,0,.08,0,.13,0,.09,0,.1.06,0,.09,0,.1-.07.13,0,0,.08,0,.13,0,.09,0,.1Z"/><path class="cls-2" d="M7,4.64H6.52V4.18H7Zm-.41,0h.36V4.23H6.57Z"/><path class="cls-2" d="M8.57,4.81l-.35-.35.35-.35.35.35Zm-.28-.35.28.28.28-.28-.28-.28Z"/><polygon class="cls-2" points="6.48 1.31 6.27 0.8 6.75 0.93 6.57 0.47 7.1 0.61 7.09 0.67 6.66 0.55 6.85 1.01 6.36 0.88 6.53 1.29 6.48 1.31"/><polygon class="cls-2" points="11.94 2.46 11.93 2.43 12.24 2.36 11.97 2.13 12.33 2.06 12.09 1.84 12.12 1.81 12.41 2.08 12.06 2.15 12.33 2.39 11.94 2.46"/><path class="cls-2" d="M8.52,1.55l-.05,0A.39.39,0,0,0,8.29,1a.4.4,0,0,0-.53.18l-.05,0A.46.46,0,0,1,8.32,1,.45.45,0,0,1,8.52,1.55Z"/><path class="cls-2" d="M11.49.9l0,0a.32.32,0,0,0,0-.25.33.33,0,0,0-.17-.19.33.33,0,0,0-.44.15l0,0A.38.38,0,0,1,11.32.4a.38.38,0,0,1,.17.5Z"/><path class="cls-2" d="M7.74,4a.2.2,0,0,1-.13,0,.2.2,0,0,1,0-.28l0,0a.18.18,0,0,0,0,.25.18.18,0,0,0,.25,0l0,0A.2.2,0,0,1,7.74,4Z"/><path class="cls-2" d="M11.25,4.29h0a.17.17,0,0,0-.13-.21.18.18,0,0,0-.21.13h0a.2.2,0,0,1,.24-.15.2.2,0,0,1,.13.09A.2.2,0,0,1,11.25,4.29Z"/><path class="cls-2" d="M6.63,3.28A.38.38,0,1,1,7,2.9.38.38,0,0,1,6.63,3.28Zm0-.71A.33.33,0,1,0,7,2.9.33.33,0,0,0,6.63,2.57Z"/><path class="cls-2" d="M9,3.32a.18.18,0,1,1,.18-.18A.18.18,0,0,1,9,3.32ZM9,3a.15.15,0,1,0,.15.15A.15.15,0,0,0,9,3Z"/><path class="cls-2" d="M11.09,3.25h-.78l.39-.67Zm-.68-.06H11l-.29-.5Z"/><path class="cls-2" d="M7.22,2.22V1.85L7.55,2Zm0-.32v.27L7.49,2Z"/><path class="cls-2" d="M12.27.81h0l-.3-.17.32-.19ZM12,.62l.24.14V.48Z"/><path class="cls-2" d="M11.26,2h0l-.3-.17.32-.18ZM11,1.77l.24.14V1.64Z"/><path class="cls-2" d="M9.95.58H9.47L9.71.17Zm-.41,0h.35L9.71.24Z"/><path class="cls-2" d="M11.61,5.14s0,0-.05,0,0,0,0,0,0,0,0,0,0,0-.05,0,0,0-.05,0,0,0,0,0,0,0,0,0,0,0-.05,0,0,0-.05,0,0,0,0,0,0,0,0,0,0,0-.05,0,0,0-.05,0,0,0,0,0,0,0,0,0,0,0-.05,0,0,0-.05,0,0,0,0,0,0,0,0,0,0,0-.05,0,0,0-.05,0,0,0,0,0,0,0,0,0,0,0-.05,0,0,0-.05,0,0,0,0,0,0,0,0,0,0,0-.05,0,0,0-.05,0,0,0,0,0,0,0,0,0,0,0-.05,0,0,0-.05,0,0,0,0,0,0,0,0,0,0,0-.05,0,0,0-.05,0,0,0,0,0h0s0,0,.05,0,0,0,0,0,0,0,0,0S10,5,10,5s0,0,.05,0,0,0,0,0,0,0,0,0,0,0,.05,0,0,0,.05,0,0,0,0,0,0,0,0,0,0,0,.05,0,0,0,.05,0,0,0,0,0,0,0,0,0,0,0,.05,0,0,0,.05,0,0,0,0,0,0,0,0,0,0,0,.05,0,0,0,.05,0,0,0,0,0,0,0,0,0,0,0,.05,0,0,0,.05,0,0,0,0,0,0,0,0,0,0,0,.05,0,0,0,.05,0,0,0,0,0,0,0,0,0,0,0,.05,0,0,0,.05,0,0,0,0,0,0,0,0,0,0,0,.05,0,0,0,.06,0,0,0,0,0,0,0,0,0,0,0,.05,0h0s0,0,0,0S11.64,5.14,11.61,5.14Z"/><path class="cls-2" d="M7.6,3H7.53a.05.05,0,0,1,0,0h0s0,0,0,0a0,0,0,0,1,0,0,.05.05,0,0,1,0,0h0s0,0,0,0a0,0,0,0,1,0,0,.05.05,0,0,1,0,0h0s0,0,0,0a0,0,0,0,1,0,0,0,0,0,0,1,0,0H8s0,0,0,0a0,0,0,0,1,0,0,0,0,0,0,1,0,0h0s0,0,0,0a.05.05,0,0,1,0,0,.05.05,0,0,1,0,0h0a0,0,0,0,0,0,0,0,0,0,0,1,0,0,.05.05,0,0,1,0,0h0a0,0,0,0,0,0,0,.05.05,0,0,1,0,0,.05.05,0,0,1,0,0h0s0,0,0,0a0,0,0,0,1,0,0,.05.05,0,0,1,0,0h0s0,0,0,0a.05.05,0,0,1,0,0,.05.05,0,0,1,0,0h0a0,0,0,0,0,0,0,.05.05,0,0,1,0,0h0a0,0,0,0,0,0,0,0,0,0,0,1-.07,0h0s0,0,0,0a0,0,0,0,1-.07,0h0a0,0,0,0,0,0,0,.05.05,0,0,1,0,0,.05.05,0,0,1,0,0h0s0,0,0,0a.05.05,0,0,1,0,0,.05.05,0,0,1,0,0h0a0,0,0,0,0,0,0,.05.05,0,0,1,0,0,.05.05,0,0,1,0,0h0s0,0,0,0a0,0,0,0,1,0,0,0,0,0,0,1,0,0H8s0,0,0,0a0,0,0,0,1,0,0,0,0,0,0,1,0,0h0s0,0,0,0a0,0,0,0,1,0,0,0,0,0,0,1,0,0h0a0,0,0,0,0,0,0,0,0,0,0,1,0,0,.05.05,0,0,1,0,0h0a0,0,0,0,0,0,0,.05.05,0,0,1,0,0Z"/><path class="cls-2" d="M8.88.37h0s0,0,0,0,0,0,0,0h0s0,0,0,0,0,0-.06,0,0,0,0,0,0,0,0,0,0,0,0,0,0,0-.06,0,0,0,0,0,0,0,0,0,0,0,0,0,0,0-.06,0,0,0,0,0,0,0,0,0h0s0,0,0,0a.06.06,0,0,1-.06,0s0,0,0,0,0,0,0,0,0,0,0,0,0,0-.06,0,0,0,0,0,0,0,0,0h0s0,0,0,0a.07.07,0,0,1-.05,0h0s0,0,0,0,0,0,0,0h0s0,0,0,0a.07.07,0,0,1-.06,0s0,0,0,0,0,0,0,0h0s0,0,0,0a.07.07,0,0,1-.05,0h0s0,0,0,0,0,0,0,0h0s0,0,0,0,0,0-.06,0,0,0,0,0,0,0,0,0V0s0,0,0,0,0,0,0,0,0,0,0,0,0,0,.06,0,0,0,0,0,0,0,0,0,0,0,0,0a.07.07,0,0,1,.05,0h0s0,0,0,0,0,0,0,0h0s0,0,0,0a.07.07,0,0,1,.05,0h0s0,0,0,0,0,0,0,0,0,0,0,0,0,0,.06,0,0,0,0,0,0,0,0,0h0s0,0,0,0A.07.07,0,0,1,8,.14H8s0,0,0,0,0,0,0,0h0s0,0,0,0a.07.07,0,0,1,.05,0h0s0,0,0,0,0,0,0,0,0,0,0,0a.07.07,0,0,1,.05,0h0s0,0,0,0,0,0,0,0,0,0,0,0,0,0,.06,0,0,0,0,0,0,0,0,0,0,0,0,0a.07.07,0,0,1,.06,0s0,0,0,0,0,0,0,0,0,0,0,0,0,0,.06,0H9s0,0,0,0A.07.07,0,0,1,8.88.37Z"/><path class="cls-2" d="M11.82,1.36h0s0,0,0,0,0,0,0,0l0,0,0,0h0s0,0,0,0,0,0,0,0h0l0,0,0,0h0s0,0,0,0,0,0,0,0h0l0,0s0,0,0,0,0,0,0,0,0,0,0,0h0l0,0s0,0,0,0,0,0,0,0,0,0,0,0h0l0,0,0,0h0s0,0,0,0,0,0,0,0h0l0,0,0,0h0s0,0,0,0,0,0,0,0l0,0,0,0h0s0,0,0,0,0,0,0,0l0,0,0,0h0s0,0,0,0,0,0,0,0h0l0,0,0,0h0s0,0,0,0,0,0,0,0h0s0,0,0,0,0,0,0,0h0l0,0a0,0,0,0,1,0,0s0,0,0,0,0,0,0,0h0l0,0,0,0h0s0,0,0,0,0,0,0,0h0l0,0,0,0h0s0,0,0,0,0,0,0,0h0l0,0,0,0h0s0,0,0,0,0,0,0,0h0l0,0,0,0h0s0,0,0,0,0,0,0,0h0l0,0,0,0h0s0,0,0,0,0,0,0,0h0l0,0,0,0h0s0,0,0,0,0,0,0,0h0l0,0,0,0h0s0,0,0,0,0,0,0,0l0,0,0,0h0s0,0,0,0,0,0,0,0h0l0,0,0,0h0l0,0Z"/><polygon class="cls-2" points="18.72 4.27 18.22 3.77 18.25 3.74 18.75 4.24 18.72 4.27"/><polygon class="cls-2" points="18.25 4.27 18.22 4.24 18.72 3.74 18.75 3.77 18.25 4.27"/><path class="cls-2" d="M15.84,2.4c-.05,0-.11-.07-.17-.15s-.11-.14-.14-.13l0,0c.06,0,.13.06.2.14s.1.13.13.13h0s0-.12,0-.19,0-.21,0-.24.13.05.19.14.1.13.13.13h0s0-.12,0-.19,0-.21,0-.24.13.06.19.14.1.13.13.13h0l0,0c-.06,0-.12-.06-.19-.14s-.11-.14-.14-.13,0,.12,0,.19,0,.21,0,.24-.13-.06-.2-.14S15.91,2,15.88,2s0,.12,0,.19,0,.21,0,.24Z"/><path class="cls-2" d="M16.59,4.74s0-.08,0-.13,0-.09,0-.1-.06,0-.09,0-.1.07-.13,0,0-.08,0-.13,0-.09,0-.1-.06,0-.09,0-.1.07-.13,0,0-.08,0-.13,0-.09,0-.1l0,0s0,.08,0,.13,0,.09,0,.1.06,0,.09,0,.1-.07.13,0,0,.08,0,.13,0,.09,0,.1.06,0,.09,0,.1-.07.13,0,0,.08,0,.13,0,.09,0,.1Z"/><path class="cls-2" d="M13.31,4.64h-.46V4.18h.46Zm-.41,0h.36V4.23H12.9Z"/><path class="cls-2" d="M14.91,4.81l-.35-.35.35-.35.35.35Zm-.28-.35.28.28.28-.28-.28-.28Z"/><polygon class="cls-2" points="12.81 1.31 12.6 0.8 13.09 0.93 12.9 0.47 13.44 0.61 13.42 0.67 12.99 0.55 13.18 1.01 12.7 0.88 12.86 1.29 12.81 1.31"/><polygon class="cls-2" points="18.27 2.46 18.26 2.43 18.57 2.36 18.31 2.13 18.66 2.06 18.42 1.84 18.45 1.81 18.74 2.08 18.39 2.15 18.66 2.39 18.27 2.46"/><path class="cls-2" d="M14.86,1.55l-.05,0A.39.39,0,0,0,14.62,1a.4.4,0,0,0-.53.18l-.05,0A.46.46,0,0,1,14.65,1,.45.45,0,0,1,14.86,1.55Z"/><path class="cls-2" d="M17.82.9l0,0a.32.32,0,0,0,0-.25.33.33,0,0,0-.17-.19.33.33,0,0,0-.44.15l0,0A.38.38,0,0,1,17.65.4a.38.38,0,0,1,.17.5Z"/><path class="cls-2" d="M14.07,4a.2.2,0,0,1-.16-.33l0,0a.17.17,0,0,0,0,.25.18.18,0,0,0,.25,0l0,0A.2.2,0,0,1,14.07,4Z"/><path class="cls-2" d="M17.58,4.29h0a.17.17,0,0,0,0-.13.17.17,0,0,0-.11-.08.18.18,0,0,0-.21.13h0a.2.2,0,0,1,.09-.13.2.2,0,0,1,.15,0,.2.2,0,0,1,.15.24Z"/><path class="cls-2" d="M13,3.28a.38.38,0,1,1,.38-.38A.38.38,0,0,1,13,3.28Zm0-.71a.33.33,0,1,0,.33.33A.33.33,0,0,0,13,2.57Z"/><path class="cls-2" d="M15.33,3.32a.18.18,0,1,1,.18-.18A.18.18,0,0,1,15.33,3.32Zm0-.33a.15.15,0,1,0,.15.15A.15.15,0,0,0,15.33,3Z"/><path class="cls-2" d="M17.42,3.25h-.78L17,2.58Zm-.68-.06h.58L17,2.69Z"/><path class="cls-2" d="M13.56,2.22V1.85l.32.19Zm0-.32v.27L13.82,2Z"/><path class="cls-2" d="M18.6.81h0l-.3-.17L18.6.44ZM18.33.62l.24.14V.48Z"/><path class="cls-2" d="M17.59,2h0l-.3-.17.32-.18Zm-.27-.19.24.14V1.64Z"/><path class="cls-2" d="M16.28.58H15.8L16,.17Zm-.41,0h.35L16,.24Z"/><path class="cls-2" d="M17.94,5.14s0,0-.06,0,0,0,0,0,0,0,0,0,0,0-.05,0,0,0-.05,0,0,0,0,0,0,0,0,0,0,0-.05,0,0,0-.05,0,0,0,0,0,0,0,0,0,0,0-.05,0,0,0-.05,0,0,0,0,0,0,0,0,0,0,0-.05,0,0,0-.05,0,0,0,0,0,0,0,0,0,0,0-.05,0,0,0-.05,0,0,0,0,0,0,0,0,0,0,0-.05,0,0,0-.05,0,0,0,0,0,0,0,0,0,0,0-.05,0,0,0-.05,0,0,0,0,0,0,0,0,0,0,0-.05,0,0,0-.05,0,0,0,0,0,0,0,0,0,0,0-.05,0,0,0-.05,0,0,0,0,0h0s0,0,.05,0,0,0,0,0,0,0,0,0,0,0,.05,0,0,0,.05,0,0,0,0,0,0,0,0,0,0,0,.05,0,0,0,.05,0,0,0,0,0,0,0,0,0,0,0,.05,0,0,0,.05,0,0,0,0,0,0,0,0,0,0,0,.05,0,0,0,.05,0,0,0,0,0,0,0,0,0,0,0,.05,0,0,0,.05,0,0,0,0,0,0,0,0,0,0,0,.05,0,0,0,.05,0,0,0,0,0,0,0,0,0,0,0,.05,0,0,0,.05,0,0,0,0,0,0,0,0,0,0,0,.05,0,0,0,.05,0,0,0,0,0,0,0,0,0,0,0,.05,0,0,0,.05,0,0,0,0,0,0,0,0,0S18,5,18,5h0s0,0,0,0S18,5.14,17.94,5.14Z"/><path class="cls-2" d="M13.93,3h-.07a.05.05,0,0,1,0,0h0s0,0,0,0a0,0,0,0,1,0,0,.05.05,0,0,1,0,0h0a0,0,0,0,0,0,0,0,0,0,0,1,0,0,0,0,0,0,1,0,0h0s0,0,0,0a0,0,0,0,1,0,0,0,0,0,0,1,0,0h0s0,0,0,0a0,0,0,0,1,0,0,0,0,0,0,1,0,0h0s0,0,0,0a0,0,0,0,1,0,0,.05.05,0,0,1,0,0h0s0,0,0,0a0,0,0,0,1,0,0,.05.05,0,0,1,0,0h0s0,0,0,0a.05.05,0,0,1,0,0,.05.05,0,0,1,0,0h0s0,0,0,0a0,0,0,0,1,0,0,.05.05,0,0,1,0,0h0s0,0,0,0a0,0,0,0,1,.07,0h0a0,0,0,0,0,0,0,0,0,0,0,1,0,0h0s0,0,0,0a.05.05,0,0,1,0,0,.05.05,0,0,1,0,0h0s0,0,0,0a.05.05,0,0,1,0,0,.05.05,0,0,1,0,0h0a0,0,0,0,0,0,0,0,0,0,0,1-.06,0h0a0,0,0,0,0,0,0,.05.05,0,0,1,0,0,.05.05,0,0,1,0,0h0s0,0,0,0a.06.06,0,0,1,0,0,.05.05,0,0,1,0,0h0a0,0,0,0,0,0,0,0,0,0,0,1,0,0,0,0,0,0,1,0,0h0s0,0,0,0a0,0,0,0,1,0,0,0,0,0,0,1,0,0h0s0,0,0,0a0,0,0,0,1,0,0,0,0,0,0,1,0,0h0s0,0,0,0a0,0,0,0,1-.06,0h0s0,0,0,0a0,0,0,0,1,0,0Z"/><path class="cls-2" d="M15.21.37h0s0,0,0,0,0,0,0,0h0s0,0,0,0,0,0-.06,0,0,0,0,0,0,0,0,0,0,0,0,0,0,0-.06,0,0,0,0,0,0,0,0,0,0,0,0,0,0,0-.06,0,0,0,0,0,0,0,0,0h0s0,0,0,0,0,0-.06,0,0,0,0,0,0,0,0,0,0,0,0,0,0,0-.06,0,0,0,0,0,0,0,0,0h0s0,0,0,0a.07.07,0,0,1-.05,0h0s0,0,0,0,0,0,0,0h0s0,0,0,0,0,0-.06,0,0,0,0,0,0,0,0,0h0s0,0,0,0,0,0-.05,0h0s0,0,0,0,0,0,0,0h0s0,0,0,0,0,0-.06,0,0,0,0,0,0,0,0,0V0s0,0,0,0,0,0,0,0,0,0,0,0,0,0,.06,0,0,0,0,0,0,0,0,0,0,0,0,0a.07.07,0,0,1,.05,0h0s0,0,0,0,0,0,0,0h0s0,0,0,0a.07.07,0,0,1,.05,0h0s0,0,0,0,0,0,0,0,0,0,0,0,0,0,.06,0,0,0,0,0,0,0,0,0h0s0,0,0,0a.07.07,0,0,1,.05,0h0s0,0,0,0,0,0,0,0h0s0,0,0,0a.07.07,0,0,1,.05,0h0s0,0,0,0,0,0,0,0,0,0,0,0a.08.08,0,0,1,.05,0h0s0,0,0,0,0,0,0,0,0,0,0,0,0,0,.06,0,0,0,0,0,0,0,0,0,0,0,0,0a.07.07,0,0,1,.06,0s0,0,0,0,0,0,0,0,0,0,0,0,0,0,.06,0h0s0,0,0,0A.07.07,0,0,1,15.21.37Z"/><path class="cls-2" d="M18.15,1.36h0s0,0,0,0,0,0,0,0l0,0,0,0h0s0,0,0,0,0,0,0,0h0l0,0,0,0h0s0,0,0,0,0,0,0,0h0l0,0a0,0,0,0,1,0,0s0,0,0,0,0,0,0,0h0l0,0a0,0,0,0,1,0,0s0,0,0,0,0,0,0,0h0l0,0,0,0h0s0,0,0,0,0,0,0,0h0l0,0,0,0h0s0,0,0,0,0,0,0,0l0,0,0,0h0s0,0,0,0,0,0,0,0l0,0,0,0h0s0,0,0,0,0,0,0,0h0l0,0,0,0h0s0,0,0,0,0,0,0,0h0a0,0,0,0,1,0,0s0,0,0,0h0l0,0s0,0,0,0,0,0,0,0,0,0,0,0h0l0,0,0,0h0s0,0,0,0,0,0,0,0h0l0,0,0,0h0s0,0,0,0,0,0,0,0h0l0,0,0,0h0s0,0,0,0,0,0,0,0h0l0,0,0,0h0s0,0,0,0,0,0,0,0h0l0,0,0,0h0s0,0,0,0,0,0,0,0h0l0,0,0,0h0s0,0,0,0,0,0,0,0h0l0,0,0,0h0s0,0,0,0,0,0,0,0l0,0,0,0h0s0,0,0,0,0,0,0,0h0l0,0,0,0h0l0,0Z"/><polygon class="cls-2" points="24.97 4.27 24.47 3.77 24.5 3.74 25 4.24 24.97 4.27"/><polygon class="cls-2" points="24.5 4.27 24.47 4.24 24.97 3.74 25 3.77 24.5 4.27"/><path class="cls-2" d="M22.09,2.4c-.05,0-.11-.07-.17-.15s-.11-.14-.14-.13l0,0c.06,0,.13.06.2.14s.1.13.13.13h0s0-.12,0-.19,0-.21,0-.24.13.05.2.14.1.13.13.13h0s0-.12,0-.19,0-.21,0-.24.13.06.19.14.1.13.13.13h0l0,0c-.06,0-.13-.06-.19-.14s-.11-.14-.14-.13,0,.12,0,.19,0,.21,0,.24-.13-.06-.2-.14S22.16,2,22.14,2s0,.12,0,.19,0,.21,0,.24Z"/><path class="cls-2" d="M22.84,4.74s0-.08,0-.13,0-.09,0-.1-.06,0-.09,0-.1.07-.13,0,0-.08,0-.13,0-.09,0-.1-.06,0-.09,0-.1.07-.12,0,0-.08,0-.13,0-.09,0-.1l0,0s0,.08,0,.13,0,.09,0,.1.06,0,.09,0,.1-.07.13,0,0,.08,0,.13,0,.09,0,.1.06,0,.09,0,.1-.07.13,0,0,.08,0,.13,0,.09,0,.1Z"/><path class="cls-2" d="M19.56,4.64H19.1V4.18h.46Zm-.41,0h.36V4.23h-.36Z"/><path class="cls-2" d="M21.16,4.81l-.35-.35.35-.35.35.35Zm-.28-.35.28.28.28-.28-.28-.28Z"/><polygon class="cls-2" points="19.06 1.31 18.85 0.8 19.34 0.93 19.15 0.47 19.69 0.61 19.67 0.67 19.24 0.55 19.43 1.01 18.95 0.88 19.11 1.29 19.06 1.31"/><polygon class="cls-2" points="24.52 2.46 24.51 2.43 24.82 2.36 24.56 2.13 24.91 2.06 24.67 1.84 24.7 1.81 24.99 2.08 24.64 2.15 24.91 2.39 24.52 2.46"/><path class="cls-2" d="M21.11,1.55l-.05,0A.39.39,0,0,0,20.87,1a.4.4,0,0,0-.53.18l-.05,0A.46.46,0,0,1,20.9,1,.45.45,0,0,1,21.11,1.55Z"/><path class="cls-2" d="M24.07.9l0,0a.32.32,0,0,0,0-.25.32.32,0,0,0-.17-.19.33.33,0,0,0-.44.15l0,0A.38.38,0,0,1,23.9.4a.38.38,0,0,1,.17.5Z"/><path class="cls-2" d="M20.32,4a.2.2,0,0,1-.15-.33l0,0a.17.17,0,0,0,0,.25.18.18,0,0,0,.25,0l0,0A.21.21,0,0,1,20.32,4Z"/><path class="cls-2" d="M23.83,4.29h0a.17.17,0,0,0,0-.13.17.17,0,0,0-.11-.08.18.18,0,0,0-.13,0,.17.17,0,0,0-.08.11h0a.2.2,0,0,1,.09-.13.2.2,0,0,1,.15,0,.21.21,0,0,1,.13.09A.2.2,0,0,1,23.83,4.29Z"/><path class="cls-2" d="M19.21,3.28a.38.38,0,1,1,.38-.38A.38.38,0,0,1,19.21,3.28Zm0-.71a.33.33,0,1,0,.33.33A.33.33,0,0,0,19.21,2.57Z"/><path class="cls-2" d="M21.58,3.32a.18.18,0,1,1,.18-.18A.18.18,0,0,1,21.58,3.32Zm0-.33a.15.15,0,1,0,.15.15A.15.15,0,0,0,21.58,3Z"/><path class="cls-2" d="M23.67,3.25h-.78l.39-.67ZM23,3.19h.58l-.29-.5Z"/><path class="cls-2" d="M19.81,2.22V1.85l.32.19Zm0-.32v.27L20.07,2Z"/><path class="cls-2" d="M24.85.81h0l-.3-.17.32-.19ZM24.58.62l.24.14V.48Z"/><path class="cls-2" d="M23.84,2h0l-.3-.17.32-.18Zm-.27-.19.24.14V1.64Z"/><path class="cls-2" d="M22.53.58h-.47l.24-.41Zm-.41,0h.35l-.18-.3Z"/><path class="cls-2" d="M24.19,5.14s0,0-.05,0,0,0,0,0,0,0,0,0,0,0-.06,0,0,0-.05,0,0,0,0,0,0,0,0,0,0,0-.05,0,0,0-.05,0,0,0,0,0,0,0,0,0,0,0-.05,0,0,0-.05,0,0,0,0,0,0,0,0,0,0,0-.05,0,0,0-.05,0,0,0,0,0,0,0,0,0,0,0-.05,0,0,0-.05,0,0,0,0,0,0,0,0,0,0,0-.05,0,0,0-.05,0,0,0,0,0,0,0,0,0,0,0-.05,0,0,0-.05,0,0,0,0,0,0,0,0,0,0,0-.05,0,0,0-.05,0,0,0,0,0,0,0,0,0,0,0-.05,0,0,0-.05,0,0,0,0,0h0s0,0,.05,0,0,0,0,0,0,0,0,0,0,0,.05,0,0,0,.05,0,0,0,0,0,0,0,0,0,0,0,.05,0,0,0,.05,0,0,0,0,0,0,0,0,0,0,0,.05,0,0,0,.05,0,0,0,0,0,0,0,0,0,0,0,.05,0,0,0,.05,0,0,0,0,0,0,0,0,0,0,0,.05,0,0,0,.05,0,0,0,0,0,0,0,0,0,0,0,.05,0,0,0,.05,0,0,0,0,0,0,0,0,0,0,0,.05,0,0,0,.05,0,0,0,0,0,0,0,0,0,0,0,.05,0,0,0,.05,0,0,0,0,0,0,0,0,0,0,0,.05,0,0,0,.05,0,0,0,0,0,0,0,0,0,0,0,.05,0h0s0,0,0,0S24.22,5.14,24.19,5.14Z"/><path class="cls-2" d="M20.18,3h-.07a.05.05,0,0,1,0,0h0s0,0,0,0a0,0,0,0,1,0,0,.05.05,0,0,1,0,0h0s0,0,0,0a.05.05,0,0,1,0,0,0,0,0,0,1,0,0h0s0,0,0,0a0,0,0,0,1,0,0,0,0,0,0,1,0,0h0s0,0,0,0a0,0,0,0,1,0,0,0,0,0,0,1,0,0h0s0,0,0,0a0,0,0,0,1,.07,0h0s0,0,0,0a0,0,0,0,1,0,0,.05.05,0,0,1,0,0h0a0,0,0,0,0,0,0,.05.05,0,0,1,0,0,.05.05,0,0,1,0,0h0a0,0,0,0,0,0,0,0,0,0,0,1,0,0,.05.05,0,0,1,0,0h0s0,0,0,0a.05.05,0,0,1,0,0,.05.05,0,0,1,0,0h0a0,0,0,0,0,0,0,.05.05,0,0,1,0,0h0a0,0,0,0,0,0,0,.05.05,0,0,1,0,0,.05.05,0,0,1,0,0h0s0,0,0,0a0,0,0,0,1,0,0,.05.05,0,0,1,0,0h0s0,0,0,0a.05.05,0,0,1,0,0,0,0,0,0,1,0,0h0s0,0,0,0a0,0,0,0,1-.07,0h0s0,0,0,0a0,0,0,0,1-.07,0h0s0,0,0,0a.05.05,0,0,1,0,0,0,0,0,0,1,0,0h0s0,0,0,0a0,0,0,0,1,0,0,0,0,0,0,1,0,0h0s0,0,0,0a0,0,0,0,1-.06,0h0s0,0,0,0a0,0,0,0,1,0,0,0,0,0,0,1,0,0h0a0,0,0,0,0,0,0,0,0,0,0,1,0,0Z"/><path class="cls-2" d="M21.46.37h0s0,0,0,0,0,0,0,0h0s0,0,0,0,0,0-.06,0,0,0,0,0,0,0,0,0,0,0,0,0,0,0-.06,0,0,0,0,0,0,0,0,0,0,0,0,0,0,0-.06,0,0,0,0,0,0,0,0,0h0s0,0,0,0,0,0-.06,0,0,0,0,0,0,0,0,0,0,0,0,0,0,0-.06,0,0,0,0,0,0,0,0,0h0s0,0,0,0a.07.07,0,0,1-.05,0h0s0,0,0,0,0,0,0,0h0s0,0,0,0a.07.07,0,0,1-.06,0s0,0,0,0,0,0,0,0h0s0,0,0,0a.07.07,0,0,1-.05,0h0s0,0,0,0,0,0,0,0h0s0,0,0,0,0,0-.06,0,0,0,0,0,0,0,0,0V0s0,0,0,0,0,0,0,0,0,0,0,0,0,0,.06,0,0,0,0,0,0,0,0,0,0,0,0,0a.07.07,0,0,1,.05,0h0s0,0,0,0,0,0,0,0h0s0,0,0,0a.07.07,0,0,1,.05,0h0s0,0,0,0,0,0,0,0,0,0,0,0,0,0,.06,0,0,0,0,0,0,0,0,0h0s0,0,0,0a.07.07,0,0,1,.05,0h0s0,0,0,0,0,0,0,0h0s0,0,0,0a.07.07,0,0,1,.05,0h0s0,0,0,0,0,0,0,0,0,0,0,0A.07.07,0,0,1,21,.2h0s0,0,0,0,0,0,0,0,0,0,0,0,0,0,.06,0,0,0,0,0,0,0,0,0,0,0,0,0a.07.07,0,0,1,.06,0s0,0,0,0,0,0,0,0,0,0,0,0,0,0,.06,0h0s0,0,0,0A.07.07,0,0,1,21.46.37Z"/><path class="cls-2" d="M24.4,1.36h0s0,0,0,0,0,0,0,0l0,0,0,0h0s0,0,0,0,0,0,0,0h0l0,0,0,0h0s0,0,0,0,0,0,0,0h0l0,0s0,0,0,0,0,0,0,0,0,0,0,0h0l0,0s0,0,0,0,0,0,0,0,0,0,0,0h0l0,0,0,0h0s0,0,0,0,0,0,0,0h0l0,0,0,0h0s0,0,0,0,0,0,0,0l0,0,0,0h0s0,0,0,0,0,0,0,0l0,0,0,0h0s0,0,0,0,0,0,0,0h0l0,0,0,0h0s0,0,0,0,0,0,0,0h0s0,0,0,0,0,0,0,0h0l0,0a0,0,0,0,1,0,0s0,0,0,0,0,0,0,0h0l0,0,0,0h0s0,0,0,0,0,0,0,0h0l0,0,0,0h0s0,0,0,0,0,0,0,0h0l0,0,0,0h0s0,0,0,0,0,0,0,0h0l0,0,0,0h0s0,0,0,0,0,0,0,0h0l0,0,0,0h0s0,0,0,0,0,0,0,0h0l0,0,0,0h0s0,0,0,0,0,0,0,0h0l0,0,0,0h0s0,0,0,0,0,0,0,0l0,0,0,0h0s0,0,0,0,0,0,0,0h0l0,0,0,0h0l0,0Z"/><polygon class="cls-2" points="24.02 6.18 24.68 5.52 24.64 5.48 23.98 6.14 24.02 6.18"/><polygon class="cls-2" points="24.64 6.18 24.68 6.14 24.02 5.48 23.98 5.52 24.64 6.18"/><polygon class="cls-2" points="18.86 11.01 19.37 10.51 19.34 10.48 18.83 10.98 18.86 11.01"/><polygon class="cls-2" points="19.34 11.01 19.37 10.98 18.86 10.48 18.83 10.51 19.34 11.01"/><path class="cls-2" d="M21.95,6.15c.07,0,.09-.1.12-.21s0-.17.08-.17.06.1.07.17.05.21.12.21.09-.1.12-.21,0-.17.07-.17.06.1.07.17.05.21.12.21.09-.1.12-.21,0-.17.07-.17v0c-.07,0-.09.1-.12.21s0,.17-.07.17-.06-.1-.07-.17-.05-.21-.12-.21-.09.1-.12.21,0,.17-.07.17-.06-.1-.07-.17-.05-.21-.12-.21-.09.1-.12.21,0,.17-.07.17Z"/><path class="cls-2" d="M21.75,9.13c.05,0,.11-.07.17-.15s.11-.14.14-.13l0,0c-.06,0-.13.06-.19.14s-.1.13-.13.13h0s0-.12,0-.19,0-.21,0-.24-.13.05-.2.14-.1.13-.13.13h0s0-.12,0-.19,0-.21,0-.24-.13.06-.19.14-.1.13-.13.13h0l0,0c.06,0,.13-.06.19-.14s.11-.14.14-.13,0,.12,0,.19,0,.21,0,.24.13-.06.19-.14.11-.14.14-.13,0,.12,0,.19,0,.21,0,.24Z"/><path class="cls-2" d="M21,11.47s0-.08,0-.13,0-.09,0-.1.06,0,.09,0,.1.07.13,0,0-.08,0-.13,0-.09,0-.1.06,0,.09,0,.1.07.13,0,0-.08,0-.13,0-.09,0-.1l0,0s0,.08,0,.13,0,.09,0,.1-.06,0-.09,0-.1-.07-.13,0,0,.08,0,.13,0,.09,0,.1-.06,0-.09,0-.1-.07-.13,0,0,.08,0,.13,0,.09,0,.1Z"/><path class="cls-2" d="M20.67,5.51h.71v.71h-.71Zm.64.08h-.56v.56h.56Z"/><path class="cls-2" d="M24.27,10.92h.46v.45h-.46Zm.41,0h-.36v.36h.36Z"/><path class="cls-2" d="M18.95,5.88l.52-.52.52.52-.52.52Zm.52-.41-.42.41.42.41.42-.41Z"/><path class="cls-2" d="M22.32,11.2l.35-.35.35.35-.35.35Zm.35-.28-.28.28.28.28L23,11.2Z"/><polygon class="cls-2" points="24.77 8.05 24.98 7.54 24.5 7.67 24.68 7.21 24.15 7.35 24.16 7.4 24.59 7.29 24.4 7.75 24.89 7.62 24.72 8.03 24.77 8.05"/><polygon class="cls-2" points="19.31 9.2 19.32 9.16 19.01 9.1 19.28 8.87 18.93 8.79 19.16 8.58 19.14 8.55 18.84 8.82 19.19 8.89 18.92 9.13 19.31 9.2"/><path class="cls-2" d="M22.73,8.29l.05,0A.39.39,0,0,1,23,7.74a.4.4,0,0,1,.53.18l.05,0a.46.46,0,0,0-.61-.21A.45.45,0,0,0,22.73,8.29Z"/><path class="cls-2" d="M19.76,7.64l0,0A.33.33,0,0,1,20,7.18a.33.33,0,0,1,.44.15l0,0a.38.38,0,0,0-.51-.17.38.38,0,0,0-.17.5Z"/><path class="cls-2" d="M23.51,10.71a.21.21,0,0,0,.13,0,.2.2,0,0,0,0-.28l0,0a.18.18,0,0,1-.27.23l0,0A.2.2,0,0,0,23.51,10.71Z"/><path class="cls-2" d="M20,11h0a.17.17,0,0,1,0-.13.17.17,0,0,1,.11-.08.18.18,0,0,1,.21.13h0a.2.2,0,0,0-.24-.15.2.2,0,0,0-.13.09A.2.2,0,0,0,20,11Z"/><path class="cls-2" d="M24.24,9.64a.38.38,0,1,1,.38.38A.38.38,0,0,1,24.24,9.64Zm0,0a.33.33,0,1,0,.33-.33A.33.33,0,0,0,24.29,9.64Z"/><path class="cls-2" d="M22.08,9.88a.18.18,0,1,1,.18.18A.18.18,0,0,1,22.08,9.88Zm0,0a.15.15,0,1,0,.15-.15A.15.15,0,0,0,22.1,9.88Z"/><path class="cls-2" d="M20.55,9.32l.39.67h-.78Zm0,.12-.29.5h.58Z"/><path class="cls-2" d="M23.7,8.78,24,8.59V9Zm.06,0,.24.14V8.64Z"/><path class="cls-2" d="M19,7.17l.32.19-.3.17h0Zm0,0V7.5l.24-.14Z"/><path class="cls-2" d="M20,8.33l.32.18-.3.17h0Zm0,0v.27l.24-.14Z"/><path class="cls-2" d="M21.54,6.91l.24.41H21.3Zm0,.07-.18.3h.35Z"/><path class="cls-2" d="M19.64,11.88s0,0,.06,0,0,0,0,0,0,0,0,0,0,0,.05,0,0,0,.05,0,0,0,0,0,0,0,0,0,0,0,.05,0,0,0,.05,0,0,0,0,0,0,0,0,0,0,0,.05,0,0,0,.05,0,0,0,0,0,0,0,0,0,0,0,.05,0,0,0,.05,0,0,0,0,0,0,0,0,0,0,0,.05,0,0,0,.05,0,0,0,0,0,0,0,0,0,0,0,.05,0,0,0,.05,0,0,0,0,0,0,0,0,0,0,0,.05,0,0,0,.05,0,0,0,0,0,0,0,0,0,0,0,.05,0,0,0,.05,0,0,0,0,0,0,0,0,0,0,0,.05,0,0,0,.05,0,0,0,0,0h0s0,0-.05,0,0,0,0,0,0,0,0,0,0,0-.05,0,0,0-.05,0,0,0,0,0,0,0,0,0,0,0-.05,0,0,0-.05,0,0,0,0,0,0,0,0,0,0,0-.05,0,0,0-.05,0,0,0,0,0,0,0,0,0,0,0-.05,0,0,0-.05,0,0,0,0,0,0,0,0,0,0,0-.05,0,0,0-.05,0,0,0,0,0,0,0,0,0,0,0-.05,0,0,0-.05,0,0,0,0,0,0,0,0,0,0,0-.05,0,0,0-.05,0,0,0,0,0,0,0,0,0,0,0-.05,0,0,0-.05,0,0,0,0,0,0,0,0,0,0,0-.05,0,0,0-.05,0,0,0,0,0,0,0,0,0,0,0-.05,0h0s0,0,0,0S19.61,11.88,19.64,11.88Z"/><path class="cls-2" d="M23.65,9.77h.07a.05.05,0,0,0,0,0h0s0,0,0,0a0,0,0,0,0,0,0,.05.05,0,0,0,0,0h0s0,0,0,0a0,0,0,0,0-.06,0h0a0,0,0,0,1,0,0,0,0,0,0,0,0,0,0,0,0,0,0,0,0h0s0,0,0,0a.05.05,0,0,0,0,0,.05.05,0,0,0,0,0h0s0,0,0,0a.05.05,0,0,0,0,0,.06.06,0,0,0,0,0h0a0,0,0,0,1,0,0,0,0,0,0,0,0,0,.05.05,0,0,0,0,0h0s0,0,0,0a.05.05,0,0,0,0,0,.05.05,0,0,0,0,0h0s0,0,0,0a.05.05,0,0,0,0,0,.05.05,0,0,0,0,0h0a0,0,0,0,1,0,0,0,0,0,0,0-.07,0h0a0,0,0,0,1,0,0,.05.05,0,0,0,0,0h0a0,0,0,0,1,0,0,.05.05,0,0,0,0,0,.05.05,0,0,0,0,0h0s0,0,0,0a.05.05,0,0,0,0,0,.05.05,0,0,0,0,0h0s0,0,0,0a0,0,0,0,0,.07,0h0s0,0,0,0a.05.05,0,0,0,0,0,.05.05,0,0,0,0,0h0a0,0,0,0,1,0,0,0,0,0,0,0,0,0,.05.05,0,0,0,0,0h0a0,0,0,0,1,0,0,.05.05,0,0,0,0,0,0,0,0,0,0,0,0h0a0,0,0,0,1,0,0,0,0,0,0,0,0,0,0,0,0,0,0,0,0h0s0,0,0,0a.05.05,0,0,0,0,0,0,0,0,0,0,0,0h0a0,0,0,0,1,0,0,0,0,0,0,0,0,0,.05.05,0,0,0,0,0h0s0,0,0,0a0,0,0,0,0,0,0Z"/><path class="cls-2" d="M22.37,7.1h0s0,0,0,0,0,0,0,0h0s0,0,0,0a.07.07,0,0,0,.06,0s0,0,0,0,0,0,0,0,0,0,0,0,0,0,.06,0,0,0,0,0,0,0,0,0,0,0,0,0,0,0,.06,0,0,0,0,0,0,0,0,0h0s0,0,0,0,0,0,.06,0,0,0,0,0,0,0,0,0,0,0,0,0,0,0,.06,0,0,0,0,0,0,0,0,0h0s0,0,0,0a.07.07,0,0,0,.05,0h0s0,0,0,0,0,0,0,0h0s0,0,0,0,0,0,.06,0,0,0,0,0,0,0,0,0h0s0,0,0,0a.07.07,0,0,0,.05,0h0s0,0,0,0,0,0,0,0h0s0,0,0,0,0,0,.06,0,0,0,0,0,0,0,0,0v0s0,0,0,0,0,0,0,0,0,0,0,0,0,0-.06,0,0,0,0,0,0,0,0,0,0,0,0,0a.07.07,0,0,0-.05,0h0s0,0,0,0,0,0,0,0h0s0,0,0,0a.07.07,0,0,0-.05,0h0s0,0,0,0,0,0,0,0,0,0,0,0a.06.06,0,0,0-.06,0s0,0,0,0,0,0,0,0h0s0,0,0,0a.07.07,0,0,0-.05,0h0s0,0,0,0,0,0,0,0h0s0,0,0,0a.07.07,0,0,0-.05,0h0s0,0,0,0,0,0,0,0,0,0,0,0a.08.08,0,0,0-.05,0h0s0,0,0,0,0,0,0,0,0,0,0,0,0,0-.06,0,0,0,0,0,0,0,0,0,0,0,0,0a.07.07,0,0,0-.06,0s0,0,0,0,0,0,0,0,0,0,0,0a.07.07,0,0,0-.06,0h0s0,0,0,0A.07.07,0,0,0,22.37,7.1Z"/><path class="cls-2" d="M19.43,8.1h0s0,0,0,0,0,0,0,0l0,0,0,0h0s0,0,0,0,0,0,0,0h0l0,0,0,0h0s0,0,0,0,0,0,0,0h0l0,0a0,0,0,0,0,0,0s0,0,0,0,0,0,0,0h0l0,0a0,0,0,0,0,0,0s0,0,0,0,0,0,0,0h0l0,0,0,0h0s0,0,0,0,0,0,0,0h0l0,0,0,0h0s0,0,0,0,0,0,0,0l0,0,0,0h0s0,0,0,0,0,0,0,0l0,0,0,0h0s0,0,0,0,0,0,0,0h0l0,0,0,0h0s0,0,0,0,0,0,0,0h0s0,0,0,0,0,0,0,0h0l0,0a0,0,0,0,0,0,0s0,0,0,0,0,0,0,0h0l0,0,0,0h0s0,0,0,0,0,0,0,0h0l0,0,0,0h0s0,0,0,0,0,0,0,0h0l0,0,0,0h0s0,0,0,0,0,0,0,0h0l0,0,0,0h0s0,0,0,0,0,0,0,0h0l0,0,0,0h0s0,0,0,0,0,0,0,0h0l0,0,0,0h0s0,0,0,0,0,0,0,0h0l0,0,0,0h0s0,0,0,0,0,0,0,0l0,0,0,0h0s0,0,0,0,0,0,0,0h0l0,0,0,0h0l0,0Z"/><polygon class="cls-2" points="17.77 6.18 18.43 5.52 18.39 5.48 17.73 6.14 17.77 6.18"/><polygon class="cls-2" points="18.39 6.18 18.43 6.14 17.77 5.48 17.73 5.52 18.39 6.18"/><polygon class="cls-2" points="12.61 11.01 13.12 10.51 13.09 10.48 12.58 10.98 12.61 11.01"/><polygon class="cls-2" points="13.09 11.01 13.12 10.98 12.61 10.48 12.58 10.51 13.09 11.01"/><path class="cls-2" d="M15.7,6.15c.07,0,.09-.1.12-.21s0-.17.07-.17.06.1.08.17.05.21.12.21.09-.1.12-.21,0-.17.07-.17.06.1.07.17.05.21.12.21.09-.1.12-.21,0-.17.07-.17v0c-.07,0-.09.1-.12.21s0,.17-.07.17-.06-.1-.08-.17-.05-.21-.12-.21-.09.1-.12.21,0,.17-.07.17S16,6,16,5.93s-.05-.21-.12-.21-.09.1-.12.21,0,.17-.08.17Z"/><path class="cls-2" d="M15.5,9.13c.05,0,.11-.07.17-.15s.11-.14.14-.13l0,0c-.06,0-.13.06-.19.14s-.1.13-.13.13h0s0-.12,0-.19,0-.21,0-.24-.13.05-.19.14-.1.13-.13.13h0s0-.12,0-.19,0-.21,0-.24-.13.06-.19.14-.1.13-.13.13h0l0,0c.06,0,.13-.06.19-.14s.11-.14.14-.13,0,.12,0,.19,0,.21,0,.24.13-.06.19-.14.11-.14.14-.13,0,.12,0,.19,0,.21,0,.24Z"/><path class="cls-2" d="M14.74,11.47s0-.08,0-.13,0-.09,0-.1.06,0,.09,0,.1.07.13,0,0-.08,0-.13,0-.09,0-.1.06,0,.09,0,.1.07.13,0,0-.08,0-.13,0-.09,0-.1l0,0s0,.08,0,.13,0,.09,0,.1-.06,0-.09,0-.1-.07-.12,0,0,.08,0,.13,0,.09,0,.1-.06,0-.09,0-.1-.07-.13,0,0,.08,0,.13,0,.09,0,.1Z"/><path class="cls-2" d="M14.42,5.51h.72v.71h-.72Zm.64.08H14.5v.56h.56Z"/><path class="cls-2" d="M18,10.92h.46v.45H18Zm.41,0h-.36v.36h.36Z"/><path class="cls-2" d="M12.7,5.88l.52-.52.52.52-.52.52Zm.52-.41-.42.41.42.41.42-.41Z"/><path class="cls-2" d="M16.07,11.2l.35-.35.35.35-.35.35Zm.35-.28-.28.28.28.28.28-.28Z"/><polygon class="cls-2" points="18.52 8.05 18.73 7.54 18.25 7.67 18.43 7.21 17.9 7.35 17.91 7.4 18.34 7.29 18.15 7.75 18.64 7.62 18.47 8.03 18.52 8.05"/><polygon class="cls-2" points="13.06 9.2 13.07 9.16 12.76 9.1 13.03 8.87 12.67 8.79 12.91 8.58 12.88 8.55 12.59 8.82 12.94 8.89 12.67 9.13 13.06 9.2"/><path class="cls-2" d="M16.48,8.29l.05,0a.39.39,0,0,1,.18-.52.4.4,0,0,1,.53.18l.05,0a.46.46,0,0,0-.61-.21A.45.45,0,0,0,16.48,8.29Z"/><path class="cls-2" d="M13.51,7.64l0,0a.32.32,0,0,1,0-.25.33.33,0,0,1,.17-.19.33.33,0,0,1,.44.15l0,0a.38.38,0,0,0-.51-.17.38.38,0,0,0-.17.5Z"/><path class="cls-2" d="M17.26,10.71a.2.2,0,0,0,.16-.33l0,0a.18.18,0,0,1-.27.23l0,0A.2.2,0,0,0,17.26,10.71Z"/><path class="cls-2" d="M13.75,11h0a.17.17,0,0,1,0-.13.17.17,0,0,1,.11-.08.18.18,0,0,1,.21.13h0a.2.2,0,0,0-.24-.15.2.2,0,0,0-.13.09A.2.2,0,0,0,13.75,11Z"/><path class="cls-2" d="M18,9.64a.38.38,0,1,1,.38.38A.38.38,0,0,1,18,9.64Zm0,0a.33.33,0,1,0,.33-.33A.33.33,0,0,0,18,9.64Z"/><path class="cls-2" d="M15.83,9.88a.18.18,0,1,1,.18.18A.18.18,0,0,1,15.83,9.88Zm0,0A.15.15,0,1,0,16,9.73.15.15,0,0,0,15.85,9.88Z"/><path class="cls-2" d="M14.3,9.32l.39.67h-.78Zm0,.12-.29.5h.58Z"/><path class="cls-2" d="M17.45,8.78l.32-.19V9Zm.06,0,.24.14V8.64Z"/><path class="cls-2" d="M12.73,7.17l.32.19-.3.17h0Zm0,0V7.5L13,7.36Z"/><path class="cls-2" d="M13.74,8.33l.32.18-.3.17h0Zm0,0v.27L14,8.51Z"/><path class="cls-2" d="M15.29,6.91l.24.41h-.47Zm0,.07-.18.3h.35Z"/><path class="cls-2" d="M13.39,11.88s0,0,.06,0,0,0,0,0,0,0,0,0,0,0,.06,0,0,0,.05,0,0,0,0,0,0,0,0,0,0,0,.05,0,0,0,.05,0,0,0,0,0,0,0,0,0,0,0,.05,0,0,0,.05,0,0,0,0,0,0,0,0,0,0,0,.05,0,0,0,.05,0,0,0,0,0,0,0,0,0,0,0,.05,0,0,0,.05,0,0,0,0,0,0,0,0,0,0,0,.05,0,0,0,.05,0,0,0,0,0,0,0,0,0,0,0,.05,0,0,0,.05,0,0,0,0,0,0,0,0,0,0,0,.05,0,0,0,.05,0,0,0,0,0,0,0,0,0,0,0,.05,0,0,0,.05,0,0,0,0,0h0s0,0-.05,0,0,0,0,0,0,0,0,0,0,0-.05,0,0,0-.05,0,0,0,0,0,0,0,0,0,0,0-.05,0,0,0-.05,0,0,0,0,0,0,0,0,0,0,0-.05,0,0,0-.05,0,0,0,0,0,0,0,0,0,0,0-.05,0,0,0-.05,0,0,0,0,0,0,0,0,0,0,0-.05,0,0,0-.05,0,0,0,0,0,0,0,0,0,0,0-.05,0,0,0-.05,0,0,0,0,0,0,0,0,0,0,0-.05,0,0,0-.05,0,0,0,0,0,0,0,0,0,0,0-.05,0,0,0-.05,0,0,0,0,0,0,0,0,0,0,0-.05,0,0,0-.05,0,0,0,0,0,0,0,0,0,0,0-.05,0h0s0,0,0,0S13.36,11.88,13.39,11.88Z"/><path class="cls-2" d="M17.4,9.77h.07a.05.05,0,0,0,0,0h0s0,0,0,0a0,0,0,0,0,0,0,.05.05,0,0,0,0,0h0a0,0,0,0,1,0,0,0,0,0,0,0,0,0,.05.05,0,0,0,0,0h0a0,0,0,0,1,0,0,.05.05,0,0,0,0,0,0,0,0,0,0,0,0h0a0,0,0,0,1,0,0,0,0,0,0,0,0,0,.05.05,0,0,0,0,0h0a0,0,0,0,1,0,0,.05.05,0,0,0,0,0,.06.06,0,0,0,0,0h0a0,0,0,0,1,0,0,0,0,0,0,0,0,0,.05.05,0,0,0,0,0h0s0,0,0,0a0,0,0,0,0-.07,0h0s0,0,0,0a0,0,0,0,0,0,0,.05.05,0,0,0,0,0h0s0,0,0,0a0,0,0,0,0-.07,0h0a0,0,0,0,1,0,0,0,0,0,0,0,0,0h0a0,0,0,0,1,0,0,.05.05,0,0,0,0,0,.05.05,0,0,0,0,0h0s0,0,0,0a.05.05,0,0,0,0,0,.05.05,0,0,0,0,0h0a0,0,0,0,1,0,0,0,0,0,0,0,0,0,0,0,0,0,0,0,0h0s0,0,0,0a.05.05,0,0,0,0,0,.05.05,0,0,0,0,0h0a0,0,0,0,1,0,0,.05.05,0,0,0,0,0,.05.05,0,0,0,0,0h0a0,0,0,0,1,0,0,0,0,0,0,0,0,0,.05.05,0,0,0,0,0h0s0,0,0,0a.05.05,0,0,0,0,0,0,0,0,0,0,0,0h0s0,0,0,0a.05.05,0,0,0,0,0,0,0,0,0,0,0,0h0s0,0,0,0a0,0,0,0,0,0,0,.05.05,0,0,0,0,0h0s0,0,0,0a0,0,0,0,0,0,0Z"/><path class="cls-2" d="M16.12,7.1h0s0,0,0,0,0,0,0,0h0s0,0,0,0,0,0,.06,0,0,0,0,0,0,0,0,0,0,0,0,0,0,0,.06,0,0,0,0,0,0,0,0,0,0,0,0,0,0,0,.06,0,0,0,0,0,0,0,0,0h0s0,0,0,0a.06.06,0,0,0,.06,0s0,0,0,0,0,0,0,0,0,0,0,0,0,0,.06,0,0,0,0,0,0,0,0,0h0s0,0,0,0a.07.07,0,0,0,.05,0h0s0,0,0,0,0,0,0,0h0s0,0,0,0,0,0,.06,0,0,0,0,0,0,0,0,0h0s0,0,0,0,0,0,.05,0h0s0,0,0,0,0,0,0,0h0s0,0,0,0a.07.07,0,0,0,.06,0s0,0,0,0,0,0,0,0v0s0,0,0,0,0,0,0,0,0,0,0,0,0,0-.06,0,0,0,0,0,0,0,0,0,0,0,0,0a.07.07,0,0,0-.05,0h0s0,0,0,0,0,0,0,0h0s0,0,0,0a.07.07,0,0,0-.05,0h0s0,0,0,0,0,0,0,0,0,0,0,0a.06.06,0,0,0-.06,0s0,0,0,0,0,0,0,0h0s0,0,0,0a.07.07,0,0,0-.05,0h0s0,0,0,0,0,0,0,0h0s0,0,0,0a.07.07,0,0,0-.05,0h0s0,0,0,0,0,0,0,0,0,0,0,0a.08.08,0,0,0-.05,0h0s0,0,0,0,0,0,0,0,0,0,0,0,0,0-.06,0,0,0,0,0,0,0,0,0,0,0,0,0,0,0-.06,0,0,0,0,0,0,0,0,0,0,0,0,0A.07.07,0,0,0,16,7h0s0,0,0,0A.07.07,0,0,0,16.12,7.1Z"/><path class="cls-2" d="M13.18,8.1h0s0,0,0,0,0,0,0,0l0,0,0,0h0s0,0,0,0,0,0,0,0h0l0,0,0,0h0s0,0,0,0,0,0,0,0h0l0,0a0,0,0,0,0,0,0s0,0,0,0,0,0,0,0h0l0,0s0,0,0,0,0,0,0,0,0,0,0,0h0l0,0,0,0h0s0,0,0,0,0,0,0,0h0l0,0,0,0h0s0,0,0,0,0,0,0,0l0,0,0,0h0s0,0,0,0,0,0,0,0l0,0,0,0h0s0,0,0,0,0,0,0,0h0l0,0,0,0h0s0,0,0,0,0,0,0,0h0s0,0,0,0,0,0,0,0h0l0,0s0,0,0,0,0,0,0,0,0,0,0,0h0l0,0,0,0h0s0,0,0,0,0,0,0,0h0l0,0,0,0h0s0,0,0,0,0,0,0,0h0l0,0,0,0h0s0,0,0,0,0,0,0,0h0l0,0,0,0h0s0,0,0,0,0,0,0,0h0l0,0,0,0h0s0,0,0,0,0,0,0,0h0l0,0,0,0h0s0,0,0,0,0,0,0,0h0l0,0,0,0h0s0,0,0,0,0,0,0,0l0,0,0,0h0s0,0,0,0,0,0,0,0h0l0,0,0,0h0l0,0Z"/><polygon class="cls-2" points="11.44 6.18 12.1 5.52 12.06 5.48 11.4 6.14 11.44 6.18"/><polygon class="cls-2" points="12.06 6.18 12.1 6.14 11.44 5.48 11.4 5.52 12.06 6.18"/><polygon class="cls-2" points="6.28 11.01 6.79 10.51 6.75 10.48 6.25 10.98 6.28 11.01"/><polygon class="cls-2" points="6.75 11.01 6.79 10.98 6.28 10.48 6.25 10.51 6.75 11.01"/><path class="cls-2" d="M9.37,6.15c.07,0,.09-.1.12-.21s0-.17.07-.17.06.1.07.17.05.21.12.21.09-.1.12-.21,0-.17.07-.17.06.1.07.17.05.21.12.21.09-.1.12-.21,0-.17.07-.17v0c-.07,0-.09.1-.12.21s0,.17-.07.17-.06-.1-.07-.17S10,5.73,10,5.73s-.09.1-.12.21,0,.17-.07.17S9.7,6,9.68,5.93s-.05-.21-.12-.21-.09.1-.12.21,0,.17-.07.17Z"/><path class="cls-2" d="M9.16,9.13c.05,0,.11-.07.17-.15s.11-.14.14-.13l0,0c-.06,0-.13.06-.19.14s-.1.13-.13.13h0s0-.12,0-.19,0-.21,0-.24-.13.05-.19.14-.1.13-.13.13h0s0-.12,0-.19,0-.21,0-.24-.13.06-.19.14-.1.13-.13.13h0l0,0c.06,0,.13-.06.19-.14s.11-.14.14-.13,0,.12,0,.19,0,.21,0,.24.13-.06.19-.14.11-.14.14-.13,0,.12,0,.19,0,.21,0,.24Z"/><path class="cls-2" d="M8.41,11.47s0-.08,0-.13,0-.09,0-.1.06,0,.09,0,.1.07.13,0,0-.08,0-.13,0-.09,0-.1.06,0,.09,0,.1.07.13,0,0-.08,0-.13,0-.09,0-.1l0,0s0,.08,0,.13,0,.09,0,.1-.06,0-.09,0-.1-.07-.13,0,0,.08,0,.13,0,.09,0,.1-.06,0-.09,0-.1-.07-.13,0,0,.08,0,.13,0,.09,0,.1Z"/><path class="cls-2" d="M8.09,5.51h.71v.71H8.09Zm.64.08H8.17v.56h.56Z"/><path class="cls-2" d="M11.69,10.92h.46v.45h-.46Zm.41,0h-.36v.36h.36Z"/><path class="cls-2" d="M6.37,5.88l.52-.52.52.52-.52.52Zm.52-.41-.42.41.42.41.42-.41Z"/><path class="cls-2" d="M9.74,11.2l.35-.35.35.35-.35.35Zm.35-.28-.28.28.28.28.28-.28Z"/><polygon class="cls-2" points="12.19 8.05 12.4 7.54 11.91 7.67 12.1 7.21 11.56 7.35 11.58 7.4 12.01 7.29 11.82 7.75 12.3 7.62 12.14 8.03 12.19 8.05"/><polygon class="cls-2" points="6.73 9.2 6.74 9.16 6.43 9.1 6.69 8.87 6.34 8.79 6.58 8.58 6.55 8.55 6.26 8.82 6.61 8.89 6.34 9.13 6.73 9.2"/><path class="cls-2" d="M10.15,8.29l.05,0a.39.39,0,0,1,.18-.52.4.4,0,0,1,.53.18l.05,0a.46.46,0,0,0-.61-.21A.45.45,0,0,0,10.15,8.29Z"/><path class="cls-2" d="M7.18,7.64l0,0a.32.32,0,0,1,0-.25.33.33,0,0,1,.17-.19.33.33,0,0,1,.44.15l0,0a.38.38,0,0,0-.51-.17.38.38,0,0,0-.17.5Z"/><path class="cls-2" d="M10.93,10.71a.21.21,0,0,0,.13,0,.2.2,0,0,0,0-.28l0,0a.18.18,0,0,1-.27.23l0,0A.2.2,0,0,0,10.93,10.71Z"/><path class="cls-2" d="M7.42,11h0a.17.17,0,0,1,.13-.21.18.18,0,0,1,.21.13h0a.2.2,0,0,0-.37-.06A.2.2,0,0,0,7.42,11Z"/><path class="cls-2" d="M11.65,9.64A.38.38,0,1,1,12,10,.38.38,0,0,1,11.65,9.64Zm0,0A.33.33,0,1,0,12,9.31.33.33,0,0,0,11.7,9.64Z"/><path class="cls-2" d="M9.5,9.88a.18.18,0,1,1,.18.18A.18.18,0,0,1,9.5,9.88Zm0,0a.15.15,0,1,0,.15-.15A.15.15,0,0,0,9.52,9.88Z"/><path class="cls-2" d="M8,9.32l.39.67H7.58Zm0,.12-.29.5h.58Z"/><path class="cls-2" d="M11.12,8.78l.32-.19V9Zm.06,0,.24.14V8.64Z"/><path class="cls-2" d="M6.4,7.17l.32.19-.3.17h0Zm0,0V7.5l.24-.14Z"/><path class="cls-2" d="M7.41,8.33l.32.18-.3.17h0Zm0,0v.27l.24-.14Z"/><path class="cls-2" d="M9,6.91l.24.41H8.72ZM9,7l-.18.3h.35Z"/><path class="cls-2" d="M7.06,11.88s0,0,.06,0,0,0,0,0,0,0,0,0,0,0,.06,0,0,0,.05,0,0,0,0,0,0,0,0,0,0,0,.05,0,0,0,.05,0,0,0,0,0,0,0,0,0,0,0,.05,0,0,0,.05,0,0,0,0,0,0,0,0,0,0,0,.05,0,0,0,.05,0,0,0,0,0,0,0,0,0,0,0,.05,0,0,0,.05,0,0,0,0,0,0,0,0,0,0,0,.05,0,0,0,.05,0,0,0,0,0,0,0,0,0,0,0,.05,0,0,0,.05,0,0,0,0,0,0,0,0,0,0,0,.05,0,0,0,.05,0,0,0,0,0,0,0,0,0,0,0,.05,0,0,0,.05,0,0,0,0,0h0s0,0-.05,0,0,0,0,0,0,0,0,0,0,0-.05,0,0,0-.05,0,0,0,0,0,0,0,0,0,0,0-.05,0,0,0-.05,0,0,0,0,0,0,0,0,0,0,0-.05,0,0,0-.05,0,0,0,0,0,0,0,0,0,0,0-.05,0,0,0-.05,0,0,0,0,0,0,0,0,0,0,0-.05,0,0,0-.05,0,0,0,0,0,0,0,0,0,0,0-.05,0,0,0-.05,0,0,0,0,0,0,0,0,0,0,0-.05,0,0,0-.05,0,0,0,0,0,0,0,0,0,0,0-.05,0,0,0-.05,0,0,0,0,0,0,0,0,0,0,0-.05,0,0,0-.05,0,0,0,0,0,0,0,0,0,0,0-.05,0H7s0,0,0,0S7,11.88,7.06,11.88Z"/><path class="cls-2" d="M11.07,9.77h.07a.05.05,0,0,0,0,0h0a0,0,0,0,1,0,0,0,0,0,0,0,0,0,.05.05,0,0,0,0,0h0s0,0,0,0a0,0,0,0,0,0,0,0,0,0,0,0,0,0h0s0,0,0,0a0,0,0,0,0,0,0,0,0,0,0,0,0,0h0s0,0,0,0a.05.05,0,0,0,0,0,.05.05,0,0,0,0,0h0s0,0,0,0a.05.05,0,0,0,0,0,.06.06,0,0,0,0,0h0a0,0,0,0,1,0,0,.05.05,0,0,0,0,0,.06.06,0,0,0,0,0h0a0,0,0,0,1,0,0,.05.05,0,0,0,0,0,.05.05,0,0,0,0,0h0s0,0,0,0a0,0,0,0,0,0,0,.05.05,0,0,0,0,0h0a0,0,0,0,1,0,0,.05.05,0,0,0,0,0,.05.05,0,0,0,0,0h0a0,0,0,0,1,0,0,.05.05,0,0,0,0,0h0a0,0,0,0,1,0,0,0,0,0,0,0,.07,0h0s0,0,0,0a.05.05,0,0,0,0,0,.05.05,0,0,0,0,0h0a0,0,0,0,1,0,0,.05.05,0,0,0,0,0,0,0,0,0,0,0,0h0a0,0,0,0,1,0,0,.05.05,0,0,0,0,0,.05.05,0,0,0,0,0h0a0,0,0,0,1,0,0,.05.05,0,0,0,0,0,.05.05,0,0,0,0,0h0s0,0,0,0a0,0,0,0,0,.07,0h0s0,0,0,0a.05.05,0,0,0,0,0,0,0,0,0,0,0,0h0s0,0,0,0a0,0,0,0,0,0,0,0,0,0,0,0,0,0h0s0,0,0,0a0,0,0,0,0,0,0,.05.05,0,0,0,0,0h0s0,0,0,0a0,0,0,0,0,0,0Z"/><path class="cls-2" d="M9.79,7.1h0s0,0,0,0,0,0,0,0h0s0,0,0,0,0,0,.06,0,0,0,0,0,0,0,0,0,0,0,0,0,0,0,.06,0,0,0,0,0,0,0,0,0,0,0,0,0,0,0,.06,0,0,0,0,0,0,0,0,0h0s0,0,0,0a.06.06,0,0,0,.06,0s0,0,0,0,0,0,0,0,0,0,0,0,0,0,.06,0,0,0,0,0,0,0,0,0h0s0,0,0,0a.07.07,0,0,0,.05,0h0s0,0,0,0,0,0,0,0h0s0,0,0,0a.07.07,0,0,0,.06,0s0,0,0,0,0,0,0,0h0s0,0,0,0a.07.07,0,0,0,.05,0h0s0,0,0,0,0,0,0,0h0s0,0,0,0,0,0,.06,0,0,0,0,0,0,0,0,0v0s0,0,0,0,0,0,0,0,0,0,0,0,0,0-.06,0,0,0,0,0,0,0,0,0,0,0,0,0a.07.07,0,0,0-.05,0h0s0,0,0,0,0,0,0,0h0s0,0,0,0a.07.07,0,0,0-.05,0h0s0,0,0,0,0,0,0,0,0,0,0,0a.07.07,0,0,0-.06,0s0,0,0,0,0,0,0,0h0s0,0,0,0a.07.07,0,0,0-.05,0h0s0,0,0,0,0,0,0,0h0s0,0,0,0a.07.07,0,0,0-.05,0h0s0,0,0,0,0,0,0,0,0,0,0,0a.07.07,0,0,0-.05,0h0s0,0,0,0,0,0,0,0,0,0,0,0,0,0-.06,0,0,0,0,0,0,0,0,0,0,0,0,0,0,0-.06,0,0,0,0,0,0,0,0,0,0,0,0,0,0,0-.06,0h0s0,0,0,0A.07.07,0,0,0,9.79,7.1Z"/><path class="cls-2" d="M6.85,8.1h0s0,0,0,0,0,0,0,0l0,0,0,0H7s0,0,0,0S7,8,7,8H7l0,0,0,0h0s0,0,0,0,0,0,0,0h0l0,0a0,0,0,0,0,0,0s0,0,0,0,0,0,0,0h0l0,0a0,0,0,0,0,0,0s0,0,0,0,0,0,0,0h0l0,0,0,0h0s0,0,0,0,0,0,0,0h0l0,0,0,0h0s0,0,0,0,0,0,0,0l0,0,0,0h0s0,0,0,0,0,0,0,0l0,0,0,0h0s0,0,0,0,0,0,0,0h0l0,0,0,0h0s0,0,0,0,0,0,0,0H8s0,0,0,0,0,0,0,0h0l0,0a0,0,0,0,0,0,0s0,0,0,0,0,0,0,0h0l0,0,0,0h0s0,0,0,0,0,0,0,0h0l0,0,0,0h0s0,0,0,0,0,0,0,0h0l0,0,0,0h0s0,0,0,0,0,0,0,0h0l0,0,0,0h0s0,0,0,0,0,0,0,0h0l0,0,0,0h0s0,0,0,0,0,0,0,0h0l0,0,0,0h0s0,0,0,0,0,0,0,0h0l0,0L7,8H7S7,8,7,8s0,0,0,0l0,0,0,0h0s0,0,0,0,0,0,0,0h0l0,0,0,0h0l0,0Z"/><polygon class="cls-2" points="5.19 6.18 5.85 5.52 5.81 5.48 5.15 6.14 5.19 6.18"/><polygon class="cls-2" points="5.81 6.18 5.85 6.14 5.19 5.48 5.15 5.52 5.81 6.18"/><polygon class="cls-2" points="0.03 11.01 0.53 10.51 0.5 10.48 0 10.98 0.03 11.01"/><polygon class="cls-2" points="0.5 11.01 0.53 10.98 0.03 10.48 0 10.51 0.5 11.01"/><path class="cls-2" d="M3.12,6.15c.07,0,.09-.1.12-.21s0-.17.07-.17.06.1.07.17.05.21.12.21.09-.1.12-.21,0-.17.07-.17.06.1.07.17.05.21.12.21S4,6.05,4,5.95s0-.17.07-.17v0c-.07,0-.09.1-.12.21s0,.17-.07.17-.06-.1-.07-.17-.05-.21-.12-.21-.09.1-.12.21,0,.17-.07.17-.06-.1-.07-.17-.05-.21-.12-.21-.09.1-.12.21,0,.17-.07.17Z"/><path class="cls-2" d="M2.91,9.13C3,9.13,3,9.06,3.08,9s.11-.14.14-.13l0,0c-.06,0-.13.06-.19.14s-.1.13-.13.13h0s0-.12,0-.19,0-.21,0-.24-.13.05-.19.14-.1.13-.13.13h0s0-.12,0-.19,0-.21,0-.24-.13.06-.19.14-.1.13-.13.13h0l0,0c.06,0,.13-.06.19-.14s.11-.14.14-.13,0,.12,0,.19,0,.21,0,.24.13-.06.19-.14.11-.14.14-.13,0,.12,0,.19,0,.21,0,.24Z"/><path class="cls-2" d="M2.16,11.47s0-.08,0-.13,0-.09,0-.1.06,0,.09,0,.1.07.13,0,0-.08,0-.13,0-.09,0-.1.06,0,.09,0,.1.07.13,0,0-.08,0-.13,0-.09,0-.1l0,0s0,.08,0,.13,0,.09,0,.1-.06,0-.09,0-.1-.07-.13,0,0,.08,0,.13,0,.09,0,.1-.06,0-.09,0-.1-.07-.13,0,0,.08,0,.13,0,.09,0,.1Z"/><path class="cls-2" d="M1.84,5.51h.72v.71H1.84Zm.64.08H1.92v.56h.56Z"/><path class="cls-2" d="M5.44,10.92H5.9v.45H5.44Zm.41,0H5.49v.36h.36Z"/><path class="cls-2" d="M.12,5.88l.52-.52.52.52L.64,6.4Zm.52-.41-.42.41.42.41.42-.41Z"/><path class="cls-2" d="M3.49,11.2l.35-.35.35.35-.35.35Zm.35-.28-.28.28.28.28.28-.28Z"/><polygon class="cls-2" points="5.94 8.05 6.15 7.54 5.66 7.67 5.85 7.21 5.31 7.35 5.33 7.4 5.76 7.29 5.57 7.75 6.05 7.62 5.89 8.03 5.94 8.05"/><polygon class="cls-2" points="0.48 9.2 0.49 9.16 0.18 9.1 0.44 8.87 0.09 8.79 0.33 8.58 0.3 8.55 0.01 8.82 0.36 8.89 0.09 9.13 0.48 9.2"/><path class="cls-2" d="M3.89,8.29l.05,0a.39.39,0,0,1,.18-.52.4.4,0,0,1,.53.18l.05,0a.46.46,0,0,0-.61-.21A.45.45,0,0,0,3.89,8.29Z"/><path class="cls-2" d="M.93,7.64l0,0a.32.32,0,0,1,0-.25.33.33,0,0,1,.17-.19.33.33,0,0,1,.44.15l0,0a.38.38,0,0,0-.51-.17.38.38,0,0,0-.17.5Z"/><path class="cls-2" d="M4.68,10.71a.2.2,0,0,0,.13,0,.2.2,0,0,0,0-.28l0,0a.18.18,0,0,1,0,.25.18.18,0,0,1-.25,0l0,0A.2.2,0,0,0,4.68,10.71Z"/><path class="cls-2" d="M1.17,11h0a.17.17,0,0,1,.13-.21.18.18,0,0,1,.13,0,.17.17,0,0,1,.08.11h0a.2.2,0,0,0-.4.09Z"/><path class="cls-2" d="M5.4,9.64a.38.38,0,1,1,.38.38A.38.38,0,0,1,5.4,9.64Zm0,0a.33.33,0,1,0,.33-.33A.33.33,0,0,0,5.45,9.64Z"/><path class="cls-2" d="M3.25,9.88a.18.18,0,1,1,.18.18A.18.18,0,0,1,3.25,9.88Zm0,0a.15.15,0,1,0,.15-.15A.15.15,0,0,0,3.27,9.88Z"/><path class="cls-2" d="M1.72,9.32l.39.67H1.33Zm0,.12-.29.5H2Z"/><path class="cls-2" d="M4.87,8.78l.32-.19V9Zm.06,0,.24.14V8.64Z"/><path class="cls-2" d="M.15,7.17l.32.19-.3.17h0Zm0,0V7.5l.24-.14Z"/><path class="cls-2" d="M1.16,8.33l.32.18-.3.17h0Zm0,0v.27l.24-.14Z"/><path class="cls-2" d="M2.71,6.91l.24.41H2.47Zm0,.07-.18.3h.35Z"/><path class="cls-2" d="M.81,11.88s0,0,.06,0,0,0,0,0,0,0,0,0,0,0,.06,0,0,0,.05,0,0,0,0,0,0,0,0,0,0,0,.05,0,0,0,.05,0,0,0,0,0,0,0,0,0,0,0,.05,0,0,0,.05,0,0,0,0,0,0,0,0,0,0,0,.05,0,0,0,.05,0,0,0,0,0,0,0,0,0,0,0,.05,0,0,0,.05,0,0,0,0,0,0,0,0,0,0,0,.05,0,0,0,.05,0,0,0,0,0,0,0,0,0,0,0,.05,0,0,0,.05,0,0,0,0,0,0,0,0,0,0,0,.05,0,0,0,.05,0,0,0,0,0,0,0,0,0,0,0,.05,0,0,0,.05,0,0,0,0,0h0s0,0-.05,0,0,0,0,0,0,0,0,0,0,0-.05,0,0,0-.05,0,0,0,0,0,0,0,0,0,0,0-.05,0,0,0-.05,0,0,0,0,0,0,0,0,0,0,0-.05,0,0,0-.05,0,0,0,0,0,0,0,0,0,0,0-.05,0,0,0-.05,0,0,0,0,0,0,0,0,0,0,0-.05,0,0,0-.05,0,0,0,0,0,0,0,0,0,0,0-.05,0,0,0-.05,0,0,0,0,0,0,0,0,0,0,0-.05,0,0,0-.05,0,0,0,0,0,0,0,0,0,0,0-.05,0,0,0-.05,0,0,0,0,0,0,0,0,0,0,0-.06,0,0,0-.05,0,0,0,0,0,0,0,0,0,0,0-.06,0h0s0,0,0,0S.78,11.88.81,11.88Z"/><path class="cls-2" d="M4.82,9.77h.07a.05.05,0,0,0,0,0h0s0,0,0,0a0,0,0,0,0,0,0,.05.05,0,0,0,0,0h0s0,0,0,0a0,0,0,0,0,0,0,.05.05,0,0,0,0,0h0s0,0,0,0a0,0,0,0,0,0,0,0,0,0,0,0,0,0h0s0,0,0,0a0,0,0,0,0,0,0,.05.05,0,0,0,0,0h0s0,0,0,0a0,0,0,0,0,0,0,.06.06,0,0,0,0,0h0a0,0,0,0,1,0,0,.05.05,0,0,0,0,0,.06.06,0,0,0,0,0h0s0,0,0,0a.05.05,0,0,0,0,0,.05.05,0,0,0,0,0H4s0,0,0,0a0,0,0,0,0,0,0,.05.05,0,0,0,0,0h0a0,0,0,0,1,0,0,.05.05,0,0,0,0,0,.05.05,0,0,0,0,0h0a0,0,0,0,1,0,0,.05.05,0,0,0,0,0h0a0,0,0,0,1,0,0A0,0,0,0,0,3.8,9h0a0,0,0,0,1,0,0,.05.05,0,0,0,0,0,.05.05,0,0,0,0,0H4a0,0,0,0,1,0,0,.05.05,0,0,0,0,0,0,0,0,0,0,0,0h0a0,0,0,0,1,0,0,0,0,0,0,0,.07,0h0a0,0,0,0,1,0,0,.05.05,0,0,0,0,0,.05.05,0,0,0,0,0h0s0,0,0,0a0,0,0,0,0,0,0,0,0,0,0,0,0,0h0s0,0,0,0a.05.05,0,0,0,0,0,0,0,0,0,0,0,0h0s0,0,0,0a0,0,0,0,0,0,0,0,0,0,0,0,0,0h0s0,0,0,0a0,0,0,0,0,0,0,.05.05,0,0,0,0,0h0s0,0,0,0a0,0,0,0,0,0,0Z"/><path class="cls-2" d="M3.54,7.1h0s0,0,0,0,0,0,0,0h0s0,0,0,0,0,0,.06,0,0,0,0,0,0,0,0,0,0,0,0,0,0,0,.06,0S4,7,4,7,4,7,4,7s0,0,0,0,0,0,.06,0,0,0,0,0,0,0,0,0h0s0,0,0,0,0,0,.06,0,0,0,0,0,0,0,0,0,0,0,0,0,0,0,.06,0,0,0,0,0,0,0,0,0h0s0,0,0,0a.07.07,0,0,0,.05,0h0s0,0,0,0,0,0,0,0h0s0,0,0,0a.07.07,0,0,0,.06,0s0,0,0,0,0,0,0,0h0s0,0,0,0a.07.07,0,0,0,.05,0H5s0,0,0,0,0,0,0,0h0s0,0,0,0,0,0,.06,0,0,0,0,0,0,0,0,0v0s0,0,0,0,0,0,0,0,0,0,0,0,0,0-.06,0,0,0,0,0,0,0,0,0,0,0,0,0a.07.07,0,0,0-.05,0h0s0,0,0,0,0,0,0,0h0s0,0,0,0a.07.07,0,0,0-.05,0h0s0,0,0,0,0,0,0,0,0,0,0,0a.07.07,0,0,0-.06,0s0,0,0,0,0,0,0,0h0s0,0,0,0a.07.07,0,0,0-.05,0h0s0,0,0,0,0,0,0,0h0s0,0,0,0a.07.07,0,0,0-.05,0h0s0,0,0,0,0,0,0,0,0,0,0,0a.07.07,0,0,0-.05,0H4S4,7,4,7s0,0,0,0,0,0,0,0,0,0-.06,0,0,0,0,0,0,0,0,0,0,0,0,0,0,0-.06,0,0,0,0,0,0,0,0,0,0,0,0,0,0,0-.06,0h0s0,0,0,0A.07.07,0,0,0,3.54,7.1Z"/><path class="cls-2" d="M.6,8.1h0s0,0,0,0,0,0,0,0l0,0,0,0h0s0,0,0,0,0,0,0,0h0l0,0,0,0h0s0,0,0,0,0,0,0,0h0l0,0A0,0,0,0,0,1,8S1,8,1,8,1,8,1,8H1L1,8s0,0,0,0,0,0,0,0,0,0,0,0h0l0,0,0,0h0s0,0,0,0,0,0,0,0h0l0,0,0,0h0s0,0,0,0,0,0,0,0l0,0,0,0h0s0,0,0,0,0,0,0,0l0,0,0,0h0s0,0,0,0,0,0,0,0h0l0,0,0,0h0s0,0,0,0,0,0,0,0h0s0,0,0,0,0,0,0,0h0l0,0s0,0,0,0,0,0,0,0,0,0,0,0h0l0,0,0,0h0s0,0,0,0,0,0,0,0h0l0,0,0,0h0s0,0,0,0,0,0,0,0h0l0,0,0,0h0s0,0,0,0,0,0,0,0h0l0,0,0,0h0s0,0,0,0,0,0,0,0h0L1,8,1,8H1S1,8,1,8,1,8,1,8H1l0,0,0,0h0s0,0,0,0,0,0,0,0h0l0,0,0,0h0s0,0,0,0,0,0,0,0l0,0,0,0h0s0,0,0,0,0,0,0,0h0l0,0,0,0h0l0,0Z"/><polygon class="cls-2" points="0.97 12.89 0.32 12.23 0.36 12.2 1.01 12.85 0.97 12.89"/><polygon class="cls-2" points="0.36 12.89 0.32 12.85 0.98 12.2 1.01 12.23 0.36 12.89"/><polygon class="cls-2" points="6.14 17.72 5.63 17.22 5.66 17.19 6.17 17.69 6.14 17.72"/><polygon class="cls-2" points="5.66 17.72 5.63 17.69 6.14 17.19 6.17 17.22 5.66 17.72"/><path class="cls-2" d="M3.05,12.87c-.07,0-.09-.1-.12-.21s0-.17-.07-.17-.06.1-.07.17-.05.21-.12.21-.09-.1-.12-.21,0-.17-.07-.17-.06.1-.07.17-.05.21-.12.21-.09-.1-.12-.21,0-.17-.07-.17v0c.07,0,.09.1.12.21s0,.17.07.17.06-.1.07-.17.05-.21.12-.21.09.1.12.21,0,.17.07.17.06-.1.07-.17.05-.21.12-.21.09.1.12.21,0,.17.07.17Z"/><path class="cls-2" d="M3.25,15.84c-.05,0-.11-.07-.17-.15s-.11-.14-.14-.13l0,0c.06,0,.13.05.19.14s.1.13.13.13h0s0-.12,0-.19,0-.21,0-.24.13.05.19.14.1.13.13.13h0s0-.12,0-.19,0-.21,0-.24.13.06.19.14.1.13.13.13H4l0,0c-.06,0-.13-.06-.19-.14s-.11-.14-.14-.13,0,.12,0,.19,0,.21,0,.24-.13-.06-.19-.14-.11-.14-.14-.13,0,.12,0,.19,0,.21,0,.24Z"/><path class="cls-2" d="M4,18.19s0-.08,0-.13,0-.09,0-.1S4,18,4,18s-.1.07-.13,0,0-.08,0-.13,0-.09,0-.1-.06,0-.09,0-.1.07-.13,0,0-.08,0-.13,0-.09,0-.1l0,0s0,.08,0,.13,0,.09,0,.1.06,0,.09,0,.1-.07.13,0,0,.08,0,.13,0,.09,0,.1.06,0,.09,0,.1-.07.13,0,0,.08,0,.13,0,.09,0,.1Z"/><path class="cls-2" d="M4.33,12.93H3.61v-.71h.71Zm-.64-.08h.56V12.3H3.69Z"/><path class="cls-2" d="M.73,18.09H.27v-.45H.73ZM.32,18H.68v-.36H.32Z"/><path class="cls-2" d="M5.53,13.11,5,12.59l.52-.52.52.52Zm-.42-.52.42.41.42-.41-.42-.41Z"/><path class="cls-2" d="M2.32,18.26,2,17.91l.35-.35.35.35ZM2,17.91l.28.28.28-.28-.28-.28Z"/><polygon class="cls-2" points="0.23 14.77 0.02 14.25 0.5 14.38 0.32 13.92 0.85 14.06 0.84 14.11 0.41 14 0.6 14.46 0.11 14.33 0.28 14.74 0.23 14.77"/><polygon class="cls-2" points="5.69 15.91 5.68 15.88 5.99 15.81 5.72 15.58 6.08 15.51 5.84 15.29 5.87 15.27 6.16 15.53 5.81 15.6 6.08 15.84 5.69 15.91"/><path class="cls-2" d="M2.27,15l-.05,0A.39.39,0,0,0,2,14.45a.4.4,0,0,0-.53.18l-.05,0a.46.46,0,0,1,.61-.21A.45.45,0,0,1,2.27,15Z"/><path class="cls-2" d="M5.24,14.35l0,0a.33.33,0,0,0,0-.25.33.33,0,0,0-.61,0l0,0a.38.38,0,0,1,.51-.17.38.38,0,0,1,.17.51Z"/><path class="cls-2" d="M1.49,17.42a.2.2,0,0,1-.15-.33l0,0a.18.18,0,0,0,0,.25.18.18,0,0,0,.25,0l0,0A.2.2,0,0,1,1.49,17.42Z"/><path class="cls-2" d="M5,17.75H5a.17.17,0,0,0,0-.13.18.18,0,0,0-.11-.08.18.18,0,0,0-.21.13h0A.2.2,0,0,1,5,17.59.2.2,0,0,1,5,17.75Z"/><path class="cls-2" d="M.38,16.73a.38.38,0,1,1,.38-.38A.38.38,0,0,1,.38,16.73Zm0-.71a.33.33,0,1,0,.33.33A.33.33,0,0,0,.38,16Z"/><path class="cls-2" d="M2.74,16.77a.18.18,0,1,1,.18-.18A.18.18,0,0,1,2.74,16.77Zm0-.33a.15.15,0,1,0,.15.15A.15.15,0,0,0,2.74,16.44Z"/><path class="cls-2" d="M4.84,16.7H4.06L4.45,16Zm-.68-.06h.58l-.29-.5Z"/><path class="cls-2" d="M1,15.67V15.3l.32.19Zm0-.32v.27l.24-.14Z"/><path class="cls-2" d="M6,14.25H6l-.3-.17L6,13.89Zm-.27-.18.24.14v-.27Z"/><path class="cls-2" d="M5,15.41H5l-.3-.17L5,15Zm-.27-.19.24.14v-.27Z"/><path class="cls-2" d="M3.7,14H3.22l.24-.41Zm-.41,0h.35l-.18-.3Z"/><path class="cls-2" d="M5.36,18.59s0,0-.06,0,0,0,0,0,0,0,0,0,0,0-.06,0,0,0-.05,0,0,0,0,0,0,0,0,0,0,0-.05,0,0,0-.05,0,0,0,0,0,0,0,0,0,0,0-.05,0,0,0-.05,0,0,0,0,0,0,0,0,0,0,0-.05,0,0,0-.05,0,0,0,0,0,0,0,0,0,0,0-.05,0,0,0-.05,0,0,0,0,0,0,0,0,0,0,0-.05,0,0,0-.05,0,0,0,0,0,0,0,0,0,0,0-.05,0,0,0-.05,0,0,0,0,0,0,0,0,0,0,0-.05,0,0,0-.05,0,0,0,0,0,0,0,0,0,0,0-.05,0,0,0-.05,0,0,0,0,0v0s0,0,.05,0,0,0,0,0,0,0,0,0,0,0,.05,0,0,0,.05,0,0,0,0,0,0,0,0,0,0,0,.05,0,0,0,.05,0,0,0,0,0,0,0,0,0,0,0,.05,0,0,0,.05,0,0,0,0,0,0,0,0,0,0,0,.05,0,0,0,.05,0,0,0,0,0,0,0,0,0,0,0,.05,0,0,0,.05,0,0,0,0,0,0,0,0,0,0,0,.05,0,0,0,.05,0,0,0,0,0,0,0,0,0,0,0,.05,0,0,0,.05,0,0,0,0,0,0,0,0,0,0,0,.05,0,0,0,.05,0,0,0,0,0,0,0,0,0,0,0,.05,0,0,0,.05,0,0,0,0,0,0,0,0,0,0,0,.05,0v0s0,0,0,0S5.39,18.59,5.36,18.59Z"/><path class="cls-2" d="M1.35,16.48H1.28a.05.05,0,0,1,0,0h0s0,0,0,0a.05.05,0,0,1,0,0h.08s0,0,0,0a0,0,0,0,1,0,0,.05.05,0,0,1,0,0h0s0,0,0,0a0,0,0,0,1,0,0,.05.05,0,0,1,0,0h0a0,0,0,0,0,0,0,0,0,0,0,1,0,0,.05.05,0,0,1,0,0h0a0,0,0,0,0,0,0,.05.05,0,0,1,0,0,.05.05,0,0,1,0,0h0s0,0,0,0a0,0,0,0,1,0,0,.05.05,0,0,1,0,0h0s0,0,0,0a0,0,0,0,1,.07,0h0s0,0,0,0a0,0,0,0,1,0,0,.05.05,0,0,1,0,0h0s0,0,0,0a.05.05,0,0,1,0,0,.05.05,0,0,1,0,0h0a0,0,0,0,0,0,0,.05.05,0,0,1,0,0h0s0,0,0,0a0,0,0,0,1,0,0,.05.05,0,0,1,0,0h0a0,0,0,0,0,0,0,0,0,0,0,1-.07,0h0s0,0,0,0a0,0,0,0,1,0,0,.05.05,0,0,1,0,0h0s0,0,0,0a0,0,0,0,1,0,0,.05.05,0,0,1,0,0H2s0,0,0,0a0,0,0,0,1,0,0,.05.05,0,0,1,0,0h0s0,0,0,0a.05.05,0,0,1,0,0,.05.05,0,0,1,0,0h0s0,0,0,0a0,0,0,0,1,0,0,0,0,0,0,1,0,0h0s0,0,0,0a0,0,0,0,1,0,0,0,0,0,0,1,0,0h0s0,0,0,0a0,0,0,0,1,0,0,0,0,0,0,1,0,0h0s0,0,0,0a0,0,0,0,1,0,0Z"/><path class="cls-2" d="M2.63,13.82h0s0,0,0,0,0,0,0,0h0s0,0,0,0,0,0-.06,0,0,0,0,0,0,0,0,0,0,0,0,0,0,0-.06,0,0,0,0,0,0,0,0,0,0,0,0,0,0,0-.06,0,0,0,0,0,0,0,0,0H2s0,0,0,0,0,0-.06,0,0,0,0,0,0,0,0,0,0,0,0,0,0,0-.06,0,0,0,0,0,0,0,0,0h0s0,0,0,0a.07.07,0,0,1-.05,0h0s0,0,0,0,0,0,0,0h0s0,0,0,0,0,0-.06,0,0,0,0,0,0,0,0,0h0s0,0,0,0a.07.07,0,0,1-.05,0h0s0,0,0,0,0,0,0,0H1s0,0,0,0,0,0-.06,0,0,0,0,0,0,0,0,0v0s0,0,0,0,0,0,0,0,0,0,0,0,0,0,.06,0,0,0,0,0,0,0,0,0,0,0,0,0a.07.07,0,0,1,.05,0h0s0,0,0,0,0,0,0,0h0s0,0,0,0a.07.07,0,0,1,.05,0h0s0,0,0,0,0,0,0,0,0,0,0,0,0,0,.06,0,0,0,0,0,0,0,0,0h0s0,0,0,0a.07.07,0,0,1,.05,0h0s0,0,0,0,0,0,0,0h0s0,0,0,0a.07.07,0,0,1,.05,0H2s0,0,0,0,0,0,0,0,0,0,0,0a.07.07,0,0,1,.05,0h0s0,0,0,0,0,0,0,0,0,0,0,0,0,0,.06,0,0,0,0,0,0,0,0,0,0,0,0,0a.07.07,0,0,1,.06,0s0,0,0,0,0,0,0,0,0,0,0,0a.07.07,0,0,1,.06,0v0h0s0,0,0,0A.07.07,0,0,1,2.63,13.82Z"/><path class="cls-2" d="M5.57,14.81h0s0,0,0,0,0,0,0,0l0,0,0,0h0s0,0,0,0,0,0,0,0h0l0,0,0,0h0s0,0,0,0,0,0,0,0h0l0,0s0,0,0,0,0,0,0,0,0,0,0,0h0l0,0a0,0,0,0,1,0,0s0,0,0,0,0,0,0,0H5l0,0,0,0H5s0,0,0,0,0,0,0,0h0l0,0,0,0h0s0,0,0,0,0,0,0,0l0,0,0,0h0s0,0,0,0,0,0,0,0l0,0,0,0h0s0,0,0,0,0,0,0,0h0l0,0,0,0h0s0,0,0,0,0,0,0,0h0s0,0,0,0,0,0,0,0h0l0,0a0,0,0,0,1,0,0s0,0,0,0,0,0,0,0h0l0,0,0,0h0s0,0,0,0,0,0,0,0h0l0,0,0,0h0s0,0,0,0,0,0,0,0h0l0,0,0,0h0s0,0,0,0,0,0,0,0H5l0,0,0,0H5s0,0,0,0,0,0,0,0h0l0,0,0,0h0s0,0,0,0,0,0,0,0h0l0,0,0,0h0s0,0,0,0,0,0,0,0h0l0,0,0,0h0s0,0,0,0,0,0,0,0l0,0,0,0h0s0,0,0,0,0,0,0,0h0l0,0,0,0h0l0,0Z"/><polygon class="cls-2" points="7.23 12.89 6.57 12.23 6.61 12.2 7.26 12.85 7.23 12.89"/><polygon class="cls-2" points="6.61 12.89 6.57 12.85 7.23 12.2 7.26 12.23 6.61 12.89"/><polygon class="cls-2" points="12.39 17.72 11.88 17.22 11.91 17.19 12.42 17.69 12.39 17.72"/><polygon class="cls-2" points="11.91 17.72 11.88 17.69 12.39 17.19 12.42 17.22 11.91 17.72"/><path class="cls-2" d="M9.3,12.87c-.07,0-.09-.1-.12-.21s0-.17-.07-.17-.06.1-.07.17-.05.21-.12.21-.09-.1-.12-.21,0-.17-.07-.17-.06.1-.07.17-.05.21-.12.21-.09-.1-.12-.21,0-.17-.07-.17v0c.07,0,.09.1.12.21s0,.17.07.17.06-.1.07-.17.05-.21.12-.21.09.1.12.21,0,.17.07.17.06-.1.07-.17.05-.21.12-.21.09.1.12.21,0,.17.07.17Z"/><path class="cls-2" d="M9.5,15.84c-.05,0-.11-.07-.17-.15s-.11-.14-.14-.13l0,0c.06,0,.13.05.2.14s.1.13.13.13h0s0-.12,0-.19,0-.21,0-.24.13.05.19.14.1.13.13.13h0s0-.12,0-.19,0-.21,0-.24.13.06.19.14.1.13.13.13h0l0,0c-.06,0-.13-.06-.19-.14s-.11-.14-.14-.13,0,.12,0,.19,0,.21,0,.24-.13-.06-.19-.14-.11-.14-.14-.13,0,.12,0,.19,0,.21,0,.24Z"/><path class="cls-2" d="M10.26,18.19s0-.08,0-.13,0-.09,0-.1-.06,0-.09,0-.1.07-.13,0,0-.08,0-.13,0-.09,0-.1-.06,0-.09,0-.1.07-.13,0,0-.08,0-.13,0-.09,0-.1l0,0s0,.08,0,.13,0,.09,0,.1.06,0,.09,0,.1-.07.13,0,0,.08,0,.13,0,.09,0,.1.06,0,.09,0,.1-.07.13,0,0,.08,0,.13,0,.09,0,.1Z"/><path class="cls-2" d="M10.58,12.93H9.86v-.71h.71Zm-.64-.08h.56V12.3H9.94Z"/><path class="cls-2" d="M7,18.09H6.52v-.45H7Zm-.41,0h.36v-.36H6.57Z"/><path class="cls-2" d="M11.78,13.11l-.52-.52.52-.52.52.52Zm-.42-.52.42.41.42-.41-.42-.41Z"/><path class="cls-2" d="M8.57,18.26l-.35-.35.35-.35.35.35Zm-.28-.35.28.28.28-.28-.28-.28Z"/><polygon class="cls-2" points="6.48 14.77 6.27 14.25 6.75 14.38 6.57 13.92 7.1 14.06 7.09 14.11 6.66 14 6.85 14.46 6.36 14.33 6.53 14.74 6.48 14.77"/><polygon class="cls-2" points="11.94 15.91 11.93 15.88 12.24 15.81 11.97 15.58 12.33 15.51 12.09 15.29 12.12 15.27 12.41 15.53 12.06 15.6 12.33 15.84 11.94 15.91"/><path class="cls-2" d="M8.52,15l-.05,0a.39.39,0,0,0-.18-.52.4.4,0,0,0-.53.18l-.05,0a.46.46,0,0,1,.61-.21A.45.45,0,0,1,8.52,15Z"/><path class="cls-2" d="M11.49,14.35l0,0a.32.32,0,0,0,0-.25.33.33,0,0,0-.17-.19.33.33,0,0,0-.44.15l0,0a.38.38,0,0,1,.51-.17.38.38,0,0,1,.17.51Z"/><path class="cls-2" d="M7.74,17.42a.2.2,0,0,1-.16-.33l0,0a.18.18,0,0,0,0,.25.18.18,0,0,0,.25,0l0,0A.2.2,0,0,1,7.74,17.42Z"/><path class="cls-2" d="M11.25,17.75h0a.17.17,0,0,0,0-.13.18.18,0,0,0-.32.06h0a.2.2,0,0,1,.09-.13.2.2,0,0,1,.31.21Z"/><path class="cls-2" d="M6.63,16.73A.38.38,0,1,1,7,16.35.38.38,0,0,1,6.63,16.73Zm0-.71a.33.33,0,1,0,.33.33A.33.33,0,0,0,6.63,16Z"/><path class="cls-2" d="M9,16.77a.18.18,0,1,1,.18-.18A.18.18,0,0,1,9,16.77Zm0-.33a.15.15,0,1,0,.15.15A.15.15,0,0,0,9,16.44Z"/><path class="cls-2" d="M11.09,16.7h-.78L10.7,16Zm-.68-.06H11l-.29-.5Z"/><path class="cls-2" d="M7.22,15.67V15.3l.32.19Zm0-.32v.27l.24-.14Z"/><path class="cls-2" d="M12.27,14.25h0l-.3-.17.32-.18ZM12,14.07l.24.14v-.27Z"/><path class="cls-2" d="M11.26,15.41h0l-.3-.17.32-.18ZM11,15.22l.24.14v-.27Z"/><path class="cls-2" d="M9.95,14H9.47l.24-.41Zm-.41,0h.35l-.18-.3Z"/><path class="cls-2" d="M11.61,18.59s0,0-.05,0,0,0,0,0,0,0,0,0,0,0-.05,0,0,0-.05,0,0,0,0,0,0,0,0,0,0,0-.05,0,0,0-.05,0,0,0,0,0,0,0,0,0,0,0-.05,0,0,0-.05,0,0,0,0,0,0,0,0,0,0,0-.05,0,0,0-.05,0,0,0,0,0,0,0,0,0,0,0-.05,0,0,0-.05,0,0,0,0,0,0,0,0,0,0,0-.05,0,0,0-.05,0,0,0,0,0,0,0,0,0,0,0-.05,0,0,0-.05,0,0,0,0,0,0,0,0,0,0,0-.05,0,0,0-.05,0,0,0,0,0,0,0,0,0,0,0-.05,0,0,0-.05,0,0,0,0,0v0s0,0,.05,0,0,0,0,0,0,0,0,0,0,0,.05,0,0,0,.05,0,0,0,0,0,0,0,0,0,0,0,.05,0,0,0,.05,0,0,0,0,0,0,0,0,0,0,0,.05,0,0,0,.05,0,0,0,0,0,0,0,0,0,0,0,.05,0,0,0,.05,0,0,0,0,0,0,0,0,0,0,0,.05,0,0,0,.05,0,0,0,0,0,0,0,0,0,0,0,.05,0,0,0,.05,0,0,0,0,0,0,0,0,0,0,0,.05,0,0,0,.05,0,0,0,0,0,0,0,0,0,0,0,.05,0,0,0,.05,0,0,0,0,0,0,0,0,0,0,0,.05,0,0,0,.06,0,0,0,0,0,0,0,0,0,0,0,.05,0v0s0,0,0,0S11.64,18.59,11.61,18.59Z"/><path class="cls-2" d="M7.6,16.48H7.53a.05.05,0,0,1,0,0h0s0,0,0,0a0,0,0,0,1,0,0h.08s0,0,0,0a0,0,0,0,1,0,0,.05.05,0,0,1,0,0h0s0,0,0,0a0,0,0,0,1,0,0,.05.05,0,0,1,0,0H8s0,0,0,0a0,0,0,0,1,0,0,0,0,0,0,1,0,0h0a0,0,0,0,0,0,0,.05.05,0,0,1,0,0,.05.05,0,0,1,0,0h0s0,0,0,0a0,0,0,0,1,0,0,.05.05,0,0,1,0,0h0s0,0,0,0a0,0,0,0,1,0,0,0,0,0,0,1,0,0h0s0,0,0,0a0,0,0,0,1,0,0,.05.05,0,0,1,0,0h0s0,0,0,0a.05.05,0,0,1,0,0,.05.05,0,0,1,0,0h0a0,0,0,0,0,0,0,.05.05,0,0,1,0,0h0s0,0,0,0a0,0,0,0,1,0,0,.05.05,0,0,1,0,0h0a0,0,0,0,0,0,0,0,0,0,0,1-.07,0h0s0,0,0,0a.05.05,0,0,1,0,0,.05.05,0,0,1,0,0h0s0,0,0,0a0,0,0,0,1-.07,0h0s0,0,0,0a0,0,0,0,1,0,0,.05.05,0,0,1,0,0h0s0,0,0,0a0,0,0,0,1-.07,0H8s0,0,0,0a0,0,0,0,1-.06,0h0s0,0,0,0a0,0,0,0,1,0,0,0,0,0,0,1,0,0h0s0,0,0,0a0,0,0,0,1,0,0,0,0,0,0,1,0,0h0a0,0,0,0,0,0,0,.05.05,0,0,1,0,0Z"/><path class="cls-2" d="M8.88,13.82h0s0,0,0,0,0,0,0,0h0s0,0,0,0,0,0-.06,0,0,0,0,0,0,0,0,0,0,0,0,0,0,0-.06,0,0,0,0,0,0,0,0,0,0,0,0,0,0,0-.06,0,0,0,0,0,0,0,0,0h0s0,0,0,0a.06.06,0,0,1-.06,0s0,0,0,0,0,0,0,0,0,0,0,0,0,0-.06,0,0,0,0,0,0,0,0,0h0s0,0,0,0a.07.07,0,0,1-.05,0h0s0,0,0,0,0,0,0,0h0s0,0,0,0,0,0-.06,0,0,0,0,0,0,0,0,0h0s0,0,0,0a.07.07,0,0,1-.05,0h0s0,0,0,0,0,0,0,0h0s0,0,0,0,0,0-.06,0,0,0,0,0,0,0,0,0v0s0,0,0,0,0,0,0,0,0,0,0,0,0,0,.06,0,0,0,0,0,0,0,0,0,0,0,0,0a.07.07,0,0,1,.05,0h0s0,0,0,0,0,0,0,0h0s0,0,0,0a.07.07,0,0,1,.05,0h0s0,0,0,0,0,0,0,0,0,0,0,0,0,0,.06,0,0,0,0,0,0,0,0,0h0s0,0,0,0a.07.07,0,0,1,.05,0H8s0,0,0,0,0,0,0,0h0s0,0,0,0a.07.07,0,0,1,.05,0h0s0,0,0,0,0,0,0,0,0,0,0,0a.07.07,0,0,1,.05,0h0s0,0,0,0,0,0,0,0,0,0,0,0,0,0,.06,0,0,0,0,0,0,0,0,0,0,0,0,0a.07.07,0,0,1,.06,0s0,0,0,0,0,0,0,0,0,0,0,0a.07.07,0,0,1,.06,0v0H9s0,0,0,0A.07.07,0,0,1,8.88,13.82Z"/><path class="cls-2" d="M11.82,14.81h0s0,0,0,0,0,0,0,0l0,0,0,0h0s0,0,0,0,0,0,0,0h0l0,0,0,0h0s0,0,0,0,0,0,0,0h0l0,0s0,0,0,0,0,0,0,0,0,0,0,0h0l0,0s0,0,0,0,0,0,0,0,0,0,0,0h0l0,0,0,0h0s0,0,0,0,0,0,0,0h0l0,0,0,0h0s0,0,0,0,0,0,0,0l0,0,0,0h0s0,0,0,0,0,0,0,0l0,0,0,0h0s0,0,0,0,0,0,0,0h0l0,0,0,0h0s0,0,0,0,0,0,0,0h0s0,0,0,0,0,0,0,0h0l0,0s0,0,0,0,0,0,0,0,0,0,0,0h0l0,0,0,0h0s0,0,0,0,0,0,0,0h0l0,0,0,0h0s0,0,0,0,0,0,0,0h0l0,0,0,0h0s0,0,0,0,0,0,0,0h0l0,0,0,0h0s0,0,0,0,0,0,0,0h0l0,0,0,0h0s0,0,0,0,0,0,0,0h0l0,0,0,0h0s0,0,0,0,0,0,0,0h0l0,0,0,0h0s0,0,0,0,0,0,0,0l0,0,0,0h0s0,0,0,0,0,0,0,0h0l0,0,0,0h0l0,0Z"/><polygon class="cls-2" points="13.56 12.89 12.9 12.23 12.94 12.2 13.6 12.85 13.56 12.89"/><polygon class="cls-2" points="12.94 12.89 12.9 12.85 13.56 12.2 13.6 12.23 12.94 12.89"/><polygon class="cls-2" points="18.72 17.72 18.22 17.22 18.25 17.19 18.75 17.69 18.72 17.72"/><polygon class="cls-2" points="18.25 17.72 18.22 17.69 18.72 17.19 18.75 17.22 18.25 17.72"/><path class="cls-2" d="M15.63,12.87c-.07,0-.09-.1-.12-.21s0-.17-.07-.17-.06.1-.08.17-.05.21-.12.21-.09-.1-.12-.21,0-.17-.07-.17-.06.1-.07.17-.05.21-.12.21-.09-.1-.12-.21,0-.17-.07-.17v0c.07,0,.09.1.12.21s0,.17.07.17.06-.1.07-.17.05-.21.12-.21.09.1.12.21,0,.17.08.17.06-.1.07-.17.05-.21.12-.21.09.1.12.21,0,.17.07.17Z"/><path class="cls-2" d="M15.84,15.84c-.05,0-.11-.07-.17-.15s-.11-.14-.14-.13l0,0c.06,0,.13.05.2.14s.1.13.13.13h0s0-.12,0-.19,0-.21,0-.24.13.05.19.14.1.13.13.13h0s0-.12,0-.19,0-.21,0-.24.13.06.19.14.1.13.13.13h0l0,0c-.06,0-.12-.06-.19-.14s-.11-.14-.14-.13,0,.12,0,.19,0,.21,0,.24-.13-.06-.2-.14-.11-.14-.14-.13,0,.12,0,.19,0,.21,0,.24Z"/><path class="cls-2" d="M16.59,18.19s0-.08,0-.13,0-.09,0-.1-.06,0-.09,0-.1.07-.13,0,0-.08,0-.13,0-.09,0-.1-.06,0-.09,0-.1.07-.13,0,0-.08,0-.13,0-.09,0-.1l0,0s0,.08,0,.13,0,.09,0,.1.06,0,.09,0,.1-.07.13,0,0,.08,0,.13,0,.09,0,.1.06,0,.09,0,.1-.07.13,0,0,.08,0,.13,0,.09,0,.1Z"/><path class="cls-2" d="M16.91,12.93h-.71v-.71h.71Zm-.64-.08h.56V12.3h-.56Z"/><path class="cls-2" d="M13.31,18.09h-.46v-.45h.46Zm-.41,0h.36v-.36H12.9Z"/><path class="cls-2" d="M18.11,13.11l-.52-.52.52-.52.52.52Zm-.42-.52.42.41.41-.41-.41-.41Z"/><path class="cls-2" d="M14.91,18.26l-.35-.35.35-.35.35.35Zm-.28-.35.28.28.28-.28-.28-.28Z"/><polygon class="cls-2" points="12.81 14.77 12.6 14.25 13.09 14.38 12.9 13.92 13.44 14.06 13.42 14.11 12.99 14 13.18 14.46 12.7 14.33 12.86 14.74 12.81 14.77"/><polygon class="cls-2" points="18.27 15.91 18.26 15.88 18.57 15.81 18.31 15.58 18.66 15.51 18.42 15.29 18.45 15.27 18.74 15.53 18.39 15.6 18.66 15.84 18.27 15.91"/><path class="cls-2" d="M14.86,15l-.05,0a.39.39,0,0,0-.18-.52.4.4,0,0,0-.53.18l-.05,0a.46.46,0,0,1,.61-.21A.45.45,0,0,1,14.86,15Z"/><path class="cls-2" d="M17.82,14.35l0,0a.32.32,0,0,0,0-.25.33.33,0,0,0-.17-.19.33.33,0,0,0-.44.15l0,0a.38.38,0,0,1,.51-.17.38.38,0,0,1,.17.51Z"/><path class="cls-2" d="M14.07,17.42a.2.2,0,0,1-.13,0,.2.2,0,0,1,0-.28l0,0a.18.18,0,0,0,0,.25.18.18,0,0,0,.25,0l0,0A.2.2,0,0,1,14.07,17.42Z"/><path class="cls-2" d="M17.58,17.75h0a.18.18,0,0,0,0-.13.18.18,0,0,0-.24-.05.18.18,0,0,0-.08.11h0a.2.2,0,0,1,.4.09Z"/><path class="cls-2" d="M13,16.73a.38.38,0,1,1,.38-.38A.38.38,0,0,1,13,16.73ZM13,16a.33.33,0,1,0,.33.33A.33.33,0,0,0,13,16Z"/><path class="cls-2" d="M15.33,16.77a.18.18,0,1,1,.18-.18A.18.18,0,0,1,15.33,16.77Zm0-.33a.15.15,0,1,0,.15.15A.15.15,0,0,0,15.33,16.44Z"/><path class="cls-2" d="M17.42,16.7h-.78L17,16Zm-.68-.06h.58l-.29-.5Z"/><path class="cls-2" d="M13.56,15.67V15.3l.32.19Zm0-.32v.27l.24-.14Z"/><path class="cls-2" d="M18.6,14.25h0l-.3-.17.32-.18Zm-.27-.18.24.14v-.27Z"/><path class="cls-2" d="M17.59,15.41h0l-.3-.17.32-.18Zm-.27-.19.24.14v-.27Z"/><path class="cls-2" d="M16.28,14H15.8l.24-.41Zm-.41,0h.35l-.18-.3Z"/><path class="cls-2" d="M17.94,18.59s0,0-.06,0,0,0,0,0,0,0,0,0,0,0-.05,0,0,0-.05,0,0,0,0,0,0,0,0,0,0,0-.05,0,0,0-.05,0,0,0,0,0,0,0,0,0,0,0-.05,0,0,0-.05,0,0,0,0,0,0,0,0,0,0,0-.05,0,0,0-.05,0,0,0,0,0,0,0,0,0,0,0-.05,0,0,0-.05,0,0,0,0,0,0,0,0,0,0,0-.05,0,0,0-.05,0,0,0,0,0,0,0,0,0,0,0-.05,0,0,0-.05,0,0,0,0,0,0,0,0,0,0,0-.05,0,0,0-.05,0,0,0,0,0,0,0,0,0,0,0-.05,0,0,0-.05,0,0,0,0,0v0s0,0,.05,0,0,0,0,0,0,0,0,0,0,0,.05,0,0,0,.05,0,0,0,0,0,0,0,0,0,0,0,.05,0,0,0,.05,0,0,0,0,0,0,0,0,0,0,0,.05,0,0,0,.05,0,0,0,0,0,0,0,0,0,0,0,.05,0,0,0,.05,0,0,0,0,0,0,0,0,0,0,0,.05,0,0,0,.05,0,0,0,0,0,0,0,0,0,0,0,.05,0,0,0,.05,0,0,0,0,0,0,0,0,0,0,0,.05,0,0,0,.05,0,0,0,0,0,0,0,0,0,0,0,.05,0,0,0,.05,0,0,0,0,0,0,0,0,0,0,0,.05,0,0,0,.05,0,0,0,0,0,0,0,0,0,0,0,.05,0v0s0,0,0,0S18,18.59,17.94,18.59Z"/><path class="cls-2" d="M13.93,16.48h-.07a.05.05,0,0,1,0,0h0s0,0,0,0a0,0,0,0,1,0,0h.08a0,0,0,0,0,0,0,0,0,0,0,1,0,0,.05.05,0,0,1,0,0h0s0,0,0,0a0,0,0,0,1,0,0,.05.05,0,0,1,0,0h0s0,0,0,0a0,0,0,0,1,0,0,0,0,0,0,1,0,0h0s0,0,0,0a0,0,0,0,1,0,0,.05.05,0,0,1,0,0h0s0,0,0,0a0,0,0,0,1,0,0,.05.05,0,0,1,0,0h0s0,0,0,0a0,0,0,0,1,0,0,0,0,0,0,1,0,0h0s0,0,0,0a0,0,0,0,1,0,0,.05.05,0,0,1,0,0h0s0,0,0,0a.05.05,0,0,1,0,0,.05.05,0,0,1,0,0h0a0,0,0,0,0,0,0,0,0,0,0,1,0,0h0s0,0,0,0a.05.05,0,0,1,0,0,.05.05,0,0,1,0,0h0s0,0,0,0a.05.05,0,0,1,0,0,.05.05,0,0,1,0,0h0a0,0,0,0,0,0,0,0,0,0,0,1,0,0,.05.05,0,0,1,0,0h0a0,0,0,0,0,0,0,0,0,0,0,1-.07,0h0s0,0,0,0a.05.05,0,0,1,0,0,.05.05,0,0,1,0,0h0a0,0,0,0,0,0,0,0,0,0,0,1,0,0,.05.05,0,0,1,0,0h0s0,0,0,0a0,0,0,0,1-.06,0h0s0,0,0,0a0,0,0,0,1,0,0,0,0,0,0,1,0,0h0s0,0,0,0a0,0,0,0,1,0,0,0,0,0,0,1,0,0h0s0,0,0,0a0,0,0,0,1,0,0Z"/><path class="cls-2" d="M15.21,13.82h0s0,0,0,0,0,0,0,0h0s0,0,0,0,0,0-.06,0,0,0,0,0,0,0,0,0,0,0,0,0,0,0-.06,0,0,0,0,0,0,0,0,0,0,0,0,0,0,0-.06,0,0,0,0,0,0,0,0,0h0s0,0,0,0,0,0-.06,0,0,0,0,0,0,0,0,0,0,0,0,0,0,0-.06,0,0,0,0,0,0,0,0,0h0s0,0,0,0a.08.08,0,0,1-.05,0h0s0,0,0,0,0,0,0,0h0s0,0,0,0,0,0-.06,0,0,0,0,0,0,0,0,0h0s0,0,0,0a.07.07,0,0,1-.05,0h0s0,0,0,0,0,0,0,0h0s0,0,0,0,0,0-.06,0,0,0,0,0,0,0,0,0v0s0,0,0,0,0,0,0,0,0,0,0,0,0,0,.06,0,0,0,0,0,0,0,0,0,0,0,0,0a.08.08,0,0,1,.05,0h0s0,0,0,0,0,0,0,0h0s0,0,0,0a.08.08,0,0,1,.05,0h0s0,0,0,0,0,0,0,0,0,0,0,0,0,0,.06,0,0,0,0,0,0,0,0,0h0s0,0,0,0a.07.07,0,0,1,.05,0h0s0,0,0,0,0,0,0,0h0s0,0,0,0a.07.07,0,0,1,.05,0h0s0,0,0,0,0,0,0,0,0,0,0,0a.07.07,0,0,1,.05,0h0s0,0,0,0,0,0,0,0,0,0,0,0,0,0,.06,0,0,0,0,0,0,0,0,0,0,0,0,0a.07.07,0,0,1,.06,0s0,0,0,0,0,0,0,0,0,0,0,0a.07.07,0,0,1,.06,0v0h0s0,0,0,0A.07.07,0,0,1,15.21,13.82Z"/><path class="cls-2" d="M18.15,14.81h0s0,0,0,0,0,0,0,0l0,0,0,0h0a0,0,0,0,1,0,0s0,0,0,0h0l0,0,0,0h0s0,0,0,0,0,0,0,0h0l0,0a0,0,0,0,1,0,0s0,0,0,0,0,0,0,0h0l0,0a0,0,0,0,1,0,0s0,0,0,0,0,0,0,0h0l0,0,0,0h0s0,0,0,0,0,0,0,0h0l0,0,0,0h0s0,0,0,0,0,0,0,0l0,0,0,0h0s0,0,0,0,0,0,0,0l0,0,0,0h0s0,0,0,0,0,0,0,0h0l0,0,0,0h0s0,0,0,0,0,0,0,0h0a0,0,0,0,1,0,0s0,0,0,0h0l0,0s0,0,0,0,0,0,0,0,0,0,0,0h0l0,0,0,0h0s0,0,0,0,0,0,0,0h0l0,0,0,0h0s0,0,0,0,0,0,0,0h0l0,0,0,0h0s0,0,0,0,0,0,0,0h0l0,0,0,0h0s0,0,0,0,0,0,0,0h0l0,0,0,0h0s0,0,0,0,0,0,0,0h0l0,0,0,0h0s0,0,0,0,0,0,0,0h0l0,0,0,0h0s0,0,0,0,0,0,0,0l0,0,0,0h0s0,0,0,0,0,0,0,0h0l0,0,0,0h0l0,0Z"/><polygon class="cls-2" points="19.81 12.89 19.15 12.23 19.19 12.2 19.85 12.85 19.81 12.89"/><polygon class="cls-2" points="19.19 12.89 19.15 12.85 19.81 12.2 19.85 12.23 19.19 12.89"/><polygon class="cls-2" points="24.97 17.72 24.47 17.22 24.5 17.19 25 17.69 24.97 17.72"/><polygon class="cls-2" points="24.5 17.72 24.47 17.69 24.97 17.19 25 17.22 24.5 17.72"/><path class="cls-2" d="M21.88,12.87c-.07,0-.09-.1-.12-.21s0-.17-.07-.17-.06.1-.08.17-.05.21-.12.21-.09-.1-.12-.21,0-.17-.07-.17-.06.1-.07.17-.05.21-.12.21-.09-.1-.12-.21,0-.17-.07-.17v0c.07,0,.09.1.12.21s0,.17.07.17.06-.1.07-.17.05-.21.12-.21.09.1.12.21,0,.17.07.17.06-.1.07-.17.05-.21.12-.21.09.1.12.21,0,.17.07.17Z"/><path class="cls-2" d="M22.09,15.84c-.05,0-.11-.07-.17-.15s-.11-.14-.14-.13l0,0c.06,0,.13.05.2.14s.1.13.13.13h0s0-.12,0-.19,0-.21,0-.24.13.05.2.14.1.13.13.13h0s0-.12,0-.19,0-.21,0-.24.13.06.19.14.1.13.13.13h0l0,0c-.06,0-.13-.06-.19-.14s-.11-.14-.14-.13,0,.12,0,.19,0,.21,0,.24-.13-.06-.2-.14-.11-.14-.14-.13,0,.12,0,.19,0,.21,0,.24Z"/><path class="cls-2" d="M22.84,18.19s0-.08,0-.13,0-.09,0-.1-.06,0-.09,0-.1.07-.13,0,0-.08,0-.13,0-.09,0-.1-.06,0-.09,0-.1.07-.12,0,0-.08,0-.13,0-.09,0-.1l0,0s0,.08,0,.13,0,.09,0,.1.06,0,.09,0,.1-.07.13,0,0,.08,0,.13,0,.09,0,.1.06,0,.09,0,.1-.07.13,0,0,.08,0,.13,0,.09,0,.1Z"/><path class="cls-2" d="M23.16,12.93h-.71v-.71h.71Zm-.64-.08h.56V12.3h-.56Z"/><path class="cls-2" d="M19.56,18.09H19.1v-.45h.46Zm-.41,0h.36v-.36h-.36Z"/><path class="cls-2" d="M24.36,13.11l-.52-.52.52-.52.52.52Zm-.42-.52.42.41.42-.41-.42-.41Z"/><path class="cls-2" d="M21.16,18.26l-.35-.35.35-.35.35.35Zm-.28-.35.28.28.28-.28-.28-.28Z"/><polygon class="cls-2" points="19.06 14.77 18.85 14.25 19.34 14.38 19.15 13.92 19.69 14.06 19.67 14.11 19.24 14 19.43 14.46 18.95 14.33 19.11 14.74 19.06 14.77"/><polygon class="cls-2" points="24.52 15.91 24.51 15.88 24.82 15.81 24.56 15.58 24.91 15.51 24.67 15.29 24.7 15.27 24.99 15.53 24.64 15.6 24.91 15.84 24.52 15.91"/><path class="cls-2" d="M21.11,15l-.05,0a.39.39,0,0,0-.18-.52.4.4,0,0,0-.53.18l-.05,0a.46.46,0,0,1,.61-.21A.45.45,0,0,1,21.11,15Z"/><path class="cls-2" d="M24.07,14.35l0,0a.32.32,0,0,0,0-.25.32.32,0,0,0-.17-.19.33.33,0,0,0-.44.15l0,0a.38.38,0,0,1,.51-.17.38.38,0,0,1,.17.51Z"/><path class="cls-2" d="M20.32,17.42a.2.2,0,0,1-.13,0,.2.2,0,0,1,0-.28l0,0a.17.17,0,0,0,0,.25.18.18,0,0,0,.25,0l0,0A.21.21,0,0,1,20.32,17.42Z"/><path class="cls-2" d="M23.83,17.75h0a.17.17,0,0,0,0-.13.18.18,0,0,0-.11-.08.18.18,0,0,0-.13,0,.17.17,0,0,0-.08.11h0a.2.2,0,0,1,.24-.15.2.2,0,0,1,.13.09A.2.2,0,0,1,23.83,17.75Z"/><path class="cls-2" d="M19.21,16.73a.38.38,0,1,1,.38-.38A.38.38,0,0,1,19.21,16.73Zm0-.71a.33.33,0,1,0,.33.33A.33.33,0,0,0,19.21,16Z"/><path class="cls-2" d="M21.58,16.77a.18.18,0,1,1,.18-.18A.18.18,0,0,1,21.58,16.77Zm0-.33a.15.15,0,1,0,.15.15A.15.15,0,0,0,21.58,16.44Z"/><path class="cls-2" d="M23.67,16.7h-.78l.39-.67ZM23,16.64h.58l-.29-.5Z"/><path class="cls-2" d="M19.81,15.67V15.3l.32.19Zm0-.32v.27l.24-.14Z"/><path class="cls-2" d="M24.85,14.25h0l-.3-.17.32-.18Zm-.27-.18.24.14v-.27Z"/><path class="cls-2" d="M23.84,15.41h0l-.3-.17.32-.18Zm-.27-.19.24.14v-.27Z"/><path class="cls-2" d="M22.53,14h-.47l.24-.41Zm-.41,0h.35l-.18-.3Z"/><path class="cls-2" d="M24.19,18.59s0,0-.05,0,0,0,0,0,0,0,0,0,0,0-.06,0,0,0-.05,0,0,0,0,0,0,0,0,0,0,0-.05,0,0,0-.05,0,0,0,0,0,0,0,0,0,0,0-.05,0,0,0-.05,0,0,0,0,0,0,0,0,0,0,0-.05,0,0,0-.05,0,0,0,0,0,0,0,0,0,0,0-.05,0,0,0-.05,0,0,0,0,0,0,0,0,0,0,0-.05,0,0,0-.05,0,0,0,0,0,0,0,0,0,0,0-.05,0,0,0-.05,0,0,0,0,0,0,0,0,0,0,0-.05,0,0,0-.05,0,0,0,0,0,0,0,0,0,0,0-.05,0,0,0-.05,0,0,0,0,0v0s0,0,.05,0,0,0,0,0,0,0,0,0,0,0,.05,0,0,0,.05,0,0,0,0,0,0,0,0,0,0,0,.05,0,0,0,.05,0,0,0,0,0,0,0,0,0,0,0,.05,0,0,0,.05,0,0,0,0,0,0,0,0,0,0,0,.05,0,0,0,.05,0,0,0,0,0,0,0,0,0,0,0,.05,0,0,0,.05,0,0,0,0,0,0,0,0,0,0,0,.05,0,0,0,.05,0,0,0,0,0,0,0,0,0,0,0,.05,0,0,0,.05,0,0,0,0,0,0,0,0,0,0,0,.05,0,0,0,.05,0,0,0,0,0,0,0,0,0,0,0,.05,0,0,0,.05,0,0,0,0,0,0,0,0,0,0,0,.05,0v0s0,0,0,0S24.22,18.59,24.19,18.59Z"/><path class="cls-2" d="M20.18,16.48h-.07a.05.05,0,0,1,0,0h0s0,0,0,0a.05.05,0,0,1,0,0h.08s0,0,0,0a0,0,0,0,1,0,0,.05.05,0,0,1,0,0h0s0,0,0,0a0,0,0,0,1,0,0,.05.05,0,0,1,0,0h0s0,0,0,0a0,0,0,0,1,0,0,.05.05,0,0,1,0,0h0s0,0,0,0a.05.05,0,0,1,0,0,.05.05,0,0,1,0,0h0s0,0,0,0a0,0,0,0,1,0,0,.05.05,0,0,1,0,0h0a0,0,0,0,0,0,0,.05.05,0,0,1,0,0,0,0,0,0,1,0,0h0a0,0,0,0,0,0,0,0,0,0,0,1,0,0,.05.05,0,0,1,0,0h0s0,0,0,0a0,0,0,0,1,.07,0h0a0,0,0,0,0,0,0,.05.05,0,0,1,0,0h0a0,0,0,0,0,0,0,0,0,0,0,1-.07,0h0s0,0,0,0a0,0,0,0,1,0,0,.05.05,0,0,1,0,0h0s0,0,0,0a.05.05,0,0,1,0,0,.05.05,0,0,1,0,0h0s0,0,0,0a.05.05,0,0,1,0,0,.05.05,0,0,1,0,0h0s0,0,0,0a.05.05,0,0,1,0,0,.05.05,0,0,1,0,0h0s0,0,0,0a.05.05,0,0,1,0,0,.05.05,0,0,1,0,0h0s0,0,0,0a0,0,0,0,1-.06,0h0s0,0,0,0a0,0,0,0,1,0,0,0,0,0,0,1,0,0h0s0,0,0,0a0,0,0,0,1,0,0,0,0,0,0,1,0,0h0a0,0,0,0,0,0,0,0,0,0,0,1,0,0Z"/><path class="cls-2" d="M21.46,13.82h0s0,0,0,0,0,0,0,0h0s0,0,0,0,0,0-.06,0,0,0,0,0,0,0,0,0,0,0,0,0,0,0-.06,0,0,0,0,0,0,0,0,0,0,0,0,0,0,0-.06,0,0,0,0,0,0,0,0,0h0s0,0,0,0,0,0-.06,0,0,0,0,0,0,0,0,0,0,0,0,0,0,0-.06,0,0,0,0,0,0,0,0,0h0s0,0,0,0a.07.07,0,0,1-.05,0h0s0,0,0,0,0,0,0,0h0s0,0,0,0,0,0-.06,0,0,0,0,0,0,0,0,0h0s0,0,0,0a.07.07,0,0,1-.05,0h0s0,0,0,0,0,0,0,0h0s0,0,0,0,0,0-.06,0,0,0,0,0,0,0,0,0v0s0,0,0,0,0,0,0,0,0,0,0,0,0,0,.06,0,0,0,0,0,0,0,0,0,0,0,0,0a.07.07,0,0,1,.05,0h0s0,0,0,0,0,0,0,0h0s0,0,0,0a.07.07,0,0,1,.05,0h0s0,0,0,0,0,0,0,0,0,0,0,0,0,0,.06,0,0,0,0,0,0,0,0,0h0s0,0,0,0a.07.07,0,0,1,.05,0h0s0,0,0,0,0,0,0,0h0s0,0,0,0a.07.07,0,0,1,.05,0h0s0,0,0,0,0,0,0,0,0,0,0,0a.07.07,0,0,1,.05,0h0s0,0,0,0,0,0,0,0,0,0,0,0,0,0,.06,0,0,0,0,0,0,0,0,0,0,0,0,0a.07.07,0,0,1,.06,0s0,0,0,0,0,0,0,0,0,0,0,0a.07.07,0,0,1,.06,0v0h0s0,0,0,0A.07.07,0,0,1,21.46,13.82Z"/><path class="cls-2" d="M24.4,14.81h0s0,0,0,0,0,0,0,0l0,0,0,0h0s0,0,0,0,0,0,0,0h0l0,0,0,0h0s0,0,0,0,0,0,0,0h0l0,0s0,0,0,0,0,0,0,0,0,0,0,0h0l0,0s0,0,0,0,0,0,0,0,0,0,0,0h0l0,0,0,0h0s0,0,0,0,0,0,0,0h0l0,0,0,0h0s0,0,0,0,0,0,0,0l0,0,0,0h0s0,0,0,0,0,0,0,0l0,0,0,0h0s0,0,0,0,0,0,0,0h0l0,0,0,0h0s0,0,0,0,0,0,0,0h0s0,0,0,0,0,0,0,0h0l0,0s0,0,0,0,0,0,0,0,0,0,0,0h0l0,0,0,0h0s0,0,0,0,0,0,0,0h0l0,0,0,0h0s0,0,0,0,0,0,0,0h0l0,0,0,0h0s0,0,0,0,0,0,0,0h0l0,0,0,0h0s0,0,0,0,0,0,0,0h0l0,0,0,0h0s0,0,0,0,0,0,0,0h0l0,0,0,0h0s0,0,0,0,0,0,0,0h0l0,0,0,0h0s0,0,0,0,0,0,0,0l0,0,0,0h0s0,0,0,0,0,0,0,0h0l0,0,0,0h0l0,0Z"/><polygon class="cls-2" points="24.02 19.63 24.68 18.97 24.64 18.93 23.98 19.59 24.02 19.63"/><polygon class="cls-2" points="24.64 19.63 24.68 19.59 24.02 18.93 23.98 18.97 24.64 19.63"/><polygon class="cls-2" points="18.86 24.46 19.37 23.96 19.34 23.93 18.83 24.43 18.86 24.46"/><polygon class="cls-2" points="19.34 24.46 19.37 24.43 18.86 23.93 18.83 23.96 19.34 24.46"/><path class="cls-2" d="M21.95,19.6c.07,0,.09-.1.12-.21s0-.17.08-.17.06.1.07.17.05.21.12.21.09-.1.12-.21,0-.17.07-.17.06.1.07.17.05.21.12.21.09-.1.12-.21,0-.17.07-.17v0c-.07,0-.09.1-.12.21s0,.17-.07.17-.06-.1-.07-.17-.05-.21-.12-.21-.09.1-.12.21,0,.17-.07.17-.06-.1-.07-.17-.05-.21-.12-.21-.09.1-.12.21,0,.17-.07.17Z"/><path class="cls-2" d="M21.75,22.58c.05,0,.11-.07.17-.15s.11-.14.14-.13l0,0c-.06,0-.13.06-.19.14s-.1.13-.13.13h0s0-.12,0-.19,0-.21,0-.24-.13.05-.2.14-.1.13-.13.13h0s0-.12,0-.19,0-.21,0-.24-.13.06-.19.14-.1.13-.13.13h0l0,0c.06,0,.13-.06.19-.14s.11-.14.14-.13,0,.12,0,.19,0,.21,0,.24.13-.06.19-.14.11-.14.14-.13,0,.12,0,.19,0,.21,0,.24Z"/><path class="cls-2" d="M21,24.92s0-.08,0-.13,0-.09,0-.1.06,0,.09,0,.1.07.13,0,0-.08,0-.13,0-.09,0-.1.06,0,.09,0,.1.07.13,0,0-.08,0-.13,0-.09,0-.1l0,0s0,.08,0,.13,0,.09,0,.1-.06,0-.09,0-.1-.07-.13,0,0,.08,0,.13,0,.09,0,.1-.06,0-.09,0-.1-.07-.13,0,0,.08,0,.13,0,.09,0,.1Z"/><path class="cls-2" d="M20.67,19h.71v.71h-.71Zm.64.08h-.56v.56h.56Z"/><path class="cls-2" d="M24.27,24.37h.46v.45h-.46Zm.41,0h-.36v.36h.36Z"/><path class="cls-2" d="M18.95,19.33l.52-.52.52.52-.52.52Zm.52-.41-.42.41.42.41.42-.41Z"/><path class="cls-2" d="M22.32,24.65l.35-.35.35.35-.35.35Zm.35-.28-.28.28.28.28.28-.28Z"/><polygon class="cls-2" points="24.77 21.5 24.98 20.99 24.5 21.12 24.68 20.66 24.15 20.8 24.16 20.85 24.59 20.74 24.4 21.2 24.89 21.07 24.72 21.48 24.77 21.5"/><polygon class="cls-2" points="19.31 22.65 19.32 22.61 19.01 22.55 19.28 22.32 18.93 22.24 19.16 22.03 19.14 22 18.84 22.27 19.19 22.34 18.92 22.57 19.31 22.65"/><path class="cls-2" d="M22.73,21.74l.05,0a.39.39,0,0,1,.18-.52.4.4,0,0,1,.53.18l.05,0a.46.46,0,0,0-.61-.21A.45.45,0,0,0,22.73,21.74Z"/><path class="cls-2" d="M19.76,21.09l0,0a.33.33,0,0,1,.15-.44.33.33,0,0,1,.44.15l0,0a.38.38,0,0,0-.51-.17.38.38,0,0,0-.17.5Z"/><path class="cls-2" d="M23.51,24.16a.2.2,0,0,0,.13,0,.2.2,0,0,0,0-.28l0,0a.18.18,0,0,1-.27.23l0,0A.2.2,0,0,0,23.51,24.16Z"/><path class="cls-2" d="M20,24.48h0a.17.17,0,0,1,0-.13.17.17,0,0,1,.11-.08.18.18,0,0,1,.21.13h0a.2.2,0,1,0-.4.09Z"/><path class="cls-2" d="M24.24,23.09a.38.38,0,1,1,.38.38A.38.38,0,0,1,24.24,23.09Zm0,0a.33.33,0,1,0,.33-.33A.33.33,0,0,0,24.29,23.09Z"/><path class="cls-2" d="M22.08,23.33a.18.18,0,1,1,.18.18A.18.18,0,0,1,22.08,23.33Zm0,0a.15.15,0,1,0,.15-.15A.15.15,0,0,0,22.1,23.33Z"/><path class="cls-2" d="M20.55,22.76l.39.67h-.78Zm0,.12-.29.5h.58Z"/><path class="cls-2" d="M23.7,22.23,24,22v.37Zm.06,0,.24.14v-.27Z"/><path class="cls-2" d="M19,20.62l.32.18L19,21h0Zm0,0v.27l.24-.14Z"/><path class="cls-2" d="M20,21.78l.32.18-.3.17h0Zm0,0v.27l.24-.14Z"/><path class="cls-2" d="M21.54,20.35l.24.41H21.3Zm0,.07-.18.3h.35Z"/><path class="cls-2" d="M23.65,23.22h.07a0,0,0,0,0,0,0h0s0,0,0,0a0,0,0,0,0,0,0h-.08s0,0,0,0a0,0,0,0,0,0,0,.05.05,0,0,0,0,0h0a0,0,0,0,1,0,0,0,0,0,0,0,0,0,0,0,0,0,0,0,0h0s0,0,0,0a0,0,0,0,0-.07,0h0s0,0,0,0a.05.05,0,0,0,0,0,.05.05,0,0,0,0,0h0a0,0,0,0,1,0,0,0,0,0,0,0,0,0,.05.05,0,0,0,0,0h0s0,0,0,0a.05.05,0,0,0,0,0,.05.05,0,0,0,0,0h0s0,0,0,0a.05.05,0,0,0,0,0,.05.05,0,0,0,0,0h0a0,0,0,0,1,0,0,0,0,0,0,0,0,0,.05.05,0,0,0,0,0h0a0,0,0,0,1,0,0,.05.05,0,0,0,0,0h0a0,0,0,0,1,0,0,0,0,0,0,0,0,0,.05.05,0,0,0,0,0h0s0,0,0,0a.05.05,0,0,0,0,0,0,0,0,0,0,0,0h0s0,0,0,0a0,0,0,0,0,0,0,0,0,0,0,0,0,0h0a0,0,0,0,1,0,0,0,0,0,0,0,.07,0h0s0,0,0,0a0,0,0,0,0,0,0,.05.05,0,0,0,0,0h0a0,0,0,0,1,0,0,.05.05,0,0,0,0,0,0,0,0,0,0,0,0h0a0,0,0,0,1,0,0,0,0,0,0,0,0,0,0,0,0,0,0,0,0h0s0,0,0,0a.05.05,0,0,0,0,0,0,0,0,0,0,0,0h0a0,0,0,0,1,0,0,0,0,0,0,0,0,0,.05.05,0,0,0,0,0h0s0,0,0,0a0,0,0,0,0,0,0Z"/><path class="cls-2" d="M22.37,20.55h0s0,0,0,0,0,0,0,0h0s0,0,0,0a.07.07,0,0,0,.06,0s0,0,0,0,0,0,0,0,0,0,0,0,0,0,.06,0,0,0,0,0,0,0,0,0,0,0,0,0a.07.07,0,0,0,.06,0s0,0,0,0,0,0,0,0h0s0,0,0,0,0,0,.06,0,0,0,0,0,0,0,0,0,0,0,0,0,0,0,.06,0,0,0,0,0,0,0,0,0h0s0,0,0,0a.07.07,0,0,0,.05,0h0s0,0,0,0,0,0,0,0h0s0,0,0,0,0,0,.06,0,0,0,0,0,0,0,0,0h0s0,0,0,0a.07.07,0,0,0,.05,0h0s0,0,0,0,0,0,0,0h0s0,0,0,0,0,0,.06,0,0,0,0,0,0,0,0,0v0s0,0,0,0,0,0,0,0,0,0,0,0,0,0-.06,0,0,0,0,0,0,0,0,0,0,0,0,0a.07.07,0,0,0-.05,0h0s0,0,0,0,0,0,0,0h0s0,0,0,0a.07.07,0,0,0-.05,0h0s0,0,0,0,0,0,0,0,0,0,0,0a.07.07,0,0,0-.06,0s0,0,0,0,0,0,0,0h0s0,0,0,0a.07.07,0,0,0-.05,0h0s0,0,0,0,0,0,0,0h0s0,0,0,0a.07.07,0,0,0-.05,0h0s0,0,0,0,0,0,0,0,0,0,0,0a.07.07,0,0,0-.05,0h0s0,0,0,0,0,0,0,0,0,0,0,0,0,0-.06,0,0,0,0,0,0,0,0,0,0,0,0,0a.07.07,0,0,0-.06,0s0,0,0,0,0,0,0,0,0,0,0,0a.07.07,0,0,0-.06,0v0h0s0,0,0,0A.07.07,0,0,0,22.37,20.55Z"/><path class="cls-2" d="M19.43,21.55h0s0,0,0,0,0,0,0,0l0,0,0,0h0s0,0,0,0,0,0,0,0h0l0,0,0,0h0s0,0,0,0,0,0,0,0h0l0,0a0,0,0,0,0,0,0s0,0,0,0,0,0,0,0h0l0,0a0,0,0,0,0,0,0s0,0,0,0,0,0,0,0h0l0,0,0,0h0s0,0,0,0,0,0,0,0h0l0,0,0,0h0s0,0,0,0,0,0,0,0l0,0,0,0h0s0,0,0,0,0,0,0,0l0,0,0,0h0s0,0,0,0,0,0,0,0h0l0,0,0,0h0s0,0,0,0,0,0,0,0h0s0,0,0,0,0,0,0,0h0l0,0a0,0,0,0,0,0,0s0,0,0,0,0,0,0,0h0l0,0,0,0h0s0,0,0,0,0,0,0,0h0l0,0,0,0h0s0,0,0,0,0,0,0,0h0l0,0,0,0h0s0,0,0,0,0,0,0,0h0l0,0,0,0h0s0,0,0,0,0,0,0,0h0l0,0,0,0h0s0,0,0,0,0,0,0,0h0l0,0,0,0h0s0,0,0,0,0,0,0,0h0l0,0,0,0h0s0,0,0,0,0,0,0,0l0,0,0,0h0s0,0,0,0,0,0,0,0h0l0,0,0,0h0l0,0Z"/><polygon class="cls-2" points="17.77 19.63 18.43 18.97 18.39 18.93 17.73 19.59 17.77 19.63"/><polygon class="cls-2" points="18.39 19.63 18.43 19.59 17.77 18.93 17.73 18.97 18.39 19.63"/><polygon class="cls-2" points="12.61 24.46 13.12 23.96 13.09 23.93 12.58 24.43 12.61 24.46"/><polygon class="cls-2" points="13.09 24.46 13.12 24.43 12.61 23.93 12.58 23.96 13.09 24.46"/><path class="cls-2" d="M15.7,19.6c.07,0,.09-.1.12-.21s0-.17.07-.17.06.1.08.17.05.21.12.21.09-.1.12-.21,0-.17.07-.17.06.1.07.17.05.21.12.21.09-.1.12-.21,0-.17.07-.17v0c-.07,0-.09.1-.12.21s0,.17-.07.17-.06-.1-.08-.17-.05-.21-.12-.21-.09.1-.12.21,0,.17-.07.17-.06-.1-.07-.17-.05-.21-.12-.21-.09.1-.12.21,0,.17-.08.17Z"/><path class="cls-2" d="M15.5,22.58c.05,0,.11-.07.17-.15s.11-.14.14-.13l0,0c-.06,0-.13.06-.19.14s-.1.13-.13.13h0s0-.12,0-.19,0-.21,0-.24-.13.05-.19.14-.1.13-.13.13h0s0-.12,0-.19,0-.21,0-.24-.13.06-.19.14-.1.13-.13.13h0l0,0c.06,0,.13-.06.19-.14s.11-.14.14-.13,0,.12,0,.19,0,.21,0,.24.13-.06.19-.14.11-.14.14-.13,0,.12,0,.19,0,.21,0,.24Z"/><path class="cls-2" d="M14.74,24.92s0-.08,0-.13,0-.09,0-.1.06,0,.09,0,.1.07.13,0,0-.08,0-.13,0-.09,0-.1.06,0,.09,0,.1.07.13,0,0-.08,0-.13,0-.09,0-.1l0,0s0,.08,0,.13,0,.09,0,.1-.06,0-.09,0-.1-.07-.12,0,0,.08,0,.13,0,.09,0,.1-.06,0-.09,0-.1-.07-.13,0,0,.08,0,.13,0,.09,0,.1Z"/><path class="cls-2" d="M14.42,19h.72v.71h-.72Zm.64.08H14.5v.56h.56Z"/><path class="cls-2" d="M18,24.37h.46v.45H18Zm.41,0h-.36v.36h.36Z"/><path class="cls-2" d="M12.7,19.33l.52-.52.52.52-.52.52Zm.52-.41-.42.41.42.41.42-.41Z"/><path class="cls-2" d="M16.07,24.65l.35-.35.35.35-.35.35Zm.35-.28-.28.28.28.28.28-.28Z"/><polygon class="cls-2" points="18.52 21.5 18.73 20.99 18.25 21.12 18.43 20.66 17.9 20.8 17.91 20.85 18.34 20.74 18.15 21.2 18.64 21.07 18.47 21.48 18.52 21.5"/><polygon class="cls-2" points="13.06 22.65 13.07 22.61 12.76 22.55 13.03 22.32 12.67 22.24 12.91 22.03 12.88 22 12.59 22.27 12.94 22.34 12.67 22.57 13.06 22.65"/><path class="cls-2" d="M16.48,21.74l.05,0a.39.39,0,0,1,.18-.52.4.4,0,0,1,.53.18l.05,0a.46.46,0,0,0-.61-.21A.45.45,0,0,0,16.48,21.74Z"/><path class="cls-2" d="M13.51,21.09l0,0a.32.32,0,0,1,0-.25.33.33,0,0,1,.17-.19.33.33,0,0,1,.44.15l0,0a.38.38,0,0,0-.51-.17.38.38,0,0,0-.17.5Z"/><path class="cls-2" d="M17.26,24.16a.2.2,0,0,0,.16-.33l0,0a.18.18,0,0,1-.27.23l0,0A.2.2,0,0,0,17.26,24.16Z"/><path class="cls-2" d="M13.75,24.48h0a.17.17,0,0,1,0-.13.17.17,0,0,1,.11-.08.18.18,0,0,1,.13,0,.18.18,0,0,1,.08.11h0a.2.2,0,0,0-.24-.15.2.2,0,0,0-.13.09A.2.2,0,0,0,13.75,24.48Z"/><path class="cls-2" d="M18,23.09a.38.38,0,1,1,.38.38A.38.38,0,0,1,18,23.09Zm0,0a.33.33,0,1,0,.33-.33A.33.33,0,0,0,18,23.09Z"/><path class="cls-2" d="M15.83,23.33a.18.18,0,1,1,.18.18A.18.18,0,0,1,15.83,23.33Zm0,0a.15.15,0,1,0,.15-.15A.15.15,0,0,0,15.85,23.33Z"/><path class="cls-2" d="M14.3,22.76l.39.67h-.78Zm0,.12-.29.5h.58Z"/><path class="cls-2" d="M17.45,22.23l.32-.19v.37Zm.06,0,.24.14v-.27Z"/><path class="cls-2" d="M12.73,20.62l.32.18-.3.17h0Zm0,0v.27l.24-.14Z"/><path class="cls-2" d="M13.74,21.78l.32.18-.3.17h0Zm0,0v.27L14,22Z"/><path class="cls-2" d="M15.29,20.35l.24.41h-.47Zm0,.07-.18.3h.35Z"/><path class="cls-2" d="M17.4,23.22h.07a0,0,0,0,0,0,0h0s0,0,0,0a0,0,0,0,0,0,0h-.08a0,0,0,0,1,0,0,0,0,0,0,0,0,0,.05.05,0,0,0,0,0h0a0,0,0,0,1,0,0,.05.05,0,0,0,0,0,.05.05,0,0,0,0,0h0a0,0,0,0,1,0,0,0,0,0,0,0,0,0,0,0,0,0,0,0,0h0a0,0,0,0,1,0,0,.05.05,0,0,0,0,0,.05.05,0,0,0,0,0h0a0,0,0,0,1,0,0,0,0,0,0,0,0,0,.05.05,0,0,0,0,0h0s0,0,0,0a0,0,0,0,0,0,0,0,0,0,0,0,0,0h0s0,0,0,0a0,0,0,0,0,0,0,.05.05,0,0,0,0,0h0s0,0,0,0a.05.05,0,0,0,0,0,.05.05,0,0,0,0,0h0a0,0,0,0,1,0,0,0,0,0,0,0,0,0h0s0,0,0,0a0,0,0,0,0,0,0,.05.05,0,0,0,0,0h0s0,0,0,0a0,0,0,0,0,.07,0h0a0,0,0,0,1,0,0,0,0,0,0,0,0,0,0,0,0,0,0,0,0h0a0,0,0,0,1,0,0,0,0,0,0,0,0,0,.05.05,0,0,0,0,0h0s0,0,0,0a0,0,0,0,0,.07,0h0a0,0,0,0,1,0,0,0,0,0,0,0,0,0,.05.05,0,0,0,0,0h0s0,0,0,0a.05.05,0,0,0,0,0,0,0,0,0,0,0,0h0s0,0,0,0a.05.05,0,0,0,0,0,0,0,0,0,0,0,0h0s0,0,0,0a0,0,0,0,0,0,0,.05.05,0,0,0,0,0h0s0,0,0,0a0,0,0,0,0,0,0Z"/><path class="cls-2" d="M16.12,20.55h0s0,0,0,0,0,0,0,0h0s0,0,0,0,0,0,.06,0,0,0,0,0,0,0,0,0,0,0,0,0a.07.07,0,0,0,.06,0s0,0,0,0,0,0,0,0,0,0,0,0a.07.07,0,0,0,.06,0s0,0,0,0,0,0,0,0h0s0,0,0,0a.06.06,0,0,0,.06,0s0,0,0,0,0,0,0,0,0,0,0,0,0,0,.06,0,0,0,0,0,0,0,0,0h0s0,0,0,0a.07.07,0,0,0,.05,0h0s0,0,0,0,0,0,0,0h0s0,0,0,0,0,0,.06,0,0,0,0,0,0,0,0,0h0s0,0,0,0,0,0,.05,0h0s0,0,0,0,0,0,0,0h0s0,0,0,0a.07.07,0,0,0,.06,0s0,0,0,0,0,0,0,0v0s0,0,0,0,0,0,0,0,0,0,0,0,0,0-.06,0,0,0,0,0,0,0,0,0,0,0,0,0a.07.07,0,0,0-.05,0h0s0,0,0,0,0,0,0,0h0s0,0,0,0a.08.08,0,0,0-.05,0h0s0,0,0,0,0,0,0,0,0,0,0,0a.07.07,0,0,0-.06,0s0,0,0,0,0,0,0,0h0s0,0,0,0a.07.07,0,0,0-.05,0h0s0,0,0,0,0,0,0,0h0s0,0,0,0a.07.07,0,0,0-.05,0h0s0,0,0,0,0,0,0,0,0,0,0,0a.07.07,0,0,0-.05,0h0s0,0,0,0,0,0,0,0,0,0,0,0,0,0-.06,0,0,0,0,0,0,0,0,0,0,0,0,0a.07.07,0,0,0-.06,0s0,0,0,0,0,0,0,0,0,0,0,0a.07.07,0,0,0-.06,0v0h0s0,0,0,0A.07.07,0,0,0,16.12,20.55Z"/><path class="cls-2" d="M13.18,21.55h0s0,0,0,0,0,0,0,0l0,0,0,0h0s0,0,0,0,0,0,0,0h0l0,0,0,0h0s0,0,0,0,0,0,0,0h0l0,0a0,0,0,0,0,0,0s0,0,0,0,0,0,0,0h0l0,0s0,0,0,0,0,0,0,0,0,0,0,0h0l0,0,0,0h0s0,0,0,0,0,0,0,0h0l0,0,0,0h0s0,0,0,0,0,0,0,0l0,0,0,0h0s0,0,0,0,0,0,0,0l0,0,0,0h0s0,0,0,0,0,0,0,0h0l0,0,0,0h0s0,0,0,0,0,0,0,0h0s0,0,0,0,0,0,0,0h0l0,0s0,0,0,0,0,0,0,0,0,0,0,0h0l0,0,0,0h0s0,0,0,0,0,0,0,0h0l0,0,0,0h0s0,0,0,0,0,0,0,0h0l0,0,0,0h0s0,0,0,0,0,0,0,0h0l0,0,0,0h0s0,0,0,0,0,0,0,0h0l0,0,0,0h0s0,0,0,0,0,0,0,0h0l0,0,0,0h0s0,0,0,0,0,0,0,0h0l0,0,0,0h0s0,0,0,0,0,0,0,0l0,0,0,0h0s0,0,0,0,0,0,0,0h0l0,0,0,0h0l0,0Z"/><polygon class="cls-2" points="11.44 19.63 12.1 18.97 12.06 18.93 11.4 19.59 11.44 19.63"/><polygon class="cls-2" points="12.06 19.63 12.1 19.59 11.44 18.93 11.4 18.97 12.06 19.63"/><polygon class="cls-2" points="6.28 24.46 6.79 23.96 6.75 23.93 6.25 24.43 6.28 24.46"/><polygon class="cls-2" points="6.75 24.46 6.79 24.43 6.28 23.93 6.25 23.96 6.75 24.46"/><path class="cls-2" d="M9.37,19.6c.07,0,.09-.1.12-.21s0-.17.07-.17.06.1.07.17.05.21.12.21.09-.1.12-.21,0-.17.07-.17.06.1.07.17.05.21.12.21.09-.1.12-.21,0-.17.07-.17v0c-.07,0-.09.1-.12.21s0,.17-.07.17-.06-.1-.07-.17-.05-.21-.12-.21-.09.1-.12.21,0,.17-.07.17-.06-.1-.07-.17-.05-.21-.12-.21-.09.1-.12.21,0,.17-.07.17Z"/><path class="cls-2" d="M9.16,22.58c.05,0,.11-.07.17-.15s.11-.14.14-.13l0,0c-.06,0-.13.06-.19.14s-.1.13-.13.13h0s0-.12,0-.19,0-.21,0-.24-.13.05-.19.14-.1.13-.13.13h0s0-.12,0-.19,0-.21,0-.24-.13.06-.19.14-.1.13-.13.13h0l0,0c.06,0,.13-.06.19-.14s.11-.14.14-.13,0,.12,0,.19,0,.21,0,.24.13-.06.19-.14.11-.14.14-.13,0,.12,0,.19,0,.21,0,.24Z"/><path class="cls-2" d="M8.41,24.92s0-.08,0-.13,0-.09,0-.1.06,0,.09,0,.1.07.13,0,0-.08,0-.13,0-.09,0-.1.06,0,.09,0,.1.07.13,0,0-.08,0-.13,0-.09,0-.1l0,0s0,.08,0,.13,0,.09,0,.1-.06,0-.09,0-.1-.07-.13,0,0,.08,0,.13,0,.09,0,.1-.06,0-.09,0-.1-.07-.13,0,0,.08,0,.13,0,.09,0,.1Z"/><path class="cls-2" d="M8.09,19h.71v.71H8.09Zm.64.08H8.17v.56h.56Z"/><path class="cls-2" d="M11.69,24.37h.46v.45h-.46Zm.41,0h-.36v.36h.36Z"/><path class="cls-2" d="M6.37,19.33l.52-.52.52.52-.52.52Zm.52-.41-.42.41.42.41.42-.41Z"/><path class="cls-2" d="M9.74,24.65l.35-.35.35.35-.35.35Zm.35-.28-.28.28.28.28.28-.28Z"/><polygon class="cls-2" points="12.19 21.5 12.4 20.99 11.91 21.12 12.1 20.66 11.56 20.8 11.58 20.85 12.01 20.74 11.82 21.2 12.3 21.07 12.14 21.48 12.19 21.5"/><polygon class="cls-2" points="6.73 22.65 6.74 22.61 6.43 22.55 6.69 22.32 6.34 22.24 6.58 22.03 6.55 22 6.26 22.27 6.61 22.34 6.34 22.57 6.73 22.65"/><path class="cls-2" d="M10.15,21.74l.05,0a.39.39,0,0,1,.18-.52.4.4,0,0,1,.53.18l.05,0a.46.46,0,0,0-.61-.21A.45.45,0,0,0,10.15,21.74Z"/><path class="cls-2" d="M7.18,21.09l0,0a.32.32,0,0,1,0-.25.33.33,0,0,1,.17-.19.33.33,0,0,1,.44.15l0,0a.38.38,0,0,0-.51-.17.38.38,0,0,0-.17.5Z"/><path class="cls-2" d="M10.93,24.16a.21.21,0,0,0,.13,0,.2.2,0,0,0,0-.28l0,0a.18.18,0,0,1-.27.23l0,0A.2.2,0,0,0,10.93,24.16Z"/><path class="cls-2" d="M7.42,24.48h0a.17.17,0,0,1,.13-.21.17.17,0,0,1,.13,0,.18.18,0,0,1,.08.11h0a.2.2,0,0,0-.09-.13.2.2,0,0,0-.15,0,.2.2,0,0,0-.13.09A.2.2,0,0,0,7.42,24.48Z"/><path class="cls-2" d="M11.65,23.09a.38.38,0,1,1,.38.38A.38.38,0,0,1,11.65,23.09Zm0,0a.33.33,0,1,0,.33-.33A.33.33,0,0,0,11.7,23.09Z"/><path class="cls-2" d="M9.5,23.33a.18.18,0,1,1,.18.18A.18.18,0,0,1,9.5,23.33Zm0,0a.15.15,0,1,0,.15-.15A.15.15,0,0,0,9.52,23.33Z"/><path class="cls-2" d="M8,22.76l.39.67H7.58Zm0,.12-.29.5h.58Z"/><path class="cls-2" d="M11.12,22.23l.32-.19v.37Zm.06,0,.24.14v-.27Z"/><path class="cls-2" d="M6.4,20.62l.32.18-.3.17h0Zm0,0v.27l.24-.14Z"/><path class="cls-2" d="M7.41,21.78l.32.18-.3.17h0Zm0,0v.27L7.68,22Z"/><path class="cls-2" d="M9,20.35l.24.41H8.72Zm0,.07-.18.3h.35Z"/><path class="cls-2" d="M11.07,23.22h.07a0,0,0,0,0,0,0h0a0,0,0,0,1,0,0,0,0,0,0,0,0,0h-.08s0,0,0,0a0,0,0,0,0,0,0,.05.05,0,0,0,0,0h0s0,0,0,0a0,0,0,0,0,0,0,.05.05,0,0,0,0,0h0a0,0,0,0,1,0,0,0,0,0,0,0,0,0,.05.05,0,0,0,0,0h0a0,0,0,0,1,0,0,.05.05,0,0,0,0,0,.05.05,0,0,0,0,0h0s0,0,0,0a.05.05,0,0,0,0,0,.05.05,0,0,0,0,0h0s0,0,0,0a0,0,0,0,0-.07,0h0s0,0,0,0a.05.05,0,0,0,0,0,.05.05,0,0,0,0,0h0s0,0,0,0a.05.05,0,0,0,0,0,.05.05,0,0,0,0,0h0a0,0,0,0,1,0,0,.05.05,0,0,0,0,0h0s0,0,0,0a.05.05,0,0,0,0,0,.05.05,0,0,0,0,0h0a0,0,0,0,1,0,0,.05.05,0,0,0,0,0,0,0,0,0,0,0,0h0s0,0,0,0a0,0,0,0,0,.07,0h0a0,0,0,0,1,0,0,0,0,0,0,0,0,0,.05.05,0,0,0,0,0h0s0,0,0,0a0,0,0,0,0,.07,0h0s0,0,0,0a0,0,0,0,0,.07,0h0s0,0,0,0a0,0,0,0,0,.06,0h0s0,0,0,0a0,0,0,0,0,.06,0h0s0,0,0,0a0,0,0,0,0,0,0,.05.05,0,0,0,0,0h0s0,0,0,0a0,0,0,0,0,0,0Z"/><path class="cls-2" d="M9.79,20.55h0s0,0,0,0,0,0,0,0h0s0,0,0,0,0,0,.06,0,0,0,0,0,0,0,0,0,0,0,0,0,0,0,.06,0,0,0,0,0,0,0,0,0,0,0,0,0,0,0,.06,0,0,0,0,0,0,0,0,0h0s0,0,0,0a.06.06,0,0,0,.06,0s0,0,0,0,0,0,0,0,0,0,0,0,0,0,.06,0,0,0,0,0,0,0,0,0h0s0,0,0,0a.07.07,0,0,0,.05,0h0s0,0,0,0,0,0,0,0h0s0,0,0,0,0,0,.06,0,0,0,0,0,0,0,0,0h0s0,0,0,0a.07.07,0,0,0,.05,0h0s0,0,0,0,0,0,0,0h0s0,0,0,0,0,0,.06,0,0,0,0,0,0,0,0,0v0s0,0,0,0,0,0,0,0,0,0,0,0,0,0-.06,0,0,0,0,0,0,0,0,0,0,0,0,0a.07.07,0,0,0-.05,0h0s0,0,0,0,0,0,0,0h0s0,0,0,0a.08.08,0,0,0-.05,0h0s0,0,0,0,0,0,0,0,0,0,0,0,0,0-.06,0,0,0,0,0,0,0,0,0h0s0,0,0,0a.07.07,0,0,0-.05,0h0s0,0,0,0,0,0,0,0h0s0,0,0,0a.07.07,0,0,0-.05,0h0s0,0,0,0,0,0,0,0,0,0,0,0a.07.07,0,0,0-.05,0h0s0,0,0,0,0,0,0,0,0,0,0,0,0,0-.06,0,0,0,0,0,0,0,0,0,0,0,0,0a.07.07,0,0,0-.06,0s0,0,0,0,0,0,0,0,0,0,0,0a.07.07,0,0,0-.06,0v0h0s0,0,0,0A.07.07,0,0,0,9.79,20.55Z"/><path class="cls-2" d="M6.85,21.55h0s0,0,0,0,0,0,0,0l0,0,0,0H7s0,0,0,0,0,0,0,0H7l0,0,0,0h0s0,0,0,0,0,0,0,0h0l0,0a0,0,0,0,0,0,0s0,0,0,0,0,0,0,0h0l0,0a0,0,0,0,0,0,0s0,0,0,0,0,0,0,0h0l0,0,0,0h0s0,0,0,0,0,0,0,0h0l0,0,0,0h0s0,0,0,0,0,0,0,0l0,0,0,0h0s0,0,0,0,0,0,0,0l0,0,0,0h0s0,0,0,0,0,0,0,0h0l0,0,0,0h0s0,0,0,0,0,0,0,0H8s0,0,0,0,0,0,0,0h0l0,0a0,0,0,0,0,0,0s0,0,0,0,0,0,0,0h0l0,0,0,0h0s0,0,0,0,0,0,0,0h0l0,0,0,0h0s0,0,0,0,0,0,0,0h0l0,0,0,0h0s0,0,0,0,0,0,0,0h0l0,0,0,0h0s0,0,0,0,0,0,0,0h0l0,0,0,0h0s0,0,0,0,0,0,0,0h0l0,0,0,0h0s0,0,0,0,0,0,0,0h0l0,0,0,0H7s0,0,0,0,0,0,0,0l0,0,0,0h0s0,0,0,0,0,0,0,0h0l0,0,0,0h0l0,0Z"/><polygon class="cls-2" points="5.19 19.63 5.85 18.97 5.81 18.93 5.15 19.59 5.19 19.63"/><polygon class="cls-2" points="5.81 19.63 5.85 19.59 5.19 18.93 5.15 18.97 5.81 19.63"/><polygon class="cls-2" points="0.03 24.46 0.53 23.96 0.5 23.93 0 24.43 0.03 24.46"/><polygon class="cls-2" points="0.5 24.46 0.53 24.43 0.03 23.93 0 23.96 0.5 24.46"/><path class="cls-2" d="M3.12,19.6c.07,0,.09-.1.12-.21s0-.17.07-.17.06.1.07.17.05.21.12.21.09-.1.12-.21,0-.17.07-.17.06.1.07.17.05.21.12.21S4,19.5,4,19.4s0-.17.07-.17v0c-.07,0-.09.1-.12.21s0,.17-.07.17-.06-.1-.07-.17-.05-.21-.12-.21-.09.1-.12.21,0,.17-.07.17-.06-.1-.07-.17-.05-.21-.12-.21-.09.1-.12.21,0,.17-.07.17Z"/><path class="cls-2" d="M2.91,22.58c.05,0,.11-.07.17-.15s.11-.14.14-.13l0,0c-.06,0-.13.06-.19.14s-.1.13-.13.13h0s0-.12,0-.19,0-.21,0-.24-.13.05-.19.14-.1.13-.13.13h0s0-.12,0-.19,0-.21,0-.24-.13.06-.19.14-.1.13-.13.13h0l0,0c.06,0,.13-.06.19-.14s.11-.14.14-.13,0,.12,0,.19,0,.21,0,.24.13-.06.19-.14.11-.14.14-.13,0,.12,0,.19,0,.21,0,.24Z"/><path class="cls-2" d="M2.16,24.92s0-.08,0-.13,0-.09,0-.1.06,0,.09,0,.1.07.13,0,0-.08,0-.13,0-.09,0-.1.06,0,.09,0,.1.07.13,0,0-.08,0-.13,0-.09,0-.1l0,0s0,.08,0,.13,0,.09,0,.1-.06,0-.09,0-.1-.07-.13,0,0,.08,0,.13,0,.09,0,.1-.06,0-.09,0-.1-.07-.13,0,0,.08,0,.13,0,.09,0,.1Z"/><path class="cls-2" d="M1.84,19h.72v.71H1.84Zm.64.08H1.92v.56h.56Z"/><path class="cls-2" d="M5.44,24.37H5.9v.45H5.44Zm.41,0H5.49v.36h.36Z"/><path class="cls-2" d="M.12,19.33l.52-.52.52.52-.52.52Zm.52-.41-.42.41.42.41.42-.41Z"/><path class="cls-2" d="M3.49,24.65l.35-.35.35.35L3.84,25Zm.35-.28-.28.28.28.28.28-.28Z"/><polygon class="cls-2" points="5.94 21.5 6.15 20.99 5.66 21.12 5.85 20.66 5.31 20.8 5.33 20.85 5.76 20.74 5.57 21.2 6.05 21.07 5.89 21.48 5.94 21.5"/><polygon class="cls-2" points="0.48 22.65 0.49 22.61 0.18 22.55 0.44 22.32 0.09 22.24 0.33 22.03 0.3 22 0.01 22.27 0.36 22.34 0.09 22.57 0.48 22.65"/><path class="cls-2" d="M3.89,21.74l.05,0a.39.39,0,0,1,.18-.52.4.4,0,0,1,.53.18l.05,0a.46.46,0,0,0-.61-.21A.45.45,0,0,0,3.89,21.74Z"/><path class="cls-2" d="M.93,21.09l0,0a.32.32,0,0,1,0-.25.33.33,0,0,1,.17-.19.33.33,0,0,1,.44.15l0,0a.38.38,0,0,0-.51-.17.38.38,0,0,0-.17.5Z"/><path class="cls-2" d="M4.68,24.16a.2.2,0,0,0,.13,0,.2.2,0,0,0,0-.28l0,0a.18.18,0,0,1-.27.23l0,0A.2.2,0,0,0,4.68,24.16Z"/><path class="cls-2" d="M1.17,24.48h0a.17.17,0,0,1,.13-.21.18.18,0,0,1,.21.13h0a.2.2,0,1,0-.4.09Z"/><path class="cls-2" d="M5.4,23.09a.38.38,0,1,1,.38.38A.38.38,0,0,1,5.4,23.09Zm0,0a.33.33,0,1,0,.33-.33A.33.33,0,0,0,5.45,23.09Z"/><path class="cls-2" d="M3.25,23.33a.18.18,0,1,1,.18.18A.18.18,0,0,1,3.25,23.33Zm0,0a.15.15,0,1,0,.15-.15A.15.15,0,0,0,3.27,23.33Z"/><path class="cls-2" d="M1.72,22.76l.39.67H1.33Zm0,.12-.29.5H2Z"/><path class="cls-2" d="M4.87,22.23,5.19,22v.37Zm.06,0,.24.14v-.27Z"/><path class="cls-2" d="M.15,20.62l.32.18L.17,21h0Zm0,0v.27l.24-.14Z"/><path class="cls-2" d="M1.16,21.78l.32.18-.3.17h0Zm0,0v.27L1.43,22Z"/><path class="cls-2" d="M2.71,20.35l.24.41H2.47Zm0,.07-.18.3h.35Z"/><path class="cls-2" d="M4.82,23.22h.07a0,0,0,0,0,0,0h0s0,0,0,0a0,0,0,0,0,0,0H4.69s0,0,0,0a0,0,0,0,0,0,0,.05.05,0,0,0,0,0h0s0,0,0,0a0,0,0,0,0,0,0,.05.05,0,0,0,0,0h0s0,0,0,0a0,0,0,0,0,0,0,0,0,0,0,0,0,0h0a0,0,0,0,1,0,0,.05.05,0,0,0,0,0,.05.05,0,0,0,0,0h0s0,0,0,0a.05.05,0,0,0,0,0,.05.05,0,0,0,0,0h0s0,0,0,0a.05.05,0,0,0,0,0,0,0,0,0,0,0,0H4s0,0,0,0a.05.05,0,0,0,0,0,.05.05,0,0,0,0,0h0s0,0,0,0a.05.05,0,0,0,0,0,.05.05,0,0,0,0,0h0a0,0,0,0,1,0,0,.05.05,0,0,0,0,0h0a0,0,0,0,1,0,0,0,0,0,0,0,0,0,.05.05,0,0,0,0,0h0a0,0,0,0,1,0,0,.05.05,0,0,0,0,0,0,0,0,0,0,0,0H4s0,0,0,0a0,0,0,0,0,.07,0h0a0,0,0,0,1,0,0,0,0,0,0,0,0,0,.05.05,0,0,0,0,0h0s0,0,0,0a0,0,0,0,0,0,0,.05.05,0,0,0,0,0h0s0,0,0,0a0,0,0,0,0,0,0,0,0,0,0,0,0,0h0s0,0,0,0a0,0,0,0,0,0,0,0,0,0,0,0,0,0h0s0,0,0,0a0,0,0,0,0,0,0,0,0,0,0,0,0,0h0s0,0,0,0a0,0,0,0,0,0,0,.05.05,0,0,0,0,0h0a0,0,0,0,1,0,0,0,0,0,0,0,0,0Z"/><path class="cls-2" d="M3.54,20.55h0s0,0,0,0,0,0,0,0h0s0,0,0,0,0,0,.06,0,0,0,0,0,0,0,0,0,0,0,0,0a.07.07,0,0,0,.06,0s0,0,0,0,0,0,0,0,0,0,0,0,0,0,.06,0,0,0,0,0,0,0,0,0h0s0,0,0,0,0,0,.06,0,0,0,0,0,0,0,0,0,0,0,0,0,0,0,.06,0,0,0,0,0,0,0,0,0h0s0,0,0,0a.07.07,0,0,0,.05,0h0s0,0,0,0,0,0,0,0h0s0,0,0,0,0,0,.06,0,0,0,0,0,0,0,0,0h0s0,0,0,0a.07.07,0,0,0,.05,0H5s0,0,0,0,0,0,0,0h0s0,0,0,0,0,0,.06,0,0,0,0,0,0,0,0,0v0s0,0,0,0,0,0,0,0,0,0,0,0,0,0-.06,0,0,0,0,0,0,0,0,0,0,0,0,0a.07.07,0,0,0-.05,0h0s0,0,0,0,0,0,0,0h0s0,0,0,0a.07.07,0,0,0-.05,0h0s0,0,0,0,0,0,0,0,0,0,0,0a.07.07,0,0,0-.06,0s0,0,0,0,0,0,0,0h0s0,0,0,0a.07.07,0,0,0-.05,0h0s0,0,0,0,0,0,0,0h0s0,0,0,0a.07.07,0,0,0-.05,0h0s0,0,0,0,0,0,0,0,0,0,0,0a.07.07,0,0,0-.05,0H4s0,0,0,0,0,0,0,0,0,0,0,0,0,0-.06,0,0,0,0,0,0,0,0,0,0,0,0,0a.07.07,0,0,0-.06,0s0,0,0,0,0,0,0,0,0,0,0,0a.07.07,0,0,0-.06,0v0h0s0,0,0,0A.07.07,0,0,0,3.54,20.55Z"/><path class="cls-2" d="M.6,21.55h0s0,0,0,0,0,0,0,0l0,0,0,0h0s0,0,0,0,0,0,0,0h0l0,0,0,0h0s0,0,0,0,0,0,0,0h0l0,0a0,0,0,0,0,0,0s0,0,0,0,0,0,0,0H1l0,0s0,0,0,0,0,0,0,0,0,0,0,0h0l0,0,0,0h0s0,0,0,0,0,0,0,0h0l0,0,0,0h0s0,0,0,0,0,0,0,0l0,0,0,0h0s0,0,0,0,0,0,0,0l0,0,0,0h0s0,0,0,0,0,0,0,0h0l0,0,0,0h0s0,0,0,0,0,0,0,0h0s0,0,0,0,0,0,0,0h0l0,0s0,0,0,0,0,0,0,0,0,0,0,0h0l0,0,0,0h0s0,0,0,0,0,0,0,0h0l0,0,0,0h0s0,0,0,0,0,0,0,0h0l0,0,0,0h0s0,0,0,0,0,0,0,0h0l0,0,0,0h0s0,0,0,0,0,0,0,0h0l0,0,0,0H1s0,0,0,0,0,0,0,0H1l0,0,0,0h0s0,0,0,0,0,0,0,0h0l0,0,0,0h0s0,0,0,0,0,0,0,0l0,0,0,0h0s0,0,0,0,0,0,0,0h0l0,0,0,0h0l0,0Z"/></svg>