<svg enable-background="new -49 141 512 512" viewBox="-49 141 512 512" xmlns="http://www.w3.org/2000/svg" xmlns:xlink="http://www.w3.org/1999/xlink"><clipPath id="a"><path d="m-49 141h512v512h-512z"/></clipPath><clipPath id="b"><path d="m-49 141h512v512h-512z"/></clipPath><clipPath id="c"><path d="m-49 141h512v512h-512z"/></clipPath><path clip-path="url(#a)" d="m-124.4 771.8s89.6-215.9 294.9-242.7 184.1-186 184.1-186-35.6-266.2 347.9-216 168.2 718.9 168.2 718.9l-636.6 141.2z" fill="#a2dfff" opacity=".5"/><path clip-path="url(#b)" d="m158.2 1572.5s-414-277.4-389.1-415.9-62-346.9 310.1-605.6 462.3 105.7 462.3 105.7-239.4 828.6-264.8 816.7c-25.3-11.8-118.5 99.1-118.5 99.1z" fill="#a2dfff" opacity=".5"/><path clip-path="url(#c)" d="m-238.4 824.3s222-252.8 416.9-280.4 447.2-67.8 438-259.6 282.6 625.6 282.6 625.6-848.2 140.7-854.2 140.9c-6 .3-283.3-226.5-283.3-226.5z" fill="#6ebdff" opacity=".75"/></svg>