<svg viewBox="0 0 733.21 372.2" xmlns="http://www.w3.org/2000/svg"><path d="m230.74 81.61a9.29 9.29 0 0 1 9.26 9.29h-18.55a9.29 9.29 0 0 1 9.29-9.29z" fill="#0b9be5"/><path d="m257 73.9a17 17 0 0 1 17 17h-34a17 17 0 0 1 17-17z" fill="#0b9be5"/><path d="m450.41 167.21a9.29 9.29 0 0 1 9.29 9.29h-18.57a9.29 9.29 0 0 1 9.28-9.29z" fill="#0b9be5"/><path d="m476.7 159.49a17 17 0 0 1 17 17h-34a17 17 0 0 1 17-17z" fill="#0b9be5"/><path d="m541.15 140.35a9.29 9.29 0 0 1 9.29 9.29h-18.57a9.29 9.29 0 0 1 9.28-9.29z" fill="#0b9be5"/><path d="m567.44 132.63a17 17 0 0 1 17 17h-34a17 17 0 0 1 17-17z" fill="#0b9be5"/><path d="m733.18 361v-21.09h-14.44l-67.31-89.2c-3.81-5.05-18.28-9.05-32.4-9.05h-504.85c-14.12 0-28.59 4-32.4 9.05l-67.31 89.2h-14.47v22.09c.5 5.9 9.91 10.2 24.74 10.2h683.73c15.63 0 25.24-4.77 24.71-11.2z" fill="#3c3c3c"/><path d="m81.78 228.51-79.84 105.79c-6.44 8.55 3.67 15.7 22.8 15.7h683.73c19.13 0 29.24-7.15 22.79-15.69l-79.83-105.8c-3.81-5.05-18.28-9.05-32.4-9.05h-504.85c-14.12 0-28.59 4-32.4 9.05z" fill="#424242"/><path d="m658.41 343.48h-583.61l71.33-120.38h440.94z" fill="#fafafa"/><path d="m221.83 256.76-8.63 24.24h94.08l4.11-29.75h-73c-2.27 2.75-8.89 4.97-16.56 5.51z" fill="#ede8e4"/><path d="m315.26 223.1h-81.41l-7.23 20.25c7.07.5 12.1 2.62 12.6 5.33h72.52z" fill="#ede8e4"/><path d="m232.39 249.94c.79-2.36-3.67-4.25-9.94-4.25s-12.12 1.9-13.05 4.25 3.5 4.35 9.91 4.35 12.28-1.96 13.08-4.35z" fill="#039be5"/><path d="m261 239.35c.43-1.59-2.76-2.87-7.1-2.87s-8.28 1.28-8.78 2.87 2.68 2.91 7.09 2.91 8.38-1.31 8.79-2.91z" fill="#70b773"/><path d="m204.82 283.91h-94.72l-8.66 14.61h97.92z" fill="#ede8e4"/><path d="m318.46 248.68h101.31l-3.42-25.58h-94.79z" fill="#ede8e4"/><path d="m424.49 283.91h-212.34l-15.5 43.43h233.64z" fill="#70b773"/><path d="m551.25 223.1h-65.43l18.55 57.86h75.6z" fill="#039be5"/><path d="m129.48 251.21-17.63 29.79h94.08l9-24.2c-7.27-.53-12.27-2.76-12.52-5.55z" fill="#ede8e4"/><path d="m227.55 223.1h-81.41l-15.14 25.58h72.52c2.48-2.72 9.06-4.83 16.5-5.33z" fill="#ede8e4"/><path d="m420.11 251.21h-101.96l-3.6 29.75h109.54z" fill="#ede8e4"/><path d="m195.35 330.97-4.46 12.51h241.56l-1.67-12.51z" fill="#ede8e4"/><path d="m431.81 283.91 8.97 59.57h75.29l-18.08-59.57z" fill="#ede8e4"/><path d="m99.54 301.72-24.74 41.76h107.76l15.61-41.76z" fill="#ede8e4"/><path d="m505.31 283.91 19.09 59.57h86.6l-29.56-59.57z" fill="#039be5"/><path d="m619.33 343.48h39.08l-13.15-22.19h-37.31z" fill="#ede8e4"/><path d="m606.16 317.81h37.04l-20.09-33.9h-34.35z" fill="#ede8e4"/><path d="m587.24 280.96h34.12l-34.29-57.86h-29.52z" fill="#ede8e4"/><path d="m487.3 248.68-7.77-25.58h-56.89l3.86 25.58z" fill="#ede8e4"/><path d="m488.06 251.21h-61.18l4.48 29.75h65.74z" fill="#ede8e4"/><path d="m585.49 292.08h-77.56l-2.62-8.17h76.13z" fill="#0288d1"/><path d="m131.68 264.23c-1.88 0-3.74.59-4.16 1.32s.76 1.33 2.65 1.33 3.75-.6 4.16-1.33-.78-1.32-2.65-1.32z" fill="#70b773"/><path d="m145.79 264.23c-1.88 0-3.72.59-4.11 1.32s.81 1.33 2.7 1.33 3.73-.6 4.12-1.33-.83-1.32-2.71-1.32z" fill="#70b773"/><path d="m159.91 264.23c-1.88 0-3.7.59-4.07 1.32s.85 1.33 2.74 1.33 3.71-.6 4.07-1.33-.86-1.32-2.74-1.32z" fill="#70b773"/><path d="m174 264.23c-1.88 0-3.68.59-4 1.32s.9 1.33 2.79 1.33 3.69-.6 4-1.33-.89-1.32-2.79-1.32z" fill="#70b773"/><path d="m188.15 264.23c-1.88 0-3.66.59-4 1.32s.95 1.33 2.83 1.33 3.67-.6 4-1.33-.98-1.32-2.83-1.32z" fill="#70b773"/><path d="m202.26 264.23c-1.88 0-3.63.59-3.93 1.32s1 1.33 2.88 1.33 3.65-.6 3.93-1.33-1-1.32-2.88-1.32z" fill="#70b773"/><path d="m587.24 280.96h34.12l-15.8-26.67h-32.01z" fill="#70b773"/><g fill="#dbd1c8"><path d="m110.2 295.58 5.12-8.88h81.59l-3.46 8.88z"/><path d="m371.18 246.36-.24-21.2h39.78l2.5 21.2z"/><path d="m321.62 278.24 2.6-24.65h29.27l-.8 24.65z"/><path d="m270.09 278.24 5.56-24.65h29.05l-3.79 24.65z"/><path d="m447.96 339.92-5.49-32.99h55.31l9.49 32.99z"/><path d="m441.07 298.52-1.6-9.59h53.13l2.76 9.59z"/><path d="m84.62 339.92 20.29-35.17h84.97l-13.7 35.17z"/><path d="m625.22 339.92-8.11-15.33h22.63l8.85 15.33z"/><path d="m611.83 314.61-14.76-27.91h20.82l16.1 27.91z"/><path d="m576.25 247.35-11.74-22.19h17.88l12.8 22.19z"/><path d="m432.39 246.36-1.82-10.89h46.65l3.13 10.89z"/><path d="m437.69 278.24-3.13-18.83h49.55l5.42 18.83z"/><path d="m120.2 278.24h80l3.31-8.51h-78.4z"/><path d="m190.64 253.59h-56.22l-4.53 7.86h57.31z"/><path d="m248.12 253.59-21.48 7.86-1.85 5.43h36.61l3.36-13.29z"/><path d="m180.24 240.07 7.15-14.91h33.49l-5.81 14.91z"/><path d="m171.53 225.16h-20.71l-12.23 21.2h21.88z"/><path d="m239.02 225.16-2.5 7.31h37.46l-3.38 13.89h35.21l3.26-21.2z"/><path d="m220.91 278.24 2.9-8.51h36.87l-2.15 8.51z"/></g><path d="m646.7 266.88c11.16 0 22.77 3.56 26 8s-3.37 8.35-15 8.35-23.36-3.78-26.22-8.35 4.06-8 15.22-8z" fill="#616161"/><path d="m82.26 262.23-18.08 26.16c-1.23 1.78 1.3 3.24 5.66 3.24s8.86-1.46 10-3.24l17.16-26.16c1-1.56-1.43-2.82-5.47-2.82s-8.18 1.26-9.27 2.82z" fill="#616161"/><ellipse cx="171.53" cy="281.07" fill="#424242" opacity=".2" rx="30.3" ry="7.99"/><path d="m171.53 161.21a47.88 47.88 0 0 0 -47.88 47.88c0 26.44 47.88 72 47.88 72s47.88-45.54 47.88-72a47.88 47.88 0 0 0 -47.88-47.88zm0 74.74a26.86 26.86 0 1 1 26.86-26.86 26.86 26.86 0 0 1 -26.86 26.91z" fill="#ef5350"/><path d="m171.53 177a32.08 32.08 0 1 0 32.08 32.08 32.08 32.08 0 0 0 -32.08-32.08zm0 53.71a21.63 21.63 0 1 1 21.63-21.63 21.63 21.63 0 0 1 -21.63 21.64z" fill="#e53935"/><ellipse cx="516.07" cy="339.17" fill="#424242" opacity=".2" rx="21.68" ry="5.71"/><path d="m516.07 253.41a34.26 34.26 0 0 0 -34.26 34.26c0 18.92 34.26 51.5 34.26 51.5s34.26-32.58 34.26-51.5a34.26 34.26 0 0 0 -34.26-34.26zm0 53.48a19.22 19.22 0 1 1 19.22-19.22 19.22 19.22 0 0 1 -19.22 19.22z" fill="#ef5350"/><path d="m516.07 264.71a23 23 0 1 0 23 23 23 23 0 0 0 -23-23zm0 38.43a15.47 15.47 0 1 1 15.47-15.47 15.47 15.47 0 0 1 -15.47 15.47z" fill="#e53935"/><ellipse cx="354.8" cy="243.37" fill="#424242" opacity=".2" rx="61.53" ry="16.22"/><path d="m354.8 0a97.22 97.22 0 0 0 -97.22 97.22c0 53.69 97.22 146.16 97.22 146.16s97.2-92.47 97.2-146.16a97.22 97.22 0 0 0 -97.2-97.22zm0 151.76a54.55 54.55 0 1 1 54.55-54.55 54.55 54.55 0 0 1 -54.55 54.55z" fill="#ef5350"/><path d="m354.8 32.07a65.15 65.15 0 1 0 65.15 65.15 65.15 65.15 0 0 0 -65.15-65.15zm0 109.06a43.92 43.92 0 1 1 43.92-43.92 43.92 43.92 0 0 1 -43.92 43.92z" fill="#e53935"/><g fill="#0b9be5"><path d="m459.16 91.68a23.68 23.68 0 0 0 -23.68 23.68h47.35a23.68 23.68 0 0 0 -23.67-23.68z"/><path d="m349.92 100.69a14.67 14.67 0 0 0 -14.67 14.67h29.35a14.67 14.67 0 0 0 -14.68-14.67z"/><path d="m400 79.92a35.44 35.44 0 0 0 -35.44 35.44h70.88a35.44 35.44 0 0 0 -35.44-35.44z"/><path d="m174.7 108.85a10.33 10.33 0 0 0 -10.33 10.33h20.63a10.33 10.33 0 0 0 -10.3-10.33z"/><path d="m145.44 100.26a18.92 18.92 0 0 0 -18.92 18.92h37.85a18.92 18.92 0 0 0 -18.93-18.92z"/><path d="m239.84 40.66a10.33 10.33 0 0 0 -10.34 10.34h20.67a10.33 10.33 0 0 0 -10.33-10.34z"/><path d="m210.58 32.07a18.92 18.92 0 0 0 -18.93 18.93h37.85a18.92 18.92 0 0 0 -18.92-18.93z"/><path d="m480.91 8.59a10.33 10.33 0 0 0 -10.33 10.33h20.67a10.33 10.33 0 0 0 -10.34-10.33z"/><path d="m451.65 0a18.92 18.92 0 0 0 -18.92 18.92h37.85a18.92 18.92 0 0 0 -18.93-18.92z"/><path d="m245.35 147.2a8 8 0 0 0 -8 8h16a8 8 0 0 0 -8-8z"/><path d="m222.76 140.57a14.61 14.61 0 0 0 -14.61 14.61h29.21a14.61 14.61 0 0 0 -14.6-14.61z"/><path d="m555.67 78.07a10.33 10.33 0 0 0 -10.34 10.33h20.67a10.33 10.33 0 0 0 -10.33-10.33z"/><path d="m526.41 69.48a18.92 18.92 0 0 0 -18.93 18.92h37.85a18.92 18.92 0 0 0 -18.92-18.92z"/><path d="m224.78 118.54h-1.37v-1.37a.65.65 0 0 0 -.65-.65.65.65 0 0 0 -.65.65v1.37h-1.37a.65.65 0 1 0 0 1.3h1.37v1.37a.65.65 0 0 0 .65.65.65.65 0 0 0 .65-.65v-1.37h1.37a.65.65 0 0 0 0-1.3z"/><path d="m258 134.74h-1.37v-1.37a.65.65 0 0 0 -.65-.65.65.65 0 0 0 -.65.65v1.37h-1.33a.65.65 0 1 0 0 1.3h1.37v1.37a.65.65 0 0 0 .65.65.65.65 0 0 0 .65-.65v-1.41h1.33a.65.65 0 1 0 0-1.3z"/><path d="m337.27 75.91h-1.37v-1.37a.65.65 0 0 0 -.65-.65.65.65 0 0 0 -.65.65v1.37h-1.37a.65.65 0 0 0 0 1.3h1.37v1.37a.65.65 0 0 0 .65.65.65.65 0 0 0 .65-.65v-1.37h1.37a.65.65 0 0 0 0-1.3z"/><path d="m368.62 82.94h-1.37v-1.37a.65.65 0 0 0 -.65-.65.65.65 0 0 0 -.65.65v1.37h-1.37a.65.65 0 0 0 0 1.3h1.42v1.37a.65.65 0 0 0 .65.65.65.65 0 0 0 .65-.65v-1.37h1.37a.65.65 0 0 0 0-1.3z"/><path d="m469.44 73.25h-1.37v-1.37a.65.65 0 0 0 -.65-.65.65.65 0 0 0 -.65.65v1.37h-1.37a.65.65 0 1 0 0 1.3h1.37v1.37a.65.65 0 0 0 .65.65.65.65 0 0 0 .65-.65v-1.38h1.37a.65.65 0 0 0 0-1.3z"/><path d="m502.62 60.87h-1.37v-1.37a.65.65 0 0 0 -.65-.65.65.65 0 0 0 -.65.65v1.37h-1.37a.65.65 0 0 0 0 1.3h1.37v1.37a.65.65 0 0 0 .65.65.65.65 0 0 0 .65-.65v-1.37h1.37a.65.65 0 1 0 0-1.3z"/><path d="m447.15 34.09h-1.37v-1.37a.65.65 0 0 0 -.65-.65.65.65 0 0 0 -.65.65v1.37h-1.37a.65.65 0 0 0 0 1.3h1.37v1.37a.65.65 0 0 0 .65.65.65.65 0 0 0 .65-.65v-1.38h1.37a.65.65 0 0 0 0-1.3z"/><path d="m476.89 48.77h-1.37v-1.37a.65.65 0 0 0 -.65-.65.65.65 0 0 0 -.65.65v1.37h-1.37a.65.65 0 0 0 0 1.3h1.37v1.37a.65.65 0 0 0 .65.65.65.65 0 0 0 .65-.65v-1.37h1.37a.65.65 0 1 0 0-1.3z"/><path d="m543.17 46.11h-1.37v-1.37a.65.65 0 0 0 -.65-.65.65.65 0 0 0 -.65.65v1.37h-1.37a.65.65 0 0 0 0 1.3h1.37v1.37a.65.65 0 0 0 .65.65.65.65 0 0 0 .65-.65v-1.38h1.37a.65.65 0 1 0 0-1.3z"/><path d="m464.06 140.48h-1.37v-1.37a.65.65 0 0 0 -.65-.65.65.65 0 0 0 -.65.65v1.37h-1.39a.65.65 0 1 0 0 1.3h1.37v1.37a.65.65 0 0 0 .65.65.65.65 0 0 0 .65-.65v-1.37h1.37a.65.65 0 0 0 0-1.3z"/><path d="m495.14 132.08h-1.37v-1.37a.65.65 0 0 0 -.65-.65.65.65 0 0 0 -.65.65v1.37h-1.37a.65.65 0 1 0 0 1.3h1.37v1.37a.65.65 0 0 0 .65.65.65.65 0 0 0 .65-.65v-1.37h1.37a.65.65 0 1 0 0-1.3z"/><path d="m426.11 186.82h-1.37v-1.37a.65.65 0 0 0 -.65-.65.65.65 0 0 0 -.65.65v1.37h-1.37a.65.65 0 1 0 0 1.3h1.37v1.37a.65.65 0 0 0 .65.65.65.65 0 0 0 .65-.65v-1.37h1.37a.65.65 0 1 0 0-1.3z"/><path d="m515.42 166.56h-1.37v-1.37a.65.65 0 0 0 -.65-.65.65.65 0 0 0 -.65.65v1.37h-1.37a.65.65 0 0 0 0 1.3h1.37v1.37a.65.65 0 0 0 .65.65.65.65 0 0 0 .65-.65v-1.37h1.37a.65.65 0 0 0 0-1.3z"/><path d="m525.76 114.71h-1.37v-1.37a.65.65 0 0 0 -.65-.65.65.65 0 0 0 -.65.65v1.37h-1.37a.65.65 0 0 0 0 1.3h1.37v1.37a.65.65 0 0 0 .65.65.65.65 0 0 0 .65-.65v-1.38h1.37a.65.65 0 1 0 0-1.3z"/><path d="m207.2 85.61h-1.37v-1.37a.65.65 0 0 0 -.65-.65.65.65 0 0 0 -.65.65v1.37h-1.37a.65.65 0 1 0 0 1.3h1.37v1.37a.65.65 0 0 0 .65.65.65.65 0 0 0 .65-.65v-1.37h1.37a.65.65 0 1 0 0-1.3z"/><path d="m255.34 28.75h-1.34v-1.37a.65.65 0 0 0 -.65-.65.65.65 0 0 0 -.65.65v1.37h-1.4a.65.65 0 0 0 0 1.3h1.37v1.37a.65.65 0 0 0 .65.65.65.65 0 0 0 .65-.65v-1.37h1.37a.65.65 0 1 0 0-1.3z"/><path d="m165.43 68.83h-1.37v-1.37a.65.65 0 0 0 -.65-.65.65.65 0 0 0 -.65.65v1.37h-1.37a.65.65 0 1 0 0 1.3h1.37v1.37a.65.65 0 0 0 .65.65.65.65 0 0 0 .65-.65v-1.38h1.37a.65.65 0 0 0 0-1.3z"/><path d="m188.8 132h-1.37v-1.37a.65.65 0 0 0 -.65-.65.65.65 0 0 0 -.65.65v1.37h-1.37a.65.65 0 0 0 0 1.3h1.37v1.37a.65.65 0 0 0 .65.65.65.65 0 0 0 .65-.65v-1.37h1.37a.65.65 0 1 0 0-1.3z"/><path d="m151.92 144.34h-1.37v-1.34a.65.65 0 0 0 -.65-.65.65.65 0 0 0 -.65.65v1.37h-1.37a.65.65 0 1 0 0 1.3h1.37v1.33a.65.65 0 0 0 .65.65.65.65 0 0 0 .65-.65v-1.37h1.37a.65.65 0 0 0 0-1.3z"/><path d="m246.79 176.36h-1.37v-1.36a.65.65 0 0 0 -.65-.65.65.65 0 0 0 -.65.65v1.37h-1.37a.65.65 0 0 0 0 1.3h1.37v1.33a.65.65 0 0 0 .65.65.65.65 0 0 0 .65-.65v-1.37h1.37a.65.65 0 1 0 0-1.3z"/></g></svg>