<svg id="Layer_1" data-name="Layer 1" xmlns="http://www.w3.org/2000/svg" viewBox="0 0 669.99 357.77"><title>mucadele</title><polygon points="37.98 41.79 15.39 41.85 15.42 54.43 42.16 54.37 42.19 67.19 1.47 67.3 1.3 3.57 41.2 3.46 41.23 16.3 15.32 16.36 15.36 29.03 37.95 28.97 37.98 41.79" style="fill:#fff"/><polygon points="69.74 32.77 69.83 67.12 55.84 67.16 55.67 1.52 96.57 38.33 96.48 3.32 110.46 3.28 110.64 69.58 69.74 32.77" style="fill:#fff"/><polygon points="161.38 41.47 139.44 41.52 139.51 66.94 125.52 66.97 125.36 3.24 164.59 3.14 164.62 15.97 139.38 16.04 139.41 28.7 161.34 28.64 161.38 41.47" style="fill:#fff"/><polygon points="178.41 66.84 178.24 3.1 192.22 3.07 192.36 53.97 219.42 53.9 219.46 66.73 178.41 66.84" style="fill:#fff"/><path d="M254.4,83.84l-15,0,31.52-65.72,31.71,65.55-15,0-5.08-12-23,.06ZM265.17,59,277,59l-6-13.31Z" transform="translate(-15 -17.17)" style="fill:#fff"/><path d="M309.91,76.58l7.26-10.11c6.38,4.45,9.86,5.1,13.75,5.09,5.38,0,7.69-1.67,7.68-6,0-10.18-27.66-7.62-27.72-28.07,0-14.32,10.63-18.48,19.74-18.51,7.36,0,11.34,1.22,20.29,7.9L343.65,37c-6.46-4.61-9.36-5.1-13-5.09s-6,1.34-5.95,5.56c0,3,5,5.45,8.63,6.76,9.11,3.29,19.06,8.65,19.09,21.31,0,14.23-9.72,18.89-21.47,18.92-6.95,0-11.59-1.12-21-7.89" transform="translate(-15 -17.17)" style="fill:#fff"/><polygon points="384.06 66.3 370.07 66.34 370 39.1 345.99 2.67 361.63 2.63 376.92 26.51 392.09 2.54 407.64 2.51 383.99 39.07 384.06 66.3" style="fill:#fff"/><path d="M427.35,51.44a32.7,32.7,0,1,1,32.87,32.69,32.93,32.93,0,0,1-32.87-32.69m14.08,0c0,10.43,8.16,19.84,18.75,19.81,10.43,0,18.43-9.48,18.41-19.91s-8.08-19.68-18.51-19.65c-10.59,0-18.68,9.4-18.65,19.75" transform="translate(-15 -17.17)" style="fill:#fff"/><polygon points="504.96 31.63 505.05 65.98 491.06 66.02 490.89 0.39 531.79 37.19 531.7 2.18 545.69 2.14 545.86 68.44 504.96 31.63" style="fill:#fff"/><polygon points="560.74 65.84 560.58 2.1 574.56 2.07 574.7 52.97 601.76 52.9 601.8 65.72 560.74 65.84" style="fill:#fff"/><path d="M636.74,82.85l-15,0,31.53-65.72L685,82.72l-15,0-5.08-12-23,.06ZM647.51,58l11.83,0-6-13.31Z" transform="translate(-15 -17.17)" style="fill:#fff"/><polygon points="71.91 112.44 45.18 112.4 45.09 180.33 26.41 180.31 26.51 112.38 0 112.34 0.02 95.22 71.93 95.32 71.91 112.44" style="fill:#fff"/><path d="M197.48,197.69l.11-85.06,28.5,0c16.68,0,29.81,8.55,29.79,25.9,0,16.24-13.74,26.71-29.09,26.68l-10.6,0-.05,32.48Zm29-49.67c5.41,0,10.61-2.63,10.62-9.48,0-6.07-5.51-8.74-11.58-8.74l-9.28,0,0,18.23Z" transform="translate(-15 -17.17)" style="fill:#fff"/><polygon points="296.73 180.68 278.06 180.65 278.11 144.31 246.25 95.56 267.13 95.58 287.41 127.54 307.77 95.64 328.54 95.67 296.78 144.33 296.73 180.68" style="fill:#fff"/><polygon points="390.6 146.9 360.44 146.86 360.42 163.64 396.1 163.69 396.07 180.81 341.73 180.73 341.85 95.68 395.08 95.76 395.06 112.88 360.49 112.84 360.47 129.74 390.62 129.78 390.6 146.9" style="fill:#fff"/><polygon points="465.81 180.91 433.04 149.72 433 180.86 414.34 180.84 414.46 95.78 433.12 95.81 433.07 127.84 463.61 95.85 487.35 95.88 445.21 138.35 490.77 180.94 465.81 180.91" style="fill:#fff"/><path d="M519.13,164.33l.06-51.26,18.67,0-.07,50.26c0,9.61,7.38,18.68,16.87,18.69s16.81-9,16.82-18.64l.07-50.27,18.66,0L590.14,164c0,19-17,35.33-35.5,35.3-18.78,0-35.54-16.06-35.51-34.95" transform="translate(-15 -17.17)" style="fill:#fff"/><polygon points="613.76 135.27 613.7 181.11 595.03 181.08 595.15 93.49 649.53 142.83 649.6 96.11 668.27 96.13 668.15 184.62 613.76 135.27" style="fill:#fff"/><path d="M172.68,174.89c-14,14.1-37.68,13.41-52.93-1.56s-16.28-38.53-2.3-52.63a34.63,34.63,0,0,1,24.21-10.13c-14-2.26-28.35,1.69-38.56,12C85.7,140.12,87,169.46,106,188.08s48.47,19.48,65.87,1.93c11.3-11.39,14.71-27.75,10.53-42.92a34.62,34.62,0,0,1-9.69,27.8m-20.35-60.27L165.21,117l5.41-11.29,2.55,12.78L186,121l-11.29,5.47,2.54,12.79-9.53-9.4-11.3,5.48L161.87,124Z" transform="translate(-15 -17.17)" style="fill:#fff"/><polygon points="534.51 78.08 546.14 78.19 556.5 93.21 544.18 93.09 539.9 86.2 535.5 93.02 523.78 92.91 534.51 78.08" style="fill:#fff"/><polygon points="61.81 242.77 41.78 262.46 21.65 242.88 21.63 289.68 2.62 289.68 2.64 200.45 41.79 236.13 80.84 200.47 80.82 289.7 61.8 289.69 61.81 242.77" style="fill:#fff"/><path d="M207,263.58c0-24.19,20.38-44.44,44.68-44.43,9.79,0,20,3.16,31.5,10.92l-9.68,14.18c-8.32-5.41-14.85-7.54-21.82-7.55-14.41,0-25.43,12.82-25.44,26.89s11,26.89,25.42,26.89c7.43,0,14.74-2.58,23.52-8.88l9.45,14.07c-10.92,8.44-22.51,12.37-33,12.36C227.21,308,207,287.66,207,263.58" transform="translate(-15 -17.17)" style="fill:#fff"/><path d="M316.2,306.93H295.84L339,217.71,381.8,307H361.43l-6.86-16.31H323.29ZM331,273.18H347l-8.1-18.12Z" transform="translate(-15 -17.17)" style="fill:#fff"/><path d="M395.29,307l0-86.64H424c25.53,0,43.87,19.13,43.86,43.21S449.63,307,424,307ZM424,289.52c14.29,0,24.64-11.7,24.65-26S438.28,237.77,424,237.77h-9.68v51.76Z" transform="translate(-15 -17.17)" style="fill:#fff"/><polygon points="521.16 255.28 490.44 255.28 490.43 272.38 526.77 272.39 526.77 289.82 471.42 289.81 471.44 203.17 525.67 203.19 525.66 220.63 490.45 220.62 490.44 237.83 521.16 237.84 521.16 255.28" style="fill:#fff"/><polygon points="545.33 289.83 545.36 203.19 564.37 203.2 564.35 272.4 601.14 272.41 601.14 289.85 545.33 289.83" style="fill:#fff"/><polygon points="664.37 255.32 633.65 255.31 633.65 272.41 669.99 272.43 669.99 289.87 614.63 289.85 614.65 203.22 668.89 203.23 668.88 220.67 633.67 220.66 633.66 237.88 664.38 237.88 664.37 255.32" style="fill:#fff"/><polygon points="173.43 216.53 173.43 203.09 154.41 203.08 154.41 216.75 173.43 216.53" style="fill:#fff"/><polygon points="120.1 217.15 120.1 203.07 101.08 203.07 101.08 217.37 120.1 217.15" style="fill:#fff"/><path d="M188.42,272V240.52l-19,.22v30.71c0,9.78-7.43,19-17.11,19s-17.21-9.23-17.21-19v-30.3l-19,.23v31.07c0,19.24,17.09,35.56,36.22,35.57,18.79,0,36.12-16.64,36.13-36" transform="translate(-15 -17.17)" style="fill:#fff"/><path d="M226.35,352.71l-8.69,0,.39-2.12,9.26,0,4-9.84-8.51,0,.4-2.12,9.08,0,4.42-10.76h2.4l-4.42,10.76,10.28,0,4.42-10.75h2.45l-4.41,10.75,8.05,0-.39,2.12-8.63,0-4,9.84,7.83,0-.4,2.12-8.39,0-4.42,10.7h-2.4l4.42-10.7-10.35,0-4.41,10.7-2.4,0ZM240,350.55l4-9.84-10.34,0-4,9.83Z" transform="translate(-15 -17.17)" style="fill:#fff"/><polygon points="258.13 315.44 246.19 315.48 247.65 307.99 279.64 307.87 278.18 315.36 266.35 315.41 260.58 346.05 252.3 346.08 258.13 315.44" style="fill:#fff"/><path d="M310.37,363.1l-7.54,0,.33-2.91a11,11,0,0,1-3.79,2.75,12,12,0,0,1-4.53.82,7.16,7.16,0,0,1-5.73-2.23,8.94,8.94,0,0,1-2-6c0-.42,0-.86.05-1.34a12.53,12.53,0,0,1,.17-1.34l3.14-16.47,7.88,0-2.86,15a7.24,7.24,0,0,0-.16,1.6,4.87,4.87,0,0,0,.72,2.71,2.91,2.91,0,0,0,2.66,1.1,5,5,0,0,0,2.37-.55,5.84,5.84,0,0,0,1.82-1.46,8.43,8.43,0,0,0,1.28-2.12,14.1,14.1,0,0,0,.79-2.51l2.64-13.84,7.83,0Zm-14.3-38,6.79,0-1.23,6.34-6.8,0Zm10.63,0,6.74,0-1.24,6.35-6.74,0Z" transform="translate(-15 -17.17)" style="fill:#fff"/><path d="M321.7,336.25l7.54,0-.38,3.37a13.15,13.15,0,0,1,3.3-2.78,8.38,8.38,0,0,1,4.34-1.13,8,8,0,0,1,1.8.17,12,12,0,0,1,1.63.45l-2.49,7.14a6.91,6.91,0,0,0-1.52-.42,9.46,9.46,0,0,0-1.46-.07,6.55,6.55,0,0,0-5,2.15,10.9,10.9,0,0,0-2.57,5.41L324.48,363l-7.88,0Z" transform="translate(-15 -17.17)" style="fill:#fff"/><polygon points="330.77 307.69 338.54 307.66 334.73 327.61 344.12 318.95 353.26 318.92 342.1 329.3 349.19 345.73 340.91 345.76 336.07 334.24 332.99 336.99 331.31 345.8 323.49 345.83 330.77 307.69" style="fill:#fff"/><path d="M372.89,336.07l7.89,0-5.1,26.82-7.89,0Zm1.85-11.26,8.46,0L381.79,332l-8.45,0Z" transform="translate(-15 -17.17)" style="fill:#fff"/><path d="M381,367.18a5.9,5.9,0,0,0,3.38,1.25,3.39,3.39,0,0,0,2.54-1.15,19.32,19.32,0,0,0,2.3-3.33l.91-1.6L383.46,336l8.74,0,3.21,17.3L404.2,336l8.86,0-15.9,27.54q-1.43,2.4-2.76,4.49a24.65,24.65,0,0,1-2.78,3.64,12.33,12.33,0,0,1-3.11,2.44,7.62,7.62,0,0,1-3.7.9,16.58,16.58,0,0,1-3.66-.36,8.31,8.31,0,0,1-3.44-1.84Z" transform="translate(-15 -17.17)" style="fill:#fff"/><path d="M427,335a11.28,11.28,0,0,1,4.88.95,10,10,0,0,1,5.51,6.15,14.06,14.06,0,0,1,.68,4.22,21.46,21.46,0,0,1-.17,2.72,21,21,0,0,1-.51,2.66l-17.71.06a5.11,5.11,0,0,0,1.76,4,6.25,6.25,0,0,0,4.32,1.53,10.27,10.27,0,0,0,3.83-.71,15.06,15.06,0,0,0,3.36-1.78l3.16,5.19a20.84,20.84,0,0,1-5.19,2.65,18.74,18.74,0,0,1-6.22,1,16.71,16.71,0,0,1-4.89-.7,11.32,11.32,0,0,1-4.06-2.19A10.48,10.48,0,0,1,413,357a13.08,13.08,0,0,1-1-5.41,18.87,18.87,0,0,1,1.12-6.71,15.85,15.85,0,0,1,3.14-5.27,14.2,14.2,0,0,1,4.79-3.42,15,15,0,0,1,6-1.21m3.69,11.58a1.93,1.93,0,0,0,.12-.63c0-.19,0-.34,0-.45a4.07,4.07,0,0,0-1.22-3.09,4.45,4.45,0,0,0-3.2-1.13,6.32,6.32,0,0,0-3.91,1.3,7.17,7.17,0,0,0-2.41,4Z" transform="translate(-15 -17.17)" style="fill:#fff"/><polygon points="434.36 307.32 437.04 307.3 433.23 327.32 454.98 307.24 458.24 307.23 441.44 322.77 452.89 345.36 449.87 345.37 439.33 324.61 432.56 330.86 429.81 345.44 427.12 345.45 434.36 307.32" style="fill:#fff"/><path d="M489.14,362.45c0-.38.08-.71.11-1s.09-.59.14-.91.12-.68.2-1.06.15-.86.22-1.43a14.84,14.84,0,0,1-4.84,4,13.15,13.15,0,0,1-5.53,1.16,9.27,9.27,0,0,1-2.78-.42,7.11,7.11,0,0,1-2.4-1.28,6.36,6.36,0,0,1-1.72-2.16,6.63,6.63,0,0,1-.67-3.08,8.9,8.9,0,0,1,.84-3.89,9.09,9.09,0,0,1,2.51-3.21,11.88,11.88,0,0,1,4-2.16,18,18,0,0,1,5.48-.79,30.75,30.75,0,0,1,4.06.22c1.18.14,2.17.29,3,.44l.34-1.83a10.6,10.6,0,0,0,.16-1.88,5.3,5.3,0,0,0-1.47-3.86q-1.46-1.5-5-1.49a13.88,13.88,0,0,0-2.86.26,12.75,12.75,0,0,0-2.13.67,9.51,9.51,0,0,0-1.66.89c-.48.33-.95.66-1.4,1l-1.26-1.71a15.53,15.53,0,0,1,3.7-2.27,14.11,14.11,0,0,1,6-1.14q4.23,0,6.43,2a6.94,6.94,0,0,1,2.22,5.42c0,.34,0,.69,0,1.05a11.25,11.25,0,0,1-.17,1.12L492.38,357c-.15.76-.3,1.54-.45,2.35s-.28,1.84-.39,3.14ZM491.38,349q-1.42-.29-3.15-.48a34.66,34.66,0,0,0-3.88-.18,13.44,13.44,0,0,0-5,.79,8.64,8.64,0,0,0-3.05,1.92,6.36,6.36,0,0,0-1.53,2.43,7.28,7.28,0,0,0-.42,2.32,5.18,5.18,0,0,0,1.33,3.76,5.62,5.62,0,0,0,4.23,1.37,11,11,0,0,0,4-.76,11.83,11.83,0,0,0,3.25-2,11.5,11.5,0,0,0,2.31-2.69,8.83,8.83,0,0,0,1.18-3Z" transform="translate(-15 -17.17)" style="fill:#fff"/><polygon points="483.28 342.85 504.22 321.12 488 321.18 488.45 318.95 507.64 318.88 507.19 321.28 486.08 342.95 503.45 342.89 503.05 345.17 482.82 345.25 483.28 342.85" style="fill:#fff"/><path d="M540.85,362.26c0-.38.07-.71.11-1s.09-.59.14-.92.12-.67.19-1,.15-.86.23-1.43a14.94,14.94,0,0,1-4.84,4,12.86,12.86,0,0,1-5.54,1.16,9.2,9.2,0,0,1-2.77-.41,7.44,7.44,0,0,1-2.41-1.28,6.49,6.49,0,0,1-1.72-2.17,6.76,6.76,0,0,1-.67-3.08,9.09,9.09,0,0,1,3.35-7.1,12.39,12.39,0,0,1,4.05-2.16,18,18,0,0,1,5.48-.79,34.73,34.73,0,0,1,4.06.22c1.18.15,2.17.29,3,.44l.34-1.82a10.63,10.63,0,0,0,.16-1.89,5.3,5.3,0,0,0-1.48-3.85c-1-1-2.64-1.51-5-1.5a13.17,13.17,0,0,0-2.86.27,12.28,12.28,0,0,0-2.14.66,11.14,11.14,0,0,0-1.66.89c-.47.34-.94.66-1.39,1l-1.26-1.71a16.21,16.21,0,0,1,3.7-2.27,14.39,14.39,0,0,1,6-1.14c2.81,0,5,.65,6.43,2a7,7,0,0,1,2.22,5.42c0,.34,0,.7,0,1.06s-.09.73-.17,1.11l-2.25,11.89c-.14.77-.3,1.55-.44,2.35s-.28,1.85-.39,3.14Zm2.24-13.49q-1.44-.28-3.15-.48a37.64,37.64,0,0,0-3.88-.18,13.44,13.44,0,0,0-5,.79,8.56,8.56,0,0,0-3.05,1.93,6.43,6.43,0,0,0-1.54,2.43,7.19,7.19,0,0,0-.41,2.31,5.19,5.19,0,0,0,1.32,3.77,5.68,5.68,0,0,0,4.24,1.36,10.85,10.85,0,0,0,4-.76,11.71,11.71,0,0,0,3.25-1.95,11.46,11.46,0,0,0,2.3-2.7,8.61,8.61,0,0,0,1.19-3Z" transform="translate(-15 -17.17)" style="fill:#fff"/><path d="M554.55,341.47l.36-1.85c.09-.52.18-1,.25-1.38s.14-.78.2-1.13.1-.76.13-1.18h2.35c0,.42-.08.8-.14,1.14s-.11.71-.17,1.11-.14.87-.25,1.38-.25,1.13-.39,1.86a27.52,27.52,0,0,1,2-2.26,13.88,13.88,0,0,1,2.39-2,13.05,13.05,0,0,1,2.91-1.4,10.88,10.88,0,0,1,3.6-.56q4.17,0,6,2.26a9.14,9.14,0,0,1,1.85,5.93,19.48,19.48,0,0,1-.33,3.67l-2.86,15.09h-2.51l2.75-14.58a18.26,18.26,0,0,0,.3-2.12c.06-.64.08-1.26.08-1.83a6.55,6.55,0,0,0-1.41-4.65,5.65,5.65,0,0,0-4.27-1.44,9.59,9.59,0,0,0-4.25,1,12.94,12.94,0,0,0-3.51,2.55,14.36,14.36,0,0,0-2.52,3.58,16,16,0,0,0-1.39,4l-2.58,13.56h-2.51Z" transform="translate(-15 -17.17)" style="fill:#fff"/><path d="M597.13,362.06c0-.38.07-.72.11-1s.08-.59.14-.92.11-.67.19-1.05.15-.86.23-1.43a15,15,0,0,1-4.85,4,13,13,0,0,1-5.54,1.16,9.21,9.21,0,0,1-2.77-.42,7.11,7.11,0,0,1-2.4-1.28,6.38,6.38,0,0,1-1.73-2.16,6.78,6.78,0,0,1-.66-3.08,8.93,8.93,0,0,1,.84-3.89,9.15,9.15,0,0,1,2.5-3.21,12.31,12.31,0,0,1,4-2.16,18,18,0,0,1,5.48-.79,32.72,32.72,0,0,1,4.06.21c1.18.15,2.17.3,3,.45l.33-1.83a10.6,10.6,0,0,0,.16-1.88,5.28,5.28,0,0,0-1.47-3.85q-1.46-1.51-5-1.5a13.88,13.88,0,0,0-2.86.26,13.18,13.18,0,0,0-2.14.67,10.17,10.17,0,0,0-1.65.89c-.48.33-.94.66-1.4,1l-1.26-1.71a15.86,15.86,0,0,1,3.7-2.27,14.26,14.26,0,0,1,6-1.14c2.82,0,5,.65,6.44,2a7,7,0,0,1,2.21,5.42,7.53,7.53,0,0,1-.05,1.05,11.25,11.25,0,0,1-.17,1.12l-2.24,11.89c-.15.77-.3,1.55-.44,2.35a29.58,29.58,0,0,0-.4,3.14Zm2.23-13.49c-1-.19-2-.34-3.14-.48a37.5,37.5,0,0,0-3.89-.19,13.67,13.67,0,0,0-5,.8,8.64,8.64,0,0,0-3.05,1.92,6.39,6.39,0,0,0-1.53,2.44,7.51,7.51,0,0,0-.42,2.31,5.27,5.27,0,0,0,1.33,3.77,5.6,5.6,0,0,0,4.23,1.35,10.86,10.86,0,0,0,4-.75,11.88,11.88,0,0,0,3.25-2,11.45,11.45,0,0,0,2.3-2.69,9.11,9.11,0,0,0,1.19-3Z" transform="translate(-15 -17.17)" style="fill:#fff"/><path d="M629.79,342a7.81,7.81,0,0,0-2.87-3.51,8.39,8.39,0,0,0-4.52-1.09,10.18,10.18,0,0,0-4.82,1.15,12.59,12.59,0,0,0-3.79,3.05,14.14,14.14,0,0,0-2.5,4.35,14.51,14.51,0,0,0-.9,5,11.47,11.47,0,0,0,.68,4,8.6,8.6,0,0,0,1.81,2.94,7.77,7.77,0,0,0,2.63,1.82,8.11,8.11,0,0,0,3.2.61,12.38,12.38,0,0,0,5.23-1,11.72,11.72,0,0,0,3.79-2.85l1.6,1.65a15.39,15.39,0,0,1-4.65,3.36,15.09,15.09,0,0,1-6.36,1.2,10.62,10.62,0,0,1-4.05-.76,9.88,9.88,0,0,1-3.35-2.21,10.19,10.19,0,0,1-2.3-3.54,12.88,12.88,0,0,1-.85-4.77,17.31,17.31,0,0,1,1.09-6.11A16.56,16.56,0,0,1,612,340a15.43,15.43,0,0,1,4.76-3.65A13.52,13.52,0,0,1,622.8,335a9.81,9.81,0,0,1,5.63,1.58,8.91,8.91,0,0,1,3.42,4.33Z" transform="translate(-15 -17.17)" style="fill:#fff"/><path d="M650.94,361.86c0-.37.08-.71.12-1s.08-.59.14-.92.12-.68.19-1.06.15-.86.23-1.43a14.74,14.74,0,0,1-4.85,4,13,13,0,0,1-5.54,1.17,8.85,8.85,0,0,1-2.76-.43,7,7,0,0,1-2.41-1.27,6.46,6.46,0,0,1-1.72-2.16,6.7,6.7,0,0,1-.67-3.09,8.8,8.8,0,0,1,.85-3.89,9,9,0,0,1,2.49-3.2,12,12,0,0,1,4-2.17,18.37,18.37,0,0,1,5.49-.78,32.66,32.66,0,0,1,4.05.21c1.18.15,2.18.3,3,.45l.33-1.83a9,9,0,0,0,.16-1.89,5.33,5.33,0,0,0-1.46-3.85c-1-1-2.65-1.51-5-1.49a13.71,13.71,0,0,0-2.85.26,11.24,11.24,0,0,0-2.14.67A9.21,9.21,0,0,0,641,339c-.48.33-.94.66-1.4,1l-1.26-1.71A16.3,16.3,0,0,1,642,336a14.19,14.19,0,0,1,6-1.13c2.82,0,5,.65,6.43,2a7,7,0,0,1,2.22,5.43,9.45,9.45,0,0,1,0,1.05c0,.37-.09.74-.16,1.12l-2.25,11.88c-.15.78-.3,1.55-.45,2.35s-.28,1.85-.39,3.15Zm2.24-13.49c-.95-.18-2-.34-3.14-.47a32.66,32.66,0,0,0-3.89-.19,13.59,13.59,0,0,0-5,.79,8.56,8.56,0,0,0-3.05,1.93,6.31,6.31,0,0,0-1.54,2.43,7.57,7.57,0,0,0-.42,2.32,5.22,5.22,0,0,0,1.33,3.76,5.67,5.67,0,0,0,4.23,1.36,10.58,10.58,0,0,0,4-.76,11.55,11.55,0,0,0,3.26-2,11.26,11.26,0,0,0,2.3-2.69,8.81,8.81,0,0,0,1.19-3Z" transform="translate(-15 -17.17)" style="fill:#fff"/><polygon points="652.78 306.52 655.29 306.52 650.52 331.5 666.02 318.3 669.27 318.3 657.76 328.16 666.11 344.58 663.31 344.59 655.77 329.77 649.91 334.76 648.06 344.65 645.54 344.66 652.78 306.52" style="fill:#fff"/></svg>