<svg enable-background="new 0 0 475 201" viewBox="0 0 475 201" xmlns="http://www.w3.org/2000/svg"><g stroke-miterlimit="10"><path d="m4.6 179.4h466.8" fill="none" stroke="#3c4349" stroke-width="2"/><path d="m423.7 78.5c8.6 26.7-4.1 47-37 47-34.8 0-44.8-20.2-36.6-47 5.2-16.9 3.2-35.3 8.5-43.7 7.5-11.9 14.4-16.5 28.1-16.5 13 0 21.3 4.1 26.6 15.7 4.4 9.4 4.8 27.2 10.4 44.5z" fill="#0d82c5" stroke="#5d5c74"/><path d="m386.4 18.3c-13.1 0-20.1 4.1-27.7 16.3-2.8 4.4-3.5 11.6-4.4 20-.8 7.3-1.6 15.7-4.1 23.6-4.3 14-3.4 25.7 2.6 33.8 6.2 8.4 17.5 12.7 33.6 12.7 15.7 0 27.4-4.6 33.8-13.4 6.1-8.3 7-19.7 2.8-33-2.7-8.6-4.3-17.3-5.6-25-1.4-7.9-2.6-14.8-4.7-19.5-5-10.9-12.8-15.5-26.3-15.5z" fill="#fc3760" stroke="#5c5c74" stroke-width="2"/><path d="m339.7 141.1c0-19.7 21.2-35.6 47.4-35.6s47.4 16 47.4 35.6" fill="#344258" stroke="#5d5c74"/></g><path d="m397.7 51.2c-10.2 0-19-4.1-23.1-10.2-1.7 6.8-6.4 11.8-12.2 12.5v21.9c0 8.5 5.3 19 13.6 24.3v8.5c0 4.7 3 11.4 10.8 11.4 7.6 0 11-6.6 11-11.4v-7.9c8.8-5.1 13.6-16.1 13.6-24.9 0-8.5 0-27.7 0-27.7 0-.1 0-.1 0-.2-1.5 3-5.1 3.7-13.7 3.7z" fill="#fbd7ce"/><path d="m386.7 119.8c-8.3 0-11.3-7.1-11.3-11.8v-8.2c-7.9-5.2-13.6-15.5-13.6-24.6v-21.9c0-.2.2-.4.4-.5 5.5-.7 10.1-5.5 11.8-12.2 0-.2.2-.3.4-.3s.4 0 .5.2c4.3 6.1 13 10 22.8 10 8.8 0 11.9-.8 13.2-3.3.1-.2.3-.3.5-.2.2 0 .4.2.4.4v.2 27.7c0 8.3-4.3 19.7-13.6 25.2v7.6c-.1 4.8-3.6 11.7-11.5 11.7zm-24-66.1v21.5c0 8.9 5.6 18.9 13.4 23.9.1.1.2.2.2.4v8.5c0 4.4 2.8 10.9 10.3 10.9 7.2 0 10.5-6.4 10.5-10.9v-7.9c0-.2.1-.3.2-.4 8.8-5.1 13.4-16.2 13.4-24.5v-26.4c-2.1 2.1-6.1 2.6-13.2 2.6-9.6 0-18.3-3.6-23-9.6-1.8 6.5-6.3 11-11.8 11.9z" fill="#5c5c74"/><path d="m391.8 84.2s-2.1 2.4-4.7 2.4-4.7-2.4-4.7-2.4 2.1.3 4.7.3 4.7-.3 4.7-.3z" fill="#5c5c74"/><path d="m387.3 77.7c-.8 0-1.5-.3-1.9-.8-.3-.4-.4-.9-.2-1.4l.4.1c-.1.4-.1.7.1 1 .3.4.8.6 1.4.6.7 0 1.4-.2 1.7-.7.2-.3.2-.6.1-1l.4-.2c.3.7.1 1.2-.1 1.5-.2.5-1 .9-1.9.9z" fill="#5c5c74"/><path d="m439.4 131v56.1c0 2.9-2.4 5.3-5.3 5.3h-95.1c-2.9 0-5.3-2.4-5.3-5.3v-56.2c0-2.9 2.4-5.3 5.3-5.3h95.1c3 .1 5.3 2.5 5.3 5.4" fill="#e4e6e9"/><path d="m439.4 181v6.1c0 2.9-2.4 5.3-5.3 5.3h-95.1c-2.9 0-5.3-2.4-5.3-5.3v-6.2z" fill="#cdcfd2"/><path d="m333.8 160.2c-.6 0-1.1-.5-1.1-1.1v-11.1c0-.6.6-1.1 1.1-1.1.6 0 1.1.5 1.1 1.1v11c0 .7-.5 1.2-1.1 1.2" fill="#3c4349"/><path d="m434.2 193.6h-95.2c-3.5 0-6.4-2.9-6.4-6.4v-21.3c0-.6.6-1.1 1.1-1.1.6 0 1.1.5 1.1 1.1v21.3c0 2.3 1.9 4.2 4.2 4.2h95.2c2.3 0 4.2-1.9 4.2-4.2v-56.2c0-2.3-1.9-4.2-4.2-4.2h-95.2c-2.3 0-4.2 1.9-4.2 4.2v11c0 .6-.5 1.1-1.1 1.1s-1.1-.5-1.1-1.1v-11c0-3.5 2.9-6.4 6.4-6.4h95.1c3.5 0 6.4 2.9 6.4 6.4v56.1c.1 3.5-2.8 6.5-6.3 6.5" fill="#3c4349"/><path d="m432.2 148.9c-.5 0-.9-.4-.9-.9v-10.1c0-2.4-2-4.4-4.4-4.4h-11.4c-.5 0-.9-.4-.9-.9s.4-.9.9-.9h11.5c3.4 0 6.1 2.8 6.1 6.1v10.2c.1.4-.4.9-.9.9m-22.9-15.4h-7.9c-.5 0-.9-.4-.9-.9s.4-.9.9-.9h7.9c.5 0 .9.4.9.9 0 .4-.4.9-.9.9m-19.7 30c4.2 5 1 7.2-3 7.2s-7.2-3.2-7.2-7.2 3.2-7.2 7.2-7.2 5.9 3.6 3 7.2" fill="#fff"/><path d="m386.6 157.4c-3.4 0-6.1 2.7-6.1 6.1s2.7 6.1 6.1 6.1c1.9 0 3.4-.6 3.7-1.4.4-.9-.1-2.3-1.6-4-.3-.4-.4-1 0-1.4 1.1-1.4 1.4-2.8.9-3.8-.4-1-1.6-1.6-3-1.6m0 14.4c-4.6 0-8.3-3.7-8.3-8.3s3.7-8.3 8.3-8.3c2.3 0 4.2 1.1 5 2.8.8 1.6.6 3.6-.6 5.5 1.6 2.2 2.1 4.1 1.4 5.6-.8 1.7-3 2.7-5.8 2.7" fill="#3c4349"/><path d="m385.5 153.1c-.6 0-1.1-.5-1.1-1.1 0-.1 0-.2.1-.3s1-3.5 3.8-4.3c.6-.2 1.2.2 1.4.8.1.6-.2 1.2-.7 1.3-1.6.5-2.3 2.7-2.3 2.8-.3.5-.7.8-1.2.8" fill="#3c4349"/><path d="m369.7 63.3c-.2 0-.5-.1-.6-.3-.4-.4-.4-.9 0-1.3 1.2-1.3 2.8-1.9 4.4-1.8 1.3.1 2.4.8 3.1 1.8.3.4.1 1-.3 1.3s-1 .1-1.3-.3c-.4-.6-1-.9-1.7-1-1-.1-2.1.3-2.9 1.2-.2.3-.4.4-.7.4z" fill="#5c5c74"/><path d="m405.1 63.3c-.2 0-.5-.1-.7-.3-.8-.8-1.9-1.3-3.1-1.2-.9.1-1.7.4-2.2 1.1-.3.4-.9.5-1.3.2s-.5-.9-.2-1.3c.8-1.1 2.1-1.7 3.6-1.8 1.7-.1 3.4.6 4.5 1.8.4.4.3 1 0 1.3-.2.1-.4.2-.6.2z" fill="#5c5c74"/><path d="m195.9 143.2c0-19.7 21.2-35.6 47.4-35.6s47.4 16 47.4 35.6" fill="#344258" stroke="#5d5c74" stroke-miterlimit="10"/><path d="m295.6 133.1v56.1c0 2.9-2.4 5.3-5.3 5.3h-95.1c-2.9 0-5.3-2.4-5.3-5.3v-56.2c0-2.9 2.4-5.3 5.3-5.3h95.1c2.9.1 5.3 2.5 5.3 5.4" fill="#e4e6e9"/><path d="m189.9 162.3c-.6 0-1.1-.5-1.1-1.1v-11.2c0-.6.6-1.1 1.1-1.1s1.1.5 1.1 1.1v11.1c.1.7-.4 1.2-1.1 1.2" fill="#3c4349"/><path d="m290.3 195.7h-95.1c-3.5 0-6.4-2.9-6.4-6.4v-21.3c0-.6.6-1.1 1.1-1.1s1.1.5 1.1 1.1v21.3c0 2.3 1.9 4.2 4.2 4.2h95.2c2.3 0 4.2-1.9 4.2-4.2v-56.2c0-2.3-1.9-4.2-4.2-4.2h-95.1c-2.3 0-4.2 1.9-4.2 4.2v11.1c0 .6-.5 1.1-1.1 1.1s-1.1-.5-1.1-1.1v-11.1c0-3.5 2.9-6.4 6.4-6.4h95.1c3.5 0 6.4 2.9 6.4 6.4v56.1c-.1 3.6-2.9 6.5-6.5 6.5" fill="#3c4349"/><path d="m288.4 151c-.5 0-.9-.4-.9-.9v-10.1c0-2.4-2-4.4-4.4-4.4h-11.4c-.5 0-.9-.4-.9-.9s.4-.9.9-.9h11.4c3.4 0 6.1 2.8 6.1 6.1v10.1c.1.5-.3 1-.8 1m-22.9-15.4h-7.9c-.5 0-.9-.4-.9-.9s.4-.9.9-.9h7.9c.5 0 .9.4.9.9 0 .4-.4.9-.9.9m-19.7 30c4.2 5 1 7.2-3 7.2s-7.2-3.2-7.2-7.2 3.2-7.2 7.2-7.2 5.9 3.6 3 7.2" fill="#fff"/><path d="m242.8 159.5c-3.4 0-6.1 2.7-6.1 6.1s2.7 6.1 6.1 6.1c1.9 0 3.4-.6 3.7-1.4.4-.9-.1-2.3-1.6-4-.3-.4-.4-1 0-1.4 1.1-1.4 1.4-2.8.9-3.8-.4-1-1.6-1.6-3-1.6m0 14.4c-4.6 0-8.3-3.7-8.3-8.3s3.7-8.3 8.3-8.3c2.3 0 4.2 1.1 5 2.8.8 1.6.6 3.6-.6 5.5 1.6 2.2 2.1 4.1 1.4 5.6-.9 1.8-3 2.7-5.8 2.7" fill="#3c4349"/><path d="m241.7 155.2c-.6 0-1.1-.5-1.1-1.1 0-.1 0-.2.1-.3s1-3.5 3.8-4.3c.6-.2 1.2.2 1.4.8.1.6-.2 1.2-.7 1.3-1.6.5-2.3 2.7-2.3 2.8-.3.5-.7.8-1.2.8" fill="#3c4349"/><path d="m242.9 121c7.2 0 10.5-6.4 10.5-10.9v-7.9c0-.2.1-.3.2-.4.6-.3 1.2-.7 1.7-1.1-3.8.9-7.8 1.4-12 1.4-4 0-7.9-.5-11.5-1.3.2.1.4.3.6.4.1.1.2.2.2.4v8.5c-.1 4.4 2.7 10.9 10.3 10.9z" fill="#fbd7ce" stroke="#5d5c74" stroke-miterlimit="10"/><path d="m46.4 141.1c0-19.7 21.2-35.6 47.4-35.6s47.4 16 47.4 35.6" fill="#344258" stroke="#5d5c74" stroke-miterlimit="10"/><path d="m146.1 131v56.1c0 2.9-2.4 5.3-5.3 5.3h-95.1c-2.9 0-5.3-2.4-5.3-5.3v-56.2c0-2.9 2.4-5.3 5.3-5.3h95.1c3 .1 5.3 2.5 5.3 5.4" fill="#e4e6e9"/><path d="m40.5 160.2c-.6 0-1.1-.5-1.1-1.1v-11.1c0-.6.6-1.1 1.1-1.1.6 0 1.1.5 1.1 1.1v11c0 .7-.5 1.2-1.1 1.2" fill="#3c4349"/><path d="m140.8 193.6h-95.1c-3.5 0-6.4-2.9-6.4-6.4v-21.3c0-.6.6-1.1 1.1-1.1.6 0 1.1.5 1.1 1.1v21.3c0 2.3 1.9 4.2 4.2 4.2h95.2c2.3 0 4.2-1.9 4.2-4.2v-56.2c0-2.3-1.9-4.2-4.2-4.2h-95.2c-2.3 0-4.2 1.9-4.2 4.2v11c0 .6-.5 1.1-1.1 1.1s-1.1-.5-1.1-1.1v-11c0-3.5 2.9-6.4 6.4-6.4h95.1c3.5 0 6.4 2.9 6.4 6.4v56.1c0 3.5-2.8 6.5-6.4 6.5" fill="#3c4349"/><path d="m138.9 148.9c-.5 0-.9-.4-.9-.9v-10.1c0-2.4-2-4.4-4.4-4.4h-11.4c-.5 0-.9-.4-.9-.9s.4-.9.9-.9h11.4c3.4 0 6.1 2.8 6.1 6.1v10.2c.1.4-.3.9-.8.9m-22.9-15.4h-7.9c-.5 0-.9-.4-.9-.9s.4-.9.9-.9h7.9c.5 0 .9.4.9.9 0 .4-.4.9-.9.9m-19.7 30c4.2 5 1 7.2-3 7.2s-7.2-3.2-7.2-7.2 3.2-7.2 7.2-7.2 5.9 3.6 3 7.2" fill="#fff"/><path d="m93.3 157.4c-3.4 0-6.1 2.7-6.1 6.1s2.7 6.1 6.1 6.1c1.9 0 3.4-.6 3.7-1.4.4-.9-.1-2.3-1.6-4-.3-.4-.4-1 0-1.4 1.1-1.4 1.4-2.8.9-3.8-.4-1-1.6-1.6-3-1.6m0 14.4c-4.6 0-8.3-3.7-8.3-8.3s3.7-8.3 8.3-8.3c2.3 0 4.2 1.1 5 2.8.8 1.6.6 3.6-.6 5.5 1.6 2.2 2.1 4.1 1.4 5.6-.9 1.7-3 2.7-5.8 2.7" fill="#3c4349"/><path d="m92.2 153.1c-.6 0-1.1-.5-1.1-1.1 0-.1 0-.2.1-.3s1-3.5 3.8-4.3c.6-.2 1.2.2 1.4.8.1.6-.2 1.2-.7 1.3-1.6.5-2.3 2.7-2.3 2.8-.3.5-.7.8-1.2.8" fill="#3c4349"/><path d="m93.4 118.9c7.2 0 10.5-6.4 10.5-10.9v-7.9c0-.2.1-.3.2-.4.6-.3 1.2-.7 1.7-1.1-3.8.9-7.8 1.4-12 1.4-4 0-7.9-.5-11.5-1.3.2.1.4.3.6.4.1.1.2.2.2.4v8.5c-.1 4.4 2.7 10.9 10.3 10.9z" fill="#fbd7ce" stroke="#5e5c74" stroke-miterlimit="10"/><path d="m275.2 65.5c0 3.3-2.2 6-4.8 6s-4.8-2.7-4.8-6 2.2-4.9 4.8-4.9 4.8 1.6 4.8 4.9z" fill="#facab8"/><path d="m270.4 72.3c-3.1 0-5.6-3-5.6-6.8 0-3.5 2.2-5.7 5.6-5.7s5.6 2.2 5.6 5.7c0 3.7-2.5 6.8-5.6 6.8zm0-11c-2.6 0-4.1 1.6-4.1 4.2 0 2.9 1.8 5.2 4.1 5.2s4.1-2.4 4.1-5.2c-.1-2.6-1.6-4.2-4.1-4.2z" fill="#5c5c74"/><path d="m220.8 65.5c0 3.3-2.2 6-4.8 6s-4.8-2.7-4.8-6 2.2-4.9 4.8-4.9 4.8 1.6 4.8 4.9z" fill="#facab8"/><path d="m215.9 72.3c-3.1 0-5.6-3-5.6-6.8 0-3.5 2.2-5.7 5.6-5.7s5.6 2.2 5.6 5.7c0 3.7-2.5 6.8-5.6 6.8zm0-11c-2.6 0-4.1 1.6-4.1 4.2 0 2.9 1.8 5.2 4.1 5.2 2.2 0 4.1-2.4 4.1-5.2 0-2.6-1.5-4.2-4.1-4.2z" fill="#5c5c74"/><path d="m270.6 55.8c0 32.5-11.3 46.4-27.4 46.4s-27.9-13-27.9-46.4c0-20.1 11.7-24.3 27.9-24.3s27.4 4.3 27.4 24.3z" fill="#fbd7ce"/><path d="m243.1 103c-8.8 0-15.8-3.7-20.6-11-5.3-8-8-20.1-8-36.2 0-22.1 14.5-25.1 28.6-25.1 14.6 0 28.2 3 28.2 25.1 0 30.4-10 47.2-28.2 47.2zm0-70.7c-9.1 0-15.3 1.4-19.5 4.5-5.1 3.7-7.6 9.9-7.6 19 0 37.7 14.7 45.6 27.1 45.6 17.2 0 26.6-16.2 26.6-45.6.1-19.5-10.6-23.5-26.6-23.5z" fill="#5c5c74"/><path d="m242.6 71.9c10.8 0 13.3 6.7 18.3 6.7s8.5-7.2 8.5-7.2 3.2 37-25.8 37-26.9-36.6-26.9-36.6 1.4 6.7 7.6 6.7 6.6-6.6 18.3-6.6z" fill="#0b9be5"/><path d="m243.5 109.3c-7.7 0-13.9-2.5-18.5-7.4-5.3-5.6-7.5-13.5-8.4-19.1-1-6-.7-10.7-.7-10.9 0-.4.3-.7.7-.7s.7.2.8.6c.1.2 1.3 6.1 6.8 6.1 2.4 0 3.8-1.1 5.6-2.4 2.6-1.9 5.8-4.3 12.7-4.3 6.7 0 10.3 2.5 13.2 4.4 1.9 1.3 3.3 2.3 5.1 2.3 4.5 0 7.8-6.7 7.8-6.8.2-.3.5-.5.8-.4s.6.3.6.7c0 .2.4 4.9-.4 11.1-.8 5.7-2.8 13.7-8 19.4-4.3 4.9-10.5 7.4-18.1 7.4zm-26.1-33.6c.2 5.9 1.7 17.7 8.7 25.1 4.3 4.6 10.2 6.9 17.4 6.9 7.1 0 12.9-2.3 17.1-6.9 7.4-8.1 8.2-21.2 8.1-26.7-1.5 2.3-4.3 5.3-7.8 5.3-2.3 0-4-1.2-6-2.6-2.7-1.9-6.1-4.2-12.3-4.2-6.5 0-9.3 2.1-11.8 4-1.9 1.4-3.7 2.7-6.5 2.7-3.6.1-5.7-1.8-6.9-3.6z" fill="#5c5c74"/><path d="m252.7 84.3c-1.1 3.6-5.2 3.5-9.5 3.5s-9.5.5-10.5-3.2c-1.2-4.1 6.1-4.5 10.5-4.5s10.7.3 9.5 4.2z" fill="#facab8"/><path d="m240.5 88.6c-3.6 0-7.6-.3-8.6-3.8-.3-1.1-.1-2.1.5-2.9 1.3-1.8 4.8-2.6 10.8-2.6 4.1 0 8.4.3 9.9 2.4.4.5.8 1.5.4 2.8-1.3 4.1-5.7 4.1-10 4.1h-.3c-.4 0-.9 0-1.3 0-.5 0-1 0-1.4 0zm2.6-7.7c-6.7 0-8.9 1.1-9.6 2-.3.4-.4.9-.2 1.5.6 2.2 3.2 2.7 7.1 2.7h1.3 1.3.3c4.7 0 7.6-.2 8.5-3 .3-.8 0-1.2-.1-1.4-1.1-1.8-6.7-1.8-8.6-1.8z" fill="#5c5c74"/><path d="m225.9 63.3c-.2 0-.4-.1-.6-.3-.3-.3-.3-.8.1-1.1 1.1-1 2.7-1.5 4.2-1.4 1.2.1 2.2.6 2.8 1.5.3.3.2.8-.2 1.1-.3.3-.8.2-1.1-.2-.4-.5-1-.8-1.7-.8-1.1-.1-2.2.3-3 1-.1.1-.3.2-.5.2z" fill="#5c5c74"/><path d="m259.9 63.3c-.2 0-.4-.1-.5-.2-.8-.7-2-1.1-3.2-1-.9.1-1.7.4-2.2.9-.3.3-.8.3-1.1.1-.3-.3-.3-.8-.1-1.1.8-.9 1.9-1.4 3.3-1.4 1.6-.1 3.1.4 4.3 1.4.3.3.3.8.1 1.1-.2.1-.4.2-.6.2z" fill="#5c5c74"/><path d="m235.8 16.1c10.2-2.8 21 4.2 25.9 10.6 4.1 5.3 9 3.8 12.8 9.6s1.3 16.6-1.5 21.2c-2.7 4.6-2.7 4.6-2.7 4.6s-3.6-14.2-9.1-16.6-5.3 3.4-17.5 2.4-16.3-8.2-19.3-7.2c-2.9 1-2.5 6.3-5.1 11.5-2.5 5.3-4 9.9-4 9.9s-8.1-15.5-4.8-24.3c2.5-6.7 7.2-4.3 10.6-8.7 3.5-4.3 7.5-11 14.7-13z" fill="#0b9be5"/><path d="m215.5 62.8c-.3 0-.5-.2-.7-.4-.3-.6-8.2-15.9-4.9-24.9 1.6-4.2 4-5.1 6.3-6 1.6-.6 3.1-1.2 4.4-2.8.5-.6 1-1.3 1.5-2 3.1-4.3 7.1-9.6 13.5-11.3 1.6-.4 3.3-.6 5-.6 8.8 0 17.3 5.8 21.8 11.5 1.9 2.4 3.9 3.3 6 4.3 2.4 1.1 4.8 2.2 6.9 5.4 4.1 6.2 1.3 17.4-1.4 22l-2.7 4.6c-.2.3-.5.4-.8.4s-.6-.3-.6-.6c-1-3.8-4.4-14.2-8.6-16.1-.8-.4-1.5-.5-2.1-.5-1 0-1.8.4-3 .9-1.9.9-4.5 2.2-9.5 2.2-.9 0-1.8 0-2.7-.1-7.6-.6-12.2-3.6-15.2-5.6-1.7-1.1-2.9-1.9-3.7-1.7-1.4.4-1.9 2.3-2.5 5-.5 1.9-1 4-2.1 6.2-2.5 5.2-4 9.7-4 9.8-.3.1-.6.3-.9.3zm43.4-18.7c.9 0 1.8.2 2.8.7 4.6 2 7.8 11.4 9 15.4l1.8-3c2.5-4.1 5.1-14.7 1.5-20.3-1.9-2.8-4-3.8-6.2-4.8s-4.4-2-6.5-4.7c-4.1-5.3-12.3-10.9-20.6-10.9-1.6 0-3.1.2-4.6.6-5.9 1.6-9.6 6.6-12.6 10.7-.5.7-1 1.4-1.5 2-1.5 2-3.4 2.7-5 3.3-2.2.8-4.1 1.6-5.5 5.1-2.5 6.8 2.1 17.9 4 22 .7-1.8 1.9-4.9 3.4-8.2 1-2 1.5-4.1 2-5.9.7-2.9 1.4-5.3 3.5-6.1.3-.1.5-.1.8-.1 1.3 0 2.5.8 4.2 2 2.9 1.9 7.3 4.8 14.5 5.3.9.1 1.8.1 2.6.1 4.6 0 6.9-1.1 8.8-2 1.1-.7 2.2-1.2 3.6-1.2z" fill="#5c5c74"/><path d="m242.8 73.9c-.3 0-.6 0-.9-.1-2-.3-2.8-1.8-2.9-1.9-.2-.4-.1-.8.3-1s.8-.1 1 .3c0 0 .5.9 1.7 1.1s2.2-.1 2.6-.7c.3-.4.2-1-.1-1.5-1.1-1.7-2.9-7.5-2.4-9.4.1-.4.5-.7.9-.5.4.1.7.5.5.9-.4 1.3 1.1 6.5 2.2 8.2.7 1 .7 2.2.1 3.1-.5 1-1.6 1.5-3 1.5z" fill="#5c5c74"/><path d="m242.8 85.7c-2.2 0-4-.8-4.9-2.1-.2-.4-.2-.8.2-1.1.3-.2.8-.2 1.1.2.6.9 2 1.4 3.6 1.4 1.9 0 3.7-.7 4.3-1.6.2-.4.7-.4 1.1-.2s.4.7.2 1.1c-1.1 1.6-3.6 2.3-5.6 2.3z" fill="#5c5c74"/><path d="m68.9 66.3c0 3.6-2.3 6.4-5.2 6.4s-5.2-2.9-5.2-6.4c0-3.6 2.3-5.3 5.2-5.3s5.2 1.7 5.2 5.3z" fill="#facab8"/><path d="m63.7 73.5c-3.3 0-6-3.3-6-7.3 0-3.7 2.4-6.1 6-6.1s6 2.4 6 6.1c0 4.1-2.7 7.3-6 7.3zm0-11.7c-2.7 0-4.4 1.7-4.4 4.5 0 3.1 2 5.6 4.4 5.6s4.4-2.5 4.4-5.6c-.1-2.8-1.7-4.5-4.4-4.5z" fill="#5c5c74"/><path d="m82.8 102.4c-9.1-3.2-12.9-12.4-16.3-25.3-2-7.5-2.8-12.6-2.8-21.9 0-22.5 11.6-30.7 30.1-30.7s30.9 4.7 30.9 27.2c0 33.7-11 53.4-30.9 53.4" fill="#fbd7ce"/><g fill="#5c5c74"><path d="m93.8 105.9c-.5 0-.8-.4-.8-.8 0-.5.4-.8.8-.8 19.1 0 30.1-19.2 30.1-52.6 0-21.9-12-26.4-30.1-26.4-9.6 0-16.6 2.2-21.4 6.7-5.2 4.9-7.9 12.7-7.9 23.2 0 9.5.9 14.5 2.8 21.7 4.6 17.6 9.5 22.5 15.8 24.7.4.2.7.6.5 1s-.6.7-1 .5c-9.2-3.2-13.3-12.3-16.8-25.8-1.9-7.3-2.8-12.5-2.8-22.1 0-21.2 10.1-31.6 30.9-31.6 16.5 0 31.8 3.4 31.8 28-.2 34.5-11.8 54.3-31.9 54.3z"/><path d="m94.1 76.2c-.3 0-.7 0-1-.1-2.2-.3-3.2-2.1-3.2-2.2-.2-.4-.1-.9.3-1.1s.9-.1 1.1.3c0 0 .6 1.1 2 1.3s2.5-.1 3-.8c.3-.5.3-1.2-.1-1.9-1.2-2-3.3-8.7-2.7-11 .1-.4.6-.7 1-.6s.7.6.6 1c-.4 1.6 1.3 7.8 2.5 9.8.7 1.2.8 2.6.1 3.6-.7 1.1-2 1.7-3.6 1.7z"/><path d="m77.5 61.1c-.2 0-.4-.1-.6-.2-.3-.3-.3-.8 0-1.2 1.1-1.1 2.6-1.8 4-1.6 1.2.1 2.2.7 2.8 1.7.2.4.1.9-.3 1.1s-.9.1-1.1-.3c-.3-.5-.9-.9-1.6-.9-.9-.1-2 .3-2.7 1.1-.1.2-.3.3-.5.3z"/><path d="m110 61.1c-.2 0-.4-.1-.6-.3-.7-.8-1.8-1.2-2.9-1.1-.9 0-1.6.4-2.1 1-.3.4-.8.4-1.2.2-.4-.3-.4-.8-.2-1.2.7-1 1.9-1.6 3.3-1.7 1.5-.1 3.1.5 4.1 1.6.3.3.3.8 0 1.2.1.2-.1.3-.4.3z"/><path d="m93.4 86.6c-2.1 0-3.9-.8-4.8-2.1-.3-.4-.2-.9.2-1.1.4-.3.9-.2 1.1.2.6.9 2 1.4 3.7 1.3 1.8-.1 3.5-.8 4.1-1.8.2-.4.7-.5 1.1-.3s.5.7.3 1.1c-.9 1.5-3 2.5-5.5 2.6 0 .1-.1.1-.2.1z"/></g><path d="m121.9 74.5c4.4.3 7.4-3.9 7.6-7.7.2-3.7-3.5-5.2-6.5-4.9" fill="#facab8"/><path d="m122.4 75.3c-.2 0-.4 0-.5 0-.5 0-.8-.4-.8-.9s.4-.8.9-.8c1.9.1 3.3-.7 4.1-1.4 1.5-1.3 2.5-3.4 2.7-5.5.1-1.1-.3-2.1-1-2.8-1-1-2.8-1.5-4.5-1.2-.5.1-.9-.3-.9-.7-.1-.5.3-.9.7-.9 2.2-.3 4.5.4 5.9 1.7 1.1 1 1.6 2.4 1.6 4-.1 2.5-1.4 5-3.2 6.6-1.6 1.3-3.3 1.9-5 1.9z" fill="#5c5c74"/><path d="m123.8 62c4.4-13.1 4.4-24.2 2.1-34.9-1.2-5.6-3.7-10-3.7-10-5.7 1.3-7.3-2.1-22.7-4.2-11.1-1.5-16.2 2-18.1 4.1 0 0-3.6-1.8-10.9 1.4-6.6 2.9-12.3 10.5-8.3 34.3 1.2 9.6 4.4 18.3 4.4 18.3s-1.5-18.9 1.5-26.4c.1-.4.3-.7.5-1l1.5-2.2c4.1-4.7 11.7-5.4 14.6-2.6 3.4 3.3 9.2 2.9 9.2 2.9s5.8.4 9.2-2.9 13.6-1.7 16.5 5.8 1.5 26.4 1.5 26.4 1.4-3.7 2.7-9z" fill="#fc3760" stroke="#5c5c74" stroke-miterlimit="10" stroke-width="2"/></svg>