<svg viewBox="0 0 366.24 89.63" xmlns="http://www.w3.org/2000/svg"><g fill-rule="evenodd"><path d="m10.08 0h219.27l-10.08 89.63h-219.27z" fill="#cbcbcb"/><path d="m366.24 0h-130.17l-10.08 89.63h130.17z" fill="#cbcbcb"/><g fill="#fff"><path d="m57.22 71.95h-24.11v-55.48h7.42v50.48h16.69z"/><g transform="translate(-95 -204.55)"><path d="m186.33 255.46-6.45-21a40.25 40.25 0 0 1 -1.61-6.69h-.16a43.82 43.82 0 0 1 -1.69 6.69l-6.61 21zm14.11 21h-7.66l-5.24-16.61h-19l-5.4 16.61h-6.77l18.75-55.46h6.61z"/><path d="m260.76 276.51h-7q-.73-7.18-4.28-41.53-.24-2.42-.4-6.53h-.16a61.88 61.88 0 0 1 -1.53 6.53l-11.79 41.53h-4.92q-.24-.64-11.61-41.61-1-3.79-1.53-6.45h-.16a64.08 64.08 0 0 1 -.4 6.45l-4.35 41.61h-6.37l6.6-55.51h7.82l11.13 40.08a63.71 63.71 0 0 1 1.45 6.29h.16q.24-1.53 1.45-6.21l11.46-40.16h7.82z"/><path d="m296.89 236.91q0-12.26-12.1-12.26a15.62 15.62 0 0 0 -6.29 1v23.23l2.42.24q1.61.16 3.06.16 12.91.05 12.91-12.37zm7.18.08q0 8.39-5.56 12.82-5.08 4-13.71 4-2.1 0-3.79-.16l-2.5-.24v23.06h-7.26v-53.19q5.4-3.07 13.87-3.07t13.55 4q5.4 4.47 5.4 12.79z"/><path d="m381.46 238.76q0 2.87-3.29 6.69-.64.74-5.73 5.42 7.22 4.56 7.22 11.15 0 6.27-5.84 10a21.81 21.81 0 0 1 -11.68 3.08q-20.07 0-20.07-6.58 0-3.19 5.2-4.25 1.38 5.31 10.2 5.31a26.84 26.84 0 0 0 8.92-1.49q6.05-2.12 6.05-5.73 0-5.95-11.36-5.95h-2.12a5.51 5.51 0 0 1 -3.51-1.17 4.28 4.28 0 0 1 -1.38-3.29q0-2.87 8.07-5.73 9.45-3.29 12.32-7.43a17.33 17.33 0 0 0 -12.32-4.57q-1.59 0-4.88.21t-4.89.21q-5.31 0-5.31-3.08a5.1 5.1 0 0 1 2.23-3.93 10.07 10.07 0 0 1 4.14-2.12l.85 1q11.26 1 16.35 2.44 10.83 3.12 10.83 9.81z"/><path d="m441.46 226.87q0 4.56-7.75 7.33-4.46 1.38-15.82 5.42-9.24 3.4-12.53 10.3 2.87 1 12.53 1.17 9.13.21 12.85 2 5.84 2.87 5.84 10.94 0 6.69-7.43 11.57a24.57 24.57 0 0 1 -13.81 4.46 58.12 58.12 0 0 1 -15.19-2.12q-10.73-2.87-10.73-7.75a31.9 31.9 0 0 1 8.5 1.38q11.26 3.08 14.23 3.08a23.56 23.56 0 0 0 11-3q6.69-3.61 6.69-8.6 0-3.4-3.93-5.73a13.56 13.56 0 0 0 -7-2 28.43 28.43 0 0 0 -5.1.53 66.57 66.57 0 0 1 -8.5 1.27q-8.92 0-8.92-4.46 0-1.59 3.08-7.65a61.13 61.13 0 0 1 3.61-7.12q13.27-2.12 18.69-4.14 10-3.72 14.66-11.36l1-.11a18 18 0 0 0 2.44 2 3.23 3.23 0 0 1 1.59 2.59z"/></g></g></g></svg>