<svg viewBox="0 0 267.79 192.97" xmlns="http://www.w3.org/2000/svg"><g fill="#cbcbcb" transform="translate(-318.94 -388.03)"><path d="m368.69 399.44 6.41-1.17a3.8 3.8 0 0 0 .13-1.35c0-.1 0-.16 0-.19a3.15 3.15 0 0 0 -1.14-2 3.1 3.1 0 0 0 -2.22-.64h-.2a3.82 3.82 0 0 0 -2.43 1.45 3.92 3.92 0 0 0 -.84 2.76v.19a3.3 3.3 0 0 0 .3 1m-17.47 34.88a3.53 3.53 0 1 1 -3.53 3.53 3.53 3.53 0 0 1 3.53-3.58zm43.09-3.74a2.81 2.81 0 1 1 -2.81 2.81 2.81 2.81 0 0 1 2.81-2.86zm-1.66-7.3a2.81 2.81 0 1 1 -2.81 2.81 2.81 2.81 0 0 1 2.81-2.85zm-4.76-5.39a2.81 2.81 0 1 1 -2.81 2.81 2.81 2.81 0 0 1 2.81-2.86zm4.48 19.83a2.81 2.81 0 1 1 -2.81 2.81 2.81 2.81 0 0 1 2.81-2.86zm14.62 40.8q0-26.41 0-52.85h29.2v10h-18.11v10.61h18.11v10.12h-18v22.08zm-39.63-18.92a24.69 24.69 0 0 0 -10.9-2c-3.9.49-5.65-4.79-2.26-6.54a11.6 11.6 0 0 0 2.45-18.27 11.63 11.63 0 0 0 -16.4 0c-7 7 1.22 20.87 4 28.86a22.68 22.68 0 0 0 -4.73 4.58l-7.43-21.08c-3.07-6.52-10.16-10.62-12.68-12.68-1.09-.89-.1-1.86.9-1.69 8.77 1.47 11.92-2.35 17.69-4.84l-.69-16.89-.16-3.91 3.87-.69 21.7-4a9.41 9.41 0 0 1 -.26-1.2c0-.21-.05-.39-.07-.55a9.95 9.95 0 0 1 8.4-10.64l.53-.05a9 9 0 0 1 6.46 1.93 9.13 9.13 0 0 1 3.34 5.86c0 .21.05.39.07.55s0 .5 0 .75l31.57-5.76 5.27-.94v23l-11.15.63v-12.42l-62.07 10.46.44 11.64a17.59 17.59 0 0 1 15.53 4.89 17.73 17.73 0 0 1 1.86 2.2l25-3.3-21.65 12.13q.05.69.05 1.39a17.65 17.65 0 0 1 -.45 4c-2.31 10.05-6.65 4.52 4.11 9.12a31 31 0 0 1 16.27 40.54l-7.56 17.67q.09 6.89.1 13.84l28.46 4.85q0-20.78 0-41.54h11.2q0 24 0 47.95v5.46l-5.36-1.05-34.32-7.12c0 15.33-.3 30.79-.55 46.25l-14-42.38-1.47-4.28 18-42a24.84 24.84 0 0 0 .19-19.06c-2.75-6.78-6.98-10.49-13.34-13.67z"/><path d="m344 513.15c-5.19-13.73-9.11-28.11-4.87-38a19.88 19.88 0 0 1 14.08-11.59 15.09 15.09 0 0 1 15.7 20.89c-2.71 6.33-7.67 10.72-12.63 15.1-4.56 4-9.11 8-12.28 13.64" fill-rule="evenodd"/><path d="m372.91 470.52a19.92 19.92 0 0 1 2.77 20.22l-20 46.76a19.86 19.86 0 0 1 -1.11 2.21c-2-5.87-5.23-13.15-8.34-20.88.14-.28.27-.57.39-.86 2.71-6.33 7.67-10.72 12.63-15.1 5.34-4.72 10.69-9.44 13.79-16.69a19.51 19.51 0 0 0 .15-15q-.14-.35-.29-.69" fill-rule="evenodd"/><path d="m441.44 451.66q0-11.5 7.61-19a24.85 24.85 0 0 1 18-7.49q11.54 0 19.09 7.53t7.55 19q0 11.43-7.47 19t-18.82 7.55q-11.35 0-18.68-7.51t-7.28-19.08zm26.17-16.13a12.88 12.88 0 0 0 -10.51 4.47q-4 4.63-4 11.94a16.54 16.54 0 0 0 4.07 11.46 13.2 13.2 0 0 0 10.28 4.6 13.46 13.46 0 0 0 10.55-4.5q4-4.49 4-11.84t-3.93-11.66a13.72 13.72 0 0 0 -10.46-4.47z"/><path d="m495.22 425.73h34.91v11h-11.9v40.88h-11.23v-40.85h-11.78z"/><path d="m534.43 451.66q0-11.5 7.61-19a24.85 24.85 0 0 1 18-7.49q11.54 0 19.09 7.53t7.55 19q0 11.43-7.47 19t-18.82 7.55q-11.35 0-18.68-7.51t-7.28-19.08zm26.17-16.13a12.88 12.88 0 0 0 -10.52 4.47q-4 4.63-4 11.94a16.54 16.54 0 0 0 4.07 11.46 13.2 13.2 0 0 0 10.29 4.6 13.46 13.46 0 0 0 10.56-4.5q4-4.49 4-11.84t-3.94-11.66a13.71 13.71 0 0 0 -10.46-4.47z"/><path d="m437.78 490.74 6 .08-.16 11.7h.08l9.3-11.57 7.33.1-10.71 13.08 10.77 14.63-7.18-.1-9.59-13.1h-.08l-.18 13-6-.08z"/><path d="m461.28 504.74a13.63 13.63 0 0 1 4.06-10.14 13.27 13.27 0 0 1 9.64-4 14.38 14.38 0 0 1 10.24 24.32 13.55 13.55 0 0 1 -10 4 13.34 13.34 0 0 1 -10-4 14 14 0 0 1 -3.94-10.18zm14-8.61a6.88 6.88 0 0 0 -5.61 2.41 9.41 9.41 0 0 0 -2.13 6.37 8.83 8.83 0 0 0 2.17 6.12 7 7 0 0 0 5.49 2.43 7.18 7.18 0 0 0 5.62-2.4 9.13 9.13 0 0 0 2.14-6.32 9 9 0 0 0 -2.1-6.21 7.32 7.32 0 0 0 -5.61-2.4z"/><path d="m494.19 490.9h5.93v21.74h8.17v6h-14.1z"/><path d="m508.13 490.9h6.62l5.11 8.59 5.14-8.59h6.64l-8.82 14.75v13h-5.82v-13z"/><path d="m535.37 490.9h15.63v5.49h-9.62v5.61h9.62v5.4h-9.62v5.74h9.62v5.49h-15.6z"/></g></svg>