<svg enable-background="new 0 0 366.2 89.6" viewBox="0 0 366.2 89.6" xmlns="http://www.w3.org/2000/svg"><path d="m10.1 0h219.3l-10.1 89.6h-219.3z" opacity=".5"/><path d="m366.2 0h-130.1l-10.1 89.6h130.2z" opacity=".5"/><g fill="#fff"><path d="m57.2 71.5h-24.1v-55h7.4v50h16.7z"/><path d="m91.3 50.6-6.4-20.8c-.7-2.2-1.3-4.4-1.6-6.6h-.2c-.4 2.3-1 4.5-1.7 6.6l-6.6 20.8zm14.1 20.8h-7.7l-5.2-16.4h-19l-5.4 16.5h-6.8l18.8-55h6.6z"/><path d="m165.8 71.5h-7c-.5-4.7-1.9-18.5-4.3-41.2-.2-1.6-.3-3.8-.4-6.5h-.2c-.4 2.2-.9 4.3-1.5 6.5l-11.8 41.2h-4.9c-.2-.4-4-14.2-11.6-41.3-.7-2.5-1.2-4.6-1.5-6.4h-.2c0 2.1-.2 4.3-.4 6.4l-4.4 41.3h-6.4l6.6-55h7.8l11.1 39.7c.6 2.1 1.1 4.1 1.4 6.2h.2c.2-1 .6-3.1 1.4-6.2l11.5-39.8h7.8z"/><path d="m201.9 32.2c0-8.1-4-12.2-12.1-12.2-2.1-.1-4.3.2-6.3 1v23l2.4.2c1.1.1 2.1.2 3.1.2 8.6.1 12.9-4 12.9-12.2zm7.2.1c0 5.5-1.9 9.8-5.6 12.7-3.4 2.6-8 4-13.7 4-1.4 0-2.7-.1-3.8-.2l-2.5-.2v22.9h-7.3v-52.8c3.6-2 8.2-3 13.9-3 5.6 0 10.2 1.3 13.5 4 3.7 2.9 5.5 7.1 5.5 12.6z"/><path d="m286.5 34.1c0 1.9-1.1 4.1-3.3 6.6-.4.5-2.3 2.3-5.7 5.4 4.8 3 7.2 6.7 7.2 11.1 0 4.1-1.9 7.4-5.8 9.9-3.5 2.1-7.6 3.1-11.7 3.1-13.4 0-20.1-2.2-20.1-6.5 0-2.1 1.7-3.5 5.2-4.2.9 3.5 4.3 5.3 10.2 5.3 3 0 6.1-.5 8.9-1.5 4-1.4 6.1-3.3 6-5.7 0-3.9-3.8-5.9-11.4-5.9h-2c-1.3 0-2.5-.4-3.5-1.2-.9-.8-1.4-2-1.4-3.3 0-1.9 2.7-3.8 8.1-5.7 6.3-2.2 10.4-4.6 12.3-7.4-3.3-3.1-7.8-4.7-12.3-4.5-1.1 0-2.7.1-4.9.2s-3.8.2-4.9.2c-3.5 0-5.3-1-5.3-3.1.1-1.6.9-3 2.2-3.9 1.2-1 2.6-1.7 4.1-2.1l.9 1c7.5.7 13 1.5 16.4 2.4 7.2 2.1 10.8 5.3 10.8 9.8z"/><path d="m346.5 22.3c0 3-2.6 5.4-7.8 7.3-3 .9-8.2 2.7-15.8 5.4-6.2 2.2-10.3 5.7-12.5 10.2 1.9.7 6.1 1 12.5 1.2 6.1.1 10.4.8 12.9 2 3.9 1.9 5.8 5.5 5.8 10.8 0 4.4-2.5 8.2-7.4 11.5-4 2.8-8.9 4.4-13.8 4.4-5.1 0-10.2-.7-15.2-2.1-7.2-1.9-10.7-4.5-10.7-7.7 2.9.1 5.7.5 8.5 1.4 7.5 2 12.3 3.1 14.2 3.1 3.9-.1 7.6-1.1 11-3 4.5-2.4 6.7-5.2 6.7-8.5 0-2.2-1.3-4.1-3.9-5.7-2.1-1.3-4.5-2-7-2-1.7 0-3.4.2-5.1.5-2.8.6-5.6 1-8.5 1.3-5.9 0-8.9-1.5-8.9-4.4 0-1.1 1-3.6 3.1-7.6 1-2.4 2.3-4.8 3.6-7.1 8.8-1.4 15.1-2.8 18.7-4.1 6.7-2.5 11.6-6.2 14.7-11.3l1-.1c.8.7 1.6 1.4 2.4 2 .8.4 1.4 1.4 1.5 2.5z"/></g></svg>