<svg enable-background="new 0 0 595 232.3" viewBox="0 0 595 232.3" xmlns="http://www.w3.org/2000/svg"><g opacity=".5" transform="translate(-127.63 -25.59)"><path d="m186.4 173.7c0 .6-.1 1.3-.2 1.9-.2.8-.6 1.5-1.2 2-.8.7-1.8 1.3-2.8 1.6-1.6.5-3.3.7-5 .7-1.7.1-3.4-.2-5-.8-1-.4-2-1-2.8-1.8-.6-.6-1-1.3-1.2-2.1-.1-.6-.2-1.2-.2-1.7v-42.5c0-.6-.1-1.2-.2-1.7-.2-.6-.4-1.1-.7-1.6s-.7-.9-1.2-1.2-1.1-.5-1.7-.4c-1.1 0-2.2.3-3.2.9s-2 1.3-2.9 2.1c-.8.7-1.6 1.5-2.3 2.4-.7.8-1.1 1.4-1.4 1.8v40.3c0 .6-.1 1.3-.2 1.9-.2.8-.6 1.5-1.2 2-.8.7-1.7 1.3-2.8 1.6-1.6.5-3.3.8-5 .7-1.7.1-3.4-.2-5-.8-1-.4-2-1-2.8-1.8-.6-.6-1-1.3-1.2-2.1-.1-.6-.2-1.2-.2-1.7v-46.4c0-1.1-.3-2.1-.8-3-.6-.9-1.7-1.4-2.7-1.3-.6 0-1.2.1-1.7.4-.6.3-1.1.6-1.6 1l-1.3-1.5c1-.8 2-1.6 3.1-2.2 1.2-.8 2.4-1.4 3.7-2 1.4-.6 2.8-1 4.3-1.4 1.6-.4 3.2-.5 4.8-.5 2.1-.1 4.2.3 6.1 1.3 1.3.7 2.4 1.8 3.2 3.1.7 1.2 1.1 2.4 1.2 3.8.1 1.1.2 2.2.2 3.3 1.8-2.1 3.9-4 6.1-5.7 1.9-1.5 4-2.9 6.2-3.9 1.1-.5 2.3-1 3.5-1.3s2.4-.5 3.6-.5c2.1-.1 4.1.4 6 1.3 1.5.7 2.9 1.7 4 3 1 1.1 1.7 2.4 2.2 3.7.4 1.1.7 2.2.7 3.4 1.9-2.1 3.9-4 6.1-5.7.9-.8 1.9-1.5 2.9-2.1 1.1-.7 2.1-1.3 3.3-1.8 1.1-.5 2.3-1 3.5-1.3s2.4-.5 3.6-.5c2.1-.1 4.1.4 6 1.3 1.6.8 3 2 4 3.4s1.8 3 2.2 4.8c.5 1.7.7 3.5.7 5.3v37.2c0 .4 0 .8.1 1.2 0 .4.1.8.3 1.2s.4.7.8.9c.4.3.9.4 1.4.4.7 0 1.5-.3 2-.8.6-.5 1.2-1.1 1.7-1.6l1.4 1.3c-.7 1-1.4 1.9-2.2 2.8-1 1.1-2.1 2.1-3.3 2.9-1.4 1-3 1.8-4.6 2.4-1.8.6-3.7 1-5.6.9-1.6 0-3.1-.2-4.6-.7-1.2-.4-2.3-1-3.3-1.9-.9-.8-1.6-1.7-2-2.8s-.7-2.2-.7-3.4v-40.1c0-.6-.1-1.2-.2-1.7-.2-.6-.4-1.1-.7-1.6s-.7-.9-1.2-1.2-1.1-.5-1.7-.4c-1.1 0-2.3.3-3.2.9-1.1.6-2 1.3-2.9 2.1-.8.7-1.6 1.5-2.3 2.4-.7.8-1.1 1.4-1.4 1.8z"/><path d="m251.8 121.5c-1.3 0-2.5.2-3.8.5-1 .3-2.1.7-3 1.2-.8.4-1.4.9-2 1.6-.4.4-.7 1-.7 1.7 0 .6.4 1.1.9 1.3l2.1.9c.8.4 1.5.8 2.1 1.4.7.8 1 1.8.9 2.9 0 .8-.2 1.6-.5 2.3-.7 1.4-1.9 2.6-3.4 3.1-.8.3-1.6.5-2.4.4-2.1.1-4.1-.8-5.4-2.3-1.4-1.7-2.2-3.9-2.1-6.1-.1-2.2.6-4.5 1.9-6.3s3-3.3 5-4.3c2.2-1.2 4.6-2 7-2.5 5.5-1.1 11.3-1.1 16.8.2 2.7.6 5.2 1.7 7.5 3.2 2.2 1.5 3.9 3.4 5.2 5.7 1.4 2.5 2.1 5.4 2 8.3v34c0 .4 0 .8.1 1.2 0 .4.1.8.3 1.2s.4.7.7.9c.4.3.9.4 1.4.4.7 0 1.5-.3 2-.8.6-.5 1.2-1.1 1.7-1.6l1.5 1.3c-.6.8-1.3 1.8-2.2 2.8-2 2.3-4.5 4-7.3 5-1.8.6-3.6.9-5.5.9-2.4 0-4.8-.8-6.7-2.2-2.1-1.7-3.5-4.2-3.9-6.9-1.2 1.6-2.5 3-4 4.3-1.3 1.1-2.7 2-4.2 2.8-1.4.7-2.8 1.2-4.4 1.6-1.5.3-2.9.5-4.4.5-1.9 0-3.8-.3-5.6-.9s-3.4-1.6-4.8-2.9c-1.5-1.4-2.7-3.2-3.4-5.1-.9-2.4-1.4-5-1.3-7.6-.1-3.1.6-6.3 2.2-9 1.5-2.3 3.4-4.3 5.7-5.9 2.5-1.7 5.2-3 8-4.1 3-1.1 6-2.3 9.2-3.6 2.1-.8 3.9-2.2 5.1-4.1 1-1.7 1.6-3.6 1.6-5.6.1-2.6-.8-5.2-2.6-7.1-2.2-1.9-4.7-2.8-7.3-2.7zm9.5 26.3c0-.9-.3-1.7-1-2.3-.7-.5-1.6-.8-2.5-.8-1.4 0-2.8.4-4 1-1.3.7-2.4 1.6-3.3 2.8-1 1.4-1.8 2.9-2.3 4.6-.6 2.1-.9 4.2-.8 6.3 0 1.9.1 3.9.5 5.8.2 1.3.7 2.5 1.4 3.6.5.8 1.2 1.5 2 1.9.7.4 1.6.5 2.4.5 1 0 2.1-.3 2.9-.8.9-.5 1.7-1.2 2.4-2.1s1.2-1.8 1.6-2.8.6-2.1.6-3.1z"/><path d="m314.1 132.9c1.4-1.9 2.9-3.8 4.5-5.7s3.3-3.7 5.2-5.3c1.8-1.5 3.8-2.8 6-3.8s4.6-1.5 7.1-1.5c2-.1 4 .4 5.7 1.3 1.4.8 2.7 1.9 3.7 3.2.9 1.2 1.6 2.5 2 3.9.3 1.1.5 2.3.6 3.5 0 1.9-.2 3.7-.7 5.5-.5 2-1.3 3.9-2.3 5.6-1.2 2-2.7 3.8-4.4 5.4-2.1 1.9-4.5 3.5-7 4.8 3.3 7.1 7 13.9 11 20.6 3 5 6.5 9.8 10.3 14.2 2.7 3.2 5.9 6 9.5 8.2 2.6 1.6 5.6 2.6 8.7 2.6.5 0 1-.1 1.4-.2s.9-.2 1.3-.4c.5-.2.9-.4 1.4-.6l1.1 2.1c-1.1.6-2.2 1.2-3.3 1.7-1.2.6-2.5 1.1-3.9 1.4-1.6.5-3.3.8-5 1-2.2.3-4.5.4-6.7.4-2.4 0-4.7-.3-7-.8-2.5-.6-4.8-1.6-6.9-3-2.6-1.6-4.9-3.6-7.1-5.8-2.7-2.8-5.2-5.9-7.3-9.1-2.8-4.3-5.4-8.7-7.7-13.2-2.7-5.1-5.4-11-8.2-17.9 3.3-2.3 6.3-5 9.1-7.9 1.9-2 3.6-4.2 5-6.6 1-1.6 1.7-3.4 2.1-5.2.3-1.3.4-2.6.4-3.9 0-.2 0-.4-.1-.8 0-.4-.2-.8-.4-1.1-.3-.4-.6-.7-1-1-.5-.3-1.2-.5-1.8-.4-1.7.1-3.3.7-4.5 1.9-1.6 1.4-3.1 3-4.4 4.7-1.4 1.9-2.7 3.9-3.8 6s-2 4.1-2.8 5.9v31c0 .6-.1 1.3-.3 1.9-.2.8-.7 1.5-1.3 2-.8.7-1.8 1.3-2.9 1.6-1.6.5-3.4.7-5.1.7-1.7.1-3.4-.2-5-.8-1-.4-1.9-1-2.7-1.8-.5-.6-.9-1.3-1.1-2.1-.1-.6-.2-1.2-.2-1.7v-77.4c0-1.1-.3-2.1-.8-3-.6-.9-1.7-1.4-2.7-1.3-.6 0-1.2.1-1.8.3-.6.3-1.1.6-1.6 1l-1.2-1.4c1-.8 2-1.6 3.1-2.2 1.2-.8 2.4-1.5 3.7-2 1.4-.6 2.8-1 4.3-1.4 1.6-.4 3.2-.5 4.8-.5 2.1-.1 4.1.3 6.1 1.1 1.3.6 2.4 1.5 3.2 2.6.7 1 1.1 2.1 1.2 3.2.1 1 .2 2 .2 3z"/><path d="m413.4 168.5c0 .4 0 .8.1 1.2 0 .4.1.8.3 1.2s.4.7.7.9c.4.3.9.4 1.4.4.7 0 1.5-.3 2-.8.6-.5 1.2-1.1 1.7-1.6l1.4 1.3c-.7 1-1.5 1.9-2.2 2.8-1 1.1-2.1 2.1-3.3 2.9-1.4 1-2.8 1.7-4.4 2.3-1.8.6-3.7 1-5.6.9-1.6 0-3.1-.2-4.6-.7-1.2-.4-2.3-1-3.3-1.9-.9-.8-1.6-1.7-2-2.8s-.7-2.2-.7-3.4v-2.7c-1.9 2.1-4 4-6.3 5.7-1 .7-2 1.4-3.1 2.1s-2.2 1.3-3.4 1.8-2.4 1-3.6 1.3-2.5.5-3.7.5c-2.1.1-4.2-.4-6.2-1.3-1.6-.8-3-2-4.1-3.4s-1.8-3-2.3-4.8c-.5-1.7-.7-3.5-.7-5.3v-37.1c0-.4 0-.8-.1-1.2 0-.4-.1-.8-.3-1.2s-.4-.7-.7-.9c-.4-.3-.9-.4-1.4-.4-.7 0-1.5.3-2 .8-.6.5-1.1 1.1-1.6 1.7l-1.5-1.3c.7-1 1.5-1.9 2.2-2.8 1-1.1 2.1-2.1 3.3-2.9 1.4-1 2.9-1.7 4.4-2.3 1.8-.6 3.7-1 5.6-.9 1.6 0 3.1.2 4.6.7 1.2.4 2.3 1 3.3 1.9.9.8 1.6 1.7 2 2.8s.7 2.2.7 3.4v40.2c0 .6.1 1.2.3 1.7.2.6.4 1.1.8 1.6.3.5.8.9 1.3 1.2.6.3 1.2.5 1.9.4 1.2 0 2.4-.3 3.5-.9s2.2-1.3 3.2-2.1c.9-.7 1.7-1.6 2.5-2.4.7-.8 1.2-1.4 1.5-1.8v-35.3c0-.4 0-.8-.1-1.2 0-.4-.1-.8-.3-1.2s-.4-.7-.7-.9c-.4-.3-.9-.4-1.4-.4-.7 0-1.5.3-2 .8-.6.5-1.1 1.1-1.6 1.7l-1.5-1.3c.7-1 1.5-1.9 2.2-2.8 1-1.1 2.1-2.1 3.3-2.9 1.4-1 2.9-1.7 4.4-2.3 1.8-.6 3.7-1 5.6-.9 1.6 0 3.1.2 4.6.7 1.2.4 2.3 1 3.3 1.9.9.8 1.6 1.7 2 2.8s.7 2.2.7 3.4z"/><path d="m427.7 174.4c0-1.1-.3-2.1-.8-3.1-.6-.9-1.7-1.4-2.8-1.3-.6 0-1.2.1-1.8.4s-1.1.6-1.6 1l-1.3-1.5c1-.8 2.1-1.6 3.1-2.3 1.2-.8 2.4-1.4 3.7-2 1.4-.6 2.8-1.1 4.3-1.4 1.6-.4 3.2-.6 4.9-.6 1.6 0 3.2.2 4.7.9 1.2.5 2.3 1.2 3.3 2 .8.7 1.5 1.5 2 2.5.4.7.6 1.4.8 2.2.8-1.2 1.8-2.2 2.9-3.1s2.3-1.7 3.6-2.4 2.7-1.2 4.2-1.6c4.5-1.1 9.2-.6 13.4 1.5 2.7 1.4 5 3.5 6.8 6 2 3 3.5 6.3 4.4 9.8 2.1 9.4 2 19.2-.3 28.6-1 3.7-2.6 7.1-4.9 10.2-3.4 4.7-8.9 7.5-14.7 7.5-2 0-4-.2-5.9-.7-1.5-.4-3-.9-4.4-1.6-1.1-.6-2.1-1.2-3-2-.8-.7-1.5-1.2-2-1.7v29.7c0 .6-.1 1.3-.2 1.9-.2.8-.6 1.5-1.2 2.1-.8.8-1.8 1.4-2.8 1.7-1.6.5-3.4.8-5.1.7-1.7.1-3.4-.2-5.1-.8-1.1-.4-2-1-2.8-1.8-.6-.6-1-1.3-1.2-2.1-.1-.6-.2-1.1-.2-1.7zm18.6 38.7c.1.6.2 1.2.4 1.7.3.9.8 1.7 1.3 2.5.6.9 1.4 1.7 2.3 2.3 2.6 1.7 6 1.2 8.1-1 1.4-1.6 2.5-3.5 3.1-5.5.9-2.6 1.5-5.4 1.8-8.1.4-3.3.6-6.6.5-9.9 0-3.7-.2-7.4-.7-11-.3-2.5-1-5-2-7.3-.7-1.6-1.8-3-3.2-4-1.2-.8-2.7-1.3-4.2-1.2-.9 0-1.9.3-2.7.8-.9.5-1.7 1.1-2.4 1.9-.7.7-1.3 1.6-1.7 2.5-.4.8-.7 1.7-.7 2.7z"/><path d="m514 221.3c0 .6-.1 1.3-.3 1.9-.2.8-.7 1.6-1.3 2.1-.8.8-1.8 1.3-2.9 1.7-1.7.5-3.4.8-5.1.7-1.7.1-3.4-.2-5-.8-1-.4-2-1-2.7-1.8-.6-.6-.9-1.3-1.1-2.1-.1-.6-.2-1.2-.2-1.8v-46.9c0-1.1-.3-2.1-.8-3.1-.6-.9-1.7-1.4-2.9-1.3-.6 0-1.2.1-1.8.4s-1.1.6-1.6 1l-1.3-1.5c1-.8 2-1.6 3.1-2.3 1.2-.8 2.4-1.4 3.7-2 1.4-.6 2.8-1.1 4.3-1.4 1.6-.4 3.2-.6 4.9-.6 2.1-.1 4.2.3 6.1 1.1 1.3.6 2.4 1.5 3.2 2.6.7 1 1.1 2.1 1.2 3.3.1 1 .2 2.1.2 3.1zm-20.6-71.5c0-1.1.3-2.2.8-3.2s1.2-2 2.1-2.7c.9-.8 2-1.4 3.2-1.8 1.3-.5 2.6-.7 3.9-.7s2.6.2 3.9.7c1.1.4 2.2 1 3.1 1.8s1.6 1.7 2.1 2.7c1 2.1 1 4.5 0 6.5-.5 1-1.2 1.9-2.1 2.6-.9.8-2 1.4-3.1 1.8-1.2.5-2.5.7-3.9.7-1.3 0-2.7-.2-3.9-.7-1.1-.4-2.2-1-3.2-1.8-.9-.7-1.6-1.6-2.1-2.6-.6-1-.8-2.2-.8-3.3z"/><path d="m548.1 180.2c1.4-1.9 2.9-3.8 4.6-5.8 1.6-1.9 3.3-3.7 5.2-5.3 1.8-1.6 3.9-2.9 6.1-3.9 2.3-1 4.7-1.5 7.2-1.5 2-.1 4 .4 5.8 1.3 1.5.8 2.7 2 3.7 3.3.9 1.2 1.6 2.6 2 4 .3 1.1.5 2.3.6 3.5 0 1.9-.2 3.7-.7 5.6-.5 2-1.3 3.9-2.4 5.7-1.2 2-2.7 3.9-4.5 5.5-2.1 1.9-4.5 3.6-7.1 4.8 3.3 7.1 7 14.1 11.1 20.8 3.1 5.1 6.6 9.9 10.4 14.4 2.8 3.3 6 6.1 9.6 8.3 2.7 1.7 5.7 2.6 8.8 2.7.5 0 1-.1 1.5-.2s.9-.3 1.3-.4c.5-.2.9-.4 1.4-.6l1.2 2.1c-1.1.6-2.2 1.2-3.3 1.7-1.3.6-2.6 1.1-3.9 1.4-1.6.5-3.3.8-5 1-2.3.3-4.5.4-6.8.4-2.4 0-4.8-.3-7.1-.9-2.5-.6-4.8-1.6-7-3-2.6-1.7-5-3.6-7.2-5.8-2.8-2.8-5.2-5.9-7.4-9.2-2.9-4.3-5.5-8.7-7.8-13.3-2.7-5.1-5.4-11.2-8.3-18.1 3.3-2.4 6.4-5 9.2-8 1.9-2 3.6-4.3 5-6.7 1-1.6 1.7-3.4 2.1-5.3.3-1.3.4-2.7.4-4 0-.2 0-.4-.1-.8 0-.4-.2-.8-.4-1.1-.6-1-1.7-1.5-2.8-1.4-1.7.1-3.3.8-4.6 1.9-1.7 1.4-3.1 3-4.4 4.8-1.4 1.9-2.7 4-3.8 6.1-1.1 2.2-2.1 4.1-2.8 5.9v31.4c0 .6-.1 1.3-.3 1.9-.2.8-.7 1.5-1.3 2.1-.8.8-1.8 1.3-2.9 1.7-1.7.5-3.4.8-5.1.7-1.7.1-3.4-.2-5-.8-1-.4-2-1-2.7-1.8-.5-.6-.9-1.3-1.1-2.1-.1-.6-.2-1.2-.2-1.8v-78.5c0-1.1-.3-2.1-.8-3.1-.6-.9-1.7-1.4-2.8-1.3-.6 0-1.2.1-1.8.3-.6.3-1.1.6-1.6 1l-1.2-1.5c1-.8 2-1.6 3.1-2.3 1.2-.8 2.4-1.5 3.7-2 1.4-.6 2.9-1.1 4.3-1.4 1.6-.4 3.2-.6 4.9-.6 2.1-.1 4.2.3 6.1 1.1 1.3.6 2.4 1.5 3.2 2.6.7 1 1.1 2.1 1.2 3.3.1 1 .2 2 .2 3.1z"/><path d="m648.5 216.2c0 .4 0 .8.1 1.2 0 .4.1.8.3 1.2s.4.7.7.9c.4.3.9.4 1.4.4.8 0 1.5-.3 2.1-.8s1.2-1.1 1.7-1.7l1.5 1.3c-.7 1-1.5 1.9-2.3 2.8-1 1.1-2.1 2.1-3.3 3-1.4 1-2.9 1.8-4.4 2.3-1.8.7-3.7 1-5.7.9-1.6 0-3.2-.2-4.7-.7-1.2-.4-2.4-1-3.3-1.9-.9-.8-1.6-1.7-2-2.8s-.7-2.3-.7-3.4v-2.8c-1.9 2.1-4.1 4.1-6.4 5.8-1 .7-2 1.4-3.1 2.1s-2.2 1.3-3.4 1.9c-1.2.5-2.4 1-3.7 1.3-1.2.3-2.5.5-3.8.5-2.2.1-4.3-.4-6.2-1.3-1.6-.8-3.1-2-4.2-3.4s-1.8-3.1-2.3-4.8-.7-3.5-.7-5.4v-37.7c0-.4 0-.8-.1-1.2 0-.4-.1-.8-.3-1.2s-.4-.7-.7-.9c-.4-.3-.9-.4-1.4-.4-.7 0-1.5.3-2 .8-.6.5-1.2 1.1-1.7 1.7l-1.5-1.3c.7-1 1.5-1.9 2.3-2.8 1-1.1 2.1-2.1 3.3-2.9 1.4-1 2.9-1.8 4.5-2.3 1.8-.6 3.7-1 5.6-.9 1.6 0 3.2.2 4.7.7 1.2.4 2.4 1 3.3 1.9.9.8 1.6 1.7 2 2.8s.7 2.3.7 3.4v40.6c0 1.2.4 2.4 1.1 3.3.3.5.8.9 1.3 1.2.6.3 1.2.5 1.9.5 1.2 0 2.4-.3 3.5-.9s2.2-1.3 3.2-2.2c.9-.8 1.7-1.6 2.5-2.5.7-.8 1.2-1.4 1.5-1.8v-35.5c0-.4 0-.8-.1-1.2 0-.4-.1-.8-.3-1.2s-.4-.7-.7-.9c-.4-.3-.9-.4-1.4-.4-.7 0-1.5.3-2 .8-.6.5-1.2 1.1-1.7 1.7l-1.5-1.3c.7-1 1.5-1.9 2.3-2.8 1-1.1 2.1-2.1 3.3-2.9 1.4-1 2.9-1.8 4.5-2.3 1.8-.6 3.7-1 5.6-.9 1.6 0 3.2.2 4.7.7 1.2.4 2.4 1 3.3 1.9.9.8 1.6 1.7 2 2.8s.7 2.3.7 3.4z"/><path d="m439.2 27.4c-6.1 11.9-16.8 19.7-25.6 29.2-6.1 6.6-12.5 12.9-16 21.5-4.4 11.1-.7 23.8 9 30.7.8-2-.6-3.5-1.2-5-4.4-10.3-1.2-19 5.9-26.7 4.8-5.2 10-10.2 15-15.3 11-11.4 13.8-17 16.2-33.2 3.6 7.8 5 15 2.8 22.4-2.2 7.5-5.2 14.9-7.8 22.3-1.1 3.3-4 3.6-6.7 3.6-2.3 0-4.7-.5-8.3-.9 2.7 4.3 5.4 7.2 10 6.8s7 1.5 9 5.3c1.9 3.5 4.7 6.5 7.1 9.8 2.7 3.7 2.5 6.6-1.8 9s-7.4 5.1-4 10.9c2.3 4-2.5 4.3-4.6 5.8s-6.1.1-6.1 4.8c0 1.5-2.2.4-3.3 0-5.5-2.3-11.1-4.2-16.8-5.7-.5 0-5.2.3-5.7 3.9-.5 3.8 3.5 5.4 3.5 5.4 2.2.3 4.3.7 6.4 1.1 9.3 2.1 18.1 5.8 26 11.1 0 0 3.8 2.7 6.3-.1s-.9-6.6-.9-6.6c-2.7-2.8-5.1-5.9-7.1-9.3 1.7-.5 3.4-1.1 5-1.8 5.2-2.6 6.1-5.3 2.6-9.8-2.4-3.1-2.6-5.1 1.5-6.4 1-.4 2-.9 2.9-1.6 7-4.4 7.2-5.7 2.3-12.3-2.1-2.8-4-5.7-6.2-8.4-3.1-3.8-2.8-6.2 2.4-7 1 0 1.8-.7 1.9-1.7-.2-.2-.4-.7-.7-.8-9.6-3.1-9.6-3-6.2-12.6 2.3-6 3.9-12.2 4.8-18.6.9-7.5-1.6-14.1-6.7-19.6-1.2-1.6-3.2-3.5-4.9-.2z"/><path d="m722.5 173.7c-1.1-10.6-8.8-20-20.6-25-1.4-.6-2.8-1.1-4.2-1.6 2.3-2.7 4.2-5.7 5.6-9 3.1-7.3 1.5-17.3-6.5-20.7-.6-.3-1.3-.5-2-.7-1.1-.8-2.2-1.4-3.4-1.9-7.8-3.3-17.9-1.4-25.3 2.6-.3-2-.4-3.9-.2-5.9.1-1.8.4-3.7.7-5.6.6-4.2 1.2-8.5.4-13-1.3-7.7-6.7-14-14.7-17.5-3.3-1.4-6.8-2.2-10.4-2.4-13-.7-26.1 7.6-31.8 20.3-5 11-3.1 22.5 5 30.8 4.8 4.9 10.7 8.1 16.4 11.2l3 1.7c-8.7 5-15.9 13.8-14.5 23 .1.6.2 1.1.3 1.6v.5c.9 5.7 4.7 10.2 10.5 12.7 3.5 1.5 7.3 2.1 11.2 1.8 2.1-.1 4.2-.5 6.3-1-3.8 13.5.5 26.7 11.8 34.9 2 1.5 4.2 2.7 6.5 3.7 10.5 4.5 23.6 3.6 34.1-2.4 12-7 23.5-22.4 21.8-38.1zm-57.6 29.5c-4.5-3.4-7.6-8.2-9-13.6-1.4-5.9.1-11.8 1.9-17.4l.5-.2c-.3 8.2 5.1 15.5 11.8 18.4 4.8 2.1 10.3 1.9 15-.5 6.7-3.4 10.8-10.5 10.4-18.1-.1-6.1-3-11.9-7.9-15.5.9-.7 1.8-1.3 2.7-2h.2c2.6.6 5 1.4 7.5 2.4 5.4 2.3 14.6 7.7 15.7 17.7 1.3 11.6-7.7 23.8-16.9 29.3-8.2 5-18.4 5.9-26.7 2.3-2-.7-3.7-1.6-5.2-2.8zm-3.5-66.8c-2.5 2.3-5.1 4.7-7.5 4.8-4.8-6.7-11.8-10.5-18.5-14.2-3.4-1.8-6.8-3.8-10-6-5.8-4.2-8.9-9.3-9-15-.2-7.1 3.6-14.3 10-19s16.3-5.8 23.2-2.8c4.9 1.9 8.3 6.6 8.4 11.9.1 3.2-.1 6.4-.7 9.5-.7 3.7-.9 7.5-.7 11.3.6 6.4 2.8 12.5 6.5 17.8-.5.5-1.1 1.1-1.7 1.7zm-30.1 14.6c3-3.8 6.7-6.9 11.1-9.1 2.3 1.7 4.4 3.6 6.1 5.8.9 1.1 2.3 1.7 3.7 1.6 3.6.9 6.7-.6 8.8-1.8 5.2-3 8.8-6.1 10.6-9.4.1-.2.2-.5.3-.7.6-.5 1-1.2 1.2-2 .4-1.4.1-2.8-.8-3.9-1.5-1.8-2.7-3.8-3.7-5.9 3.3-2.2 7.1-3.5 11.1-3.8 2.9-.2 5.9.2 8.7 1.2 2.9 1.2 4.4 3.2 4.5 5.9.3 5.5-4.4 10-9 13.8-4.8 3.8-9.8 7.2-15.1 10.1-5.4 3-11.1 5.6-17 7.7l-.9.3c-5.2 1.9-11.2 4-16.3 3-.7-.1-1.3-.3-1.9-.6-1.9-.7-3.4-2.1-4.1-4-.9-2.6 1-5.9 2.7-8.2zm35.8 17c3.7-1.7 6.7-3.3 9.6-4.8 1-.5 1.9-1.1 2.9-1.7 3.8 2.3 6.5 4.8 7.4 8.8.9 4.5-1.1 9.1-5 11.6-2.8 1.6-6.2 1.8-9.2.4-1-.4-2-1-2.8-1.8-3.2-2.7-4.2-7.3-2.9-12.5z"/><path d="m645.9 85.4c-3.2-1.4-6.7-1.8-10.2-1.2-1.6.3-2.8 1.6-3 3.2-.2 2 1.2 3.7 3.2 3.9h.6c5.6-.3 10.3 3 12.4 8.9.4 1 1.1 1.8 2.1 2.2 1.3.6 2.8.4 4-.5 1.1-.8 1.6-2.2 1.4-3.5-1-5.8-5-10.7-10.5-13z"/></g></svg>