<svg xmlns="http://www.w3.org/2000/svg" viewBox="0 0 733.21 372.2"><defs><style>.cls-1{isolation:isolate;}.cls-2{fill:#0b9be5;}.cls-3{fill:#3c3c3c;}.cls-12,.cls-4{fill:#424242;}.cls-5{fill:#fafafa;}.cls-6{fill:#ede8e4;}.cls-7{fill:#039be5;}.cls-8{fill:#70b773;}.cls-9{fill:#0288d1;}.cls-10{fill:#dbd1c8;}.cls-11{fill:#616161;}.cls-12{opacity:0.2;mix-blend-mode:multiply;}.cls-13{fill:#ef5350;}.cls-14{fill:#e53935;}</style></defs><title>mobile-map</title><g class="cls-1"><g id="OBJECTS"><path class="cls-2" d="M230.74,81.61A9.29,9.29,0,0,1,240,90.9H221.45A9.29,9.29,0,0,1,230.74,81.61Z"/><path class="cls-2" d="M257,73.9a17,17,0,0,1,17,17H240A17,17,0,0,1,257,73.9Z"/><path class="cls-2" d="M450.41,167.21a9.29,9.29,0,0,1,9.29,9.29H441.13A9.29,9.29,0,0,1,450.41,167.21Z"/><path class="cls-2" d="M476.7,159.49a17,17,0,0,1,17,17h-34A17,17,0,0,1,476.7,159.49Z"/><path class="cls-2" d="M541.15,140.35a9.29,9.29,0,0,1,9.29,9.29H531.87A9.29,9.29,0,0,1,541.15,140.35Z"/><path class="cls-2" d="M567.44,132.63a17,17,0,0,1,17,17h-34A17,17,0,0,1,567.44,132.63Z"/><path class="cls-3" d="M733.18,361V339.91H718.74l-67.31-89.2c-3.81-5.05-18.28-9.05-32.4-9.05H114.18c-14.12,0-28.59,4-32.4,9.05l-67.31,89.2H0V362H0C.5,367.9,9.91,372.2,24.74,372.2H708.47C724.1,372.2,733.71,367.43,733.18,361Z"/><path class="cls-4" d="M81.78,228.51,1.94,334.3C-4.5,342.85,5.61,350,24.74,350H708.47c19.13,0,29.24-7.15,22.79-15.69L651.43,228.51c-3.81-5.05-18.28-9.05-32.4-9.05H114.18C100.06,219.46,85.59,223.46,81.78,228.51Z"/><polygon class="cls-5" points="658.41 343.48 74.8 343.48 146.13 223.1 587.07 223.1 658.41 343.48"/><path class="cls-6" d="M221.83,256.76,213.2,281h94.08l4.11-29.75h-73C236.12,254,229.5,256.22,221.83,256.76Z"/><path class="cls-6" d="M315.26,223.1H233.85l-7.23,20.25c7.07.5,12.1,2.62,12.6,5.33h72.52Z"/><path class="cls-7" d="M232.39,249.94c.79-2.36-3.67-4.25-9.94-4.25s-12.12,1.9-13.05,4.25,3.5,4.35,9.91,4.35S231.59,252.33,232.39,249.94Z"/><path class="cls-8" d="M261,239.35c.43-1.59-2.76-2.87-7.1-2.87s-8.28,1.28-8.78,2.87,2.68,2.91,7.09,2.91S260.59,240.95,261,239.35Z"/><polygon class="cls-6" points="204.82 283.91 110.1 283.91 101.44 298.52 199.36 298.52 204.82 283.91"/><polygon class="cls-6" points="318.46 248.68 419.77 248.68 416.35 223.1 321.56 223.1 318.46 248.68"/><polygon class="cls-8" points="424.49 283.91 212.15 283.91 196.65 327.34 430.29 327.34 424.49 283.91"/><polygon class="cls-7" points="551.25 223.1 485.82 223.1 504.37 280.96 579.97 280.96 551.25 223.1"/><path class="cls-6" d="M129.48,251.21,111.85,281h94.08l9-24.2c-7.27-.53-12.27-2.76-12.52-5.55Z"/><path class="cls-6" d="M227.55,223.1H146.14L131,248.68h72.52c2.48-2.72,9.06-4.83,16.5-5.33Z"/><polygon class="cls-6" points="420.11 251.21 318.15 251.21 314.55 280.96 424.09 280.96 420.11 251.21"/><polygon class="cls-6" points="195.35 330.97 190.89 343.48 432.45 343.48 430.78 330.97 195.35 330.97"/><polygon class="cls-6" points="431.81 283.91 440.78 343.48 516.07 343.48 497.99 283.91 431.81 283.91"/><polygon class="cls-6" points="99.54 301.72 74.8 343.48 182.56 343.48 198.17 301.72 99.54 301.72"/><polygon class="cls-7" points="505.31 283.91 524.4 343.48 611 343.48 581.44 283.91 505.31 283.91"/><polygon class="cls-6" points="619.33 343.48 658.41 343.48 645.26 321.29 607.95 321.29 619.33 343.48"/><polygon class="cls-6" points="606.16 317.81 643.2 317.81 623.11 283.91 588.76 283.91 606.16 317.81"/><polygon class="cls-6" points="587.24 280.96 621.36 280.96 587.07 223.1 557.55 223.1 587.24 280.96"/><polygon class="cls-6" points="487.3 248.68 479.53 223.1 422.64 223.1 426.5 248.68 487.3 248.68"/><polygon class="cls-6" points="488.06 251.21 426.88 251.21 431.36 280.96 497.1 280.96 488.06 251.21"/><polygon class="cls-9" points="585.49 292.08 507.93 292.08 505.31 283.91 581.44 283.91 585.49 292.08"/><path class="cls-8" d="M131.68,264.23c-1.88,0-3.74.59-4.16,1.32s.76,1.33,2.65,1.33,3.75-.6,4.16-1.33S133.55,264.23,131.68,264.23Z"/><path class="cls-8" d="M145.79,264.23c-1.88,0-3.72.59-4.11,1.32s.81,1.33,2.7,1.33,3.73-.6,4.12-1.33S147.67,264.23,145.79,264.23Z"/><path class="cls-8" d="M159.91,264.23c-1.88,0-3.7.59-4.07,1.32s.85,1.33,2.74,1.33,3.71-.6,4.07-1.33S161.79,264.23,159.91,264.23Z"/><path class="cls-8" d="M174,264.23c-1.88,0-3.68.59-4,1.32s.9,1.33,2.79,1.33,3.69-.6,4-1.33S175.9,264.23,174,264.23Z"/><path class="cls-8" d="M188.15,264.23c-1.88,0-3.66.59-4,1.32s.95,1.33,2.83,1.33,3.67-.6,4-1.33S190,264.23,188.15,264.23Z"/><path class="cls-8" d="M202.26,264.23c-1.88,0-3.63.59-3.93,1.32s1,1.33,2.88,1.33,3.65-.6,3.93-1.33S204.14,264.23,202.26,264.23Z"/><polygon class="cls-8" points="587.24 280.96 621.36 280.96 605.56 254.29 573.55 254.29 587.24 280.96"/><polygon class="cls-10" points="110.2 295.58 115.32 286.7 196.91 286.7 193.45 295.58 110.2 295.58"/><polygon class="cls-10" points="371.18 246.36 370.94 225.16 410.72 225.16 413.22 246.36 371.18 246.36"/><polygon class="cls-10" points="321.62 278.24 324.22 253.59 353.49 253.59 352.69 278.24 321.62 278.24"/><polygon class="cls-10" points="270.09 278.24 275.65 253.59 304.7 253.59 300.91 278.24 270.09 278.24"/><polygon class="cls-10" points="447.96 339.92 442.47 306.93 497.78 306.93 507.27 339.92 447.96 339.92"/><polygon class="cls-10" points="441.07 298.52 439.47 288.93 492.6 288.93 495.36 298.52 441.07 298.52"/><polygon class="cls-10" points="84.62 339.92 104.91 304.75 189.88 304.75 176.18 339.92 84.62 339.92"/><polygon class="cls-10" points="625.22 339.92 617.11 324.59 639.74 324.59 648.59 339.92 625.22 339.92"/><polygon class="cls-10" points="611.83 314.61 597.07 286.7 617.89 286.7 633.99 314.61 611.83 314.61"/><polygon class="cls-10" points="576.25 247.35 564.51 225.16 582.39 225.16 595.19 247.35 576.25 247.35"/><polygon class="cls-10" points="432.39 246.36 430.57 235.47 477.22 235.47 480.35 246.36 432.39 246.36"/><polygon class="cls-10" points="437.69 278.24 434.56 259.41 484.11 259.41 489.53 278.24 437.69 278.24"/><polygon class="cls-10" points="120.2 278.24 200.2 278.24 203.51 269.73 125.11 269.73 120.2 278.24"/><polygon class="cls-10" points="190.64 253.59 134.42 253.59 129.89 261.45 187.2 261.45 190.64 253.59"/><polygon class="cls-10" points="248.12 253.59 226.64 261.45 224.79 266.88 261.4 266.88 264.76 253.59 248.12 253.59"/><polygon class="cls-10" points="180.24 240.07 187.39 225.16 220.88 225.16 215.07 240.07 180.24 240.07"/><polygon class="cls-10" points="171.53 225.16 150.82 225.16 138.59 246.36 160.47 246.36 171.53 225.16"/><polygon class="cls-10" points="239.02 225.16 236.52 232.47 273.98 232.47 270.6 246.36 305.81 246.36 309.07 225.16 239.02 225.16"/><polygon class="cls-10" points="220.91 278.24 223.81 269.73 260.68 269.73 258.53 278.24 220.91 278.24"/><path class="cls-11" d="M646.7,266.88c11.16,0,22.77,3.56,26,8s-3.37,8.35-15,8.35-23.36-3.78-26.22-8.35S635.54,266.88,646.7,266.88Z"/><path class="cls-11" d="M82.26,262.23,64.18,288.39c-1.23,1.78,1.3,3.24,5.66,3.24s8.86-1.46,10-3.24L97,262.23c1-1.56-1.43-2.82-5.47-2.82S83.35,260.67,82.26,262.23Z"/><ellipse class="cls-12" cx="171.53" cy="281.07" rx="30.3" ry="7.99"/><path class="cls-13" d="M171.53,161.21a47.88,47.88,0,0,0-47.88,47.88c0,26.44,47.88,72,47.88,72s47.88-45.54,47.88-72A47.88,47.88,0,0,0,171.53,161.21Zm0,74.74a26.86,26.86,0,1,1,26.86-26.86A26.86,26.86,0,0,1,171.53,236Z"/><path class="cls-14" d="M171.53,177a32.08,32.08,0,1,0,32.08,32.08A32.08,32.08,0,0,0,171.53,177Zm0,53.71a21.63,21.63,0,1,1,21.63-21.63A21.63,21.63,0,0,1,171.53,230.72Z"/><ellipse class="cls-12" cx="516.07" cy="339.17" rx="21.68" ry="5.71"/><path class="cls-13" d="M516.07,253.41a34.26,34.26,0,0,0-34.26,34.26c0,18.92,34.26,51.5,34.26,51.5s34.26-32.58,34.26-51.5A34.26,34.26,0,0,0,516.07,253.41Zm0,53.48a19.22,19.22,0,1,1,19.22-19.22A19.22,19.22,0,0,1,516.07,306.89Z"/><path class="cls-14" d="M516.07,264.71a23,23,0,1,0,23,23A23,23,0,0,0,516.07,264.71Zm0,38.43a15.47,15.47,0,1,1,15.47-15.47A15.47,15.47,0,0,1,516.07,303.14Z"/><ellipse class="cls-12" cx="354.8" cy="243.37" rx="61.53" ry="16.22"/><path class="cls-13" d="M354.8,0a97.22,97.22,0,0,0-97.22,97.22c0,53.69,97.22,146.16,97.22,146.16S452,150.91,452,97.22A97.22,97.22,0,0,0,354.8,0Zm0,151.76a54.55,54.55,0,1,1,54.55-54.55A54.55,54.55,0,0,1,354.8,151.76Z"/><path class="cls-14" d="M354.8,32.07a65.15,65.15,0,1,0,65.15,65.15A65.15,65.15,0,0,0,354.8,32.07Zm0,109.06a43.92,43.92,0,1,1,43.92-43.92A43.92,43.92,0,0,1,354.8,141.13Z"/><path class="cls-2" d="M459.16,91.68a23.68,23.68,0,0,0-23.68,23.68h47.35A23.68,23.68,0,0,0,459.16,91.68Z"/><path class="cls-2" d="M349.92,100.69a14.67,14.67,0,0,0-14.67,14.67H364.6A14.67,14.67,0,0,0,349.92,100.69Z"/><path class="cls-2" d="M400,79.92a35.44,35.44,0,0,0-35.44,35.44h70.88A35.44,35.44,0,0,0,400,79.92Z"/><path class="cls-2" d="M174.7,108.85a10.33,10.33,0,0,0-10.33,10.33H185A10.33,10.33,0,0,0,174.7,108.85Z"/><path class="cls-2" d="M145.44,100.26a18.92,18.92,0,0,0-18.92,18.92h37.85A18.92,18.92,0,0,0,145.44,100.26Z"/><path class="cls-2" d="M239.84,40.66A10.33,10.33,0,0,0,229.5,51h20.67A10.33,10.33,0,0,0,239.84,40.66Z"/><path class="cls-2" d="M210.58,32.07A18.92,18.92,0,0,0,191.65,51H229.5A18.92,18.92,0,0,0,210.58,32.07Z"/><path class="cls-2" d="M480.91,8.59a10.33,10.33,0,0,0-10.33,10.33h20.67A10.33,10.33,0,0,0,480.91,8.59Z"/><path class="cls-2" d="M451.65,0a18.92,18.92,0,0,0-18.92,18.92h37.85A18.92,18.92,0,0,0,451.65,0Z"/><path class="cls-2" d="M245.35,147.2a8,8,0,0,0-8,8h16A8,8,0,0,0,245.35,147.2Z"/><path class="cls-2" d="M222.76,140.57a14.61,14.61,0,0,0-14.61,14.61h29.21A14.61,14.61,0,0,0,222.76,140.57Z"/><path class="cls-2" d="M555.67,78.07A10.33,10.33,0,0,0,545.33,88.4H566A10.33,10.33,0,0,0,555.67,78.07Z"/><path class="cls-2" d="M526.41,69.48A18.92,18.92,0,0,0,507.48,88.4h37.85A18.92,18.92,0,0,0,526.41,69.48Z"/><path class="cls-2" d="M224.78,118.54h-1.37v-1.37a.65.65,0,0,0-.65-.65h0a.65.65,0,0,0-.65.65v1.37h-1.37a.65.65,0,1,0,0,1.3h1.37v1.37a.65.65,0,0,0,.65.65h0a.65.65,0,0,0,.65-.65v-1.37h1.37a.65.65,0,0,0,0-1.3Z"/><path class="cls-2" d="M258,134.74h-1.37v-1.37a.65.65,0,0,0-.65-.65h0a.65.65,0,0,0-.65.65v1.37H254a.65.65,0,1,0,0,1.3h1.37v1.37a.65.65,0,0,0,.65.65h0a.65.65,0,0,0,.65-.65V136H258a.65.65,0,1,0,0-1.3Z"/><path class="cls-2" d="M337.27,75.91H335.9V74.54a.65.65,0,0,0-.65-.65h0a.65.65,0,0,0-.65.65v1.37h-1.37a.65.65,0,0,0,0,1.3h1.37v1.37a.65.65,0,0,0,.65.65h0a.65.65,0,0,0,.65-.65V77.21h1.37a.65.65,0,0,0,0-1.3Z"/><path class="cls-2" d="M368.62,82.94h-1.37V81.57a.65.65,0,0,0-.65-.65h0a.65.65,0,0,0-.65.65v1.37h-1.37a.65.65,0,0,0,0,1.3H366v1.37a.65.65,0,0,0,.65.65h0a.65.65,0,0,0,.65-.65V84.24h1.37a.65.65,0,0,0,0-1.3Z"/><path class="cls-2" d="M469.44,73.25h-1.37V71.88a.65.65,0,0,0-.65-.65h0a.65.65,0,0,0-.65.65v1.37H465.4a.65.65,0,1,0,0,1.3h1.37v1.37a.65.65,0,0,0,.65.65h0a.65.65,0,0,0,.65-.65V74.54h1.37a.65.65,0,0,0,0-1.3Z"/><path class="cls-2" d="M502.62,60.87h-1.37V59.5a.65.65,0,0,0-.65-.65h0a.65.65,0,0,0-.65.65v1.37h-1.37a.65.65,0,0,0,0,1.3h1.37v1.37a.65.65,0,0,0,.65.65h0a.65.65,0,0,0,.65-.65V62.17h1.37a.65.65,0,1,0,0-1.3Z"/><path class="cls-2" d="M447.15,34.09h-1.37V32.72a.65.65,0,0,0-.65-.65h0a.65.65,0,0,0-.65.65v1.37h-1.37a.65.65,0,0,0,0,1.3h1.37v1.37a.65.65,0,0,0,.65.65h0a.65.65,0,0,0,.65-.65V35.38h1.37a.65.65,0,0,0,0-1.3Z"/><path class="cls-2" d="M476.89,48.77h-1.37V47.4a.65.65,0,0,0-.65-.65h0a.65.65,0,0,0-.65.65v1.37h-1.37a.65.65,0,0,0,0,1.3h1.37v1.37a.65.65,0,0,0,.65.65h0a.65.65,0,0,0,.65-.65V50.07h1.37a.65.65,0,1,0,0-1.3Z"/><path class="cls-2" d="M543.17,46.11H541.8V44.74a.65.65,0,0,0-.65-.65h0a.65.65,0,0,0-.65.65v1.37h-1.37a.65.65,0,0,0,0,1.3h1.37v1.37a.65.65,0,0,0,.65.65h0a.65.65,0,0,0,.65-.65V47.4h1.37a.65.65,0,1,0,0-1.3Z"/><path class="cls-2" d="M464.06,140.48h-1.37v-1.37a.65.65,0,0,0-.65-.65h0a.65.65,0,0,0-.65.65v1.37H460a.65.65,0,1,0,0,1.3h1.37v1.37a.65.65,0,0,0,.65.65h0a.65.65,0,0,0,.65-.65v-1.37h1.37a.65.65,0,0,0,0-1.3Z"/><path class="cls-2" d="M495.14,132.08h-1.37v-1.37a.65.65,0,0,0-.65-.65h0a.65.65,0,0,0-.65.65v1.37H491.1a.65.65,0,1,0,0,1.3h1.37v1.37a.65.65,0,0,0,.65.65h0a.65.65,0,0,0,.65-.65v-1.37h1.37a.65.65,0,1,0,0-1.3Z"/><path class="cls-2" d="M426.11,186.82h-1.37v-1.37a.65.65,0,0,0-.65-.65h0a.65.65,0,0,0-.65.65v1.37h-1.37a.65.65,0,1,0,0,1.3h1.37v1.37a.65.65,0,0,0,.65.65h0a.65.65,0,0,0,.65-.65v-1.37h1.37a.65.65,0,1,0,0-1.3Z"/><path class="cls-2" d="M515.42,166.56h-1.37v-1.37a.65.65,0,0,0-.65-.65h0a.65.65,0,0,0-.65.65v1.37h-1.37a.65.65,0,0,0,0,1.3h1.37v1.37a.65.65,0,0,0,.65.65h0a.65.65,0,0,0,.65-.65v-1.37h1.37a.65.65,0,0,0,0-1.3Z"/><path class="cls-2" d="M525.76,114.71h-1.37v-1.37a.65.65,0,0,0-.65-.65h0a.65.65,0,0,0-.65.65v1.37h-1.37a.65.65,0,0,0,0,1.3h1.37v1.37a.65.65,0,0,0,.65.65h0a.65.65,0,0,0,.65-.65V116h1.37a.65.65,0,1,0,0-1.3Z"/><path class="cls-2" d="M207.2,85.61h-1.37V84.24a.65.65,0,0,0-.65-.65h0a.65.65,0,0,0-.65.65v1.37h-1.37a.65.65,0,1,0,0,1.3h1.37v1.37a.65.65,0,0,0,.65.65h0a.65.65,0,0,0,.65-.65V86.91h1.37a.65.65,0,1,0,0-1.3Z"/><path class="cls-2" d="M255.34,28.75H254V27.38a.65.65,0,0,0-.65-.65h0a.65.65,0,0,0-.65.65v1.37H251.3a.65.65,0,0,0,0,1.3h1.37v1.37a.65.65,0,0,0,.65.65h0a.65.65,0,0,0,.65-.65V30.05h1.37a.65.65,0,1,0,0-1.3Z"/><path class="cls-2" d="M165.43,68.83h-1.37V67.46a.65.65,0,0,0-.65-.65h0a.65.65,0,0,0-.65.65v1.37h-1.37a.65.65,0,1,0,0,1.3h1.37v1.37a.65.65,0,0,0,.65.65h0a.65.65,0,0,0,.65-.65V70.12h1.37a.65.65,0,0,0,0-1.3Z"/><path class="cls-2" d="M188.8,132h-1.37v-1.37a.65.65,0,0,0-.65-.65h0a.65.65,0,0,0-.65.65V132h-1.37a.65.65,0,0,0,0,1.3h1.37v1.37a.65.65,0,0,0,.65.65h0a.65.65,0,0,0,.65-.65v-1.37h1.37a.65.65,0,1,0,0-1.3Z"/><path class="cls-2" d="M151.92,144.34h-1.37V143a.65.65,0,0,0-.65-.65h0a.65.65,0,0,0-.65.65v1.37h-1.37a.65.65,0,1,0,0,1.3h1.37V147a.65.65,0,0,0,.65.65h0a.65.65,0,0,0,.65-.65v-1.37h1.37a.65.65,0,0,0,0-1.3Z"/><path class="cls-2" d="M246.79,176.36h-1.37V175a.65.65,0,0,0-.65-.65h0a.65.65,0,0,0-.65.65v1.37h-1.37a.65.65,0,0,0,0,1.3h1.37V179a.65.65,0,0,0,.65.65h0a.65.65,0,0,0,.65-.65v-1.37h1.37a.65.65,0,1,0,0-1.3Z"/></g></g></svg>