<?xml version="1.0" encoding="utf-8"?>
<!-- Generator: Adobe Illustrator 21.0.0, SVG Export Plug-In . SVG Version: 6.00 Build 0)  -->
<svg version="1.1" id="Calque_1" xmlns="http://www.w3.org/2000/svg" xmlns:xlink="http://www.w3.org/1999/xlink" x="0px" y="0px"
	 viewBox="0 0 475 201" style="enable-background:new 0 0 475 201;" xml:space="preserve">
<style type="text/css">
	.st0{fill:none;stroke:#3C4349;stroke-width:2;stroke-miterlimit:10;}
	.st1{fill:#0D82C5;stroke:#5D5C74;stroke-miterlimit:10;}
	.st2{fill:#FC3760;stroke:#5C5C74;stroke-width:2;stroke-miterlimit:10;}
	.st3{fill:#344258;stroke:#5D5C74;stroke-miterlimit:10;}
	.st4{fill:#FBD7CE;}
	.st5{fill:#5C5C74;}
	.st6{fill:#E4E6E9;}
	.st7{fill:#CDCFD2;}
	.st8{fill:#3C4349;}
	.st9{fill:#FFFFFF;}
	.st10{fill:#FBD7CE;stroke:#5D5C74;stroke-miterlimit:10;}
	.st11{fill:#FBD7CE;stroke:#5E5C74;stroke-miterlimit:10;}
	.st12{fill:#FACAB8;}
	.st13{fill:#0B9BE5;}
</style>
<line id="XMLID_2582_" class="st0" x1="4.6" y1="179.4" x2="471.4" y2="179.4"/>
<path id="XMLID_2581_" class="st1" d="M423.7,78.5c8.6,26.7-4.1,47-37,47c-34.8,0-44.8-20.2-36.6-47c5.2-16.9,3.2-35.3,8.5-43.7
	c7.5-11.9,14.4-16.5,28.1-16.5c13,0,21.3,4.1,26.6,15.7C417.7,43.4,418.1,61.2,423.7,78.5z"/>
<path id="XMLID_4523_" class="st2" d="M386.4,18.3c-13.1,0-20.1,4.1-27.7,16.3c-2.8,4.4-3.5,11.6-4.4,20c-0.8,7.3-1.6,15.7-4.1,23.6
	c-4.3,14-3.4,25.7,2.6,33.8c6.2,8.4,17.5,12.7,33.6,12.7c15.7,0,27.4-4.6,33.8-13.4c6.1-8.3,7-19.7,2.8-33c-2.7-8.6-4.3-17.3-5.6-25
	c-1.4-7.9-2.6-14.8-4.7-19.5C407.7,22.9,399.9,18.3,386.4,18.3z"/>
<path id="XMLID_2569_" class="st3" d="M339.7,141.1c0-19.7,21.2-35.6,47.4-35.6s47.4,16,47.4,35.6"/>
<path id="XMLID_2564_" class="st4" d="M397.7,51.2c-10.2,0-19-4.1-23.1-10.2c-1.7,6.8-6.4,11.8-12.2,12.5c0,6.3,0,16.4,0,21.9
	c0,8.5,5.3,19,13.6,24.3v8.5c0,4.7,3,11.4,10.8,11.4c7.6,0,11-6.6,11-11.4v-7.9c8.8-5.1,13.6-16.1,13.6-24.9c0-8.5,0-27.7,0-27.7
	c0-0.1,0-0.1,0-0.2C409.9,50.5,406.3,51.2,397.7,51.2z"/>
<path id="XMLID_4517_" class="st5" d="M386.7,119.8c-8.3,0-11.3-7.1-11.3-11.8v-8.2c-7.9-5.2-13.6-15.5-13.6-24.6V53.3
	c0-0.2,0.2-0.4,0.4-0.5c5.5-0.7,10.1-5.5,11.8-12.2c0-0.2,0.2-0.3,0.4-0.3c0.2,0,0.4,0,0.5,0.2c4.3,6.1,13,10,22.8,10
	c8.8,0,11.9-0.8,13.2-3.3c0.1-0.2,0.3-0.3,0.5-0.2c0.2,0,0.4,0.2,0.4,0.4v0.2v27.7c0,8.3-4.3,19.7-13.6,25.2v7.6
	C398.1,112.9,394.6,119.8,386.7,119.8z M362.7,53.7v21.5c0,8.9,5.6,18.9,13.4,23.9c0.1,0.1,0.2,0.2,0.2,0.4v8.5
	c0,4.4,2.8,10.9,10.3,10.9c7.2,0,10.5-6.4,10.5-10.9v-7.9c0-0.2,0.1-0.3,0.2-0.4c8.8-5.1,13.4-16.2,13.4-24.5V48.8
	c-2.1,2.1-6.1,2.6-13.2,2.6c-9.6,0-18.3-3.6-23-9.6C372.7,48.3,368.2,52.8,362.7,53.7z"/>
<g id="XMLID_4515_">
	<path id="XMLID_2537_" class="st5" d="M391.8,84.2c0,0-2.1,2.4-4.7,2.4s-4.7-2.4-4.7-2.4s2.1,0.3,4.7,0.3
		C389.7,84.5,391.8,84.2,391.8,84.2z"/>
</g>
<g id="XMLID_4513_">
	<path id="XMLID_2536_" class="st5" d="M387.3,77.7L387.3,77.7c-0.8,0-1.5-0.3-1.9-0.8c-0.3-0.4-0.4-0.9-0.2-1.4l0.4,0.1
		c-0.1,0.4-0.1,0.7,0.1,1c0.3,0.4,0.8,0.6,1.4,0.6c0.7,0,1.4-0.2,1.7-0.7c0.2-0.3,0.2-0.6,0.1-1l0.4-0.2c0.3,0.7,0.1,1.2-0.1,1.5
		C389,77.3,388.2,77.7,387.3,77.7z"/>
</g>
<path id="XMLID_2535_" class="st6" d="M439.4,131v56.1c0,2.9-2.4,5.3-5.3,5.3H339c-2.9,0-5.3-2.4-5.3-5.3v-56.2
	c0-2.9,2.4-5.3,5.3-5.3h95.1C437.1,125.7,439.4,128.1,439.4,131"/>
<path id="XMLID_2533_" class="st7" d="M439.4,181v6.1c0,2.9-2.4,5.3-5.3,5.3H339c-2.9,0-5.3-2.4-5.3-5.3v-6.2L439.4,181z"/>
<path id="XMLID_2524_" class="st8" d="M333.8,160.2c-0.6,0-1.1-0.5-1.1-1.1V148c0-0.6,0.6-1.1,1.1-1.1c0.6,0,1.1,0.5,1.1,1.1v11
	C334.9,159.7,334.4,160.2,333.8,160.2"/>
<path id="XMLID_2521_" class="st8" d="M434.2,193.6H339c-3.5,0-6.4-2.9-6.4-6.4v-21.3c0-0.6,0.6-1.1,1.1-1.1c0.6,0,1.1,0.5,1.1,1.1
	v21.3c0,2.3,1.9,4.2,4.2,4.2h95.2c2.3,0,4.2-1.9,4.2-4.2V131c0-2.3-1.9-4.2-4.2-4.2H339c-2.3,0-4.2,1.9-4.2,4.2v11
	c0,0.6-0.5,1.1-1.1,1.1s-1.1-0.5-1.1-1.1v-11c0-3.5,2.9-6.4,6.4-6.4h95.1c3.5,0,6.4,2.9,6.4,6.4v56.1
	C440.6,190.6,437.7,193.6,434.2,193.6"/>
<path id="XMLID_4505_" class="st9" d="M432.2,148.9c-0.5,0-0.9-0.4-0.9-0.9v-10.1c0-2.4-2-4.4-4.4-4.4h-11.4c-0.5,0-0.9-0.4-0.9-0.9
	s0.4-0.9,0.9-0.9H427c3.4,0,6.1,2.8,6.1,6.1V148C433.2,148.4,432.7,148.9,432.2,148.9 M409.3,133.5h-7.9c-0.5,0-0.9-0.4-0.9-0.9
	s0.4-0.9,0.9-0.9h7.9c0.5,0,0.9,0.4,0.9,0.9C410.2,133,409.8,133.5,409.3,133.5 M389.6,163.5c4.2,5,1,7.2-3,7.2s-7.2-3.2-7.2-7.2
	s3.2-7.2,7.2-7.2S392.5,159.9,389.6,163.5"/>
<path id="XMLID_4502_" class="st8" d="M386.6,157.4c-3.4,0-6.1,2.7-6.1,6.1s2.7,6.1,6.1,6.1c1.9,0,3.4-0.6,3.7-1.4
	c0.4-0.9-0.1-2.3-1.6-4c-0.3-0.4-0.4-1,0-1.4c1.1-1.4,1.4-2.8,0.9-3.8C389.2,158,388,157.4,386.6,157.4 M386.6,171.8
	c-4.6,0-8.3-3.7-8.3-8.3s3.7-8.3,8.3-8.3c2.3,0,4.2,1.1,5,2.8c0.8,1.6,0.6,3.6-0.6,5.5c1.6,2.2,2.1,4.1,1.4,5.6
	C391.6,170.8,389.4,171.8,386.6,171.8"/>
<path id="XMLID_2379_" class="st8" d="M385.5,153.1c-0.6,0-1.1-0.5-1.1-1.1c0-0.1,0-0.2,0.1-0.3c0.1-0.1,1-3.5,3.8-4.3
	c0.6-0.2,1.2,0.2,1.4,0.8c0.1,0.6-0.2,1.2-0.7,1.3c-1.6,0.5-2.3,2.7-2.3,2.8C386.4,152.8,386,153.1,385.5,153.1"/>
<g id="XMLID_2779_">
	<path id="XMLID_2306_" class="st5" d="M369.7,63.3c-0.2,0-0.5-0.1-0.6-0.3c-0.4-0.4-0.4-0.9,0-1.3c1.2-1.3,2.8-1.9,4.4-1.8
		c1.3,0.1,2.4,0.8,3.1,1.8c0.3,0.4,0.1,1-0.3,1.3s-1,0.1-1.3-0.3c-0.4-0.6-1-0.9-1.7-1c-1-0.1-2.1,0.3-2.9,1.2
		C370.2,63.2,370,63.3,369.7,63.3z"/>
</g>
<g id="XMLID_2661_">
	<path id="XMLID_2305_" class="st5" d="M405.1,63.3c-0.2,0-0.5-0.1-0.7-0.3c-0.8-0.8-1.9-1.3-3.1-1.2c-0.9,0.1-1.7,0.4-2.2,1.1
		c-0.3,0.4-0.9,0.5-1.3,0.2s-0.5-0.9-0.2-1.3c0.8-1.1,2.1-1.7,3.6-1.8c1.7-0.1,3.4,0.6,4.5,1.8c0.4,0.4,0.3,1,0,1.3
		C405.5,63.2,405.3,63.3,405.1,63.3z"/>
</g>
<path id="XMLID_4444_" class="st3" d="M195.9,143.2c0-19.7,21.2-35.6,47.4-35.6s47.4,16,47.4,35.6"/>
<path id="XMLID_2928_" class="st6" d="M295.6,133.1v56.1c0,2.9-2.4,5.3-5.3,5.3h-95.1c-2.9,0-5.3-2.4-5.3-5.3V133
	c0-2.9,2.4-5.3,5.3-5.3h95.1C293.2,127.8,295.6,130.2,295.6,133.1"/>
<path id="XMLID_2892_" class="st8" d="M189.9,162.3c-0.6,0-1.1-0.5-1.1-1.1V150c0-0.6,0.6-1.1,1.1-1.1s1.1,0.5,1.1,1.1v11.1
	C191.1,161.8,190.6,162.3,189.9,162.3"/>
<path id="XMLID_2891_" class="st8" d="M290.3,195.7h-95.1c-3.5,0-6.4-2.9-6.4-6.4V168c0-0.6,0.6-1.1,1.1-1.1s1.1,0.5,1.1,1.1v21.3
	c0,2.3,1.9,4.2,4.2,4.2h95.2c2.3,0,4.2-1.9,4.2-4.2v-56.2c0-2.3-1.9-4.2-4.2-4.2h-95.1c-2.3,0-4.2,1.9-4.2,4.2v11.1
	c0,0.6-0.5,1.1-1.1,1.1s-1.1-0.5-1.1-1.1v-11.1c0-3.5,2.9-6.4,6.4-6.4h95.1c3.5,0,6.4,2.9,6.4,6.4v56.1
	C296.7,192.8,293.9,195.7,290.3,195.7"/>
<path id="XMLID_2772_" class="st9" d="M288.4,151c-0.5,0-0.9-0.4-0.9-0.9V140c0-2.4-2-4.4-4.4-4.4h-11.4c-0.5,0-0.9-0.4-0.9-0.9
	s0.4-0.9,0.9-0.9h11.4c3.4,0,6.1,2.8,6.1,6.1V150C289.3,150.5,288.9,151,288.4,151 M265.5,135.6h-7.9c-0.5,0-0.9-0.4-0.9-0.9
	s0.4-0.9,0.9-0.9h7.9c0.5,0,0.9,0.4,0.9,0.9C266.4,135.1,266,135.6,265.5,135.6 M245.8,165.6c4.2,5,1,7.2-3,7.2s-7.2-3.2-7.2-7.2
	s3.2-7.2,7.2-7.2S248.7,162,245.8,165.6"/>
<path id="XMLID_2372_" class="st8" d="M242.8,159.5c-3.4,0-6.1,2.7-6.1,6.1s2.7,6.1,6.1,6.1c1.9,0,3.4-0.6,3.7-1.4
	c0.4-0.9-0.1-2.3-1.6-4c-0.3-0.4-0.4-1,0-1.4c1.1-1.4,1.4-2.8,0.9-3.8C245.4,160.1,244.2,159.5,242.8,159.5 M242.8,173.9
	c-4.6,0-8.3-3.7-8.3-8.3c0-4.6,3.7-8.3,8.3-8.3c2.3,0,4.2,1.1,5,2.8c0.8,1.6,0.6,3.6-0.6,5.5c1.6,2.2,2.1,4.1,1.4,5.6
	C247.7,173,245.6,173.9,242.8,173.9"/>
<path id="XMLID_2371_" class="st8" d="M241.7,155.2c-0.6,0-1.1-0.5-1.1-1.1c0-0.1,0-0.2,0.1-0.3c0.1-0.1,1-3.5,3.8-4.3
	c0.6-0.2,1.2,0.2,1.4,0.8c0.1,0.6-0.2,1.2-0.7,1.3c-1.6,0.5-2.3,2.7-2.3,2.8C242.6,154.9,242.2,155.2,241.7,155.2"/>
<path id="XMLID_4490_" class="st10" d="M242.9,121c7.2,0,10.5-6.4,10.5-10.9v-7.9c0-0.2,0.1-0.3,0.2-0.4c0.6-0.3,1.2-0.7,1.7-1.1
	c-3.8,0.9-7.8,1.4-12,1.4c-4,0-7.9-0.5-11.5-1.3c0.2,0.1,0.4,0.3,0.6,0.4c0.1,0.1,0.2,0.2,0.2,0.4v8.5
	C232.5,114.5,235.3,121,242.9,121z"/>
<path id="XMLID_4447_" class="st3" d="M46.4,141.1c0-19.7,21.2-35.6,47.4-35.6s47.4,16,47.4,35.6"/>
<path id="XMLID_4443_" class="st6" d="M146.1,131v56.1c0,2.9-2.4,5.3-5.3,5.3H45.7c-2.9,0-5.3-2.4-5.3-5.3v-56.2
	c0-2.9,2.4-5.3,5.3-5.3h95.1C143.8,125.7,146.1,128.1,146.1,131"/>
<path id="XMLID_4441_" class="st8" d="M40.5,160.2c-0.6,0-1.1-0.5-1.1-1.1V148c0-0.6,0.6-1.1,1.1-1.1c0.6,0,1.1,0.5,1.1,1.1v11
	C41.6,159.7,41.1,160.2,40.5,160.2"/>
<path id="XMLID_3245_" class="st8" d="M140.8,193.6H45.7c-3.5,0-6.4-2.9-6.4-6.4v-21.3c0-0.6,0.6-1.1,1.1-1.1c0.6,0,1.1,0.5,1.1,1.1
	v21.3c0,2.3,1.9,4.2,4.2,4.2h95.2c2.3,0,4.2-1.9,4.2-4.2V131c0-2.3-1.9-4.2-4.2-4.2H45.7c-2.3,0-4.2,1.9-4.2,4.2v11
	c0,0.6-0.5,1.1-1.1,1.1c-0.6,0-1.1-0.5-1.1-1.1v-11c0-3.5,2.9-6.4,6.4-6.4h95.1c3.5,0,6.4,2.9,6.4,6.4v56.1
	C147.2,190.6,144.4,193.6,140.8,193.6"/>
<path id="XMLID_3078_" class="st9" d="M138.9,148.9c-0.5,0-0.9-0.4-0.9-0.9v-10.1c0-2.4-2-4.4-4.4-4.4h-11.4c-0.5,0-0.9-0.4-0.9-0.9
	s0.4-0.9,0.9-0.9h11.4c3.4,0,6.1,2.8,6.1,6.1V148C139.8,148.4,139.4,148.9,138.9,148.9 M116,133.5h-7.9c-0.5,0-0.9-0.4-0.9-0.9
	s0.4-0.9,0.9-0.9h7.9c0.5,0,0.9,0.4,0.9,0.9C116.9,133,116.5,133.5,116,133.5 M96.3,163.5c4.2,5,1,7.2-3,7.2s-7.2-3.2-7.2-7.2
	s3.2-7.2,7.2-7.2S99.2,159.9,96.3,163.5"/>
<path id="XMLID_2361_" class="st8" d="M93.3,157.4c-3.4,0-6.1,2.7-6.1,6.1s2.7,6.1,6.1,6.1c1.9,0,3.4-0.6,3.7-1.4
	c0.4-0.9-0.1-2.3-1.6-4c-0.3-0.4-0.4-1,0-1.4c1.1-1.4,1.4-2.8,0.9-3.8C95.9,158,94.7,157.4,93.3,157.4 M93.3,171.8
	c-4.6,0-8.3-3.7-8.3-8.3s3.7-8.3,8.3-8.3c2.3,0,4.2,1.1,5,2.8c0.8,1.6,0.6,3.6-0.6,5.5c1.6,2.2,2.1,4.1,1.4,5.6
	C98.2,170.8,96.1,171.8,93.3,171.8"/>
<path id="XMLID_2360_" class="st8" d="M92.2,153.1c-0.6,0-1.1-0.5-1.1-1.1c0-0.1,0-0.2,0.1-0.3c0.1-0.1,1-3.5,3.8-4.3
	c0.6-0.2,1.2,0.2,1.4,0.8c0.1,0.6-0.2,1.2-0.7,1.3c-1.6,0.5-2.3,2.7-2.3,2.8C93.1,152.8,92.7,153.1,92.2,153.1"/>
<path id="XMLID_2358_" class="st11" d="M93.4,118.9c7.2,0,10.5-6.4,10.5-10.9v-7.9c0-0.2,0.1-0.3,0.2-0.4c0.6-0.3,1.2-0.7,1.7-1.1
	c-3.8,0.9-7.8,1.4-12,1.4c-4,0-7.9-0.5-11.5-1.3c0.2,0.1,0.4,0.3,0.6,0.4c0.1,0.1,0.2,0.2,0.2,0.4v8.5
	C83,112.4,85.8,118.9,93.4,118.9z"/>
<g id="XMLID_4567_">
	<g id="XMLID_4572_">
		<path id="XMLID_4518_" class="st12" d="M275.2,65.5c0,3.3-2.2,6-4.8,6s-4.8-2.7-4.8-6s2.2-4.9,4.8-4.9S275.2,62.2,275.2,65.5z"/>
	</g>
	<g id="XMLID_4568_">
		<path id="XMLID_4569_" class="st5" d="M270.4,72.3c-3.1,0-5.6-3-5.6-6.8c0-3.5,2.2-5.7,5.6-5.7s5.6,2.2,5.6,5.7
			C276,69.2,273.5,72.3,270.4,72.3z M270.4,61.3c-2.6,0-4.1,1.6-4.1,4.2c0,2.9,1.8,5.2,4.1,5.2c2.3,0,4.1-2.4,4.1-5.2
			C274.4,62.9,272.9,61.3,270.4,61.3z"/>
	</g>
</g>
<g id="XMLID_4560_">
	<g id="XMLID_4565_">
		<path id="XMLID_4512_" class="st12" d="M220.8,65.5c0,3.3-2.2,6-4.8,6s-4.8-2.7-4.8-6s2.2-4.9,4.8-4.9S220.8,62.2,220.8,65.5z"/>
	</g>
	<g id="XMLID_4561_">
		<path id="XMLID_4562_" class="st5" d="M215.9,72.3c-3.1,0-5.6-3-5.6-6.8c0-3.5,2.2-5.7,5.6-5.7c3.4,0,5.6,2.2,5.6,5.7
			C221.5,69.2,219,72.3,215.9,72.3z M215.9,61.3c-2.6,0-4.1,1.6-4.1,4.2c0,2.9,1.8,5.2,4.1,5.2c2.2,0,4.1-2.4,4.1-5.2
			C220,62.9,218.5,61.3,215.9,61.3z"/>
	</g>
</g>
<g id="XMLID_4558_">
	<path id="XMLID_4509_" class="st4" d="M270.6,55.8c0,32.5-11.3,46.4-27.4,46.4s-27.9-13-27.9-46.4c0-20.1,11.7-24.3,27.9-24.3
		S270.6,35.8,270.6,55.8z"/>
</g>
<g id="XMLID_4554_">
	<path id="XMLID_4555_" class="st5" d="M243.1,103c-8.8,0-15.8-3.7-20.6-11c-5.3-8-8-20.1-8-36.2c0-22.1,14.5-25.1,28.6-25.1
		c14.6,0,28.2,3,28.2,25.1C271.3,86.2,261.3,103,243.1,103z M243.1,32.3c-9.1,0-15.3,1.4-19.5,4.5c-5.1,3.7-7.6,9.9-7.6,19
		c0,37.7,14.7,45.6,27.1,45.6c17.2,0,26.6-16.2,26.6-45.6C269.8,36.3,259.1,32.3,243.1,32.3z"/>
</g>
<g id="XMLID_4552_">
	<path id="XMLID_4506_" class="st13" d="M242.6,71.9c10.8,0,13.3,6.7,18.3,6.7c5,0,8.5-7.2,8.5-7.2s3.2,37-25.8,37
		s-26.9-36.6-26.9-36.6s1.4,6.7,7.6,6.7S230.9,71.9,242.6,71.9z"/>
</g>
<g id="XMLID_4548_">
	<path id="XMLID_4549_" class="st5" d="M243.5,109.3c-7.7,0-13.9-2.5-18.5-7.4c-5.3-5.6-7.5-13.5-8.4-19.1c-1-6-0.7-10.7-0.7-10.9
		c0-0.4,0.3-0.7,0.7-0.7s0.7,0.2,0.8,0.6c0.1,0.2,1.3,6.1,6.8,6.1c2.4,0,3.8-1.1,5.6-2.4c2.6-1.9,5.8-4.3,12.7-4.3
		c6.7,0,10.3,2.5,13.2,4.4c1.9,1.3,3.3,2.3,5.1,2.3c4.5,0,7.8-6.7,7.8-6.8c0.2-0.3,0.5-0.5,0.8-0.4s0.6,0.3,0.6,0.7
		c0,0.2,0.4,4.9-0.4,11.1c-0.8,5.7-2.8,13.7-8,19.4C257.3,106.8,251.1,109.3,243.5,109.3z M217.4,75.7c0.2,5.9,1.7,17.7,8.7,25.1
		c4.3,4.6,10.2,6.9,17.4,6.9c7.1,0,12.9-2.3,17.1-6.9c7.4-8.1,8.2-21.2,8.1-26.7c-1.5,2.3-4.3,5.3-7.8,5.3c-2.3,0-4-1.2-6-2.6
		c-2.7-1.9-6.1-4.2-12.3-4.2c-6.5,0-9.3,2.1-11.8,4c-1.9,1.4-3.7,2.7-6.5,2.7C220.7,79.4,218.6,77.5,217.4,75.7z"/>
</g>
<g id="XMLID_4541_">
	<g id="XMLID_4546_">
		<path id="XMLID_4501_" class="st12" d="M252.7,84.3c-1.1,3.6-5.2,3.5-9.5,3.5s-9.5,0.5-10.5-3.2c-1.2-4.1,6.1-4.5,10.5-4.5
			S253.9,80.4,252.7,84.3z"/>
	</g>
	<g id="XMLID_4542_">
		<path id="XMLID_4543_" class="st5" d="M240.5,88.6c-3.6,0-7.6-0.3-8.6-3.8c-0.3-1.1-0.1-2.1,0.5-2.9c1.3-1.8,4.8-2.6,10.8-2.6
			c4.1,0,8.4,0.3,9.9,2.4c0.4,0.5,0.8,1.5,0.4,2.8c-1.3,4.1-5.7,4.1-10,4.1h-0.3c-0.4,0-0.9,0-1.3,0
			C241.4,88.6,240.9,88.6,240.5,88.6z M243.1,80.9c-6.7,0-8.9,1.1-9.6,2c-0.3,0.4-0.4,0.9-0.2,1.5c0.6,2.2,3.2,2.7,7.1,2.7
			c0.4,0,0.9,0,1.3,0c0.4,0,0.9,0,1.3,0h0.3c4.7,0,7.6-0.2,8.5-3c0.3-0.8,0-1.2-0.1-1.4C250.6,80.9,245,80.9,243.1,80.9z"/>
	</g>
</g>
<g id="XMLID_4539_">
	<path id="XMLID_4498_" class="st5" d="M225.9,63.3c-0.2,0-0.4-0.1-0.6-0.3c-0.3-0.3-0.3-0.8,0.1-1.1c1.1-1,2.7-1.5,4.2-1.4
		c1.2,0.1,2.2,0.6,2.8,1.5c0.3,0.3,0.2,0.8-0.2,1.1c-0.3,0.3-0.8,0.2-1.1-0.2c-0.4-0.5-1-0.8-1.7-0.8c-1.1-0.1-2.2,0.3-3,1
		C226.3,63.2,226.1,63.3,225.9,63.3z"/>
</g>
<g id="XMLID_4537_">
	<path id="XMLID_4497_" class="st5" d="M259.9,63.3c-0.2,0-0.4-0.1-0.5-0.2c-0.8-0.7-2-1.1-3.2-1c-0.9,0.1-1.7,0.4-2.2,0.9
		c-0.3,0.3-0.8,0.3-1.1,0.1c-0.3-0.3-0.3-0.8-0.1-1.1c0.8-0.9,1.9-1.4,3.3-1.4c1.6-0.1,3.1,0.4,4.3,1.4c0.3,0.3,0.3,0.8,0.1,1.1
		C260.3,63.2,260.1,63.3,259.9,63.3z"/>
</g>
<g id="XMLID_4535_">
	<path id="XMLID_4496_" class="st13" d="M235.8,16.1c10.2-2.8,21,4.2,25.9,10.6c4.1,5.3,9,3.8,12.8,9.6s1.3,16.6-1.5,21.2
		c-2.7,4.6-2.7,4.6-2.7,4.6s-3.6-14.2-9.1-16.6s-5.3,3.4-17.5,2.4s-16.3-8.2-19.3-7.2c-2.9,1-2.5,6.3-5.1,11.5c-2.5,5.3-4,9.9-4,9.9
		s-8.1-15.5-4.8-24.3c2.5-6.7,7.2-4.3,10.6-8.7C224.6,24.8,228.6,18.1,235.8,16.1z"/>
</g>
<g id="XMLID_4531_">
	<path id="XMLID_4532_" class="st5" d="M215.5,62.8c-0.3,0-0.5-0.2-0.7-0.4c-0.3-0.6-8.2-15.9-4.9-24.9c1.6-4.2,4-5.1,6.3-6
		c1.6-0.6,3.1-1.2,4.4-2.8c0.5-0.6,1-1.3,1.5-2c3.1-4.3,7.1-9.6,13.5-11.3c1.6-0.4,3.3-0.6,5-0.6c8.8,0,17.3,5.8,21.8,11.5
		c1.9,2.4,3.9,3.3,6,4.3c2.4,1.1,4.8,2.2,6.9,5.4c4.1,6.2,1.3,17.4-1.4,22l-2.7,4.6c-0.2,0.3-0.5,0.4-0.8,0.4s-0.6-0.3-0.6-0.6
		c-1-3.8-4.4-14.2-8.6-16.1c-0.8-0.4-1.5-0.5-2.1-0.5c-1,0-1.8,0.4-3,0.9c-1.9,0.9-4.5,2.2-9.5,2.2c-0.9,0-1.8,0-2.7-0.1
		c-7.6-0.6-12.2-3.6-15.2-5.6c-1.7-1.1-2.9-1.9-3.7-1.7c-1.4,0.4-1.9,2.3-2.5,5c-0.5,1.9-1,4-2.1,6.2c-2.5,5.2-4,9.7-4,9.8
		C216.1,62.6,215.8,62.8,215.5,62.8L215.5,62.8z M258.9,44.1c0.9,0,1.8,0.2,2.8,0.7c4.6,2,7.8,11.4,9,15.4l1.8-3
		c2.5-4.1,5.1-14.7,1.5-20.3c-1.9-2.8-4-3.8-6.2-4.8c-2.2-1-4.4-2-6.5-4.7c-4.1-5.3-12.3-10.9-20.6-10.9c-1.6,0-3.1,0.2-4.6,0.6
		c-5.9,1.6-9.6,6.6-12.6,10.7c-0.5,0.7-1,1.4-1.5,2c-1.5,2-3.4,2.7-5,3.3c-2.2,0.8-4.1,1.6-5.5,5.1c-2.5,6.8,2.1,17.9,4,22
		c0.7-1.8,1.9-4.9,3.4-8.2c1-2,1.5-4.1,2-5.9c0.7-2.9,1.4-5.3,3.5-6.1c0.3-0.1,0.5-0.1,0.8-0.1c1.3,0,2.5,0.8,4.2,2
		c2.9,1.9,7.3,4.8,14.5,5.3c0.9,0.1,1.8,0.1,2.6,0.1c4.6,0,6.9-1.1,8.8-2C256.4,44.6,257.5,44.1,258.9,44.1z"/>
</g>
<g id="XMLID_4529_">
	<path id="XMLID_4493_" class="st5" d="M242.8,73.9c-0.3,0-0.6,0-0.9-0.1c-2-0.3-2.8-1.8-2.9-1.9c-0.2-0.4-0.1-0.8,0.3-1
		c0.4-0.2,0.8-0.1,1,0.3c0,0,0.5,0.9,1.7,1.1s2.2-0.1,2.6-0.7c0.3-0.4,0.2-1-0.1-1.5c-1.1-1.7-2.9-7.5-2.4-9.4
		c0.1-0.4,0.5-0.7,0.9-0.5c0.4,0.1,0.7,0.5,0.5,0.9c-0.4,1.3,1.1,6.5,2.2,8.2c0.7,1,0.7,2.2,0.1,3.1
		C245.3,73.4,244.2,73.9,242.8,73.9z"/>
</g>
<g id="XMLID_4527_">
	<path id="XMLID_4492_" class="st5" d="M242.8,85.7c-2.2,0-4-0.8-4.9-2.1c-0.2-0.4-0.2-0.8,0.2-1.1c0.3-0.2,0.8-0.2,1.1,0.2
		c0.6,0.9,2,1.4,3.6,1.4l0,0c1.9,0,3.7-0.7,4.3-1.6c0.2-0.4,0.7-0.4,1.1-0.2c0.4,0.2,0.4,0.7,0.2,1.1
		C247.3,85,244.8,85.7,242.8,85.7L242.8,85.7z"/>
</g>
<g id="XMLID_4579_">
	<g id="XMLID_4584_">
		<path id="XMLID_4544_" class="st12" d="M68.9,66.3c0,3.6-2.3,6.4-5.2,6.4c-2.9,0-5.2-2.9-5.2-6.4c0-3.6,2.3-5.3,5.2-5.3
			C66.6,61,68.9,62.7,68.9,66.3z"/>
	</g>
	<g id="XMLID_4580_">
		<path id="XMLID_4581_" class="st5" d="M63.7,73.5c-3.3,0-6-3.3-6-7.3c0-3.7,2.4-6.1,6-6.1c3.6,0,6,2.4,6,6.1
			C69.7,70.3,67,73.5,63.7,73.5z M63.7,61.8c-2.7,0-4.4,1.7-4.4,4.5c0,3.1,2,5.6,4.4,5.6c2.4,0,4.4-2.5,4.4-5.6
			C68,63.5,66.4,61.8,63.7,61.8z"/>
	</g>
</g>
<g id="XMLID_4577_">
	<path id="XMLID_4536_" class="st4" d="M82.8,102.4C73.7,99.2,69.9,90,66.5,77.1c-2-7.5-2.8-12.6-2.8-21.9
		c0-22.5,11.6-30.7,30.1-30.7s30.9,4.7,30.9,27.2c0,33.7-11,53.4-30.9,53.4"/>
</g>
<g id="XMLID_4575_">
	<path id="XMLID_4534_" class="st5" d="M93.8,105.9c-0.5,0-0.8-0.4-0.8-0.8c0-0.5,0.4-0.8,0.8-0.8c19.1,0,30.1-19.2,30.1-52.6
		c0-21.9-12-26.4-30.1-26.4c-9.6,0-16.6,2.2-21.4,6.7c-5.2,4.9-7.9,12.7-7.9,23.2c0,9.5,0.9,14.5,2.8,21.7
		c4.6,17.6,9.5,22.5,15.8,24.7c0.4,0.2,0.7,0.6,0.5,1s-0.6,0.7-1,0.5c-9.2-3.2-13.3-12.3-16.8-25.8C63.9,70,63,64.8,63,55.2
		C63,34,73.1,23.6,93.9,23.6c16.5,0,31.8,3.4,31.8,28C125.5,86.1,113.9,105.9,93.8,105.9z"/>
</g>
<g id="XMLID_4573_">
	<path id="XMLID_4533_" class="st5" d="M94.1,76.2c-0.3,0-0.7,0-1-0.1c-2.2-0.3-3.2-2.1-3.2-2.2c-0.2-0.4-0.1-0.9,0.3-1.1
		c0.4-0.2,0.9-0.1,1.1,0.3c0,0,0.6,1.1,2,1.3s2.5-0.1,3-0.8c0.3-0.5,0.3-1.2-0.1-1.9c-1.2-2-3.3-8.7-2.7-11c0.1-0.4,0.6-0.7,1-0.6
		s0.7,0.6,0.6,1c-0.4,1.6,1.3,7.8,2.5,9.8c0.7,1.2,0.8,2.6,0.1,3.6C97,75.6,95.7,76.2,94.1,76.2z"/>
</g>
<g id="XMLID_4570_">
	<path id="XMLID_4530_" class="st5" d="M77.5,61.1c-0.2,0-0.4-0.1-0.6-0.2c-0.3-0.3-0.3-0.8,0-1.2c1.1-1.1,2.6-1.8,4-1.6
		c1.2,0.1,2.2,0.7,2.8,1.7c0.2,0.4,0.1,0.9-0.3,1.1s-0.9,0.1-1.1-0.3c-0.3-0.5-0.9-0.9-1.6-0.9c-0.9-0.1-2,0.3-2.7,1.1
		C77.9,61,77.7,61.1,77.5,61.1z"/>
</g>
<g id="XMLID_4564_">
	<path id="XMLID_4528_" class="st5" d="M110,61.1c-0.2,0-0.4-0.1-0.6-0.3c-0.7-0.8-1.8-1.2-2.9-1.1c-0.9,0-1.6,0.4-2.1,1
		c-0.3,0.4-0.8,0.4-1.2,0.2c-0.4-0.3-0.4-0.8-0.2-1.2c0.7-1,1.9-1.6,3.3-1.7c1.5-0.1,3.1,0.5,4.1,1.6c0.3,0.3,0.3,0.8,0,1.2
		C110.5,61,110.3,61.1,110,61.1z"/>
</g>
<g id="XMLID_4559_">
	<path id="XMLID_4526_" class="st5" d="M93.4,86.6c-2.1,0-3.9-0.8-4.8-2.1c-0.3-0.4-0.2-0.9,0.2-1.1c0.4-0.3,0.9-0.2,1.1,0.2
		c0.6,0.9,2,1.4,3.7,1.3c1.8-0.1,3.5-0.8,4.1-1.8c0.2-0.4,0.7-0.5,1.1-0.3s0.5,0.7,0.3,1.1c-0.9,1.5-3,2.5-5.5,2.6
		C93.6,86.6,93.5,86.6,93.4,86.6z"/>
</g>
<g id="XMLID_4550_">
	<g id="XMLID_4556_">
		<path id="XMLID_4524_" class="st12" d="M121.9,74.5c4.4,0.3,7.4-3.9,7.6-7.7c0.2-3.7-3.5-5.2-6.5-4.9"/>
	</g>
	<g id="XMLID_4551_">
		<path id="XMLID_4520_" class="st5" d="M122.4,75.3c-0.2,0-0.4,0-0.5,0c-0.5,0-0.8-0.4-0.8-0.9s0.4-0.8,0.9-0.8
			c1.9,0.1,3.3-0.7,4.1-1.4c1.5-1.3,2.5-3.4,2.7-5.5c0.1-1.1-0.3-2.1-1-2.8c-1-1-2.8-1.5-4.5-1.2c-0.5,0.1-0.9-0.3-0.9-0.7
			c-0.1-0.5,0.3-0.9,0.7-0.9c2.2-0.3,4.5,0.4,5.9,1.7c1.1,1,1.6,2.4,1.6,4c-0.1,2.5-1.4,5-3.2,6.6C125.8,74.7,124.1,75.3,122.4,75.3
			z"/>
	</g>
</g>
<path id="XMLID_4519_" class="st2" d="M123.8,62c4.4-13.1,4.4-24.2,2.1-34.9c-1.2-5.6-3.7-10-3.7-10c-5.7,1.3-7.3-2.1-22.7-4.2
	c-11.1-1.5-16.2,2-18.1,4.1c0,0-3.6-1.8-10.9,1.4c-6.6,2.9-12.3,10.5-8.3,34.3c1.2,9.6,4.4,18.3,4.4,18.3s-1.5-18.9,1.5-26.4
	c0.1-0.4,0.3-0.7,0.5-1l1.5-2.2c4.1-4.7,11.7-5.4,14.6-2.6c3.4,3.3,9.2,2.9,9.2,2.9s5.8,0.4,9.2-2.9s13.6-1.7,16.5,5.8
	s1.5,26.4,1.5,26.4S122.5,67.3,123.8,62z"/>
</svg>
