<svg id="OBJECTS" xmlns="http://www.w3.org/2000/svg" xmlns:xlink="http://www.w3.org/1999/xlink" viewBox="0 0 458.26 353.58"><defs><style>.cls-1{fill:#f3f3f3;}.cls-17,.cls-2,.cls-27,.cls-7{fill:#fff;}.cls-2{opacity:0.05;}.cls-3,.cls-4{fill:#adb8c2;}.cls-3{opacity:0.1;}.cls-27,.cls-4{opacity:0.2;}.cls-5{font-size:24.01px;font-family:OpenSans-Semibold, Open Sans;font-weight:700;letter-spacing:0.16em;}.cls-10,.cls-5{fill:#393f55;}.cls-6{fill:#29abe2;}.cls-8{fill:url(#linear-gradient);}.cls-9{fill:#a67c52;}.cls-11{fill:#ccc;}.cls-12{fill:#ffc9cc;}.cls-13{fill:none;stroke:#adb8c2;stroke-linecap:round;stroke-linejoin:round;stroke-width:2px;}.cls-14{fill:#5183b9;}.cls-15{fill:#4a77a8;}.cls-16{fill:#333;}.cls-17{opacity:0.3;}.cls-18{fill:#8193a3;}.cls-19{fill:gray;}.cls-20{fill:#ffcfba;}.cls-21{fill:#b5ddf1;}.cls-22{fill:#93c4de;}.cls-23{fill:#ffc1a6;}.cls-24{fill:url(#linear-gradient-2);}.cls-25{fill:#999;}.cls-26{fill:#f2f2f2;}.cls-28{fill:#e6e6e6;}.cls-29{fill:#e8a3a8;}.cls-30{fill:bisque;}.cls-31{fill:#ffbdc0;}.cls-32{fill:#ebb9bc;}.cls-33{fill:#662d91;}.cls-34{fill:#0071bc;}.cls-35{fill:#603813;}.cls-36{fill:url(#linear-gradient-3);}.cls-37{fill:#edc0ad;}.cls-38{fill:#c69c6d;}</style><linearGradient id="linear-gradient" x1="425.35" y1="120.99" x2="428.22" y2="345.76" gradientUnits="userSpaceOnUse"><stop offset="0" stop-color="#393f55"/><stop offset="0.67" stop-color="#393f55" stop-opacity="0"/></linearGradient><linearGradient id="linear-gradient-2" x1="130.06" y1="392.51" x2="145.39" y2="434.68" xlink:href="#linear-gradient"/><linearGradient id="linear-gradient-3" x1="359.7" y1="318.87" x2="362.05" y2="335.67" xlink:href="#linear-gradient"/></defs><title>web-sitesi</title><rect class="cls-1" x="40.25" y="38.9" width="379.24" height="242.28"/><polygon class="cls-2" points="418.75 284.03 39.51 284.03 0 317.31 458.26 317.31 418.75 284.03"/><rect class="cls-3" x="108.63" y="65.67" width="1" height="210"/><rect class="cls-4" x="345.63" y="68.18" width="63.5" height="43.48"/><rect class="cls-4" x="345.63" y="123.07" width="63.5" height="43.48"/><rect class="cls-4" x="345.63" y="177.96" width="63.5" height="43.48"/><rect class="cls-4" x="345.63" y="232.85" width="63.5" height="43.48"/><text class="cls-5" transform="translate(123.64 89.07)">SITE</text><path class="cls-6" d="M144.23,114.24v2.26a1.75,1.75,0,0,0,1.75,1.75h6.5a1.75,1.75,0,0,1,1.75,1.75v1a1.75,1.75,0,0,1-1.75,1.75H139.9a1.75,1.75,0,0,0-1.75,1.75h0a1.75,1.75,0,0,0,1.75,1.75H148a1.75,1.75,0,0,1,1.75,1.75l-20.1,1a1.75,1.75,0,0,1-1.75,1.75h-1.15a2.6,2.6,0,0,0-2.6,2.6h0a.85.85,0,0,0,.85.85H440.35v-20Z" transform="translate(-20.87 -75.33)"/><path class="cls-7" d="M426.75,129h-57a4.75,4.75,0,0,1-4.75-4.75h0a4.75,4.75,0,0,1,4.75-4.75h57a4.75,4.75,0,0,1,4.75,4.75h0A4.75,4.75,0,0,1,426.75,129Z" transform="translate(-20.87 -75.33)"/><path class="cls-8" d="M444.46,355.18,438,176.62a1.77,1.77,0,0,0-2.07-1.61,2.12,2.12,0,0,0-1.94,2.06l.75,20.54h-20l-.76-21a1.77,1.77,0,0,0-2.07-1.61,2.12,2.12,0,0,0-1.94,2.06l6.49,178.56a1.73,1.73,0,0,0,1.82,1.62h.25a2.12,2.12,0,0,0,1.94-2.06l-.55-15h20l.56,15.45a1.73,1.73,0,0,0,1.82,1.62h.25A2.12,2.12,0,0,0,444.46,355.18ZM418.4,298.51h20l.37,10.2h-20Zm17.81-59.24h-20l-.37-10.2h20Zm.13,3.69.37,10.2h-20l-.37-10.2Zm.51,13.89.37,10.2h-20l-.37-10.2Zm.51,13.89.37,10.2h-20l-.37-10.2Zm.5,13.89.37,10.2h-20l-.37-10.2Zm-2.15-59.24h-20l-.37-10.2h20Zm-16.8,87h20l.37,10.2h-20Zm15.93-111.1.37,10.2h-20l-.37-10.2ZM419.78,336.49l-.37-10.2h20l.37,10.2Z" transform="translate(-20.87 -75.33)"/><path class="cls-9" d="M461.92,370.25,438,176.75a2,2,0,0,0-4,.49l2.75,22.25h-20L414,176.75a2,2,0,0,0-4,.49L434,370.75a2,2,0,0,0,2,1.75h.25a2,2,0,0,0,1.74-2.23l-2-16.25h20L458,370.75a2,2,0,0,0,2,1.75h.25A2,2,0,0,0,461.92,370.25Zm-31.58-61.41h20l1.36,11.05h-20Zm12-64.2h-20l-1.36-11h20Zm.49,4,1.36,11.05h-20l-1.36-11.05Zm1.86,15.05,1.36,11h-20l-1.36-11Zm1.86,15,1.36,11H428l-1.36-11Zm1.86,15,1.36,11h-20l-1.36-11Zm-7.92-64.2h-20l-1.36-11.05h20Zm-8.33,94.3h20l1.36,11h-20Zm5.11-120.4,1.36,11h-20l-1.36-11ZM435.42,350l-1.36-11h20l1.36,11Z" transform="translate(-20.87 -75.33)"/><rect class="cls-10" x="125.02" y="147.85" width="208.23" height="104.98"/><path class="cls-6" d="M250,254a20,20,0,1,0,20,20A20,20,0,0,0,250,254Zm-7.16,29.59V264.45l18.52,9.6Z" transform="translate(-20.87 -75.33)"/><path class="cls-11" d="M324,333.3a3.62,3.62,0,1,0,3.62,3.62A3.62,3.62,0,0,0,324,333.3Zm13.28,0a3.62,3.62,0,1,0,3.62,3.62A3.62,3.62,0,0,0,337.31,333.3Zm13.28,0a3.62,3.62,0,1,0,3.62,3.62A3.62,3.62,0,0,0,350.6,333.3Z" transform="translate(-20.87 -75.33)"/><path class="cls-12" d="M439.13,237.75l2.29,7h-10.5s-.26-1,1.45-1.66a3.36,3.36,0,0,0,2.12-2.54l.13-.76Z" transform="translate(-20.87 -75.33)"/><line class="cls-13" x1="124.13" y1="104.33" x2="332.8" y2="104.33"/><line class="cls-13" x1="124.13" y1="113.83" x2="332.8" y2="113.83"/><line class="cls-13" x1="124.13" y1="123.33" x2="244.76" y2="123.33"/><line class="cls-13" x1="295.47" y1="135.33" x2="332.8" y2="135.33"/><polygon class="cls-1" points="327.13 307.19 199.47 307.19 197.92 340.72 338.38 340.72 327.13 307.19"/><polygon class="cls-14" points="197.8 340.72 338.47 340.72 338.47 344.56 197.05 344.56 198.97 311.03 199.47 307.19 197.8 340.72"/><polygon class="cls-1" points="180.8 297.19 53.13 297.19 21.92 330.72 162.38 330.72 180.8 297.19"/><rect class="cls-14" x="21.92" y="330.72" width="140.47" height="3.83"/><polygon class="cls-15" points="162.38 330.72 162.38 334.56 180.8 301.03 180.8 297.19 162.38 330.72"/><line class="cls-13" x1="136.63" y1="303.97" x2="54.24" y2="303.97"/><line class="cls-13" x1="121.63" y1="310.72" x2="48.74" y2="310.72"/><line class="cls-13" x1="115.63" y1="317.97" x2="42.74" y2="317.97"/><rect class="cls-6" x="133.97" y="364.48" width="8.3" height="22.19" transform="translate(152.67 -98.35) rotate(25.27)"/><path class="cls-16" d="M129.63,383.84l-.18,8.3,1.36.64,6.33-5.4S129.39,383.92,129.63,383.84Z" transform="translate(-20.87 -75.33)"/><polygon class="cls-17" points="115.76 311.81 115.26 311.57 109.6 317.29 109.76 317.36 115.76 311.81"/><polygon class="cls-17" points="111.94 310.01 109.7 308.95 108.97 316.99 109.31 317.15 111.94 310.01"/><path class="cls-18" d="M129.44,392.16l-.23.48s-.2.42.5.75.86-.11.86-.11l.23-.48Z" transform="translate(-20.87 -75.33)"/><rect class="cls-16" x="139.43" y="362.31" width="8.3" height="3.4" transform="translate(148.25 -101.79) rotate(25.27)"/><rect class="cls-17" x="135.91" y="360.45" width="2.48" height="25.58" transform="translate(151.58 -98.16) rotate(25.27)"/><rect class="cls-17" x="141.56" y="362.66" width="0.56" height="25.58" transform="translate(152.94 -99.96) rotate(25.26)"/><rect class="cls-6" x="142.87" y="348.18" width="9.17" height="15.25" transform="translate(145.12 -104.23) rotate(25.27)"/><rect class="cls-16" x="146.42" y="347.56" width="9.17" height="1.42" transform="translate(142.24 -106.47) rotate(25.27)"/><rect class="cls-17" x="144.52" y="345.95" width="2.74" height="16.67" transform="matrix(0.9, 0.43, -0.43, 0.9, 144.31, -103.71)"/><rect class="cls-17" x="150.75" y="348.39" width="0.61" height="16.67" transform="translate(145.81 -105.68) rotate(25.26)"/><path class="cls-19" d="M134.66,367.79c-.54-.25-1-1.39-.8-1.7a.61.61,0,0,1,.74-.18c.26.18.2.87.52,1a.86.86,0,0,0,1-.31l6.18-18.3c.7-2.07,2.65-2.85,4.82-2.62l-.38.81a3,3,0,0,0-3.49,2.13l-6.15,18.22A1.67,1.67,0,0,1,134.66,367.79Z" transform="translate(-20.87 -75.33)"/><path class="cls-20" d="M145.75,373.5l.79,2.51L150,387l-7.5,6.5-2.79-15.16s-4.83-4.18-4-5.76a30,30,0,0,1,3.08-1.25S145.75,373.58,145.75,373.5Z" transform="translate(-20.87 -75.33)"/><path class="cls-21" d="M129.5,367.5,148,382.77a6.34,6.34,0,0,1,1.16,8.52h0a6.34,6.34,0,0,1-8.84,1.55L123.5,381Z" transform="translate(-20.87 -75.33)"/><path class="cls-22" d="M128.06,370.75,123.5,381l16.8,11.84a6.33,6.33,0,0,0,6.85.29C136.45,389.48,128.75,380.91,128.06,370.75Z" transform="translate(-20.87 -75.33)"/><path class="cls-15" d="M150.5,410H129.13c-15,21-53.13,9.5-53.13,9.5s17,13.5,51,8.17c0,0,20-3.17,22.5-7.67S150.5,410,150.5,410Z" transform="translate(-20.87 -75.33)"/><path class="cls-20" d="M70.25,409l-2.08,2.33a14.75,14.75,0,0,1-10.42,4.92h0a12.38,12.38,0,0,0,0,3.44c.71,1.55,2.83,2.69,4.25,3.44,5.25,2.75,15-3.62,15-3.62l.75-9.75Z" transform="translate(-20.87 -75.33)"/><path class="cls-23" d="M57.75,419.69c.71,1.55,2.83,2.69,4.25,3.44,5.25,2.75,15-3.62,15-3.62l.75-9.75-1.47-.15c0,.09,0,.17,0,.27C76,415.25,66.5,420,64.38,420s-6.62-3.75-6.62-3.75A12.38,12.38,0,0,0,57.75,419.69Z" transform="translate(-20.87 -75.33)"/><path class="cls-20" d="M108.75,361.5s4.75-12.75,10-13,11.75,5,12.5,7.5-4.25,9.75-6.75,11S108.75,361.5,108.75,361.5Z" transform="translate(-20.87 -75.33)"/><path class="cls-23" d="M119.41,366.16c2.29.79,4.27,1.25,5.09.84,2.5-1.25,7.5-8.5,6.75-11a3.69,3.69,0,0,0-.4-.82C125.73,355.87,121.43,360.19,119.41,366.16Z" transform="translate(-20.87 -75.33)"/><path class="cls-22" d="M103.5,362.5s-26,18.13-23.75,23.75,8.5,4.63,8.5,4.63Z" transform="translate(-20.87 -75.33)"/><path class="cls-21" d="M129.13,410h-6.79s-1.33-22,7.17-42.5c0,0-11-11.5-26-5,0,0-26.5,18.5-27.5,57C76,419.5,114.12,431,129.13,410Z" transform="translate(-20.87 -75.33)"/><path class="cls-24" d="M122.33,410s11.84.93,14.54,15.63c5.44-1.36,11.34-3.32,12.62-5.63,2.5-4.5,1-10,1-10Z" transform="translate(-20.87 -75.33)"/><path class="cls-16" d="M131.63,356.5l2.38,2.38s2.25-5-2-8.12-12.12-6.37-16.25-1.75a37.53,37.53,0,0,0-5.87,8.5s6.88-.5,11,3l4.5-1.12s2-3.12,3-2.62-.37,3.88-.37,3.88S130.5,361.13,131.63,356.5Z" transform="translate(-20.87 -75.33)"/><rect class="cls-16" x="106.65" y="14.5" width="23.25" height="24.25"/><rect class="cls-25" x="119.67" y="16.44" width="10.23" height="19.28"/><rect class="cls-26" x="106.65" y="13.59" width="23.25" height="0.91"/><ellipse class="cls-25" cx="111.9" cy="19.5" rx="2.42" ry="2.33"/><ellipse class="cls-19" cx="111.9" cy="19.5" rx="1.28" ry="1.24"/><path class="cls-6" d="M136.83,88.73V99.81a3.11,3.11,0,0,0,2.83,3.16,3,3,0,0,0,3.16-3V93.87A1.14,1.14,0,0,1,144,92.73h0a1.14,1.14,0,0,1,1.14,1.14v2A1.94,1.94,0,0,0,147,97.85h0a2.4,2.4,0,0,0,2.4-2.4V88.73Z" transform="translate(-20.87 -75.33)"/><path class="cls-6" d="M137.83,99.81V88.73h-1V99.81a3.11,3.11,0,0,0,2.83,3.16,3,3,0,0,0,.69,0A3.13,3.13,0,0,1,137.83,99.81Z" transform="translate(-20.87 -75.33)"/><path class="cls-6" d="M146.11,95.92v-2A1.14,1.14,0,0,0,145,92.73a1.12,1.12,0,0,0-.5.13,1.13,1.13,0,0,1,.64,1v2A1.94,1.94,0,0,0,147,97.85a2.4,2.4,0,0,0,.53-.06A1.93,1.93,0,0,1,146.11,95.92Z" transform="translate(-20.87 -75.33)"/><rect class="cls-27" x="110.03" y="13.71" width="4.62" height="24.88"/><path class="cls-28" d="M150.77,94.72V98.9c.15,2.7-.33,4.77-1.45,6.16s-3.32,2.3-6.19,2.3c-5.4,0-9.79-5.51-9.79-12.29a.48.48,0,1,0-1,0c0,7.31,4.82,13.25,10.75,13.25,3.17,0,5.58-.83,6.94-2.66C152.81,102,151,94.73,150.77,94.72Z" transform="translate(-20.87 -75.33)"/><polygon class="cls-29" points="81.13 12.04 90.51 38.9 83.13 38.9 78.01 23.29 81.13 12.04"/><path class="cls-15" d="M69.25,114.21s5.17-26,26.42-28.21h6v28.21Z" transform="translate(-20.87 -75.33)"/><rect class="cls-30" x="124.62" y="113.98" width="9.24" height="6.28" transform="translate(-48.18 118.68) rotate(-68.34)"/><path class="cls-9" d="M123.64,111.47l-.65,1.64L118.82,111a1.82,1.82,0,0,0-2.5,1h0a1.82,1.82,0,0,0,1.16,2.41l4.46,1.36-.65,1.64a1.43,1.43,0,0,0,.8,1.86l2.52,1,3.41-8.59-2.52-1A1.43,1.43,0,0,0,123.64,111.47Z" transform="translate(-20.87 -75.33)"/><path class="cls-6" d="M131.21,112.93c-1-.12-1.63-.08-.94.42,1.59,1.16,1.55,2.27.52,2.86s-1.25,0-.93,2.35-.4,1.17-2.18,1.32c-1,.08-.9.74-.64,1.34l1.49.59c.68.27.43,1.44.77,2,.86,1.4,1.46-2.69,1.52,2.56,0,1,.95,2.24.64-2A30,30,0,0,1,133,116l.81-2Z" transform="translate(-20.87 -75.33)"/><path class="cls-31" d="M90.81,116c-9.92-7.91-8-23.8-7.94-24.47a4,4,0,0,1,7.94,1h0c0,.12-1.4,12.15,5,17.23,3.7,2.94,14.63,1.55,14.63,1.55l4.06-4.11,7.5,3.13s-2.35,3.63-4.25,4.75C106.67,121.67,94.28,118.81,90.81,116Z" transform="translate(-20.87 -75.33)"/><path class="cls-31" d="M93.79,88.36S97.22,79.15,101,79s8.49,3.61,9,5.42-3.07,7-4.88,7.95S93.79,88.36,93.79,88.36Z" transform="translate(-20.87 -75.33)"/><path class="cls-29" d="M108.37,82.2A8.82,8.82,0,0,1,107.25,87l-1.45,2.17-1.81-1-2.47,3.56c1.64.57,3.06.89,3.65.59,1.81-.9,5.42-6.14,4.88-7.95A5.85,5.85,0,0,0,108.37,82.2Z" transform="translate(-20.87 -75.33)"/><path class="cls-9" d="M100.43,84.7l.81-2.21,2.17,0,.63-2.17s6.28,6.28,8.9,4.65-3.21-7.53-6.86-8.94c-4.92-1.9-7.59.72-8.49,3s-3.52,7.95-3.52,7.95l2.71-1.45s1-3.38,2.08-3.43c1.81-.09.45,2.39.45,2.39Z" transform="translate(-20.87 -75.33)"/><path class="cls-32" d="M436.57,164.19s7.11-7.42,5.59-10.78-7.17-5.57-9.1-5.16-5.24,6.06-5.28,8.05S436.57,164.19,436.57,164.19Z" transform="translate(-20.87 -75.33)"/><path class="cls-12" d="M430,159.18c-1.27-1.15-2.22-2.22-2.2-2.88,0-2,3.35-7.65,5.28-8.05a2.92,2.92,0,0,1,.68,0C434.92,151.64,433.38,155.83,430,159.18Z" transform="translate(-20.87 -75.33)"/><g id="dSjisI.tif"><path class="cls-7" d="M452.3,193.64h-2.16a.61.61,0,0,1-.67-.67q0-2.18,0-4.35a.62.62,0,0,1,.67-.67h4.34a.63.63,0,0,1,.68.68q0,2.17,0,4.34a.62.62,0,0,1-.67.67Zm1.71-3.37a1.74,1.74,0,0,1-.74,2,1.64,1.64,0,0,1-1.88,0,1.74,1.74,0,0,1-.77-2h-.53v.13q0,1.16,0,2.31c0,.24.07.31.3.31h3.85c.23,0,.3-.07.3-.3q0-1.16,0-2.33s0-.09,0-.13Zm-1.7-.62a1.15,1.15,0,1,0,1.15,1.13A1.15,1.15,0,0,0,452.31,189.65Zm1.72-.23h.27a.22.22,0,0,0,.23-.23c0-.18,0-.36,0-.53a.22.22,0,0,0-.23-.23h-.53a.22.22,0,0,0-.23.22c0,.18,0,.36,0,.55a.22.22,0,0,0,.23.23Z" transform="translate(-20.87 -75.33)"/><path class="cls-33" d="M452.33,185.21a5.59,5.59,0,1,0,5.57,5.6A5.58,5.58,0,0,0,452.33,185.21Zm2.83,7.76a.62.62,0,0,1-.67.67h-4.35a.61.61,0,0,1-.67-.67q0-2.18,0-4.35a.62.62,0,0,1,.67-.67h4.34a.63.63,0,0,1,.68.68Q455.16,190.8,455.16,193Zm-.63-2.7H454a1.74,1.74,0,0,1-.74,2,1.64,1.64,0,0,1-1.88,0,1.74,1.74,0,0,1-.77-2h-.53v.13q0,1.16,0,2.31c0,.24.07.31.3.31h3.85c.23,0,.3-.07.3-.3q0-1.16,0-2.33S454.54,190.31,454.53,190.26Zm-2.19,1.68a1.15,1.15,0,1,0-1.18-1.12A1.15,1.15,0,0,0,452.34,191.94Zm2-3.53h-.53a.22.22,0,0,0-.23.22c0,.18,0,.36,0,.55a.22.22,0,0,0,.23.23h.52a.22.22,0,0,0,.23-.23c0-.18,0-.36,0-.53A.22.22,0,0,0,454.31,188.42Z" transform="translate(-20.87 -75.33)"/></g><path class="cls-6" d="M444.67,180.82a5.33,5.33,0,1,1-5.34,5.33A5.34,5.34,0,0,1,444.67,180.82Zm.24,4.71a2.79,2.79,0,0,1-1.41-.37c-.41-.24-.78-.55-1.17-.83a1.33,1.33,0,0,0,.36,1.58l-.49-.12a1.37,1.37,0,0,0,.91,1.21l-.46,0a1.36,1.36,0,0,0,1.11.86,3.8,3.8,0,0,1-.8.39,6.81,6.81,0,0,1-.88.15,3.49,3.49,0,0,0,5.27-3,.39.39,0,0,1,.16-.34,4.1,4.1,0,0,0,.38-.39l0,0-.54.13a1.69,1.69,0,0,0,.44-.63l-.49.19a.37.37,0,0,1-.42-.07,1.22,1.22,0,0,0-1.94.74A3.09,3.09,0,0,0,444.9,185.53Z" transform="translate(-20.87 -75.33)"/><path class="cls-7" d="M444.9,185.53a3.09,3.09,0,0,1,0-.51,1.22,1.22,0,0,1,1.94-.74.37.37,0,0,0,.42.07l.49-.19a1.69,1.69,0,0,1-.44.63l.54-.13,0,0a4.1,4.1,0,0,1-.38.39.39.39,0,0,0-.16.34,3.49,3.49,0,0,1-5.27,3,6.81,6.81,0,0,0,.88-.15,3.8,3.8,0,0,0,.8-.39,1.36,1.36,0,0,1-1.11-.86l.46,0a1.37,1.37,0,0,1-.91-1.21l.49.12a1.33,1.33,0,0,1-.36-1.58c.39.28.76.59,1.17.83A2.79,2.79,0,0,0,444.9,185.53Z" transform="translate(-20.87 -75.33)"/><path class="cls-34" d="M457.33,178.27a5.47,5.47,0,1,1-7,3.36A5.47,5.47,0,0,1,457.33,178.27Zm.78,2.47c-.39-.14-.76-.28-1.14-.39a1.2,1.2,0,0,0-1.47.57,7.45,7.45,0,0,0-.36.88l-.07.2-.62-.22-.39,1.13.63.22-1.11,3.18,1.32.46,1.11-3.18.9.31.51-1.09-1-.35a.4.4,0,0,1,0-.05l.2-.57c.09-.26.21-.32.47-.22l.64.22Z" transform="translate(-20.87 -75.33)"/><path class="cls-7" d="M458.11,180.74l-.38,1.09-.64-.22c-.26-.09-.38,0-.47.22l-.2.57a.4.4,0,0,0,0,.05l1,.35-.51,1.09-.9-.31-1.11,3.18-1.32-.46,1.11-3.18-.63-.22.39-1.13.62.22.07-.2a7.45,7.45,0,0,1,.36-.88,1.2,1.2,0,0,1,1.47-.57C457.35,180.47,457.72,180.61,458.11,180.74Z" transform="translate(-20.87 -75.33)"/><path class="cls-7" d="M435.82,185.43l5,15.49H456L461,185.43Zm4.57,10.69h1.74l.29,1.33h-1.6Zm8.54-5.88v-1.33h2.55l-.14,1.33Zm2.3,1.08-.14,1.33h-2.15v-1.33Zm-3.37-1.08h-2.41l-.14-1.33h2.55Zm0,1.08v1.33h-2.15l-.14-1.33Zm-3.23,1.33h-2.14l-.29-1.33h2.28Zm.12,1.08.14,1.33H443l-.29-1.33Zm1.08,0h2V195H446Zm2,2.4v1.33h-1.64l-.14-1.33Zm1.08,0h1.78l-.14,1.33h-1.64Zm0-1.08v-1.33h2l-.14,1.33Zm3.12-1.33h2L453.8,195h-1.88Zm.11-1.08.14-1.33h2.28l-.28,1.33Zm.25-2.4.14-1.33h2.54l-.28,1.33Zm.25-2.4.14-1.33h2.8l-.28,1.33Zm-1.08,0h-2.67v-1.33h2.81Zm-3.74,0h-2.67l-.14-1.33h2.81Zm-3.75,0h-2.65l-.29-1.33H444Zm.12,1.08.14,1.33H442l-.29-1.33Zm-3.35,1.33H438.5l-.43-1.33h2.51Zm.23,1.08.29,1.33h-2.12l-.43-1.33Zm.52,2.4.29,1.33H440l-.43-1.33Zm1.62,2.4H445l.14,1.33h-1.63Zm2,2.4.14,1.33H444l-.29-1.33Zm1.08,0h1.52v1.33h-1.38Zm2.6,0h1.52l-.14,1.33H449Zm2.6,0h1.51l-.28,1.33h-1.37Zm.11-1.08.14-1.33h1.77l-.28,1.33Zm3-1.33h1.74l-.42,1.33h-1.6Zm.23-1.08.28-1.33h2l-.42,1.33Zm.51-2.4.28-1.33H458l-.42,1.33Zm.51-2.4.28-1.33h2.51l-.42,1.33Zm.51-2.4.28-1.33h2.77l-.42,1.33Zm-16.36-1.33.29,1.33h-2.63l-.43-1.33Zm1.1,12h1.49l.29,1.33H441.6Zm12.71,1.33.28-1.33h1.49l-.42,1.33Z" transform="translate(-20.87 -75.33)"/><path class="cls-22" d="M444.25,162.25s14.5,13.25,14,16-16.5,2.5-16.5,2.5l-1.5-4.75,6.75-.5-6-5.75S439.5,162,444.25,162.25Z" transform="translate(-20.87 -75.33)"/><path class="cls-16" d="M446.23,174.9l3.5,14a1.54,1.54,0,0,1-1.49,1.91h0a1.54,1.54,0,0,1-1.49-1.16l-3.69-14.71Z" transform="translate(-20.87 -75.33)"/><circle class="cls-7" cx="427.3" cy="113.87" r="0.69"/><path class="cls-15" d="M424,190s-6.33,7.5-6.33,15.17,4.58,20.33,4.58,20.33l1.88-.65a13,13,0,0,1,7.82-.22l.72.21s-8.17-13.83-7.25-19.42c.42-2.53,5.67-3.17,9.83-2.67,0,0-12.58,13.92-1.75,39l7.25-2.75s-9.08-13.67,4.58-42.83C445.33,196.17,430.67,189,424,190Z" transform="translate(-20.87 -75.33)"/><path class="cls-12" d="M429.5,223.83l1.67,5.75h-10.5s-.26-1,1.45-1.66a3.36,3.36,0,0,0,2.12-2.54l.13-.76Z" transform="translate(-20.87 -75.33)"/><path class="cls-21" d="M399.33,141.5s14.83,20.67,41.83,20.33c0,0,7.17-.67,4.83,8.29-3,11.5-3.75,12.5-.67,26,0,0-18.17,5-27-3.17,0,0,8.83-16.42,7.17-19.75s-20.08-8.58-28.75-27.25Z" transform="translate(-20.87 -75.33)"/><circle class="cls-16" cx="384.69" cy="128.58" r="7.25" transform="translate(-22.51 176.82) rotate(-36.22)"/><circle class="cls-7" cx="384.69" cy="128.58" r="4.46" transform="translate(-22.51 176.82) rotate(-36.22)"/><rect class="cls-16" x="390.36" y="132.99" width="2.5" height="10.08" transform="translate(-26.75 182.73) rotate(-36.22)"/><polygon class="cls-12" points="378.47 66.17 371.8 61.67 368.8 67.67 375.88 70.67 378.47 66.17"/><path class="cls-35" d="M446.08,144.75a3.66,3.66,0,0,0-3.39,2.28,7.82,7.82,0,0,0-1.75-1.07,5.52,5.52,0,0,0-1.6-.43c-.79-.31-6.57-2.46-8.84.91a3,3,0,0,1,2.5-.56,3.17,3.17,0,0,0-2.19,1.88s2.11-1.48,3.89-1.26a9.24,9.24,0,0,0-1.07.61,7.84,7.84,0,0,0-2.15,2.73c-.44.29-.92.67-.92,1s.3.5.43.7c0,.15,0,.26,0,.33a.68.68,0,0,1-.16.11c-.69.35-2.44,1.45-1.44,2s1.44,1.18.06,1c0,0,.75,1,1.37.16s-.62-1.14-.56-1.81,1.5-.71,1.31-1.38a1.69,1.69,0,0,1-.06-.56c.6-.57,1.54-1.35,2-1.05.66.45-.81,2.79-.81,2.79l.69,3.2c3.7,1.34,3.24,4,3.24,4s6.28-.48,8.08-4.67a7.68,7.68,0,0,0,.65-3.58,3.67,3.67,0,1,0,.77-7.25Z" transform="translate(-20.87 -75.33)"/><polygon class="cls-15" points="326.13 244.33 351.63 266.67 364.72 248.08 342.47 234.33 326.13 244.33"/><path class="cls-36" d="M362.83,318.21l2.67,3s-1.42,13,3.58,17.75l-15-13.29Z" transform="translate(-20.87 -75.33)"/><path class="cls-37" d="M357.26,315.15s3.31-13-.37-15.55-11.16-1.07-13,.71-2.08,10.19-.93,12.39S357.26,315.15,357.26,315.15Z" transform="translate(-20.87 -75.33)"/><path class="cls-20" d="M342.32,305.58c-.24,2.83,0,5.91.61,7.11.54,1,3.78,1.64,7,2C352.76,309.28,345.37,306.48,342.32,305.58Z" transform="translate(-20.87 -75.33)"/><path class="cls-16" d="M334.5,303.67l24.58,2.67s2-8.58.83-9.5-15.25-3.17-16.25-.92l-1.83,5.67-7.67.67S333.5,303.25,334.5,303.67Z" transform="translate(-20.87 -75.33)"/><path class="cls-6" d="M341.67,301.67l4.48.54a1.11,1.11,0,0,0,1.23-.89l.59-2.93a1.11,1.11,0,0,0-.84-1.3l-3.61-.84Z" transform="translate(-20.87 -75.33)"/><path class="cls-15" d="M358.24,312.5l-21.91,13.84-16.33,2V336h21l23.2-13.77a5.71,5.71,0,0,0,.63-9.38h0A5.71,5.71,0,0,0,358.24,312.5Z" transform="translate(-20.87 -75.33)"/><path class="cls-21" d="M361.7,318.34l-22.61,14.17-19,1.12a.5.5,0,0,0,0,1h0l19.12-1.12a.51.51,0,0,0,.24-.08l22.55-14.14A4.48,4.48,0,0,0,361.7,318.34Z" transform="translate(-20.87 -75.33)"/><path class="cls-21" d="M320.13,332.13h0L338,331a.5.5,0,0,0,.23-.07l22.67-13.6a4.3,4.3,0,0,0-.88-.64L337.85,330l-17.75,1.12a.5.5,0,0,0,0,1Z" transform="translate(-20.87 -75.33)"/><path class="cls-21" d="M375.25,316.88l-4.37-7-2.82.93-5.56-4.68-12.17,9.71,1.42.67h0a19.8,19.8,0,0,1,12.45-1.71Z" transform="translate(-20.87 -75.33)"/><polygon class="cls-37" points="299.13 253 297.47 245.08 295.47 245.08 295.47 260.83 299.13 260.83 299.13 253"/><polygon class="cls-16" points="364.72 248.08 379.22 274.33 389.47 285.33 387.22 291.08 371.22 282.08 358.97 265.83 364.72 248.08"/><path class="cls-16" d="M385.58,323.42,368.1,340.07a33.42,33.42,0,0,0-10.76,24.57V370h8s-.23-16.11,18.84-28.79a11.29,11.29,0,0,0,1.41-17.79Z" transform="translate(-20.87 -75.33)"/><path class="cls-15" d="M357.33,370l-9,3.42v2h18V370S357.13,369.79,357.33,370Z" transform="translate(-20.87 -75.33)"/><polygon class="cls-15" points="389.47 285.33 384.47 295.08 379.72 296.08 379.72 299.08 388.22 298.83 396.22 286.58 389.47 285.33"/><rect class="cls-9" x="235.43" y="238.97" width="60.2" height="60.2"/><rect class="cls-38" x="258.86" y="238.97" width="11.43" height="60.2"/><path class="cls-16" d="M292.6,347l-.6.19a2.19,2.19,0,0,0-1,.52.75.75,0,0,0-.15.74.66.66,0,0,0,.32.44.84.84,0,0,0,.62,0,1.3,1.3,0,0,0,.8-.55,1.16,1.16,0,0,0,.1-1Zm5.71,1a1.83,1.83,0,0,0-.86.09l-.77.21a1.11,1.11,0,0,0-.64.39.69.69,0,0,0-.11.62.58.58,0,0,0,.43.43,1.68,1.68,0,0,0,.88,0,2.6,2.6,0,0,0,1.17-.57.74.74,0,0,0,.24-.74A.49.49,0,0,0,298.32,348ZM296.46,346a.83.83,0,0,0,.63-1.18,1.12,1.12,0,0,0-.41-.66.86.86,0,0,0-.73-.07.88.88,0,0,0-.6.43,1.08,1.08,0,0,0,0,.79,1,1,0,0,0,.41.63A.9.9,0,0,0,296.46,346Zm-17.86,4.82-.6.19a2.19,2.19,0,0,0-1,.52.75.75,0,0,0-.15.74.66.66,0,0,0,.32.44.84.84,0,0,0,.62,0,1.3,1.3,0,0,0,.8-.55,1.16,1.16,0,0,0,.1-1Zm-5.37,0a1,1,0,0,0-.94-.19,1.09,1.09,0,0,0-.79.59,1.91,1.91,0,0,0,0,1.2l0,.15a2.3,2.3,0,0,0,.61,1.19,1.06,1.06,0,0,0,1,.15,1,1,0,0,0,.69-.65,2.3,2.3,0,0,0,0-1.3A2.24,2.24,0,0,0,273.23,350.78Zm28.61-7.87a1,1,0,0,0-.84-.1,1,1,0,0,0-.69.51,1.5,1.5,0,0,0-.11,1l2.16-.58A1.36,1.36,0,0,0,301.83,342.92Zm-21.42-4.58a2.43,2.43,0,0,0-2.2-.33,2.48,2.48,0,0,0-1.77,1.39,4.14,4.14,0,0,0,0,2.69,4.19,4.19,0,0,0,1.35,2.34,2.83,2.83,0,0,0,4-1.06,5.3,5.3,0,0,0-1.35-5Zm16,1.11a2.83,2.83,0,0,0,4-1.06,5.3,5.3,0,0,0-1.35-5,2.43,2.43,0,0,0-2.2-.33,2.48,2.48,0,0,0-1.77,1.39,4.14,4.14,0,0,0,0,2.69A4.19,4.19,0,0,0,296.38,339.45Zm8.19-14.21L260.94,337l6.92,25.74L311.49,351Zm-10.93,8.55a4.19,4.19,0,0,1,2.82-2,4.11,4.11,0,0,1,3.43.38,6.08,6.08,0,0,1,1.83,6.84,4.78,4.78,0,0,1-6.24,1.69,5.13,5.13,0,0,1-2-3.15A5.05,5.05,0,0,1,293.64,333.79Zm-8.75,2.4A4.87,4.87,0,0,1,288,334a7,7,0,0,1,2.82-.18l-.19,1.37a5.41,5.41,0,0,0-2.33.08,3.06,3.06,0,0,0-2,1.52,3.63,3.63,0,0,0-.17,2.7,3.83,3.83,0,0,0,1.43,2.31,2.83,2.83,0,0,0,2.4.28,7.37,7.37,0,0,0,1.48-.59l-.62-2.32-1.87.5-.34-1.26,3.31-.89,1.22,4.52a10,10,0,0,1-1.46.8,11.58,11.58,0,0,1-1.59.55,4.21,4.21,0,0,1-3.48-.36,5,5,0,0,1-2-3.12A4.71,4.71,0,0,1,284.89,336.19Zm-10,17.41a1.89,1.89,0,0,1-2.8.76l-.06,0q.22.59.26.72l.52,2-1,.27-1.85-6.89.82-.22.31.6h.05a1.64,1.64,0,0,1,1.23-1.11,1.71,1.71,0,0,1,1.56.27,3.67,3.67,0,0,1,1,3.64Zm-4.91-4.92-2.42-9,1.47-.4,2.08,7.75,3.81-1,.34,1.26ZM279.5,353l-.38-.61h0a2,2,0,0,1-.53.78,2.27,2.27,0,0,1-.85.4,1.58,1.58,0,0,1-1.2-.08,1.47,1.47,0,0,1-.68-1,1.3,1.3,0,0,1,.25-1.26,3.27,3.27,0,0,1,1.56-.86l.82-.25-.07-.25a1,1,0,0,0-.4-.62.89.89,0,0,0-.72,0,2.37,2.37,0,0,0-.67.3,5.5,5.5,0,0,0-.58.43l-.52-.64a3.65,3.65,0,0,1,.77-.54,4.05,4.05,0,0,1,.84-.34,2.14,2.14,0,0,1,1.48,0,1.61,1.61,0,0,1,.8,1.12l.86,3.21Zm-2.61-7.31a5.13,5.13,0,0,1-2-3.15,5.05,5.05,0,0,1,.18-3.72,4.2,4.2,0,0,1,2.82-2,4.11,4.11,0,0,1,3.43.38,6.08,6.08,0,0,1,1.83,6.84,4.79,4.79,0,0,1-6.24,1.69Zm7.24,6.09a3.6,3.6,0,0,1-.73.27,2.15,2.15,0,0,1-1.81-.19,3.31,3.31,0,0,1-1-3.67,2.26,2.26,0,0,1,1.53-1.1,3.3,3.3,0,0,1,1.43-.08l-.09.9a3.17,3.17,0,0,0-1.13,0q-1.24.33-.8,2a2,2,0,0,0,.63,1.12,1.11,1.11,0,0,0,1,.16,2.68,2.68,0,0,0,1.19-.68l.24.88A2.08,2.08,0,0,1,284.13,351.74Zm4.61-1.26-2.09-1.68-.43.61.44,1.63-1,.27-1.8-6.7,1-.27.88,3.27.19.93h0l.38-.87,1-1.92,1.17-.31L287.16,348l2.77,2.17Zm4.76-1.28-.38-.61h0a2,2,0,0,1-.53.78,2.27,2.27,0,0,1-.85.4,1.58,1.58,0,0,1-1.2-.08,1.47,1.47,0,0,1-.68-1,1.3,1.3,0,0,1,.25-1.26,3.27,3.27,0,0,1,1.56-.86l.82-.25-.07-.25a1,1,0,0,0-.4-.62.89.89,0,0,0-.72,0,2.37,2.37,0,0,0-.67.3,5.48,5.48,0,0,0-.58.43l-.52-.64a3.65,3.65,0,0,1,.77-.54,4,4,0,0,1,.84-.34,2.14,2.14,0,0,1,1.48,0,1.61,1.61,0,0,1,.8,1.12l.86,3.21Zm5.72.27a3.64,3.64,0,0,1-1.81,1,2.76,2.76,0,0,1-1.58.05,1.15,1.15,0,0,1-.78-.84,1.08,1.08,0,0,1,.08-.81,1.55,1.55,0,0,1,.67-.63.77.77,0,0,1-.41-.19.71.71,0,0,1-.24-.37.72.72,0,0,1,0-.49,1.8,1.8,0,0,1,.35-.49,1.37,1.37,0,0,1-.74-.36,1.76,1.76,0,0,1-.29-2.11,2.13,2.13,0,0,1,1.28-.8l.43-.09.35,0,1.65-.44.15.56-.77.37a1.36,1.36,0,0,1,.28.32,1.51,1.51,0,0,1,.2.45,1.48,1.48,0,0,1-.2,1.3,2.2,2.2,0,0,1-1.29.8,2.36,2.36,0,0,1-.42.08.59.59,0,0,0-.2.56.27.27,0,0,0,.22.2,1.37,1.37,0,0,0,.59-.07l.83-.22a1.91,1.91,0,0,1,1.29,0,1.22,1.22,0,0,1,.67.86A1.46,1.46,0,0,1,299.22,349.47Zm3.93-2.84a4.75,4.75,0,0,1-.85.31,2.39,2.39,0,0,1-1.91-.18,2.55,2.55,0,0,1-1.11-1.62,2.8,2.8,0,0,1,.09-2,2.08,2.08,0,0,1,1.42-1.1,2,2,0,0,1,1.64.17,2.27,2.27,0,0,1,1,1.43l.15.55-3.18.85a1.62,1.62,0,0,0,.66,1,1.35,1.35,0,0,0,1.1.11,3.73,3.73,0,0,0,.77-.29,4.19,4.19,0,0,0,.71-.47l.22.82A3.22,3.22,0,0,1,303.15,346.63Z" transform="translate(-20.87 -75.33)"/></svg>