<svg id="OBJECTS" xmlns="http://www.w3.org/2000/svg" viewBox="0 0 446.7 426.1"><defs><style>.cls-1{fill:#d0eff7;}.cls-2{fill:#d1d8db;}.cls-3{fill:#333;}.cls-4{fill:#fff;}.cls-5{fill:#c1c7c9;}.cls-6{fill:#edf0f2;}.cls-7{fill:#ffda73;}.cls-8{fill:#ffc951;}.cls-9{fill:#f9cbc2;}.cls-10{fill:#3acdef;}.cls-11{fill:#0d4c7c;}.cls-12{fill:#bc6c6c;}.cls-13{fill:#8c4542;}.cls-14{fill:#edae9f;}.cls-15{fill:#1d6693;}.cls-16{fill:#ebae41;}.cls-17{fill:none;stroke:#fff;stroke-linecap:round;stroke-miterlimit:10;stroke-width:0.85px;}.cls-18{fill:#4cdaff;}.cls-19{opacity:0.22;}</style></defs><title>web-design</title><polygon class="cls-1" points="81.73 11.4 50.43 392.62 428.04 370.3 388.94 45.13 81.73 11.4"/><polygon class="cls-2" points="206.72 299.42 192.64 357.36 277.1 357.36 261.5 298.15 206.72 299.42"/><polygon class="cls-3" points="54.83 63.26 409.2 59.05 397.97 312.74 60.12 312.74 54.83 63.26"/><polygon class="cls-4" points="59.56 286.1 399.1 287.31 397.97 312.74 60.12 312.74 59.56 286.1"/><polygon class="cls-4" points="63.3 71.73 401.26 67.27 387.32 277.68 69.86 274.81 63.3 71.73"/><path class="cls-5" d="M268.7,336.63a5.74,5.74,0,0,1-11.48,0,4.81,4.81,0,0,1,5.2-5.13C265.58,331.5,268.7,333.46,268.7,336.63Z" transform="translate(-29.3 -37.77)"/><polygon class="cls-5" points="203.48 312.74 269.88 329.97 265.34 312.74 203.48 312.74"/><polygon class="cls-4" points="116.25 351.9 353.17 354.31 352.46 367.19 116.01 367.19 116.25 351.9"/><polygon class="cls-4" points="63.3 71.73 401.26 67.27 400.63 76.77 63.52 78.56 63.3 71.73"/><polygon class="cls-2" points="63.52 78.56 400.63 76.77 399.89 88 63.83 88 63.52 78.56"/><circle class="cls-4" cx="69.86" cy="83.46" r="2.1"/><circle class="cls-4" cx="77.87" cy="83.46" r="2.1"/><circle class="cls-4" cx="85" cy="83.46" r="2.1"/><polygon class="cls-6" points="92.77 88 95.44 81.35 128.49 81.35 130.92 88 115.61 94.13 92.77 88"/><polygon class="cls-6" points="132.71 82.38 132.65 86.3 138.18 86.3 137.97 82.38 132.71 82.38"/><polygon class="cls-6" points="63.83 88 399.89 88 399.01 101.2 64.3 102.63 63.83 88"/><polygon class="cls-2" points="97.25 83.78 126.4 83.65 126.4 85.61 97.22 85.62 97.25 83.78"/><polygon class="cls-2" points="134.9 83.2 135.42 83.2 135.53 85.48 134.9 85.48 134.9 83.2"/><polygon class="cls-2" points="134.04 84.05 136.29 84.05 136.29 84.63 134.04 84.61 134.04 84.05"/><polygon class="cls-2" points="71.03 93.67 71.96 93.67 69.62 95.89 71.83 98 70.79 98.12 68.51 95.89 71.03 93.67"/><polygon class="cls-2" points="75.34 93.67 74.42 93.67 76.75 95.89 74.55 98 75.58 98.12 77.87 95.89 75.34 93.67"/><rect class="cls-2" x="89.35" y="93.67" width="0.94" height="0.94"/><rect class="cls-2" x="90.89" y="93.67" width="0.94" height="0.94"/><rect class="cls-2" x="92.43" y="93.67" width="0.94" height="0.94"/><rect class="cls-2" x="89.35" y="95.12" width="0.94" height="0.94"/><rect class="cls-2" x="90.89" y="95.12" width="0.94" height="0.94"/><rect class="cls-2" x="92.43" y="95.12" width="0.94" height="0.94"/><rect class="cls-2" x="89.35" y="96.47" width="0.94" height="0.94"/><rect class="cls-2" x="90.89" y="96.47" width="0.94" height="0.94"/><rect class="cls-2" x="92.43" y="96.47" width="0.94" height="0.94"/><path class="cls-2" d="M114.62,133.61a1.58,1.58,0,1,1-1.55-1.87,1.55,1.55,0,0,1,.77.2c.25.14.6-.46.21-.65a2.22,2.22,0,0,0-1-.22,2.25,2.25,0,1,0,2.22,2.59Z" transform="translate(-29.3 -37.77)"/><polygon class="cls-2" points="84.02 94.39 84.73 93.1 85.45 94.55 84.02 94.39"/><rect class="cls-2" x="100.33" y="92.01" width="285.81" height="5.02"/><polygon class="cls-2" points="362.12 70.37 361.97 74.36 367.61 74.55 367.76 70.57 362.12 70.37"/><polygon class="cls-2" points="367.5 71.61 368.44 71.64 368.37 73.48 367.31 73.45 367.5 71.61"/><polygon class="cls-4" points="362.68 70.81 362.56 73.82 365.8 73.94 365.91 70.92 362.68 70.81"/><rect class="cls-6" x="385.24" y="107.25" width="1.05" height="5.66" transform="translate(-31.14 -31.11) rotate(-0.99)"/><rect class="cls-2" x="383.6" y="108.66" width="1.05" height="4.28" transform="translate(-31.15 -31.14) rotate(-0.99)"/><rect class="cls-2" x="381.95" y="109.57" width="1.05" height="3.4" transform="translate(-31.16 -31.17) rotate(-0.99)"/><rect class="cls-2" x="380.3" y="111.08" width="1.05" height="1.91" transform="translate(-31.18 -31.19) rotate(-0.99)"/><path class="cls-2" d="M373.43,110.73a1.79,1.79,0,0,0-1.47.77l.55.57a1,1,0,0,1,1.8,0l.57-.55A1.79,1.79,0,0,0,373.43,110.73Z" transform="translate(-29.3 -37.77)"/><path class="cls-2" d="M373.45,109.56a3,3,0,0,0-2.31,1.09l.48.49a2.23,2.23,0,0,1,3.62,0l.49-.48A3,3,0,0,0,373.45,109.56Z" transform="translate(-29.3 -37.77)"/><path class="cls-2" d="M373.46,108.31a4.21,4.21,0,0,0-3.21,1.44l.55.57a3.37,3.37,0,0,1,5.25.07l.57-.55A4.21,4.21,0,0,0,373.46,108.31Z" transform="translate(-29.3 -37.77)"/><circle class="cls-2" cx="373.4" cy="112.48" r="0.57" transform="translate(-42.89 26.52) rotate(-9.67)"/><polygon class="cls-6" points="373.05 70.09 373.1 74.79 375.99 74.74 376.15 70.1 373.05 70.09"/><polygon class="cls-6" points="377.2 70.27 377.24 74.7 380.14 74.88 380.3 70.25 377.2 70.27"/><polygon class="cls-6" points="383.9 70.14 383.95 74.61 386.84 74.55 386.89 70.11 383.9 70.14"/><polygon class="cls-6" points="388.05 70.28 388.1 74.75 390.99 74.7 391.14 70.27 388.05 70.28"/><circle class="cls-6" cx="411.25" cy="111.4" r="0.35" transform="translate(-43.76 55.99) rotate(-12.78)"/><circle class="cls-6" cx="411.3" cy="110.04" r="0.35" transform="translate(-43.46 55.96) rotate(-12.78)"/><path class="cls-7" d="M416.62,315.44l7.57-114.19c-22.15-3.75-41.55-13-63.46-19.58-18.88-5.66-51-11.14-70.63-12.4-52.68-3.35-78,23.14-117.46,58.15C152.12,245.6,112,256.07,97.34,256l1.83,56.59Z" transform="translate(-29.3 -37.77)"/><path class="cls-8" d="M419.45,272.71c-18.54-5.3-30.31-19.58-41.1-35.6-28.69-42.59-79.59-59.68-129.26-49.89-12.77,2.51-25.5,6.82-35.61,15-23.71,19.19-26.77,52.48-48.15,73.32-9.46,9.22-21.68,14.75-33.67,19.88-8,3.43-16.41,9.2-20.32,17.26l305.27,2.76Z" transform="translate(-29.3 -37.77)"/><path class="cls-9" d="M221.11,269.5s-36.34-.77-57.78-52.61L157,218.07s7.13,61.17,60.5,78.63Z" transform="translate(-29.3 -37.77)"/><path class="cls-9" d="M168.45,217.68c-4,2.2-8.85-4.39-5.88-7.41,3.56-3.46,3.55,3,6.46,1.49s.17-6.5-2-7.29c-3.39-1.24-3.84-1.06-6.14,1-.46-5.93-2.86-14.12-5-10.88-1.69,2.51.85,9.32,1.55,12.37-.71-1.21-4.09-9-6.2-6.79-1.36,1.74,3.16,10.13,3.87,11.33l0,0c-.58-.44-1.06-.77-1.31-.95-1.67-1-5.27-4.33-5.44-1s5.71,6.64,8.59,8.49a4.6,4.6,0,0,0,2.09,3.11c3.38-2.6,4.06.29,7.39,1.2,2.85,1,5.16-.07,6-2.89C174,213,165.82,211.3,168.45,217.68Z" transform="translate(-29.3 -37.77)"/><path class="cls-4" d="M282.89,252.85c2.28.74,19.46,31.81,29.11,61.65l-105.56-1s4.36-30.47,18-54.33Z" transform="translate(-29.3 -37.77)"/><path class="cls-10" d="M297.17,277.85q-1-2.13-2-4.14c-12.41,0-24.82.12-37.24-.32-13.05-.45-26.19-2-39.27-2.54-.54,1.26-1.06,2.51-1.56,3.77,13,2,26.63,2.29,39.65,2.85C270.15,278,283.71,278.38,297.17,277.85Z" transform="translate(-29.3 -37.77)"/><path class="cls-10" d="M304.38,294q-.7-1.68-1.41-3.34-22.49,0-45-1c-10-.45-20-1.06-30-1.78-4.84-.35-10-1.12-15.17-1.43q-.53,1.69-1,3.32C242.74,291.93,273.43,293.9,304.38,294Z" transform="translate(-29.3 -37.77)"/><path class="cls-10" d="M260.06,302.19c-17.13.43-34.49.24-51.68,1.17-.27,1.22-.51,2.36-.72,3.39,17.46.12,35-1,52.4-1.38,16.17-.4,32.35-.88,48.52-.69q-.59-1.59-1.19-3.16C291.62,301.31,275.84,301.8,260.06,302.19Z" transform="translate(-29.3 -37.77)"/><path class="cls-11" d="M289.17,160.93c2.29-2.5,6.45-3.41,9.17-1.39,1.76,1.31,2.69,3.58,4.6,4.68,1.63.94,3.66.84,5.41,1.55a5.9,5.9,0,0,1,3.54,6.5,6.68,6.68,0,0,1-3.57,4.28,12.51,12.51,0,0,1-5.58,1.17c-5,.05-9.52-2.33-13.5-5.38C285.45,169.43,286.09,164.29,289.17,160.93Z" transform="translate(-29.3 -37.77)"/><path class="cls-10" d="M282.89,169.1s2.72-3.68,4.38-3.05,5.6,7.7,5.6,8.59c0,1.84-3.64,3.09-3.64,3.09Z" transform="translate(-29.3 -37.77)"/><path class="cls-9" d="M230.32,213.07s-12.71-11.45-17.23-6.93,4.43,13.56,17.23,10Z" transform="translate(-29.3 -37.77)"/><path class="cls-11" d="M225.33,191.17s2.23-25.06,38.45-28.29S300.33,211,300.33,211s-1,21.27-15.49,22.56l-27.11-38.31Z" transform="translate(-29.3 -37.77)"/><path class="cls-9" d="M222.63,219.11s-6.88-46.74,29.86-44.38,36.74,35.43,36.74,35.43S261.26,248.2,222.63,219.11Z" transform="translate(-29.3 -37.77)"/><path class="cls-9" d="M289.24,213.07s12.71-11.45,17.23-6.93-4.43,13.56-17.23,10Z" transform="translate(-29.3 -37.77)"/><path class="cls-11" d="M222.63,219.11s10.29,8.4,21.88,5.14,23.81,11,44.73-14.09h3.63s1.64,69.34-35.68,78.84-70.29-8.32-43.86-44.85A38.47,38.47,0,0,0,222.63,219.11Z" transform="translate(-29.3 -37.77)"/><path class="cls-11" d="M233.31,179.7a9.25,9.25,0,0,1,6.89-.13c2.25.72,4.32,1.89,6.51,2.75a24.42,24.42,0,0,0,14.39,1c3.14-.74,6.2-2.12,9.42-2,2.83.07,5.5,1.26,8.08,2.43l8.67,3.93a39.35,39.35,0,0,0-45.75-15.39c-3.41,1.19-6.78,3-8.87,5.9" transform="translate(-29.3 -37.77)"/><polygon class="cls-9" points="219.53 186.12 219.53 168.52 215.01 178.13 213.21 183.5 213.48 188.3 215.28 189.66 217.51 188.63 219.53 186.12"/><path class="cls-12" d="M250.19,204.33c-1.42,2.93-2.8,5.87-4,8.89-.87,2.22-2.14,4.26-2.85,6.55-.66,2.12-1.07,5.37,1.24,6.67a.69.69,0,0,0,.4.12,6.26,6.26,0,0,0,1-.43,30.1,30.1,0,0,0,2.45-2.42c.23-.21.63-.39.8-.13a.55.55,0,0,1-.06.52,9.32,9.32,0,0,1-2.5,3.05,3.34,3.34,0,0,1-2.51.9,2.71,2.71,0,0,1-1.93-1.72c-1.28-3.1.26-6.62,1.28-9.55A101.92,101.92,0,0,1,249.41,204C249.66,203.47,250.43,203.84,250.19,204.33Z" transform="translate(-29.3 -37.77)"/><path class="cls-3" d="M261.55,207.52a1.62,1.62,0,0,1-1.11,2.09c-.93.3-1.46-.32-1.78-1.17a1.56,1.56,0,0,1,1-2.07C260.64,206.07,261.23,206.66,261.55,207.52Z" transform="translate(-29.3 -37.77)"/><path class="cls-3" d="M241.2,209a1.84,1.84,0,0,1-2.49.08c-.74-.63-.44-1.35.19-2a1.77,1.77,0,0,1,2.44-.12C242.08,207.53,241.83,208.3,241.2,209Z" transform="translate(-29.3 -37.77)"/><path class="cls-11" d="M265.57,202.41a20,20,0,0,1-3.16-1.35c-1-.51-2.22-.9-2.4-2.08a1.19,1.19,0,0,1,.62-1.35c1.33-.48,2.11.17,3.23.84a20.62,20.62,0,0,1,2.91,2.1c.89.77-.1,2.19-1.19,1.84Z" transform="translate(-29.3 -37.77)"/><path class="cls-11" d="M239.26,197.91a12.77,12.77,0,0,1,4.74-.45,1.55,1.55,0,0,1,0,3,12.7,12.7,0,0,1-4.74-.35,1.13,1.13,0,0,1,0-2.21Z" transform="translate(-29.3 -37.77)"/><path class="cls-13" d="M253.75,238.8a6.57,6.57,0,0,0,3.45-5.33,2.3,2.3,0,0,0-.14-.95,2.46,2.46,0,0,0-2.65-1.11,25.64,25.64,0,0,0-3,.92,7.05,7.05,0,0,1-3.64,0c-.69-.19-1.36-.48-2.07-.6a2.42,2.42,0,0,0-2,.45,2.36,2.36,0,0,0-.59,1.86C243.28,239.44,249.29,241.31,253.75,238.8Z" transform="translate(-29.3 -37.77)"/><path class="cls-14" d="M266.93,217.4c-.17,1.07-2.1,1.65-4.31,1.3s-3.87-1.51-3.7-2.58,3.1-1.49,5.32-1.14S267.1,216.33,266.93,217.4Z" transform="translate(-29.3 -37.77)"/><path class="cls-14" d="M231.09,216.31c.16-1.07,2.08-1.68,4.3-1.36s3.89,1.46,3.73,2.53-3.08,1.54-5.3,1.22S230.94,217.39,231.09,216.31Z" transform="translate(-29.3 -37.77)"/><path class="cls-15" d="M240.93,177.76c3-2.55,5.65-5.59,9-7.6,3.67-2.17,7.79-2.86,11.82-4,.2-.06.11-.34-.08-.31-8.95,1.33-14.84,5.3-21.12,11.57-.23.23.11.56.35.35Z" transform="translate(-29.3 -37.77)"/><path class="cls-15" d="M249.74,178.77c7.52-7,15.82-10.56,25.77-12.58a.13.13,0,0,0,0-.25c-9.83.42-19.37,5.46-26.05,12.52a.22.22,0,0,0,.32.32Z" transform="translate(-29.3 -37.77)"/><path class="cls-15" d="M260.17,181.48c6.56-5.12,13.56-7.87,21.36-10.5a.18.18,0,0,0-.1-.36c-7.94,1.22-15.43,5.55-21.57,10.56-.21.17.09.47.3.3Z" transform="translate(-29.3 -37.77)"/><path class="cls-15" d="M276.2,180.47c3.07-1.49,6.82-3.65,8.75-6.56.15-.23-.16-.57-.39-.39-1.37,1-2.51,2.36-3.87,3.42a30.32,30.32,0,0,1-4.78,3c-.34.17,0,.67.3.51Z" transform="translate(-29.3 -37.77)"/><path class="cls-15" d="M285.12,186.3c2.33-1.44,4.89-4,5.21-6.89,0-.27-.38-.35-.5-.13a34.82,34.82,0,0,1-1.77,3.42,12.55,12.55,0,0,1-3.21,3.16c-.27.18,0,.62.26.44Z" transform="translate(-29.3 -37.77)"/><path class="cls-15" d="M289.42,194.18c1.78-2,4-4.63,4.5-7.32a.22.22,0,0,0-.4-.17c-.75,1.09-1.22,2.37-1.89,3.52a26.3,26.3,0,0,1-2.59,3.59c-.22.26.15.64.38.38Z" transform="translate(-29.3 -37.77)"/><path class="cls-15" d="M294,203.51a14.51,14.51,0,0,0,2.88-7c0-.25-.36-.29-.43-.06a20.71,20.71,0,0,1-2.85,6.79c-.17.24.23.47.4.23Z" transform="translate(-29.3 -37.77)"/><path class="cls-15" d="M225.24,229.65c0,.61-.05,1.23-.06,1.84a5.35,5.35,0,0,0,.09,1.66.29.29,0,0,0,.55,0,5.36,5.36,0,0,0,.09-1.66c0-.62,0-1.23-.06-1.84a.31.31,0,0,0-.61,0Z" transform="translate(-29.3 -37.77)"/><path class="cls-15" d="M225.21,240.22a12.17,12.17,0,0,1-1,3.36c-.09.23.24.39.4.23a5.59,5.59,0,0,0,1.3-3.6c0-.43-.63-.43-.67,0Z" transform="translate(-29.3 -37.77)"/><path class="cls-15" d="M231.92,241.36a10.13,10.13,0,0,0-.09,3.22.29.29,0,0,0,.56,0,10.12,10.12,0,0,0-.09-3.22.2.2,0,0,0-.39,0Z" transform="translate(-29.3 -37.77)"/><path class="cls-15" d="M252.85,245.65a6.43,6.43,0,0,0,.52,2.38.23.23,0,0,0,.42-.05,6.4,6.4,0,0,0-.25-2.42c-.07-.38-.73-.3-.68.09Z" transform="translate(-29.3 -37.77)"/><path class="cls-15" d="M260.37,242.21a5.54,5.54,0,0,0,.08,1.77.23.23,0,0,0,.43,0,5.56,5.56,0,0,0,.08-1.77.29.29,0,0,0-.59,0Z" transform="translate(-29.3 -37.77)"/><path class="cls-15" d="M263.16,232.32a11.65,11.65,0,0,0,.8,2.28.21.21,0,0,0,.39-.11,11.67,11.67,0,0,0-.43-2.38.39.39,0,0,0-.75.21Z" transform="translate(-29.3 -37.77)"/><path class="cls-15" d="M272,233.83a5.11,5.11,0,0,0-.19,3.71.36.36,0,0,0,.65-.08,9.54,9.54,0,0,0,.06-1.7c0-.61.12-1.22.19-1.83.05-.44-.58-.45-.72-.1Z" transform="translate(-29.3 -37.77)"/><path class="cls-15" d="M279.46,230.5a10.92,10.92,0,0,0,.36,3.51c.11.26.52.33.6,0a10.7,10.7,0,0,0-.16-3.51c-.06-.5-.83-.53-.8,0Z" transform="translate(-29.3 -37.77)"/><path class="cls-15" d="M287.23,223.2a4.56,4.56,0,0,1,.86,1.65c.14.57.07,1.16.18,1.73.06.3.43.27.58.08.9-1.22,0-3.2-1.08-4-.31-.23-.78.23-.54.54Z" transform="translate(-29.3 -37.77)"/><path class="cls-15" d="M216.69,248.48a7.16,7.16,0,0,0-1.22,2,2.82,2.82,0,0,0-.23,2.16.36.36,0,0,0,.61,0,5.89,5.89,0,0,0,.45-1.69,5.92,5.92,0,0,1,1-1.9c.33-.42-.24-1-.6-.6Z" transform="translate(-29.3 -37.77)"/><path class="cls-15" d="M232.65,230.52a9.31,9.31,0,0,1-.63,1.25,3.75,3.75,0,0,0-.57,1.05.44.44,0,0,0,.64.49,5,5,0,0,0,1.45-2.54c.2-.57-.66-.77-.88-.24Z" transform="translate(-29.3 -37.77)"/><path class="cls-15" d="M252.6,227.11a4.33,4.33,0,0,0-.06,1.81.39.39,0,0,0,.71.09,4.49,4.49,0,0,0,.21-1.9c0-.56-.8-.54-.86,0Z" transform="translate(-29.3 -37.77)"/><path class="cls-15" d="M257.57,227.68a3.93,3.93,0,0,0,.14,1.68.4.4,0,0,0,.69,0,4,4,0,0,0,.14-1.68.48.48,0,0,0-1,0Z" transform="translate(-29.3 -37.77)"/><path class="cls-15" d="M241,228.3c-.45.47-1.08,1-1,1.74a.34.34,0,0,0,.42.24c.57-.23.8-.9,1.18-1.36s-.22-1-.62-.62Z" transform="translate(-29.3 -37.77)"/><path class="cls-15" d="M238,234.87c-.3.53-.85,1.14-.71,1.77a.29.29,0,0,0,.36.2c.61-.23.82-1,1.1-1.54s-.47-.92-.75-.44Z" transform="translate(-29.3 -37.77)"/><path class="cls-15" d="M247.84,229.09a2.4,2.4,0,0,0-.3.89.49.49,0,0,0,.21.52.38.38,0,0,0,.35,0,.45.45,0,0,0,.32-.32,2.45,2.45,0,0,0,.14-.94.39.39,0,0,0-.72-.2Z" transform="translate(-29.3 -37.77)"/><path class="cls-15" d="M226,249.89a5.67,5.67,0,0,0-.67,1.42.31.31,0,0,0,.51.3,5.78,5.78,0,0,0,1-1.23c.35-.5-.52-1-.83-.49Z" transform="translate(-29.3 -37.77)"/><path class="cls-15" d="M237.13,249.84a5.16,5.16,0,0,0-1,2.36.24.24,0,0,0,.36.21c.71-.45,1-1.45,1.36-2.17.22-.45-.43-.85-.68-.4Z" transform="translate(-29.3 -37.77)"/><path class="cls-15" d="M247,250.93a6.79,6.79,0,0,1-.32,1.5c-.12.37-.32.67-.2,1.06a.19.19,0,0,0,.23.13c.84-.34.92-1.9,1-2.69,0-.45-.65-.44-.7,0Z" transform="translate(-29.3 -37.77)"/><path class="cls-15" d="M242.08,243.29c0,.75-.31,1.44-.36,2.17,0,.3.37.34.52.14a4.28,4.28,0,0,0,.55-2.31c0-.45-.68-.45-.7,0Z" transform="translate(-29.3 -37.77)"/><path class="cls-15" d="M266.78,244.55a3,3,0,0,0-.35,2.21.33.33,0,0,0,.56,0,2.17,2.17,0,0,0,.25-.93,6.61,6.61,0,0,1,.31-1.06c.18-.49-.57-.67-.77-.21Z" transform="translate(-29.3 -37.77)"/><path class="cls-15" d="M277.55,242.61c0,.46-.07.91-.1,1.37s-.07.61.21.87a.27.27,0,0,0,.33,0c.59-.44.37-1.62.4-2.28s-.81-.54-.84,0Z" transform="translate(-29.3 -37.77)"/><path class="cls-15" d="M285.56,238.85a8.3,8.3,0,0,1-.37,1.54,2.46,2.46,0,0,0-.28,1.29.31.31,0,0,0,.45.18c.87-.44.95-2,1-2.91,0-.45-.74-.57-.8-.11Z" transform="translate(-29.3 -37.77)"/><path class="cls-15" d="M210.12,260.43c-.3.49-.58,1-.84,1.49a1.87,1.87,0,0,0-.37,1.28.37.37,0,0,0,.54.22c.46-.23.6-.75.8-1.2s.42-1,.62-1.48-.52-.71-.75-.32Z" transform="translate(-29.3 -37.77)"/><path class="cls-15" d="M220.16,257.54c0,.66-.25,1.3-.2,1.94,0,.3.43.56.67.28a2.87,2.87,0,0,0,.32-2.32c-.07-.44-.8-.34-.78.11Z" transform="translate(-29.3 -37.77)"/><path class="cls-15" d="M229.94,258.31a5.55,5.55,0,0,0-.69,2.09.35.35,0,0,0,.59.25,5.19,5.19,0,0,0,1-1.82c.26-.6-.62-1.12-.88-.52Z" transform="translate(-29.3 -37.77)"/><path class="cls-15" d="M213.66,267.45a7.42,7.42,0,0,1-.49,1.41,2.43,2.43,0,0,0-.41,1.12.34.34,0,0,0,.51.29c.78-.38,1-1.84,1.19-2.61.1-.51-.66-.74-.79-.22Z" transform="translate(-29.3 -37.77)"/><path class="cls-15" d="M224.7,268.93a6.18,6.18,0,0,0-.14,2,.27.27,0,0,0,.45.12,4,4,0,0,0,.52-2.14c0-.53-.79-.53-.83,0Z" transform="translate(-29.3 -37.77)"/><path class="cls-15" d="M216.67,277.59a4.09,4.09,0,0,1-.17,1.17,2.58,2.58,0,0,0-.22,1,.41.41,0,0,0,.6.35c.79-.46.83-1.7.74-2.51-.06-.6-1-.63-1,0Z" transform="translate(-29.3 -37.77)"/><path class="cls-15" d="M240,260a5.28,5.28,0,0,0,.17,2.31.29.29,0,0,0,.49,0,5.3,5.3,0,0,0,.17-2.31.42.42,0,0,0-.84,0Z" transform="translate(-29.3 -37.77)"/><path class="cls-15" d="M233.25,271.21a3.52,3.52,0,0,1-.16,1.23,1.52,1.52,0,0,0-.14,1,.35.35,0,0,0,.42.24c.89-.22,1-1.68.91-2.41s-1.05-.66-1,0Z" transform="translate(-29.3 -37.77)"/><path class="cls-15" d="M229.11,283.29c0,.56-.36,1.62.14,2a.28.28,0,0,0,.32,0c.59-.35.4-1.46.43-2.05s-.85-.57-.89,0Z" transform="translate(-29.3 -37.77)"/><path class="cls-15" d="M243.49,281.46a3.75,3.75,0,0,0,.09,1.79.39.39,0,0,0,.67,0,3.78,3.78,0,0,0,.09-1.79.43.43,0,0,0-.86,0Z" transform="translate(-29.3 -37.77)"/><path class="cls-15" d="M248.08,267.07c.16.65.1,1.3.22,1.94a.31.31,0,0,0,.59,0,3.81,3.81,0,0,0-.24-2.1.3.3,0,0,0-.58.16Z" transform="translate(-29.3 -37.77)"/><path class="cls-15" d="M256.57,256.51a6.57,6.57,0,0,0,0,2.14.33.33,0,0,0,.63,0,6.74,6.74,0,0,0,.26-2.14c0-.59-.89-.59-.92,0Z" transform="translate(-29.3 -37.77)"/><path class="cls-15" d="M270.64,251.84c0,.44,0,.87-.07,1.31a3.14,3.14,0,0,0,0,1.16.29.29,0,0,0,.53.07,5.16,5.16,0,0,0,.34-2.54.4.4,0,0,0-.8,0Z" transform="translate(-29.3 -37.77)"/><path class="cls-15" d="M263.88,263.69a4.24,4.24,0,0,0,.15,2.11.34.34,0,0,0,.58,0,4.24,4.24,0,0,0,.15-2.11.44.44,0,0,0-.88,0Z" transform="translate(-29.3 -37.77)"/><path class="cls-15" d="M280.46,253.67c-.15.83-.55,2.21-.08,3a.27.27,0,0,0,.45,0,2.27,2.27,0,0,0,.23-1.16,15.9,15.9,0,0,1,.16-1.6c.08-.5-.67-.72-.77-.21Z" transform="translate(-29.3 -37.77)"/><path class="cls-15" d="M271.48,267.79a9.17,9.17,0,0,1-.2,1.23,3.13,3.13,0,0,0-.2,1.05c0,.33.46.6.72.3a4.58,4.58,0,0,0,.63-2.58c0-.62-.89-.6-1,0Z" transform="translate(-29.3 -37.77)"/><path class="cls-15" d="M255.59,276.79c-.16.46-.3.92-.44,1.39a1.7,1.7,0,0,0-.08,1.2.34.34,0,0,0,.56.15,1.82,1.82,0,0,0,.46-1.09c.1-.47.22-.94.35-1.41a.44.44,0,0,0-.85-.23Z" transform="translate(-29.3 -37.77)"/><path class="cls-15" d="M293.92,222.16a5.79,5.79,0,0,0,2.22-1.37c.46-.46,1.3-1.32,1.11-2a.22.22,0,0,0-.27-.15c-.61.21-1,1.05-1.38,1.51a9.76,9.76,0,0,1-1.88,1.59c-.23.15-.09.56.19.46Z" transform="translate(-29.3 -37.77)"/><path class="cls-15" d="M291.76,165.76a16.34,16.34,0,0,1,2.92-1.78c1.15-.52,2.4-.72,3.56-1.19a.3.3,0,0,0-.08-.59c-2.42-.17-5.07,1.53-6.68,3.2-.18.18.06.53.28.37Z" transform="translate(-29.3 -37.77)"/><path class="cls-15" d="M292.12,168.06c3.07-.22,7-.54,9.59-2.34a.22.22,0,0,0-.17-.4,43,43,0,0,0-4.36,1.23,32.28,32.28,0,0,1-5.07.85c-.41,0-.42.68,0,.65Z" transform="translate(-29.3 -37.77)"/><path class="cls-15" d="M292.93,171.08c4.37.72,9.4.75,13.46-1.27.31-.15.08-.59-.22-.53-4.46.88-8.46,1.75-13,1.1-.45-.06-.66.62-.19.7Z" transform="translate(-29.3 -37.77)"/><path class="cls-9" d="M300.54,285.12l-19.24,8.49,6.82,20.66,23.88.24S306.48,295.65,300.54,285.12Z" transform="translate(-29.3 -37.77)"/><rect class="cls-16" x="314.35" y="160.73" width="46.99" height="42.21"/><rect class="cls-4" x="311.61" y="156.94" width="46.99" height="42.21"/><rect class="cls-6" x="317.44" y="167.07" width="35.73" height="3.05"/><rect class="cls-6" x="317.44" y="174.48" width="35.73" height="3.05"/><rect class="cls-6" x="317.52" y="181.82" width="35.73" height="3.05"/><circle class="cls-6" cx="349.98" cy="191.21" r="3.25"/><rect class="cls-16" x="315.72" y="220.82" width="46.99" height="42.21"/><rect class="cls-4" x="312.98" y="217.03" width="46.99" height="42.21"/><rect class="cls-6" x="317.44" y="225.05" width="35.73" height="3.05"/><rect class="cls-6" x="317.44" y="232.46" width="35.73" height="3.05"/><rect class="cls-6" x="317.52" y="239.79" width="35.73" height="3.05"/><circle class="cls-6" cx="349.98" cy="249.19" r="3.25"/><polygon class="cls-8" points="77.68 112.44 77.68 124.35 106.59 124.91 106.59 110.96 77.68 112.44"/><rect class="cls-2" x="174.53" y="110.95" width="16.18" height="2.84"/><rect class="cls-2" x="199.9" y="110.95" width="16.18" height="2.84"/><rect class="cls-2" x="223.99" y="110.95" width="16.18" height="2.84"/><rect class="cls-2" x="247.41" y="110.95" width="16.18" height="2.84"/><rect class="cls-2" x="271.19" y="110.95" width="16.18" height="2.84"/><path id="_Path_" data-name="&lt;Path&gt;" class="cls-8" d="M372.78,148.89v-.4a.21.21,0,0,1,.22-.24h.56v-.85h-.77a1,1,0,0,0-1,1v.45h-.49v1h.5v2.48h1v-2.48h.74l0-.39.05-.6Z" transform="translate(-29.3 -37.77)"/><path class="cls-8" d="M402.79,150.41a2.31,2.31,0,0,0,.05-.5c0-.06,0-.12,0-.18a2.35,2.35,0,0,0-2.36-2.16,2.42,2.42,0,0,0-.4,0,1.38,1.38,0,0,0-.73-.21,1.36,1.36,0,0,0-1.37,1.35,1.33,1.33,0,0,0,.19.68,2.27,2.27,0,0,0,0,.26c0,.07,0,.14,0,.21a2.35,2.35,0,0,0,2.36,2.33,2.43,2.43,0,0,0,.43,0,1.38,1.38,0,0,0,.65.16,1.36,1.36,0,0,0,1.37-1.35A1.33,1.33,0,0,0,402.79,150.41Zm-1.1.61a1.08,1.08,0,0,1-.48.36,2,2,0,0,1-.74.13,1.83,1.83,0,0,1-.85-.18,1.1,1.1,0,0,1-.39-.34.74.74,0,0,1-.15-.42.29.29,0,0,1,.1-.22.35.35,0,0,1,.25-.09.32.32,0,0,1,.21.07.53.53,0,0,1,.14.2,1.19,1.19,0,0,0,.14.24.53.53,0,0,0,.2.15.83.83,0,0,0,.34.06.84.84,0,0,0,.48-.12.34.34,0,0,0,.18-.29.28.28,0,0,0-.09-.22.66.66,0,0,0-.25-.14l-.43-.11a3.52,3.52,0,0,1-.62-.18,1,1,0,0,1-.41-.29.66.66,0,0,1-.08-.13.77.77,0,0,1-.07-.34.75.75,0,0,1,.16-.47,1,1,0,0,1,.46-.31,2,2,0,0,1,.69-.11,1.9,1.9,0,0,1,.55.07,1.23,1.23,0,0,1,.39.19.83.83,0,0,1,.23.25.55.55,0,0,1,.07.27.32.32,0,0,1-.1.23.33.33,0,0,1-.24.1.3.3,0,0,1-.2-.06.77.77,0,0,1-.14-.19.78.78,0,0,0-.21-.26.68.68,0,0,0-.4-.09.75.75,0,0,0-.41.1.27.27,0,0,0-.15.22.2.2,0,0,0,0,.14.42.42,0,0,0,.14.11l.19.07h0l.29.07.52.14a1.68,1.68,0,0,1,.4.18.79.79,0,0,1,.27.28.82.82,0,0,1,.1.41A.88.88,0,0,1,401.7,151Z" transform="translate(-29.3 -37.77)"/><path id="_Path_2" data-name="&lt;Path&gt;" class="cls-8" d="M409.93,147.4a1.92,1.92,0,0,0-2.1,1.78,1.61,1.61,0,0,0,.05.43.94.94,0,0,0,.55.66.1.1,0,0,0,.15-.07l.06-.23a.14.14,0,0,0,0-.16.75.75,0,0,1-.16-.29,1,1,0,0,1,0-.26,1.37,1.37,0,0,1,1.45-1.36,1.09,1.09,0,0,1,1.22,1.09,2.5,2.5,0,0,1-.05.53c-.12.57-.45,1-.88,1a.45.45,0,0,1-.46-.55c0-.17.1-.35.16-.52a1.82,1.82,0,0,0,.1-.49.39.39,0,0,0-.4-.43c-.31,0-.57.31-.57.74a1.17,1.17,0,0,0,0,.21,1,1,0,0,0,.07.24l-.38,1.55a3.09,3.09,0,0,0,0,1.08,0,0,0,0,0,.07,0,3,3,0,0,0,.53-.93l.21-.78a.85.85,0,0,0,.72.35,1.59,1.59,0,0,0,1.52-1.36,2.63,2.63,0,0,0,.06-.59A1.74,1.74,0,0,0,409.93,147.4Z" transform="translate(-29.3 -37.77)"/><path class="cls-8" d="M392.63,147.4h-3a1,1,0,0,0-1,1v3a1,1,0,0,0,1,1h3a1,1,0,0,0,1-1v-3A1,1,0,0,0,392.63,147.4Zm.28.57H393v.84h-.84V148Zm-2.5,1.4a.87.87,0,0,1,1.41,0l.05.08a.86.86,0,0,1,.11.43.87.87,0,0,1-1.75,0,.86.86,0,0,1,.11-.43Zm2.7,2a.48.48,0,0,1-.48.48h-3a.48.48,0,0,1-.48-.48v-2h.74l0,.14a1.34,1.34,0,0,0-.05.37,1.36,1.36,0,0,0,2.71,0,1.34,1.34,0,0,0-.05-.37l0-.14h.74v2Z" transform="translate(-29.3 -37.77)"/><path id="_Path_3" data-name="&lt;Path&gt;" class="cls-8" d="M384.24,148.37a2,2,0,0,1-.58.16,1,1,0,0,0,.45-.55,2.05,2.05,0,0,1-.65.24,1,1,0,0,0-.74-.32,1,1,0,0,0-1,1.23,2.9,2.9,0,0,1-2.1-1,1,1,0,0,0-.14.5,1,1,0,0,0,.45.83,1,1,0,0,1-.46-.13h0a1,1,0,0,0,.07.36,1,1,0,0,0,.75.62,1.05,1.05,0,0,1-.27,0l-.19,0a1,1,0,0,0,1,.7,2.06,2.06,0,0,1-1.26.43h-.24a2.92,2.92,0,0,0,1.56.45,2.83,2.83,0,0,0,2.82-2.24,2.75,2.75,0,0,0,.07-.6s0-.09,0-.13A2,2,0,0,0,384.24,148.37Z" transform="translate(-29.3 -37.77)"/><polygon class="cls-10" points="84.37 182.4 86.3 182.4 81.28 187.03 85.94 191.47 83.87 191.67 79.12 187.03 84.37 182.4"/><polygon class="cls-10" points="376.99 182.14 374.95 182.14 380.09 187.03 375.24 191.66 377.52 191.93 382.54 187.03 376.99 182.14"/><polygon class="cls-8" points="375.41 359.42 372.08 304.34 421.73 303.62 419.17 358.78 375.41 359.42"/><path class="cls-8" d="M445.44,358.3s18.9-20.36,28.88-9.35-28.54,33-28.54,33l-.13-8.93s21.46-13.49,21.67-20.4-20,11.32-20,11.32Z" transform="translate(-29.3 -37.77)"/><path class="cls-16" d="M401.39,342.1l8.79-.13s-1,49.32,22.34,54.67l-27.81.54Z" transform="translate(-29.3 -37.77)"/><line class="cls-17" x1="408.56" y1="303.62" x2="409.94" y2="333.17"/><polygon class="cls-4" points="402.99 331.81 416.13 331.81 415.59 346.45 403.25 345.95 402.99 331.81"/><path class="cls-18" d="M441,374.58a4,4,0,0,1-4.14-.26,1.77,1.77,0,0,0-1.12,2.24c.31.93,2.87,3,2.87,3s2.8-1.75,3.22-2.63A1.77,1.77,0,0,0,441,374.58Z" transform="translate(-29.3 -37.77)"/><path class="cls-16" d="M61.17,299.84a17.44,17.44,0,0,1,.66-5.71c1-3,3.48-5.26,5.44-7.76a27.69,27.69,0,0,0,4.8-24.11c-2.09-7.5-7.42-14.35-6.87-22.12.56-8,7.38-14.9,6.8-22.92-.22-3-1.47-6.18-.23-8.94,1.79-4,8-4.12,11.14-1.1s5.83,7.26,5.66,11.63-.78,9.07,0,13.37c1.2,6.59,3.77,12.08,7.19,17.84s5.32,13.67,1,18.79c-4.89,5.78-8.61,8.89-6.51,17.08,3.27,12.81,12,23,14,36.23a16.83,16.83,0,0,1-.11,7.18,19.83,19.83,0,0,1-2.91,5.44c-4.48,6.6-10.28,20.38-17.6,24-6,3-10.83-.79-12.75-6.19C65,336.14,61.23,317.23,61.17,299.84Z" transform="translate(-29.3 -37.77)"/><path class="cls-8" d="M59.9,354.93c-7.49-6.39-15.71-14.36-15.71-25,0-8.38,5.33-16.18,4.23-24.47-1.13-8.54-8.47-13.95-12.61-21.19-3-5.33-4.33-11.67-5.4-17.9-.89-5.15-1.67-10.5-.58-15.6s4.54-9.9,9.12-10.56c5.94-.86,10.8,5.1,14.22,10.69,6.7,10.93,12.46,23.18,13.27,36.47.44,7.25-.54,14.92,2.2,21.48,1.68,4,4.57,7.13,7.1,10.51a34.59,34.59,0,0,1,6.76,14.39c1,5.38,0,11.41-3.3,15.41a15.46,15.46,0,0,1-10,5.2,18,18,0,0,1-11.4-2.08" transform="translate(-29.3 -37.77)"/><path class="cls-16" d="M37.73,246c9,20.15,16.17,41.62,22.07,62.88,2.57,9.25,4.92,18.57,6.7,28,1.05,5.57,2.61,11.77,2,17.49-.1.88,1.26,1,1.49.2,1.52-5.11.16-11.21-.73-16.32a300,300,0,0,0-7-29.32c-6.12-21.85-13.09-43.38-22.8-63.94-.56-1.18-2.26-.15-1.73,1Z" transform="translate(-29.3 -37.77)"/><path class="cls-8" d="M77.67,213.77c1.18,18.67,2.1,37.3,2.33,56,.11,9,.12,18.13-.23,27.17-.23,6-.69,12-1,18.07-.42,8-1.71,16.53-.87,24.51.05.5.8.69.94.13,1.72-7.25,1.57-15.18,2.14-22.6.5-6.55,1.06-13.1,1.35-19.66.41-9.2.33-18.42.34-27.63,0-9-.06-18-.35-27C82,233,80.21,223.37,78.86,213.6c-.09-.67-1.23-.52-1.19.16Z" transform="translate(-29.3 -37.77)"/><path class="cls-18" d="M42.15,347.93l67.34-3.35s-.57,46.94-8,65.95H54.13S43.29,383.88,42.15,347.93Z" transform="translate(-29.3 -37.77)"/><path class="cls-10" d="M42.15,347.93s-1.47,37.55,12,62.59h25.6S52.55,398,54,347.93Z" transform="translate(-29.3 -37.77)"/><path class="cls-16" d="M54.07,333.8a1.55,1.55,0,1,0-2.27.92,1.56,1.56,0,0,0,2.27-.92Z" transform="translate(-29.3 -37.77)"/><path class="cls-16" d="M59.2,340.3l.29,0a1.14,1.14,0,0,0,0-2.29l-.29,0c-1.51-.14-1.51,2.49,0,2.34Z" transform="translate(-29.3 -37.77)"/><path class="cls-16" d="M56.38,326.21l.22-.12a1.27,1.27,0,0,0,0-2.18l-.22-.12a1.4,1.4,0,1,0,0,2.42Z" transform="translate(-29.3 -37.77)"/><path class="cls-16" d="M56.11,313.51l.29,0a1.28,1.28,0,1,0,0-2.56l-.29,0a1.31,1.31,0,1,0,0,2.63Z" transform="translate(-29.3 -37.77)"/><path class="cls-16" d="M47.28,285.42a1.48,1.48,0,0,0,0-3,1.48,1.48,0,0,0,0,3Z" transform="translate(-29.3 -37.77)"/><path class="cls-16" d="M37.62,276.43l0-.29a1.34,1.34,0,0,0-2.68,0l0,.29a1.38,1.38,0,0,0,2.76,0Z" transform="translate(-29.3 -37.77)"/><path class="cls-16" d="M41.13,267.23l-.07-.28a1.34,1.34,0,0,0-2.57,0l-.07.28a1.4,1.4,0,1,0,2.71,0Z" transform="translate(-29.3 -37.77)"/><path class="cls-16" d="M34.92,258.68a1.24,1.24,0,0,0,0-2.47,1.24,1.24,0,0,0,0,2.47Z" transform="translate(-29.3 -37.77)"/><path class="cls-16" d="M55.23,264.93a1.3,1.3,0,0,0,0-2.6,1.3,1.3,0,0,0,0,2.6Z" transform="translate(-29.3 -37.77)"/><path class="cls-16" d="M58.32,278.79l.29,0a1,1,0,0,0,0-2l-.29,0c-1.32-.14-1.33,2.2,0,2.06Z" transform="translate(-29.3 -37.77)"/><path class="cls-16" d="M72.45,330.15a1.17,1.17,0,0,0,0-2.34,1.17,1.17,0,0,0,0,2.34Z" transform="translate(-29.3 -37.77)"/><path class="cls-16" d="M76.3,340.3l.27-.1a1.12,1.12,0,0,0,0-2.14l-.27-.1a1.21,1.21,0,1,0,0,2.33Z" transform="translate(-29.3 -37.77)"/><path class="cls-8" d="M87.46,318.21a1.16,1.16,0,0,0,0-2.32,1.16,1.16,0,0,0,0,2.32Z" transform="translate(-29.3 -37.77)"/><path class="cls-8" d="M92.38,331.56l-.35-.32a1.32,1.32,0,0,0-1.86,1.86l.32.35c1.16,1.28,3.17-.73,1.89-1.89Z" transform="translate(-29.3 -37.77)"/><path class="cls-8" d="M96.29,324.74a1.51,1.51,0,0,0,0-3,1.51,1.51,0,0,0,0,3Z" transform="translate(-29.3 -37.77)"/><path class="cls-8" d="M89.27,308.09l.11.23a1.36,1.36,0,0,0,2.33,0l.11-.23a1.48,1.48,0,1,0-2.56,0Z" transform="translate(-29.3 -37.77)"/><path class="cls-8" d="M73.77,304.6a1.24,1.24,0,0,0,0-2.47,1.24,1.24,0,0,0,0,2.47Z" transform="translate(-29.3 -37.77)"/><path class="cls-8" d="M72,295.62a1.53,1.53,0,0,0,0-3.07,1.53,1.53,0,0,0,0,3.07Z" transform="translate(-29.3 -37.77)"/><path class="cls-8" d="M87.46,267.65a1.38,1.38,0,0,0,0-2.76,1.38,1.38,0,0,0,0,2.76Z" transform="translate(-29.3 -37.77)"/><path class="cls-8" d="M92.76,262a1,1,0,0,0,0-2,1,1,0,0,0,0,2Z" transform="translate(-29.3 -37.77)"/><path class="cls-8" d="M86.14,256.52a1.29,1.29,0,0,0,0-2.58,1.29,1.29,0,0,0,0,2.58Z" transform="translate(-29.3 -37.77)"/><path class="cls-8" d="M72.88,236a1.64,1.64,0,0,0-1.26,3,1.67,1.67,0,0,0,2.24-.59,1.65,1.65,0,0,0-1-2.4Z" transform="translate(-29.3 -37.77)"/><path class="cls-8" d="M82.16,216.2a1.15,1.15,0,0,0,0-2.29,1.15,1.15,0,0,0,0,2.29Z" transform="translate(-29.3 -37.77)"/><path class="cls-8" d="M76,208.52h-.29a1.23,1.23,0,0,0,0,2.45H76a1.24,1.24,0,0,0,0-2.47Z" transform="translate(-29.3 -37.77)"/><path class="cls-1" d="M89.5,444.66a1.08,1.08,0,0,0,0-2.16,1.08,1.08,0,0,0,0,2.16Z" transform="translate(-29.3 -37.77)"/><path class="cls-1" d="M104.57,458a1.42,1.42,0,0,0,0-2.84,1.42,1.42,0,0,0,0,2.84Z" transform="translate(-29.3 -37.77)"/><path class="cls-1" d="M114.84,445.58a1.31,1.31,0,0,0,0-2.62,1.31,1.31,0,0,0,0,2.63Z" transform="translate(-29.3 -37.77)"/><path class="cls-1" d="M145.67,463.87a1.1,1.1,0,0,0,0-2.2,1.1,1.1,0,0,0,0,2.2Z" transform="translate(-29.3 -37.77)"/><path class="cls-1" d="M403.22,64a1.29,1.29,0,0,0,0-2.58,1.29,1.29,0,0,0,0,2.58Z" transform="translate(-29.3 -37.77)"/><path class="cls-1" d="M413.69,69.95l-.1.48a1.33,1.33,0,1,0,2.56,0l-.1-.48a1.23,1.23,0,0,0-2.35,0Z" transform="translate(-29.3 -37.77)"/><path class="cls-1" d="M417.91,53.57a2.8,2.8,0,0,0,1.65-.52.84.84,0,0,0,0-1.18,2.82,2.82,0,0,0-1.65-.52,1.15,1.15,0,1,0,0,2.21Z" transform="translate(-29.3 -37.77)"/><path class="cls-1" d="M438.51,68.74l.48.11a1.37,1.37,0,1,0,0-2.63l-.48.11a1.26,1.26,0,0,0,0,2.42Z" transform="translate(-29.3 -37.77)"/><path class="cls-1" d="M463.78,324.74l-.32-.07.5.29-.16-.18a1.39,1.39,0,1,0,0,2l.16-.18-.5.29.32-.07a1.07,1.07,0,0,0,0-2.06Z" transform="translate(-29.3 -37.77)"/><path class="cls-1" d="M473.86,333.64c.21.13.42.27.64.39a1,1,0,0,0,1,0,1.06,1.06,0,0,0,.36-.36,1,1,0,0,0,0-1c-.12-.22-.26-.43-.39-.64a1.18,1.18,0,1,0-1.62,1.62Z" transform="translate(-29.3 -37.77)"/><path class="cls-1" d="M60.85,423l0,.51a1.21,1.21,0,0,0,2.42,0l0-.51c.13-1.61-2.64-1.62-2.51,0Z" transform="translate(-29.3 -37.77)"/><path class="cls-1" d="M40.57,305.27l.47-.15a1.33,1.33,0,0,0,0-2.54l-.47-.15a1.48,1.48,0,1,0,0,2.85Z" transform="translate(-29.3 -37.77)"/><path class="cls-1" d="M66.9,172.53a1.57,1.57,0,0,0,0-3.14,1.57,1.57,0,0,0,0,3.14Z" transform="translate(-29.3 -37.77)"/><path class="cls-1" d="M62.1,146.27a6.86,6.86,0,0,0,1.52-.1,1.29,1.29,0,0,0,0-2.48,6.87,6.87,0,0,0-1.52-.1,1.34,1.34,0,0,0,0,2.67Z" transform="translate(-29.3 -37.77)"/><path class="cls-1" d="M54.57,101.72a1.31,1.31,0,0,0,0-2.62,1.31,1.31,0,0,0,0,2.63Z" transform="translate(-29.3 -37.77)"/><path class="cls-1" d="M225.13,46.28a6,6,0,0,0,1.51-.13,1.27,1.27,0,0,0,0-2.43,5.94,5.94,0,0,0-1.51-.14,1.35,1.35,0,1,0,0,2.7Z" transform="translate(-29.3 -37.77)"/><path class="cls-1" d="M232,55.73l.51,0a1.17,1.17,0,0,0,0-2.34l-.51,0c-1.55-.12-1.56,2.53,0,2.41Z" transform="translate(-29.3 -37.77)"/><path class="cls-1" d="M176.76,39.75c.56-.08,1.2-.29,1.2-1s-.63-.9-1.2-1a1,1,0,1,0,0,2Z" transform="translate(-29.3 -37.77)"/><path class="cls-2" d="M412.78,136.33a.49.49,0,0,1,.23-.64.57.57,0,0,1,.74.18.48.48,0,0,1-.25.71A.56.56,0,0,1,412.78,136.33Z" transform="translate(-29.3 -37.77)"/><path class="cls-2" d="M413,137.9a.48.48,0,0,1,.17-.69.57.57,0,0,1,.73.21.54.54,0,0,1-.26.72A.48.48,0,0,1,413,137.9Z" transform="translate(-29.3 -37.77)"/><path class="cls-2" d="M412.92,139.46a.54.54,0,0,1,.23-.71.54.54,0,0,1,.71.2.54.54,0,1,1-.94.52Z" transform="translate(-29.3 -37.77)"/><g class="cls-19"><path class="cls-3" d="M124.87,71.8a2.37,2.37,0,0,0,1.47-.33.52.52,0,0,0,0-.74,2.38,2.38,0,0,0-1.47-.33c-.9-.05-.91,1.46,0,1.41Z" transform="translate(-29.3 -37.77)"/></g><g class="cls-19"><path class="cls-3" d="M120.15,84.81a.77.77,0,0,0,0-1.54.77.77,0,0,0,0,1.54Z" transform="translate(-29.3 -37.77)"/></g><g class="cls-19"><path class="cls-3" d="M137.77,62.69a.68.68,0,0,0,0-1.36.68.68,0,0,0,0,1.36Z" transform="translate(-29.3 -37.77)"/></g><g class="cls-19"><path class="cls-3" d="M152.55,83.74l.16,0a.71.71,0,0,0,0-1.37l-.16,0a.74.74,0,1,0,0,1.44Z" transform="translate(-29.3 -37.77)"/></g><g class="cls-19"><path class="cls-3" d="M409.61,90.45a.65.65,0,0,0,0-1.3.65.65,0,0,0,0,1.3Z" transform="translate(-29.3 -37.77)"/></g><g class="cls-19"><path class="cls-3" d="M393.68,90.9a.76.76,0,0,0,0-1.51.76.76,0,0,0,0,1.51Z" transform="translate(-29.3 -37.77)"/></g><g class="cls-19"><path class="cls-3" d="M387.58,84.88a.5.5,0,0,0,0-1,.5.5,0,0,0,0,1Z" transform="translate(-29.3 -37.77)"/></g><g class="cls-19"><path class="cls-3" d="M105.91,301.56a.59.59,0,0,0,0-1.18.59.59,0,0,0,0,1.18Z" transform="translate(-29.3 -37.77)"/></g><g class="cls-19"><path class="cls-3" d="M117.78,300.17a.56.56,0,0,0,0-1.11.56.56,0,0,0,0,1.11Z" transform="translate(-29.3 -37.77)"/></g><g class="cls-19"><path class="cls-3" d="M117.62,288.54a1.13,1.13,0,0,0-.48.27.43.43,0,0,0,0,.6,1.13,1.13,0,0,0,.48.27c.94.29.95-1.42,0-1.13Z" transform="translate(-29.3 -37.77)"/></g><g class="cls-19"><path class="cls-3" d="M108.29,291.62a.82.82,0,0,0,0-1.64.82.82,0,0,0,0,1.64Z" transform="translate(-29.3 -37.77)"/></g><g class="cls-19"><path class="cls-3" d="M106.25,275.62a.41.41,0,0,0,0-.82.41.41,0,0,0,0,.82Z" transform="translate(-29.3 -37.77)"/></g><g class="cls-19"><path class="cls-3" d="M141,280.93a1,1,0,0,0,1.32-.73.58.58,0,0,0-.25-.63c-.26-.19-.53.1-.71.07-.84-.18-1.2,1.11-.36,1.29Z" transform="translate(-29.3 -37.77)"/></g><g class="cls-19"><path class="cls-3" d="M144.89,272.72a.57.57,0,0,0,0-1.14.57.57,0,0,0,0,1.14Z" transform="translate(-29.3 -37.77)"/></g><g class="cls-19"><path class="cls-3" d="M190.26,305.2a1,1,0,0,0-.29-.51.49.49,0,0,0-.68,0,1,1,0,0,0-.29.51c-.3,1,1.55,1.05,1.25,0Z" transform="translate(-29.3 -37.77)"/></g><g class="cls-19"><path class="cls-3" d="M199,308.08c0-.32-.15-.72-.56-.72s-.52.4-.56.72c-.09.72,1.2.72,1.11,0Z" transform="translate(-29.3 -37.77)"/></g><g class="cls-19"><path class="cls-3" d="M197.77,299.33a.73.73,0,0,0,0-1.46.73.73,0,0,0,0,1.46Z" transform="translate(-29.3 -37.77)"/></g><g class="cls-19"><path class="cls-3" d="M182.52,293.9a.73.73,0,0,0,0-1.45.73.73,0,0,0,0,1.45Z" transform="translate(-29.3 -37.77)"/></g><g class="cls-19"><path class="cls-3" d="M214,224.83a1.41,1.41,0,0,0-1,.27.4.4,0,0,0,0,.56,1.41,1.41,0,0,0,1,.27c.71.06.71-1.16,0-1.1Z" transform="translate(-29.3 -37.77)"/></g><g class="cls-19"><path class="cls-3" d="M209,231.36a.56.56,0,0,0,0-1.11.56.56,0,0,0,0,1.11Z" transform="translate(-29.3 -37.77)"/></g><g class="cls-19"><path class="cls-3" d="M416.73,192.07a.85.85,0,0,0,.65-.28.45.45,0,0,0,0-.61.84.84,0,0,0-.65-.28c-.75-.1-.75,1.27,0,1.17Z" transform="translate(-29.3 -37.77)"/></g><g class="cls-19"><path class="cls-3" d="M408.93,188.91a1.25,1.25,0,0,0,.87-.15.38.38,0,0,0,0-.65,1.25,1.25,0,0,0-.87-.15.47.47,0,0,0,0,.95Z" transform="translate(-29.3 -37.77)"/></g><g class="cls-19"><path class="cls-3" d="M416.33,180.36a.89.89,0,0,0,.74.4.47.47,0,0,0,.46-.46.89.89,0,0,0-.4-.74.56.56,0,0,0-.8.8Z" transform="translate(-29.3 -37.77)"/></g><g class="cls-19"><path class="cls-3" d="M103.89,177.59v.17a.66.66,0,0,0,.34.59.69.69,0,0,0,.69,0,.66.66,0,0,0,.34-.59v-.17a.67.67,0,0,0-1.34,0Z" transform="translate(-29.3 -37.77)"/></g><g class="cls-19"><path class="cls-3" d="M106.59,189.72a.6.6,0,0,0,0-1.21.6.6,0,0,0,0,1.21Z" transform="translate(-29.3 -37.77)"/></g><g class="cls-19"><path class="cls-3" d="M284.54,211a.5.5,0,0,0,0-1,.5.5,0,0,0,0,1Z" transform="translate(-29.3 -37.77)"/></g><g class="cls-19"><path class="cls-3" d="M282.17,205.56a.52.52,0,0,0,0-1,.52.52,0,0,0,0,1Z" transform="translate(-29.3 -37.77)"/></g><g class="cls-19"><path class="cls-3" d="M297.42,298.79a.53.53,0,0,0,0-1.07.53.53,0,0,0,0,1.07Z" transform="translate(-29.3 -37.77)"/></g><g class="cls-19"><path class="cls-3" d="M302.16,303.49a.49.49,0,0,0,0-1,.49.49,0,0,0,0,1Z" transform="translate(-29.3 -37.77)"/></g><g class="cls-19"><path class="cls-3" d="M300.13,294.55a0,0,0,0,0,0-.05,0,0,0,0,0,0,.05Z" transform="translate(-29.3 -37.77)"/></g><g class="cls-19"><path class="cls-3" d="M412,307.07a.68.68,0,0,0,0-1.36.68.68,0,0,0,0,1.36Z" transform="translate(-29.3 -37.77)"/></g><g class="cls-19"><path class="cls-3" d="M399.78,310.63a.52.52,0,0,0,0-1,.52.52,0,0,0,0,1Z" transform="translate(-29.3 -37.77)"/></g><g class="cls-19"><path class="cls-3" d="M402,299.26l0-.05a.39.39,0,0,0,0-.56c-.2-.17-.31-.38-.62-.38a.66.66,0,0,0-.64.57c-.09.66.9,1.07,1.21.42Z" transform="translate(-29.3 -37.77)"/></g><g class="cls-19"><path class="cls-3" d="M413,297.52c.43-.27.75-.42.82-1a.49.49,0,0,0-.25-.43c-.41-.25-.71-.08-1.12.08-1,.38-.31,1.85.55,1.31Z" transform="translate(-29.3 -37.77)"/></g><g class="cls-19"><path class="cls-3" d="M413.84,261.9a.78.78,0,0,0,.56-.37.43.43,0,0,0,0-.45.77.77,0,0,0-.56-.37.61.61,0,1,0,0,1.19Z" transform="translate(-29.3 -37.77)"/></g><g class="cls-19"><path class="cls-3" d="M413,392.12a.65.65,0,0,0,0-1.3.65.65,0,0,0,0,1.3Z" transform="translate(-29.3 -37.77)"/></g><g class="cls-19"><path class="cls-3" d="M424.37,386.71a.67.67,0,0,0,0-1.33.68.68,0,1,0,0,1.33Z" transform="translate(-29.3 -37.77)"/></g><g class="cls-19"><path class="cls-3" d="M409.27,382.92a.61.61,0,0,0,0-1.22.61.61,0,0,0,0,1.22Z" transform="translate(-29.3 -37.77)"/></g><g class="cls-19"><path class="cls-3" d="M407.24,372.4a.6.6,0,0,0,0-1.2.6.6,0,0,0,0,1.2Z" transform="translate(-29.3 -37.77)"/></g><g class="cls-19"><path class="cls-3" d="M421.47,374.13a.63.63,0,0,0,0-1.25.63.63,0,0,0,0,1.25Z" transform="translate(-29.3 -37.77)"/></g><g class="cls-19"><path class="cls-3" d="M421.47,363.08a1.23,1.23,0,0,0,.87-.1.38.38,0,0,0,0-.65,1.23,1.23,0,0,0-.87-.1.42.42,0,0,0,0,.84Z" transform="translate(-29.3 -37.77)"/></g><g class="cls-19"><path class="cls-3" d="M409.95,362.34a.7.7,0,0,0,0-1.39.7.7,0,0,0,0,1.39Z" transform="translate(-29.3 -37.77)"/></g><g class="cls-19"><path class="cls-3" d="M230.36,386a1.79,1.79,0,0,0,.8-.85.53.53,0,0,0-.36-.64,1.6,1.6,0,0,0-1,.13c-1,.39-.3,1.94.57,1.36Z" transform="translate(-29.3 -37.77)"/></g><g class="cls-19"><path class="cls-3" d="M230.65,376.93a.72.72,0,0,0,0-1.43.72.72,0,0,0,0,1.43Z" transform="translate(-29.3 -37.77)"/></g><g class="cls-19"><path class="cls-3" d="M242.17,388.38a.64.64,0,0,0,0-1.28.64.64,0,0,0,0,1.28Z" transform="translate(-29.3 -37.77)"/></g><g class="cls-19"><path class="cls-3" d="M244.58,373.81l.13-.07a.67.67,0,0,0,0-1.15l-.13-.07a.74.74,0,1,0,0,1.29Z" transform="translate(-29.3 -37.77)"/></g><g class="cls-19"><path class="cls-3" d="M263.18,383.87a.54.54,0,0,0,0-1.08.54.54,0,0,0,0,1.08Z" transform="translate(-29.3 -37.77)"/></g><g class="cls-19"><path class="cls-3" d="M366.56,398.14a.57.57,0,0,0,0-1.14.57.57,0,0,0,0,1.14Z" transform="translate(-29.3 -37.77)"/></g><g class="cls-19"><path class="cls-3" d="M373.68,400a0,0,0,0,0,0-.05,0,0,0,0,0,0,.05Z" transform="translate(-29.3 -37.77)"/></g><g class="cls-19"><path class="cls-3" d="M437.07,405.09a.4.4,0,0,0,0-.81.4.4,0,0,0,0,.81Z" transform="translate(-29.3 -37.77)"/></g><g class="cls-19"><path class="cls-3" d="M420.36,403.85a1,1,0,0,0-.27-.49.45.45,0,0,0-.63,0,1,1,0,0,0-.27.49c-.25,1,1.42,1,1.16,0Z" transform="translate(-29.3 -37.77)"/></g><g class="cls-19"><path class="cls-3" d="M313.46,360.51l.17.17a.57.57,0,0,0,.8,0l.17-.17a.8.8,0,1,0-1.13,0Z" transform="translate(-29.3 -37.77)"/></g><g class="cls-19"><path class="cls-3" d="M322.32,367.71a2.88,2.88,0,0,0,1.31.13.46.46,0,0,0,.2-.75,2.62,2.62,0,0,0-1-.6c-.92-.44-1.42,1-.51,1.22Z" transform="translate(-29.3 -37.77)"/></g><g class="cls-19"><path class="cls-3" d="M95.74,421.09a.47.47,0,0,0,0-.95.47.47,0,0,0,0,.95Z" transform="translate(-29.3 -37.77)"/></g><g class="cls-19"><path class="cls-3" d="M114.18,422.67a1,1,0,0,0-.27.53.5.5,0,0,0,.61.61,1,1,0,0,0,.53-.27.63.63,0,1,0-.87-.87Z" transform="translate(-29.3 -37.77)"/></g><g class="cls-19"><path class="cls-3" d="M113.06,414.9a1.14,1.14,0,0,0-.84-.2.49.49,0,0,0-.36.36,1.14,1.14,0,0,0,.2.84c.59,1.05,2.05-.4,1-1Z" transform="translate(-29.3 -37.77)"/></g><g class="cls-19"><path class="cls-3" d="M55.75,400.49a.55.55,0,0,0,0-1.1.55.55,0,0,0,0,1.1Z" transform="translate(-29.3 -37.77)"/></g><g class="cls-19"><path class="cls-3" d="M75.11,390.63a.9.9,0,0,0,.28.52.51.51,0,0,0,.71,0,.9.9,0,0,0,.28-.52.66.66,0,1,0-1.28,0Z" transform="translate(-29.3 -37.77)"/></g><g class="cls-19"><path class="cls-3" d="M54.39,386.25a.55.55,0,0,0,0-1.09.55.55,0,0,0,0,1.09Z" transform="translate(-29.3 -37.77)"/></g><g class="cls-19"><path class="cls-3" d="M72,396.29c-.29-.19-.73-.36-1-.06s-.13.73.06,1c.63.95,1.91-.32,1-1Z" transform="translate(-29.3 -37.77)"/></g><g class="cls-19"><path class="cls-3" d="M64.08,379.75a.71.71,0,0,0-.52.34.37.37,0,0,0,0,.38.7.7,0,0,0,.52.34.55.55,0,1,0,0-1.06Z" transform="translate(-29.3 -37.77)"/></g><g class="cls-19"><path class="cls-3" d="M50.58,374.26a1.36,1.36,0,0,0,.76.38.46.46,0,0,0,.46-.46,1.37,1.37,0,0,0-.38-.76c-.48-.61-1.45.36-.85.85Z" transform="translate(-29.3 -37.77)"/></g><g class="cls-19"><path class="cls-3" d="M57.44,393a.55.55,0,0,0,0-1.09.55.55,0,0,0,0,1.09Z" transform="translate(-29.3 -37.77)"/></g><g class="cls-19"><path class="cls-3" d="M63.21,367.27a.55.55,0,0,0,0-1.09.55.55,0,0,0,0,1.09Z" transform="translate(-29.3 -37.77)"/></g><g class="cls-19"><path class="cls-3" d="M48,357.84a.6.6,0,0,0,0-1.21.6.6,0,0,0,0,1.21Z" transform="translate(-29.3 -37.77)"/></g><g class="cls-19"><path class="cls-3" d="M97.1,372.09a.62.62,0,0,0,0-1.24.62.62,0,0,0,0,1.24Z" transform="translate(-29.3 -37.77)"/></g><g class="cls-19"><path class="cls-3" d="M122.18,344.16a.49.49,0,0,0,0-1,.49.49,0,0,0,0,1Z" transform="translate(-29.3 -37.77)"/></g><g class="cls-19"><path class="cls-3" d="M132,345a.62.62,0,0,0,0-1.23.62.62,0,0,0,0,1.23Z" transform="translate(-29.3 -37.77)"/></g><g class="cls-19"><path class="cls-3" d="M123.2,336.58a.7.7,0,0,0,0-1.39.7.7,0,0,0,0,1.39Z" transform="translate(-29.3 -37.77)"/></g><g class="cls-19"><path class="cls-3" d="M283.18,357.88a.64.64,0,0,0,0-1.29.64.64,0,0,0,0,1.29Z" transform="translate(-29.3 -37.77)"/></g><g class="cls-19"><path class="cls-3" d="M289,360.78l0,.16a.71.71,0,0,0,.19.7l.09.08a.61.61,0,0,0,.84,0l.09-.08a.71.71,0,0,0,.19-.7l0-.16a.69.69,0,0,0-1.31,0Z" transform="translate(-29.3 -37.77)"/></g><g class="cls-19"><path class="cls-3" d="M288.95,356.49a.62.62,0,0,0,0-1.23.62.62,0,0,0,0,1.23Z" transform="translate(-29.3 -37.77)"/></g></svg>