<?xml version="1.0" encoding="utf-8"?>
<!-- Generator: Adobe Illustrator 21.0.0, SVG Export Plug-In . SVG Version: 6.00 Build 0)  -->
<svg version="1.1" id="Layer_1" xmlns="http://www.w3.org/2000/svg" xmlns:xlink="http://www.w3.org/1999/xlink" x="0px" y="0px"
	 viewBox="0 0 3058.4 1118.7" style="enable-background:new 0 0 3058.4 1118.7;" xml:space="preserve">
<style type="text/css">
	.st0{fill:#FC3760;}
</style>
<title>ekipisi-white-logo</title>
<rect y="194.4" class="st0" width="464" height="139.1"/>
<rect y="462.6" class="st0" width="384.5" height="139.1"/>
<rect y="751.8" class="st0" width="461" height="139.1"/>
<polygon class="st0" points="1132.7,194.4 944.9,194.4 741.2,418.9 741.2,194.4 602.1,194.4 602.1,889.9 741.2,889.9 741.2,626.6 
	794.8,572 972.7,889.9 1138.6,889.9 889.2,466.6 "/>
<rect x="1243.1" y="194.4" class="st0" width="139.1" height="695.5"/>
<path class="st0" d="M1736.9,194.4h-225.5v696.5h139.1V612.7h86.4c115.3,0,208.7-93.4,208.7-208.7S1852.2,194.4,1736.9,194.4z
	 M1736.9,473.6h-86.5V333.5h86.4c37.8,0,69.6,31.8,69.6,70.6S1774.7,473.6,1736.9,473.6z"/>
<rect x="2045.9" y="194.4" class="st0" width="139.1" height="695.5"/>
<path class="st0" d="M2587.8,466.6c-6-2-11.9-4-19.9-6c-63.6-15.9-88.4-35.8-89.4-71.5c-1-22.9,6-33.8,11.9-39.7
	c17.9-18.9,52.7-25.8,61.6-25.8c60.6,0,89.4,18.9,134.1,47.7l24.8,15.9l72.5-118.2l-22.9-14.9c-50.7-32.8-107.3-69.6-208.6-69.6
	c-35.8,0-110.3,14.9-162,68.6c-35.8,37.8-53.6,86.5-50.7,142.1c3,66.6,33.8,120.2,89.4,157c39.8,26.8,82.5,37.8,105.3,43.7l5,1l3,1
	c72.5,24.8,115.3,59.6,115.3,97.4c0,17.9-18.9,70.5-76.5,70.5c-30.8,0-113.3,0-186.8-78.5l-101.4,95.4
	c47.7,50.7,103.3,85.5,165.9,105.3c49.7,14.9,91.4,16.9,122.2,16.9c62.6,0,119.2-25.8,160-71.5c34.8-38.8,55.6-89.4,55.6-138.1
	c0-49.7-18.9-96.4-54.6-136.1C2706,520.3,2654.4,489.5,2587.8,466.6z"/>
<rect x="2919.1" y="194.4" class="st0" width="139.1" height="695.5"/>
<rect x="1243.2" y="0.2" class="st0" width="139.1" height="133.9"/>
<rect x="2045.9" y="0.3" class="st0" width="139.1" height="133.9"/>
<rect x="2919.3" class="st0" width="139.1" height="133.9"/>
<rect x="2475" y="984.7" class="st0" width="139.1" height="133.9"/>
</svg>
