<svg id="Layer_1" data-name="Layer 1" xmlns="http://www.w3.org/2000/svg" viewBox="0 0 3058.45 1118.66"><defs><style>.cls-1{fill:#fff;}</style></defs><title>ekipisi-white-logo</title><rect class="cls-1" y="194.37" width="464.02" height="139.1"/><rect class="cls-1" y="462.65" width="384.54" height="139.1"/><rect class="cls-1" y="751.8" width="461.04" height="139.1"/><polygon class="cls-1" points="1132.68 194.37 944.88 194.37 741.19 418.93 741.19 194.37 602.08 194.37 602.08 889.91 741.19 889.91 741.19 626.6 794.84 571.95 972.7 889.91 1138.64 889.91 889.24 466.63 1132.68 194.37"/><rect class="cls-1" x="1243.12" y="194.37" width="139.11" height="695.54"/><path class="cls-1" d="M1739.48,194.37H1513.93V890.91H1653V612.69h86.45c115.26,0,208.67-93.4,208.67-208.66S1854.73,194.37,1739.48,194.37Zm0,279.21H1653V333.48h86.45c37.75,0,69.56,31.8,69.56,70.55S1777.23,473.58,1739.48,473.58Z" transform="translate(-2.55 0)"/><rect class="cls-1" x="2045.9" y="194.37" width="139.11" height="695.54"/><path class="cls-1" d="M2590.36,466.63c-6-2-11.93-4-19.88-6-63.59-15.89-88.43-35.77-89.43-71.54-1-22.85,6-33.79,11.93-39.74,17.89-18.89,52.66-25.84,61.61-25.84,60.61,0,89.41,18.89,134.13,47.7l24.84,15.89,72.54-118.24L2763.24,254c-50.66-32.8-107.31-69.56-208.65-69.56-35.77,0-110.29,14.9-162,68.56-35.77,37.76-53.64,86.45-50.66,142.1,3,66.57,33.77,120.23,89.41,157,39.75,26.83,82.49,37.76,105.33,43.72l5,1,3,1c72.54,24.84,115.27,59.62,115.27,97.38,0,17.88-18.88,70.55-76.52,70.55-30.81,0-113.27,0-186.79-78.5L2295.25,782.6c47.68,50.68,103.33,85.46,165.94,105.33,49.68,14.9,91.4,16.89,122.2,16.89,62.61,0,119.24-25.83,160-71.54,34.79-38.75,55.65-89.43,55.65-138.11,0-49.68-18.88-96.39-54.65-136.13C2708.59,520.28,2656.93,489.48,2590.36,466.63Z" transform="translate(-2.55 0)"/><rect class="cls-1" x="2919.11" y="194.37" width="139.11" height="695.54"/><rect class="cls-1" x="1243.15" y="0.23" width="139.11" height="133.93"/><rect class="cls-1" x="2045.91" y="0.3" width="139.11" height="133.93"/><rect class="cls-1" x="2919.33" width="139.11" height="133.93"/><rect class="cls-1" x="2475.02" y="984.73" width="139.11" height="133.93"/></svg>