<svg id="Layer_1" data-name="Layer 1" xmlns="http://www.w3.org/2000/svg" viewBox="0 0 267.79 192.97"><defs><style>.cls-1,.cls-2{fill:#cbcbcb;}.cls-2{fill-rule:evenodd;}</style></defs><title>fotokolye</title><path class="cls-1" d="M368.69,399.44l6.41-1.17a3.8,3.8,0,0,0,.13-1.35c0-.1,0-.16,0-.19h0a3.15,3.15,0,0,0-1.14-2,3.1,3.1,0,0,0-2.22-.64h0l-.2,0a3.82,3.82,0,0,0-2.43,1.45,3.92,3.92,0,0,0-.84,2.76c0,.1,0,.16,0,.19h0a3.3,3.3,0,0,0,.3,1m-17.47,34.88a3.53,3.53,0,1,1-3.53,3.53A3.53,3.53,0,0,1,351.23,434.32Zm43.09-3.74a2.81,2.81,0,1,1-2.81,2.81A2.81,2.81,0,0,1,394.32,430.58Zm-1.66-7.3a2.81,2.81,0,1,1-2.81,2.81A2.81,2.81,0,0,1,392.66,423.29Zm-4.76-5.39a2.81,2.81,0,1,1-2.81,2.81A2.81,2.81,0,0,1,387.9,417.89Zm4.48,19.83a2.81,2.81,0,1,1-2.81,2.81A2.81,2.81,0,0,1,392.38,437.72ZM407,478.57q0-26.41,0-52.85H436.2v10H418.09v10.61H436.2v10.12h-18v22.08Zm-39.63-18.92a24.69,24.69,0,0,0-10.9-2c-3.9.49-5.65-4.79-2.26-6.54a11.6,11.6,0,0,0,2.45-18.27h0a11.63,11.63,0,0,0-16.4,0h0c-7,7,1.22,20.87,4,28.86a22.68,22.68,0,0,0-4.73,4.58L332.1,445.2c-3.07-6.52-10.16-10.62-12.68-12.68-1.09-.89-.1-1.86.9-1.69,8.77,1.47,11.92-2.35,17.69-4.84l-.69-16.89-.16-3.91,3.87-.69,21.7-4a9.41,9.41,0,0,1-.26-1.2h0c0-.21-.05-.39-.07-.55a9.95,9.95,0,0,1,8.4-10.64l.53-.05h0a9,9,0,0,1,6.46,1.93,9.13,9.13,0,0,1,3.34,5.86h0c0,.21.05.39.07.55s0,.5,0,.75l31.57-5.76,5.27-.94v23l-11.15.63V401.66l-62.07,10.46.44,11.64a17.59,17.59,0,0,1,15.53,4.89h0a17.73,17.73,0,0,1,1.86,2.2l25-3.3L366,439.68q.05.69.05,1.39a17.65,17.65,0,0,1-.45,4c-2.31,10.05-6.65,4.52,4.11,9.12h0a31,31,0,0,1,16.27,40.54h0l-7.56,17.67q.09,6.89.1,13.84l28.46,4.85q0-20.78,0-41.54h11.2q0,24,0,47.95v5.46l-5.36-1.05-34.32-7.12c0,15.33-.3,30.79-.55,46.25l-14-42.38h0l-1.47-4.28,18-42h0a24.84,24.84,0,0,0,.19-19.06C377.92,466.54,373.69,462.83,367.33,459.65Z" transform="translate(-318.94 -388.03)"/><path class="cls-2" d="M344,513.15c-5.19-13.73-9.11-28.11-4.87-38a19.88,19.88,0,0,1,14.08-11.59,15.09,15.09,0,0,1,15.7,20.89c-2.71,6.33-7.67,10.72-12.63,15.1-4.56,4-9.11,8-12.28,13.64" transform="translate(-318.94 -388.03)"/><path class="cls-2" d="M372.91,470.52a19.92,19.92,0,0,1,2.77,20.22l-20,46.76a19.86,19.86,0,0,1-1.11,2.21c-2-5.87-5.23-13.15-8.34-20.88.14-.28.27-.57.39-.86,2.71-6.33,7.67-10.72,12.63-15.1,5.34-4.72,10.69-9.44,13.79-16.69a19.51,19.51,0,0,0,.15-15q-.14-.35-.29-.69" transform="translate(-318.94 -388.03)"/><path class="cls-1" d="M441.44,451.66q0-11.5,7.61-19a24.85,24.85,0,0,1,18-7.49q11.54,0,19.09,7.53t7.55,19q0,11.43-7.47,19t-18.82,7.55q-11.35,0-18.68-7.51T441.44,451.66Zm26.17-16.13A12.88,12.88,0,0,0,457.1,440q-4,4.63-4,11.94a16.54,16.54,0,0,0,4.07,11.46A13.2,13.2,0,0,0,467.45,468,13.46,13.46,0,0,0,478,463.5q4-4.49,4-11.84T478.07,440A13.72,13.72,0,0,0,467.61,435.53Z" transform="translate(-318.94 -388.03)"/><path class="cls-1" d="M495.22,425.73h34.91v11h-11.9v40.88H507V436.76H495.22Z" transform="translate(-318.94 -388.03)"/><path class="cls-1" d="M534.43,451.66q0-11.5,7.61-19a24.85,24.85,0,0,1,18-7.49q11.54,0,19.09,7.53t7.55,19q0,11.43-7.47,19t-18.82,7.55q-11.35,0-18.68-7.51T534.43,451.66Zm26.17-16.13A12.88,12.88,0,0,0,550.08,440q-4,4.63-4,11.94a16.54,16.54,0,0,0,4.07,11.46A13.2,13.2,0,0,0,560.44,468,13.46,13.46,0,0,0,571,463.5q4-4.49,4-11.84T571.06,440A13.71,13.71,0,0,0,560.6,435.53Z" transform="translate(-318.94 -388.03)"/><path class="cls-1" d="M437.78,490.74l6,.08-.16,11.7h.08L453,490.95l7.33.1-10.71,13.08,10.77,14.63-7.18-.1-9.59-13.1h-.08l-.18,13-6-.08Z" transform="translate(-318.94 -388.03)"/><path class="cls-1" d="M461.28,504.74a13.63,13.63,0,0,1,4.06-10.14,13.27,13.27,0,0,1,9.64-4,14.38,14.38,0,0,1,10.24,24.32,13.55,13.55,0,0,1-10,4,13.34,13.34,0,0,1-10-4A14,14,0,0,1,461.28,504.74Zm14-8.61a6.88,6.88,0,0,0-5.61,2.41,9.41,9.41,0,0,0-2.13,6.37,8.83,8.83,0,0,0,2.17,6.12,7,7,0,0,0,5.49,2.43,7.18,7.18,0,0,0,5.62-2.4,9.13,9.13,0,0,0,2.14-6.32,9,9,0,0,0-2.1-6.21A7.32,7.32,0,0,0,475.25,496.13Z" transform="translate(-318.94 -388.03)"/><path class="cls-1" d="M494.19,490.9h5.93v21.74h8.17v6h-14.1Z" transform="translate(-318.94 -388.03)"/><path class="cls-1" d="M508.13,490.9h6.62l5.11,8.59L525,490.9h6.64l-8.82,14.75v13H517v-13Z" transform="translate(-318.94 -388.03)"/><path class="cls-1" d="M535.37,490.9H551v5.49h-9.62V502H551v5.4h-9.62v5.74H551v5.49h-15.6Z" transform="translate(-318.94 -388.03)"/></svg>