<svg id="Layer_1" data-name="Layer 1" xmlns="http://www.w3.org/2000/svg" viewBox="0 0 211.66 45.54"><defs><style>.cls-1{fill:#cbcbca;}.cls-2{fill:#fff;}</style></defs><title>pinarsems</title><path class="cls-1" d="M189.48,361.14q-1.44,4.31-2.94,4.31a4.69,4.69,0,0,1-2-.59,4.59,4.59,0,0,0-1.69-.59q-1.62,0-6.75,8.62a67.64,67.64,0,0,0-1.75,13.68q-.94.06-3.75.56,0-8.81,4.87-22.55.19-.5-.19-.5-.63,0-3.56,2.19l-.38-.5q4.62-4.19,6.12-4.19.87,0,.87,1.69a11.55,11.55,0,0,1-.56,2.87q-.87,2.75-1,3.31,2.56-4.31,3.25-5.25,2.06-3,3.5-3a5.32,5.32,0,0,1,2.16.72,6.38,6.38,0,0,0,1.72.72q1,0,1.62-1.69Z" transform="translate(-80.4 -347.46)"/><path class="cls-1" d="M172,361.08a5.4,5.4,0,0,0-2,3.12l-.87.06q-3.25,11.37-3.25,17.49,0,2.87.94,2.87.75,0,3.12-2.75l.56.44L167,386.07a3,3,0,0,1-2.19,1.06q-1,0-1.62-1.62a8.58,8.58,0,0,1-.5-3.06q0-1.44.13-2.69-4.5,7.56-6.75,7.56a2.91,2.91,0,0,1-2.62-2.06,9.55,9.55,0,0,1-.81-4.06,23.67,23.67,0,0,1,3.75-12.49q4.44-7.31,11.37-7.31a10.58,10.58,0,0,0,4.12-.56Z" transform="translate(-80.4 -347.46)"/><path class="cls-1" d="M152.43,382.32l-3.56,3.75a2.87,2.87,0,0,1-2.06,1.06q-2.19,0-2.19-4.69,0-2.56,1.87-10t1.87-7.25a.5.5,0,0,0-.56-.56q-1.87,0-7.68,7.5a71.54,71.54,0,0,0-1.94,14.43q-.87.06-3.69.56,0-8.56,4.94-22.55.12-.5-.19-.5-.87,0-3.56,2.19l-.37-.5q4.62-4.19,6.06-4.19.94,0,.94,1.69a11.17,11.17,0,0,1-.62,2.94q-.87,2.87-1,3.44,5.87-8.06,10-8.06,1.19,0,1.19,1.87,0,.44-2.06,8.06t-2.06,10.25q0,2.87,1,2.87.75,0,3.12-2.75Z" transform="translate(-80.4 -347.46)"/><path class="cls-1" d="M135.19,382.32l-3.56,3.75a3,3,0,0,1-2.19,1.06q-2.12,0-2.12-4.69a34,34,0,0,1,1.06-8.25q.81-3.06,3.12-9.62.19-.5-.19-.5-.62,0-3.56,2.19l-.37-.5q4.62-4.19,6.12-4.19.87,0,.87,1.69,0,.37-1.94,8.09t-1.94,10.4q0,2.87,1,2.87.75,0,3.12-2.75Z" transform="translate(-80.4 -347.46)"/><path class="cls-1" d="M114.94,351.77q-3.5,0-6.12,10.68-4,16.24-5.56,19.87Q98.64,393,90.27,393a12.36,12.36,0,0,1-6.62-1.81,6.31,6.31,0,0,1-3.25-5.44,7,7,0,0,1,2.37-5.31,7.87,7.87,0,0,1,5.5-2.19,3.7,3.7,0,0,1,3.37,2.12l-1.94,2.69-.25-.19a1.78,1.78,0,0,0,.31-1.06,3.07,3.07,0,0,0-.66-1.87,1.81,1.81,0,0,0-1.41-.87A3.07,3.07,0,0,0,85,380.88a8.06,8.06,0,0,0-1,4.06,6.6,6.6,0,0,0,2.12,4.84,6.43,6.43,0,0,0,4.56,2.09q5.69,0,9.18-9.31l5.25-18.24q3.25-10.62,8-12.62l1.87-.25Z" transform="translate(-80.4 -347.46)"/><path class="cls-1" d="M127,359a13.89,13.89,0,0,1-3.56,9.56,12.35,12.35,0,0,1-9.75,4.37q-3.5,0-4.69-2l1.87-3,.5.25a4,4,0,0,0-.69,2.31q0,.31.91.94a2.28,2.28,0,0,0,1.66.5,11,11,0,0,0,7.47-4.25,14.1,14.1,0,0,0,2.72-8.81,9.2,9.2,0,0,0-2.69-6.43A11.46,11.46,0,0,0,112,349a23.31,23.31,0,0,0-12.74,3.56Q93,356.39,93,362.2a4.78,4.78,0,0,0,1.34,3.37,3.4,3.4,0,0,0,3.09,1.19,3.71,3.71,0,0,0,2.75-1.81l.44.25L99,369.07a6.57,6.57,0,0,1-3.12.62,6.32,6.32,0,0,1-4.4-2,6.19,6.19,0,0,1-1.78-4.47q0-7.18,7.75-11.62a30.77,30.77,0,0,1,15.68-3.94,14.68,14.68,0,0,1,9.93,3.62Q127,354.83,127,359" transform="translate(-80.4 -347.46)"/><path class="cls-2" d="M166,364.32l-2.5.25q-7.12.81-7.12,16.87,0,3.19.94,3.19,1.44,0,5.44-7.62,1.75-7.87,3.25-12.68" transform="translate(-80.4 -347.46)"/><path class="cls-1" d="M292.06,364.95q0,.5-2.69,3l-.31-.12a9.09,9.09,0,0,0,.12-1.5q0-3.5-1.62-3.5a3.09,3.09,0,0,0-2.28,1.56,5.39,5.39,0,0,0-1.16,3.25q0,1.87,2.87,4.94t2.87,5.37q0,2.94-3.12,6.25t-5.56,3.31q-4.87,0-4.87-7.18,0-.81,3.75-2.5l.19.25q-1.06,1.25-1.06,4.31,0,3.56,2.44,3.56a4.73,4.73,0,0,0,3.72-2.09,7.24,7.24,0,0,0,1.66-4.59q0-1.94-3-4.94t-3-5.19q0-2.19,2.87-5.12t4.81-2.94a2.88,2.88,0,0,1,2.37,1.41,4.47,4.47,0,0,1,1,2.47" transform="translate(-80.4 -347.46)"/><path class="cls-1" d="M276.94,382.32l-3.56,3.75a2.86,2.86,0,0,1-2.06,1.06q-2.12,0-2.12-4.69,0-2.56,1.87-10t1.87-7.25a.5.5,0,0,0-.56-.56q-1.75,0-5.68,4.94-1.12,4.44-1.62,6.56a43,43,0,0,0-.94,5.37q-.19,2.62-.19,5.06-.87.06-3.62.56,0-2.06.19-4.31a87.54,87.54,0,0,1,2.12-10.31q1.87-7.37,1.87-7.31a.5.5,0,0,0-.56-.56q-1.12,0-3,2.53t-3.65,5a77.86,77.86,0,0,0-1.94,14.43q-.87.06-3.62.56,0-8.81,4.87-22.55.19-.5-.19-.5-.63,0-3.56,2.19l-.37-.5q4.62-4.19,6.12-4.19.87,0,.87,1.69a11.16,11.16,0,0,1-.62,2.94q-.87,2.87-1,3.44a59.76,59.76,0,0,1,4.06-5.25q2.56-2.81,4.94-2.81,1.19,0,1.19,1.87,0,.31-.69,3.5,4.37-5.37,7.87-5.37,1.19,0,1.19,1.87,0,.44-2,8.06t-2,10.25q0,2.87.94,2.87.75,0,3.12-2.75Z" transform="translate(-80.4 -347.46)"/><path class="cls-1" d="M235.52,368.95q0,7.93-7.75,13.56a24.41,24.41,0,0,1-14.62,5.06,15.68,15.68,0,0,1-8.37-2.19q-4-2.37-4-6.43a11.47,11.47,0,0,1,4.5-9.12,14.67,14.67,0,0,1,9.81-3.62,7.82,7.82,0,0,1,5.15,1.84,5.8,5.8,0,0,1,2.22,4.65,8.12,8.12,0,0,1-2,5.44,6.43,6.43,0,0,1-5,2.37l-4.44-1.94.25-.56a7.39,7.39,0,0,0,2.94.56,6.58,6.58,0,0,0,4.56-1.75,5.52,5.52,0,0,0,1.94-4.25,4.86,4.86,0,0,0-1.78-3.84,6.18,6.18,0,0,0-4.15-1.53,10.15,10.15,0,0,0-7.47,3.37,10.94,10.94,0,0,0-3.28,7.87A7.4,7.4,0,0,0,207,384.5a10.25,10.25,0,0,0,6.56,2.12q5.31,0,11.31-4.87,6.75-5.5,6.75-12.12,0-3.81-4.25-5.87-3.94-1.37-7.87-2.69-4.25-1.5-4.25-3.94a8.54,8.54,0,0,1,3.62-7,12.52,12.52,0,0,1,7.93-2.69,10.37,10.37,0,0,1,4.4,1q2.09,1,2.09,2.34v1.12l-2.75,3.5-.69-.44a4,4,0,0,0,1.06-2.75,3.5,3.5,0,0,0-1.22-2.72,4.2,4.2,0,0,0-2.91-1.09,7.93,7.93,0,0,0-5.34,2,6.15,6.15,0,0,0-2.34,4.78q0,3.37,4.25,5.06,3.94,1.25,7.93,2.56,4.25,1.94,4.25,6.12" transform="translate(-80.4 -347.46)"/><path class="cls-1" d="M253.14,364.7q0,4.31-5,8.18a30.55,30.55,0,0,1-6.93,3.94,15.39,15.39,0,0,0-.25,2.87q0,5.69,2.5,5.69,1.69,0,3.12-2.09a7.66,7.66,0,0,0,1.44-4.4,8.61,8.61,0,0,0-.06-1.06l.62-.13.56,3.75a10.18,10.18,0,0,1-2.31,3.44,6.27,6.27,0,0,1-4.5,2.31,4.6,4.6,0,0,1-4-2.06,7.47,7.47,0,0,1-1.31-4.5q0-6.12,4.87-12.74,4.75-6.37,8.62-6.37,2.62,0,2.62,3.19" transform="translate(-80.4 -347.46)"/><path class="cls-2" d="M249.83,364.76q0-1.87-.69-1.87-1.69,0-4.15,4a26.9,26.9,0,0,0-3.47,8.59,13.28,13.28,0,0,0,5.31-4.12q3-3.44,3-6.56" transform="translate(-80.4 -347.46)"/><path class="cls-1" d="M212.35,388.36h0a2.3,2.3,0,0,1,.56,1.28c0,.54-.5,1.06-1.5,1.55q-.47.23-2.16.84l-.69-.43,1.38-.64a1.65,1.65,0,0,0,.62-.43.77.77,0,0,0,.19-.51,2,2,0,0,0-.56-1.15l1.06-.7Z" transform="translate(-80.4 -347.46)"/></svg>