<svg enable-background="new 0 0 3058.4 1118.7" viewBox="0 0 3058.4 1118.7" xmlns="http://www.w3.org/2000/svg"><g fill="#0b9be5"><path d="m0 194.4h464v139.1h-464z"/><path d="m0 462.6h384.5v139.1h-384.5z"/><path d="m0 751.8h461v139.1h-461z"/><path d="m1132.7 194.4h-187.8l-203.7 224.5v-224.5h-139.1v695.5h139.1v-263.3l53.6-54.6 177.9 317.9h165.9l-249.4-423.3z"/><path d="m1243.1 194.4h139.1v695.5h-139.1z"/><path d="m1736.9 194.4h-225.5v696.5h139.1v-278.2h86.4c115.3 0 208.7-93.4 208.7-208.7s-93.4-209.6-208.7-209.6zm0 279.2h-86.5v-140.1h86.4c37.8 0 69.6 31.8 69.6 70.6s-31.7 69.5-69.5 69.5z"/><path d="m2045.9 194.4h139.1v695.5h-139.1z"/><path d="m2587.8 466.6c-6-2-11.9-4-19.9-6-63.6-15.9-88.4-35.8-89.4-71.5-1-22.9 6-33.8 11.9-39.7 17.9-18.9 52.7-25.8 61.6-25.8 60.6 0 89.4 18.9 134.1 47.7l24.8 15.9 72.5-118.2-22.9-14.9c-50.7-32.8-107.3-69.6-208.6-69.6-35.8 0-110.3 14.9-162 68.6-35.8 37.8-53.6 86.5-50.7 142.1 3 66.6 33.8 120.2 89.4 157 39.8 26.8 82.5 37.8 105.3 43.7l5 1 3 1c72.5 24.8 115.3 59.6 115.3 97.4 0 17.9-18.9 70.5-76.5 70.5-30.8 0-113.3 0-186.8-78.5l-101.4 95.4c47.7 50.7 103.3 85.5 165.9 105.3 49.7 14.9 91.4 16.9 122.2 16.9 62.6 0 119.2-25.8 160-71.5 34.8-38.8 55.6-89.4 55.6-138.1 0-49.7-18.9-96.4-54.6-136.1-35.6-38.9-87.2-69.7-153.8-92.6z"/><path d="m2919.1 194.4h139.1v695.5h-139.1z"/><path d="m1243.2.2h139.1v133.9h-139.1z"/><path d="m2045.9.3h139.1v133.9h-139.1z"/><path d="m2919.3 0h139.1v133.9h-139.1z"/><path d="m2475 984.7h139.1v133.9h-139.1z"/></g></svg>