<svg viewBox="0 0 3058.45 1118.66" xmlns="http://www.w3.org/2000/svg"><g fill="#fff"><path d="m0 194.37h464.02v139.1h-464.02z"/><path d="m0 462.65h384.54v139.1h-384.54z"/><path d="m0 751.8h461.04v139.1h-461.04z"/><path d="m1132.68 194.37h-187.8l-203.69 224.56v-224.56h-139.11v695.54h139.11v-263.31l53.65-54.65 177.86 317.96h165.94l-249.4-423.28z"/><path d="m1243.12 194.37h139.11v695.54h-139.11z"/><path d="m1739.48 194.37h-225.55v696.54h139.07v-278.22h86.45c115.26 0 208.67-93.4 208.67-208.66s-93.39-209.66-208.64-209.66zm0 279.21h-86.48v-140.1h86.45c37.75 0 69.56 31.8 69.56 70.55s-31.78 69.55-69.53 69.55z" transform="translate(-2.55)"/><path d="m2045.9 194.37h139.11v695.54h-139.11z"/><path d="m2590.36 466.63c-6-2-11.93-4-19.88-6-63.59-15.89-88.43-35.77-89.43-71.54-1-22.85 6-33.79 11.93-39.74 17.89-18.89 52.66-25.84 61.61-25.84 60.61 0 89.41 18.89 134.13 47.7l24.84 15.89 72.54-118.24-22.86-14.86c-50.66-32.8-107.31-69.56-208.65-69.56-35.77 0-110.29 14.9-162 68.56-35.77 37.76-53.64 86.45-50.66 142.1 3 66.57 33.77 120.23 89.41 157 39.75 26.83 82.49 37.76 105.33 43.72l5 1 3 1c72.54 24.84 115.27 59.62 115.27 97.38 0 17.88-18.88 70.55-76.52 70.55-30.81 0-113.27 0-186.79-78.5l-101.38 95.35c47.68 50.68 103.33 85.46 165.94 105.33 49.68 14.9 91.4 16.89 122.2 16.89 62.61 0 119.24-25.83 160-71.54 34.79-38.75 55.65-89.43 55.65-138.11 0-49.68-18.88-96.39-54.65-136.13-35.8-38.76-87.46-69.56-154.03-92.41z" transform="translate(-2.55)"/><path d="m2919.11 194.37h139.11v695.54h-139.11z"/><path d="m1243.15.23h139.11v133.93h-139.11z"/><path d="m2045.91.3h139.11v133.93h-139.11z"/><path d="m2919.33 0h139.11v133.93h-139.11z"/><path d="m2475.02 984.73h139.11v133.93h-139.11z"/></g></svg>