<svg viewBox="0 0 25 25" xmlns="http://www.w3.org/2000/svg"><path d="m0 0h25v25h-25z" fill="#fff"/><g fill="#f3f3f3"><path d="m6.14 4.27-.51-.5.03-.03.51.5z"/><path d="m5.66 4.27-.03-.03.51-.5.03.03z"/><path d="m3.25 2.4c-.05 0-.11-.07-.17-.15s-.08-.14-.13-.13c.06 0 .13.06.19.14s.1.13.13.13 0-.12 0-.19 0-.21 0-.24.13.05.19.14.1.13.13.13 0-.12 0-.19 0-.21 0-.24.13.06.19.14.16.06.22.06c-.06 0-.13-.06-.19-.14s-.11-.14-.14-.13 0 .12 0 .19 0 .21 0 .24-.13-.06-.19-.14-.15-.02-.18-.02 0 .12 0 .19 0 .21 0 .24z"/><path d="m4 4.74s0-.08 0-.13 0-.09 0-.1-.06 0-.09 0-.1.07-.13 0 0-.08 0-.13 0-.09 0-.1-.06 0-.09 0-.1.07-.13 0 0-.08 0-.13 0-.09 0-.1 0 .08 0 .13 0 .09 0 .1.06 0 .09 0 .1-.07.13 0 0 .08 0 .13 0 .09 0 .1.06 0 .09 0 .1-.07.13 0 0 .08 0 .13 0 .09 0 .1z"/><path d="m.73 4.64h-.46v-.46h.46zm-.41 0h.36v-.41h-.36z"/><path d="m2.32 4.81-.32-.35.35-.35.35.35zm-.32-.35.28.28.28-.28-.28-.28z"/><path d="m.23 1.31-.21-.51.48.13-.18-.46.53.14-.01.06-.43-.12.19.46-.49-.13.17.41z"/><path d="m5.69 2.46-.01-.03.31-.07-.27-.23.36-.07-.24-.22.03-.03.29.27-.35.07.27.24z"/><path d="m2.27 1.55h-.05a.39.39 0 0 0 -.22-.55.4.4 0 0 0 -.53.18h-.05a.46.46 0 0 1 .64-.18.45.45 0 0 1 .21.55z"/><path d="m5.24.9a.32.32 0 0 0 0-.25.33.33 0 0 0 -.24-.21.33.33 0 0 0 -.4.15.38.38 0 0 1 .47-.19.38.38 0 0 1 .17.5z"/><path d="m1.49 4a.21.21 0 0 1 -.13 0 .2.2 0 0 1 0-.28.18.18 0 0 0 .27.23.2.2 0 0 1 -.14.05z"/><path d="m5 4.29a.17.17 0 0 0 -.13-.21.18.18 0 0 0 -.21.13.2.2 0 0 1 .09-.13.2.2 0 0 1 .15 0 .2.2 0 0 1 .1.06.2.2 0 0 1 0 .15z"/><path d="m.38 3.28a.38.38 0 1 1 .38-.38.38.38 0 0 1 -.38.38zm0-.71a.33.33 0 1 0 .33.33.33.33 0 0 0 -.33-.33z"/><path d="m2.74 3.32a.18.18 0 1 1 .18-.18.18.18 0 0 1 -.18.18zm0-.33a.15.15 0 1 0 .15.15.15.15 0 0 0 -.15-.14z"/><path d="m4.84 3.25h-.78l.39-.67zm-.68-.06h.58l-.29-.5z"/><path d="m1 2.22v-.37l.3.15zm0-.32v.27l.24-.17z"/><path d="m6 .81-.31-.19.31-.18zm-.25-.19.25.14v-.28z"/><path d="m5 2-.3-.17.3-.24zm-.27-.19.27.1v-.27z"/><path d="m3.7.58h-.48l.24-.41zm-.41 0h.35l-.18-.34z"/><path d="m5.36 5.14s0 0-.06 0 0 0 0 0 0 0-.06 0 0 0-.05 0 0 0 0 0 0 0-.05 0 0 0-.05 0 0 0 0 0 0 0-.05 0 0 0-.05 0 0 0 0 0 0 0-.05 0 0 0-.05 0 0 0 0 0 0 0-.05 0 0 0-.05 0 0 0 0 0 0 0-.05 0 0 0-.05 0 0 0 0 0 0 0-.05 0 0 0-.05 0 0 0 0 0 0 0-.05 0 0 0-.05 0 0 0 0 0 0 0-.05 0 0 0-.05 0 0 0 0 0 0 0 .05 0 0 0 0 0 0 0 .05 0 0 0 .05 0 0 0 0 0 0 0 .05 0 0 0 .05 0 0 0 0 0 0 0 .05 0 0 0 .05 0 0 0 0 0 0 0 .05 0 0 0 .05 0 0 0 0 0 0 0 .05 0 0 0 .05 0 0 0 0 0 0 0 .05 0 0 0 .05 0 0 0 0 0 0 0 .05 0 0 0 .05 0 0 0 0 0 0 0 .05 0 0 0 .05 0 0 0 0 0 0 0 .05 0 0 0 .05 0 0 0 0 0 0 0 .05 0 0 0 0 0 0 0-.03 0z"/><path d="m1.35 3h-.07a.05.05 0 0 1 0 0s0 0 0 0a0 0 0 0 1 0 0 .05.05 0 0 1 0 0s0 0 0 0a0 0 0 0 1 .06 0s0 0 0 0a0 0 0 0 1 0 0 0 0 0 0 0 0 0 0 0 0 0 1 0 0s0 0 0 0a0 0 0 0 1 0 0 .05.05 0 0 1 0 0 0 0 0 0 0 0 0 0 0 0 0 1 0 0 .05.05 0 0 1 0 0 0 0 0 0 0 0 0 0 0 0 0 1 .07 0s0 0 0 0a0 0 0 0 1 0 0 .05.05 0 0 1 0 0s0 0 0 0a.05.05 0 0 1 0 0 0 0 0 0 0 0 0 .05.05 0 0 1 0 0 0 0 0 0 0 0 0 .05.05 0 0 1 0 0s0 0 0 0a.05.05 0 0 1 0 0 0 0 0 0 0 0 0 .05.05 0 0 1 0 0 0 0 0 0 1 0 0 0 0 0 0 0 0 0 .05.05 0 0 1 0 0h.59s0 0 0 0a.05.05 0 0 1 0 0s0 0 0 0a.05.05 0 0 1 0 0 0 0 0 0 1 0 0s0 0 0 0a.05.05 0 0 1 0 0 0 0 0 0 1 0 0s0 0 0 0a.05.05 0 0 1 0 0 0 0 0 0 1 0 0s0 0 0 0a0 0 0 0 1 0 0 .05.05 0 0 1 0 0s0 0 0 0a0 0 0 0 1 0 0z"/><path d="m2.63.37s0 0 0 0 0 0-.06 0 0 0 0 0 0 0-.06 0 0 0 0 0 0 0-.06 0 0 0 0 0h-.45s0 0 0 0 0 0-.06 0 0 0 0 0 0 0-.06 0 0 0 0 0a.07.07 0 0 1 -.05 0s0 0 0 0a.07.07 0 0 1 -.06 0s0 0 0 0a.07.07 0 0 1 -.05 0s0 0 0 0h-.72s0 0 0 0 0 0-.06 0 0 0 0 0v-.37s0 0 0 0 .06 0 .06 0a.07.07 0 0 1 .05 0s0 0 0 0a.07.07 0 0 1 .05 0s0 0 0 0 0 0 .06 0 0 0 0 0a.07.07 0 0 1 .05 0s0 0 0 0a.07.07 0 0 1 .79.17s0 0 0 0a.07.07 0 0 1 .05 0s0 0 0 0 0 0 .06 0 0 0 0 0a.07.07 0 0 1 .06 0s0 0 0 0 0 0 .06 0 0 0 0 0a.07.07 0 0 1 .4.2z"/><path d="m5.57 1.36s0 0 0 0a0 0 0 0 1 0 0s0 0 0 0a0 0 0 0 1 0 0s0 0 0 0h-.57s0 0 0 0a0 0 0 0 1 0 0s0 0 0 0z"/><path d="m12.39 4.27-.51-.5.03-.03.51.5z"/><path d="m11.91 4.27-.03-.03.51-.5.03.03z"/><path d="m9.5 2.4c-.05 0-.11-.07-.17-.15s-.11-.14-.14-.13c.06 0 .13.06.2.14s.1.13.13.13 0-.12 0-.19 0-.21 0-.24.13.05.19.14.1.13.13.13 0-.12 0-.19 0-.21 0-.24.13.06.19.14.1.13.13.13c-.06 0-.13-.06-.19-.14s-.11-.14-.14-.13 0 .12 0 .19 0 .21 0 .24-.13-.06-.19-.14-.06-.09-.09-.09 0 .12 0 .19 0 .21 0 .24z"/><path d="m10.26 4.74s0-.08 0-.13 0-.09 0-.1-.06 0-.09 0-.1.07-.13 0 0-.08 0-.13 0-.09 0-.1-.06 0-.09 0-.1.07-.13 0 0-.08 0-.13 0-.09 0-.1 0 .08 0 .13 0 .09 0 .1.06 0 .09 0 .1-.07.13 0 0 .08 0 .13 0 .09 0 .1.06 0 .09 0 .1-.07.13 0 0 .08 0 .13 0 .09 0 .1z"/><path d="m7 4.64h-.48v-.46h.48zm-.41 0h.36v-.41h-.38z"/><path d="m8.57 4.81-.35-.35.35-.35.35.35zm-.28-.35.28.28.28-.28-.28-.28z"/><path d="m6.48 1.31-.21-.51.48.13-.18-.46.53.14-.01.06-.43-.12.19.46-.49-.13.17.41z"/><path d="m11.94 2.46-.01-.03.31-.07-.27-.23.36-.07-.24-.22.03-.03.29.27-.35.07.27.24z"/><path d="m8.52 1.55h-.05a.39.39 0 0 0 -.18-.55.4.4 0 0 0 -.53.18h-.05a.46.46 0 0 1 .61-.18.45.45 0 0 1 .2.55z"/><path d="m11.49.9a.32.32 0 0 0 0-.25.33.33 0 0 0 -.17-.19.33.33 0 0 0 -.44.15.38.38 0 0 1 .44-.21.38.38 0 0 1 .17.5z"/><path d="m7.74 4a.2.2 0 0 1 -.13 0 .2.2 0 0 1 0-.28.18.18 0 0 0 0 .25.18.18 0 0 0 .25 0 .2.2 0 0 1 -.12.03z"/><path d="m11.25 4.29a.17.17 0 0 0 -.13-.21.18.18 0 0 0 -.21.13.2.2 0 0 1 .24-.15.2.2 0 0 1 .13.09.2.2 0 0 1 -.03.14z"/><path d="m6.63 3.28a.38.38 0 1 1 .37-.38.38.38 0 0 1 -.37.38zm0-.71a.33.33 0 1 0 .37.33.33.33 0 0 0 -.37-.33z"/><path d="m9 3.32a.18.18 0 1 1 .18-.18.18.18 0 0 1 -.18.18zm0-.32a.15.15 0 1 0 .15.15.15.15 0 0 0 -.15-.15z"/><path d="m11.09 3.25h-.78l.39-.67zm-.68-.06h.59l-.29-.5z"/><path d="m7.22 2.22v-.37l.33.15zm0-.32v.27l.27-.17z"/><path d="m12.27.81-.3-.17.32-.19zm-.27-.19.24.14v-.28z"/><path d="m11.26 2-.3-.17.32-.18zm-.26-.23.24.14v-.27z"/><path d="m9.95.58h-.48l.24-.41zm-.41 0h.35l-.18-.34z"/><path d="m11.61 5.14s0 0-.05 0 0 0 0 0 0 0-.05 0 0 0-.05 0 0 0 0 0 0 0-.05 0 0 0-.05 0 0 0 0 0 0 0-.05 0 0 0-.05 0 0 0 0 0 0 0-.05 0 0 0-.05 0 0 0 0 0 0 0-.05 0 0 0-.05 0 0 0 0 0 0 0-.05 0 0 0-.05 0 0 0 0 0 0 0-.05 0 0 0-.05 0 0 0 0 0 0 0-.05 0 0 0-.05 0 0 0 0 0 0 0-.05 0 0 0-.05 0 0 0 0 0 0 0 .05 0 0 0 0 0-.71-.14-.71-.14 0 0 .05 0 0 0 0 0 0 0 .05 0 0 0 .05 0 0 0 0 0 0 0 .05 0 0 0 .05 0 0 0 0 0 0 0 .05 0 0 0 .05 0 0 0 0 0 0 0 .05 0 0 0 .05 0 0 0 0 0 0 0 .05 0 0 0 .05 0 0 0 0 0 0 0 .05 0 0 0 .05 0 0 0 0 0 0 0 .05 0 0 0 .05 0 0 0 0 0 0 0 .05 0 0 0 .06 0 0 0 0 0 0 0 .05 0 0 0 0 0 .73.14.7.14z"/><path d="m7.6 3h-.07a.05.05 0 0 1 0 0s0 0 0 0a0 0 0 0 1 0 0 .05.05 0 0 1 0 0s0 0 0 0a0 0 0 0 1 0 0 .05.05 0 0 1 0 0s0 0 0 0a0 0 0 0 1 0 0h.47s0 0 0 0a0 0 0 0 1 0 0s0 0 0 0a.05.05 0 0 1 0 0 0 0 0 0 0 0 0 0 0 0 0 1 0 0 .05.05 0 0 1 0 0 0 0 0 0 0 0 0 .05.05 0 0 1 0 0s0 0 0 0a0 0 0 0 1 0 0 .05.05 0 0 1 0 0s0 0 0 0a.05.05 0 0 1 0 0 0 0 0 0 0 0 0 .05.05 0 0 1 0 0 0 0 0 0 0 0 0 0 0 0 0 1 -.07 0s0 0 0 0a0 0 0 0 1 -.07 0 0 0 0 0 0 0 0 .05.05 0 0 1 0 0s0 0 0 0a.05.05 0 0 1 0 0 0 0 0 0 0 0 0 .05.05 0 0 1 0 0s0 0 0 0a0 0 0 0 1 0 0h.14s0 0 0 0a0 0 0 0 1 0 0s0 0 0 0a0 0 0 0 1 0 0 0 0 0 0 0 0 0 0 0 0 0 1 0 0 .05.05 0 0 1 0 0 0 0 0 0 0 0 0 .05.05 0 0 1 0 0z"/><path d="m8.88.37s0 0 0 0 0 0-.06 0 0 0 0 0 0 0-.06 0 0 0 0 0 0 0-.06 0 0 0 0 0a.06.06 0 0 1 -.06 0s0 0 0 0 0 0-.06 0 0 0 0 0a.07.07 0 0 1 -.05 0s0 0 0 0a.07.07 0 0 1 -.06 0s0 0 0 0a.07.07 0 0 1 -.05 0s0 0 0 0 0 0-.06 0 0 0 0 0v-.37s0 0 0 0 0 0 .06 0 0 0 0 0a.07.07 0 0 1 .05 0s0 0 0 0a.07.07 0 0 1 .05 0s0 0 0 0 0 0 .06 0 0 0 0 0a.07.07 0 0 1 -.58.14s0 0 0 0a.07.07 0 0 1 .05 0s0 0 0 0a.07.07 0 0 1 .05 0s0 0 0 0 0 0 .06 0 0 0 0 0a.07.07 0 0 1 .06 0s0 0 0 0 0 0 .06 0h.72s0 0 0 0a.07.07 0 0 1 -.12.23z"/><path d="m11.82 1.36s0 0 0 0a0 0 0 0 1 0 0s0 0 0 0z"/><path d="m18.72 4.27-.5-.5.03-.03.5.5z"/><path d="m18.25 4.27-.03-.03.5-.5.03.03z"/><path d="m15.84 2.4c-.05 0-.11-.07-.17-.15s-.11-.14-.14-.13c.06 0 .13.06.2.14s.1.13.13.13 0-.12 0-.19 0-.21 0-.24.13.05.19.14.1.13.13.13 0-.12 0-.19 0-.21 0-.24.13.06.19.14.1.13.13.13c-.06 0-.12-.06-.19-.14s-.11-.14-.14-.13 0 .12 0 .19 0 .21 0 .24-.13-.06-.2-.14-.06-.09-.09-.09 0 .12 0 .19 0 .21 0 .24z"/><path d="m16.59 4.74s0-.08 0-.13 0-.09 0-.1-.06 0-.09 0-.1.07-.13 0 0-.08 0-.13 0-.09 0-.1-.06 0-.09 0-.1.07-.13 0 0-.08 0-.13 0-.09 0-.1 0 .08 0 .13 0 .09 0 .1.06 0 .09 0 .1-.07.13 0 0 .08 0 .13 0 .09 0 .1.06 0 .09 0 .1-.07.13 0 0 .08 0 .13 0 .09 0 .1z"/><path d="m13.31 4.64h-.46v-.46h.46zm-.41 0h.36v-.41h-.36z"/><path d="m14.91 4.81-.35-.35.35-.35.35.35zm-.28-.35.28.28.28-.28-.28-.28z"/><path d="m12.81 1.31-.21-.51.49.13-.19-.46.54.14-.02.06-.43-.12.19.46-.48-.13.16.41z"/><path d="m18.27 2.46-.01-.03.31-.07-.26-.23.35-.07-.24-.22.03-.03.29.27-.35.07.27.24z"/><path d="m14.86 1.55h-.05a.39.39 0 0 0 -.19-.55.4.4 0 0 0 -.53.18h-.05a.46.46 0 0 1 .61-.18.45.45 0 0 1 .21.55z"/><path d="m17.82.9a.32.32 0 0 0 0-.25.33.33 0 0 0 -.17-.19.33.33 0 0 0 -.44.15.38.38 0 0 1 .44-.21.38.38 0 0 1 .17.5z"/><path d="m14.07 4a.2.2 0 0 1 -.16-.33.17.17 0 0 0 0 .25.18.18 0 0 0 .25 0 .2.2 0 0 1 -.09.08z"/><path d="m17.58 4.29a.17.17 0 0 0 0-.13.17.17 0 0 0 -.11-.08.18.18 0 0 0 -.21.13.2.2 0 0 1 .09-.13.2.2 0 0 1 .15 0 .2.2 0 0 1 .15.24z"/><path d="m13 3.28a.38.38 0 1 1 .38-.38.38.38 0 0 1 -.38.38zm0-.71a.33.33 0 1 0 .33.33.33.33 0 0 0 -.33-.33z"/><path d="m15.33 3.32a.18.18 0 1 1 .18-.18.18.18 0 0 1 -.18.18zm0-.33a.15.15 0 1 0 .15.15.15.15 0 0 0 -.15-.14z"/><path d="m17.42 3.25h-.78l.36-.67zm-.68-.06h.58l-.32-.5z"/><path d="m13.56 2.22v-.37l.32.19zm0-.32v.27l.26-.17z"/><path d="m18.6.81-.3-.17.3-.2zm-.27-.19.24.14v-.28z"/><path d="m17.59 2-.3-.17.32-.18zm-.27-.19.24.14v-.31z"/><path d="m16.28.58h-.48l.2-.41zm-.41 0h.35l-.22-.34z"/><path d="m17.94 5.14s0 0-.06 0 0 0 0 0 0 0-.05 0 0 0-.05 0 0 0 0 0 0 0-.05 0 0 0-.05 0 0 0 0 0 0 0-.05 0 0 0-.05 0 0 0 0 0 0 0-.05 0 0 0-.05 0 0 0 0 0 0 0-.05 0 0 0-.05 0 0 0 0 0 0 0-.05 0 0 0-.05 0 0 0 0 0 0 0-.05 0 0 0-.05 0 0 0 0 0 0 0-.05 0 0 0-.05 0 0 0 0 0 0 0-.05 0 0 0-.05 0 0 0 0 0 0 0 .05 0 0 0 0 0 0 0 .05 0 0 0 .05 0 0 0 0 0 0 0 .05 0 0 0 .05 0 0 0 0 0 0 0 .05 0 0 0 .05 0 0 0 0 0 0 0 .05 0 0 0 .05 0 0 0 0 0 0 0 .05 0 0 0 .05 0 0 0 0 0 0 0 .05 0 0 0 .05 0 0 0 0 0 0 0 .05 0 0 0 .05 0 0 0 0 0 0 0 .05 0 0 0 .05 0 0 0 0 0 0 0 .05 0 0 0 .05 0 0 0 0 0 .07-.14.07-.14 0 .14-.06.14z"/><path d="m13.93 3h-.07a.05.05 0 0 1 0 0s0 0 0 0a0 0 0 0 1 0 0 .05.05 0 0 1 0 0 0 0 0 0 0 0 0 0 0 0 0 1 0 0s0 0 0 0a0 0 0 0 1 0 0s0 0 0 0a0 0 0 0 1 0 0s0 0 0 0a0 0 0 0 1 0 0 .05.05 0 0 1 0 0s0 0 0 0a0 0 0 0 1 0 0 .05.05 0 0 1 0 0s0 0 0 0a.05.05 0 0 1 0 0s0 0 0 0a0 0 0 0 1 0 0 .05.05 0 0 1 0 0s0 0 0 0a0 0 0 0 1 .07 0 0 0 0 0 0 0 0 0 0 0 0 1 0 0s0 0 0 0a.05.05 0 0 1 0 0s0 0 0 0a.05.05 0 0 1 0 0 0 0 0 0 0 0 0 0 0 0 0 1 -.06 0 0 0 0 0 0 0 0 .05.05 0 0 1 0 0s0 0 0 0a.06.06 0 0 1 0 0 .05.05 0 0 1 0 0 0 0 0 0 0 0 0 0 0 0 0 1 0 0s0 0 0 0a0 0 0 0 1 0 0s0 0 0 0a0 0 0 0 1 0 0s0 0 0 0a0 0 0 0 1 -.06 0s0 0 0 0a0 0 0 0 1 0 0z"/><path d="m15.21.37s0 0 0 0 0 0-.06 0 0 0 0 0 0 0-.06 0 0 0 0 0 0 0-.06 0 0 0 0 0 0 0-.06 0 0 0 0 0 0 0-.06 0 0 0 0 0a.07.07 0 0 1 -.05 0s0 0 0 0 0 0-.06 0 0 0 0 0 0 0-.05 0 0 0 0 0 0 0-.06 0 0 0 0 0v-.37s0 0 0 0 0 0 .06 0 0 0 0 0a.07.07 0 0 1 .05 0s0 0 0 0a.07.07 0 0 1 .05 0s0 0 0 0 0 0 .06 0 0 0 0 0a.07.07 0 0 1 .05 0s0 0 0 0a.07.07 0 0 1 .05 0s0 0 0 0a.08.08 0 0 1 .05 0s0 0 0 0 0 0 .06 0 0 0 0 0a.07.07 0 0 1 .06 0s0 0 0 0 0 0 .06 0 0 0 0 0a.07.07 0 0 1 -.03.37z"/><path d="m18.15 1.36s0 0 0 0a0 0 0 0 1 0 0s0 0 0 0a0 0 0 0 1 0 0s0 0 0 0a0 0 0 0 1 0 0s0 0 0 0z"/><path d="m24.97 4.27-.5-.5.03-.03.5.5z"/><path d="m24.5 4.27-.03-.03.5-.5.03.03z"/><path d="m22.09 2.4c-.05 0-.11-.07-.17-.15s-.11-.14-.14-.13c.06 0 .13.06.2.14s.1.13.13.13 0-.12 0-.19 0-.21 0-.24.13.05.2.14.1.13.13.13 0-.12 0-.19 0-.21 0-.24.13.06.19.14.1.13.13.13c-.06 0-.13-.06-.19-.14s-.11-.14-.14-.13 0 .12 0 .19 0 .21 0 .24-.13-.06-.2-.14-.07-.09-.09-.09 0 .12 0 .19 0 .21 0 .24z"/><path d="m22.84 4.74s0-.08 0-.13 0-.09 0-.1-.06 0-.09 0-.1.07-.13 0 0-.08 0-.13 0-.09 0-.1-.06 0-.09 0-.1.07-.12 0 0-.08 0-.13 0-.09 0-.1 0 .08 0 .13 0 .09 0 .1.06 0 .09 0 .1-.07.13 0 0 .08 0 .13 0 .09 0 .1.06 0 .09 0 .1-.07.13 0 0 .08 0 .13 0 .09 0 .1z"/><path d="m19.56 4.64h-.46v-.46h.46zm-.41 0h.36v-.41h-.36z"/><path d="m21.16 4.81-.35-.35.35-.35.35.35zm-.28-.35.28.28.28-.28-.28-.28z"/><path d="m19.06 1.31-.21-.51.49.13-.19-.46.54.14-.02.06-.43-.12.19.46-.48-.13.16.41z"/><path d="m24.52 2.46-.01-.03.31-.07-.26-.23.35-.07-.24-.22.03-.03.29.27-.35.07.27.24z"/><path d="m21.11 1.55h-.05a.39.39 0 0 0 -.19-.55.4.4 0 0 0 -.53.18h-.05a.46.46 0 0 1 .61-.18.45.45 0 0 1 .21.55z"/><path d="m24.07.9a.32.32 0 0 0 0-.25.32.32 0 0 0 -.17-.19.33.33 0 0 0 -.44.15.38.38 0 0 1 .44-.21.38.38 0 0 1 .17.5z"/><path d="m20.32 4a.2.2 0 0 1 -.15-.33.17.17 0 0 0 0 .25.18.18 0 0 0 .25 0 .21.21 0 0 1 -.1.08z"/><path d="m23.83 4.29a.17.17 0 0 0 0-.13.17.17 0 0 0 -.11-.08.18.18 0 0 0 -.13 0 .17.17 0 0 0 -.08.11.2.2 0 0 1 .09-.13.2.2 0 0 1 .15 0 .21.21 0 0 1 .13.09.2.2 0 0 1 -.05.14z"/><path d="m19.21 3.28a.38.38 0 1 1 .38-.38.38.38 0 0 1 -.38.38zm0-.71a.33.33 0 1 0 .33.33.33.33 0 0 0 -.33-.33z"/><path d="m21.58 3.32a.18.18 0 1 1 .18-.18.18.18 0 0 1 -.18.18zm0-.33a.15.15 0 1 0 .15.15.15.15 0 0 0 -.15-.14z"/><path d="m23.67 3.25h-.78l.39-.67zm-.67-.06h.58l-.29-.5z"/><path d="m19.81 2.22v-.37l.32.19zm0-.32v.27l.26-.17z"/><path d="m24.85.81-.3-.17.32-.19zm-.27-.19.24.14v-.28z"/><path d="m23.84 2-.3-.17.32-.18zm-.27-.19.24.14v-.31z"/><path d="m22.53.58h-.47l.24-.41zm-.41 0h.35l-.18-.3z"/><path d="m24.19 5.14s0 0-.05 0 0 0 0 0 0 0-.06 0 0 0-.05 0 0 0 0 0 0 0-.05 0 0 0-.05 0 0 0 0 0 0 0-.05 0 0 0-.05 0 0 0 0 0 0 0-.05 0 0 0-.05 0 0 0 0 0 0 0-.05 0 0 0-.05 0 0 0 0 0 0 0-.05 0 0 0-.05 0 0 0 0 0 0 0-.05 0 0 0-.05 0 0 0 0 0 0 0-.05 0 0 0-.05 0 0 0 0 0 0 0-.05 0 0 0-.05 0 0 0 0 0 0 0 .05 0 0 0 0 0 0 0 .05 0 0 0 .05 0 0 0 0 0 0 0 .05 0 0 0 .05 0 0 0 0 0 0 0 .05 0 0 0 .05 0 0 0 0 0 0 0 .05 0 0 0 .05 0 0 0 0 0 0 0 .05 0 0 0 .05 0 0 0 0 0 0 0 .05 0 0 0 .05 0 0 0 0 0 0 0 .05 0 0 0 .05 0 0 0 0 0 0 0 .05 0 0 0 .05 0 0 0 0 0 0 0 .05 0 0 0 .05 0 0 0 0 0 0 0 .05 0 0 0 0 0-.01 0-.04 0z"/><path d="m20.18 3h-.07a.05.05 0 0 1 0 0s0 0 0 0a0 0 0 0 1 0 0 .05.05 0 0 1 0 0s0 0 0 0a.05.05 0 0 1 0 0 0 0 0 0 1 0 0s0 0 0 0a0 0 0 0 1 0 0s0 0 0 0a0 0 0 0 1 0 0s0 0 0 0a0 0 0 0 1 .07 0s0 0 0 0a0 0 0 0 1 0 0 .05.05 0 0 1 0 0 0 0 0 0 0 0 0 .05.05 0 0 1 0 0 0 0 0 0 0 0 0 0 0 0 0 1 0 0 .05.05 0 0 1 0 0s0 0 0 0a.05.05 0 0 1 0 0 0 0 0 0 0 0 0 .05.05 0 0 1 0 0 0 0 0 0 0 0 0 .05.05 0 0 1 0 0s0 0 0 0a0 0 0 0 1 0 0 .05.05 0 0 1 0 0s0 0 0 0a.05.05 0 0 1 0 0 0 0 0 0 1 0 0s0 0 0 0a0 0 0 0 1 -.07 0s0 0 0 0a0 0 0 0 1 -.07 0s0 0 0 0a.05.05 0 0 1 0 0 0 0 0 0 1 0 0s0 0 0 0a0 0 0 0 1 0 0s0 0 0 0a0 0 0 0 1 -.06 0s0 0 0 0a0 0 0 0 1 0 0 0 0 0 0 0 0 0 0 0 0 0 1 0 0z"/><path d="m21.46.37s0 0 0 0 0 0-.06 0 0 0 0 0 0 0-.06 0 0 0 0 0 0 0-.06 0 0 0 0 0 0 0-.06 0 0 0 0 0 0 0-.06 0 0 0 0 0a.07.07 0 0 1 -.05 0s0 0 0 0a.07.07 0 0 1 -.06 0s0 0 0 0a.07.07 0 0 1 -.05 0s0 0 0 0 0 0-.06 0 0 0 0 0v-.37s0 0 0 0 0 0 .06 0 0 0 0 0a.07.07 0 0 1 .05 0s0 0 0 0a.07.07 0 0 1 .05 0s0 0 0 0 0 0 .06 0 0 0 0 0a.07.07 0 0 1 .05 0s0 0 0 0a.07.07 0 0 1 .05 0s0 0 0 0a.07.07 0 0 1 -.26.2s0 0 0 0 0 0 .06 0 0 0 0 0a.07.07 0 0 1 .06 0s0 0 0 0 0 0 .06 0 0 0 0 0a.07.07 0 0 1 .28.17z"/><path d="m24.4 1.36s0 0 0 0a0 0 0 0 1 0 0s0 0 0 0z"/><path d="m24.02 6.18.66-.66-.04-.04-.66.66z"/><path d="m24.64 6.18.04-.04-.66-.66-.04.04z"/><path d="m18.86 11.01.51-.5-.03-.03-.51.5z"/><path d="m19.34 11.01.03-.03-.51-.5-.03.03z"/><path d="m21.95 6.15c.07 0 .09-.1.12-.21s0-.17.08-.17.06.1.07.17.05.21.12.21.09-.1.12-.21 0-.17.07-.17.06.1.07.17.05.21.12.21.09-.1.12-.21 0-.17.07-.17c-.07 0-.09.1-.12.21s0 .17-.07.17-.06-.1-.07-.17-.05-.21-.12-.21-.09.1-.12.21 0 .17-.07.17-.06-.1-.07-.17-.05-.21-.12-.21-.09.1-.12.21 0 .17-.07.17z"/><path d="m21.75 9.13c.05 0 .11-.07.17-.15s.11-.14.14-.13c-.06 0-.13.06-.19.14s-.1.13-.13.13 0-.12 0-.19 0-.21 0-.24-.13.05-.2.14-.1.13-.13.13 0-.12 0-.19 0-.21 0-.24-.13.06-.19.14-.1.13-.13.13c.06 0 .13-.06.19-.14s.11-.14.14-.13 0 .12 0 .19 0 .21 0 .24.13-.06.19-.14.11-.14.14-.13 0 .12 0 .19 0 .21 0 .24z"/><path d="m21 11.47s0-.08 0-.13 0-.09 0-.1.06 0 .09 0 .1.07.13 0 0-.08 0-.13 0-.09 0-.1.06 0 .09 0 .1.07.13 0 0-.08 0-.13 0-.09 0-.1 0 .08 0 .13 0 .09 0 .1-.06 0-.09 0-.1-.07-.13 0 0 .08 0 .13 0 .09 0 .1-.06 0-.09 0-.1-.07-.13 0 0 .08 0 .13 0 .09 0 .1z"/><path d="m20.67 5.51h.71v.71h-.71zm.64.08h-.56v.56h.56z"/><path d="m24.27 10.92h.46v.45h-.46zm.41 0h-.36v.36h.36z"/><path d="m18.95 5.88.52-.52.52.52-.52.52zm.52-.41-.42.41.42.41.42-.41z"/><path d="m22.32 11.2.35-.35.35.35-.35.35zm.35-.28-.28.28.28.28.33-.28z"/><path d="m24.77 8.05.21-.51-.48.13.18-.46-.53.14.01.05.43-.11-.19.46.49-.13-.17.41z"/><path d="m19.31 9.2.01-.04-.31-.06.27-.23-.35-.08.23-.21-.02-.03-.3.27.35.07-.27.24z"/><path d="m22.73 8.29h.05a.39.39 0 0 1 .22-.55.4.4 0 0 1 .53.18h.05a.46.46 0 0 0 -.61-.21.45.45 0 0 0 -.24.58z"/><path d="m19.76 7.64a.33.33 0 0 1 .24-.46.33.33 0 0 1 .44.15.38.38 0 0 0 -.51-.17.38.38 0 0 0 -.17.5z"/><path d="m23.51 10.71a.21.21 0 0 0 .13 0 .2.2 0 0 0 0-.28.18.18 0 0 1 -.27.23.2.2 0 0 0 .14.05z"/><path d="m20 11a.17.17 0 0 1 0-.13.17.17 0 0 1 .11-.08.18.18 0 0 1 .21.13.2.2 0 0 0 -.24-.15.2.2 0 0 0 -.13.09.2.2 0 0 0 .05.14z"/><path d="m24.24 9.64a.38.38 0 1 1 .38.38.38.38 0 0 1 -.38-.38zm0 0a.33.33 0 1 0 .33-.33.33.33 0 0 0 -.28.33z"/><path d="m22.08 9.88a.18.18 0 1 1 .18.18.18.18 0 0 1 -.18-.18zm0 0a.15.15 0 1 0 .15-.15.15.15 0 0 0 -.13.15z"/><path d="m20.55 9.32.39.67h-.78zm0 .12-.29.5h.58z"/><path d="m23.7 8.78.3-.19v.41zm.06 0 .24.14v-.28z"/><path d="m19 7.17.32.19-.3.17zm0 0v.33l.24-.14z"/><path d="m20 8.33.32.18-.3.17zm0 0v.27l.24-.14z"/><path d="m21.54 6.91.24.41h-.48zm0 .07-.18.3h.35z"/><path d="m19.64 11.88s0 0 .06 0 0 0 0 0 0 0 .05 0 0 0 .05 0 0 0 0 0 0 0 .05 0 0 0 .05 0 0 0 0 0 0 0 .05 0 0 0 .05 0 0 0 0 0 0 0 .05 0 0 0 .05 0 0 0 0 0 0 0 .05 0 0 0 .05 0 0 0 0 0 0 0 .05 0 0 0 .05 0 0 0 0 0 0 0 .05 0 0 0 .05 0 0 0 0 0 0 0 .05 0 0 0 .05 0 0 0 0 0 0 0 .05 0 0 0 .05 0 0 0 0 0 0 0-.05 0 0 0 0 0 0 0-.05 0 0 0-.05 0 0 0 0 0 0 0-.05 0 0 0-.05 0 0 0 0 0 0 0-.05 0 0 0-.05 0 0 0 0 0 0 0-.05 0 0 0-.05 0 0 0 0 0 0 0-.05 0 0 0-.05 0 0 0 0 0 0 0-.05 0 0 0-.05 0 0 0 0 0 0 0-.05 0 0 0-.05 0 0 0 0 0 0 0-.05 0 0 0-.05 0 0 0 0 0 0 0-.05 0 0 0-.05 0 0 0 0 0 0 0-.05 0 0 0 0 0 .01 0 .04 0z"/><path d="m23.65 9.77h.07a.05.05 0 0 0 0 0s0 0 0 0a0 0 0 0 0 0 0 .05.05 0 0 0 0 0s0 0 0 0a0 0 0 0 0 -.06 0 0 0 0 0 1 0 0 0 0 0 0 0 0 0s0 0 0 0a.05.05 0 0 0 0 0s0 0 0 0a.05.05 0 0 0 0 0 .06.06 0 0 0 0 0 0 0 0 0 1 0 0 0 0 0 0 0 0 0 .05.05 0 0 0 0 0s0 0 0 0a.05.05 0 0 0 0 0s0 0 0 0a.05.05 0 0 0 0 0 0 0 0 0 1 0 0 0 0 0 0 0 -.07 0 0 0 0 0 1 0 0 .05.05 0 0 0 0 0 0 0 0 0 1 0 0 .05.05 0 0 0 0 0s0 0 0 0a.05.05 0 0 0 0 0s0 0 0 0a0 0 0 0 0 .07 0s0 0 0 0a.05.05 0 0 0 0 0 0 0 0 0 1 0 0 0 0 0 0 0 0 0 .05.05 0 0 0 0 0 0 0 0 0 1 0 0 .05.05 0 0 0 0 0 0 0 0 0 0 0 0 0 0 0 0 1 0 0 0 0 0 0 0 0 0s0 0 0 0a.05.05 0 0 0 0 0 0 0 0 0 0 0 0 0 0 0 0 1 0 0 0 0 0 0 0 0 0 .05.05 0 0 0 0 0s0 0 0 0a0 0 0 0 0 0 0z"/><path d="m22.37 7.1s0 0 0 0a.07.07 0 0 0 .06 0s0 0 0 0 0 0 .06 0 0 0 0 0 0 0 .06 0 0 0 0 0 0 0 .06 0 0 0 0 0 0 0 .06 0 0 0 0 0a.07.07 0 0 0 .05 0s0 0 0 0 0 0 .06 0 0 0 0 0a.07.07 0 0 0 .05 0s0 0 0 0 0 0 .06 0 0 0 0 0 0 0-.06 0 0 0 0 0a.07.07 0 0 0 -.05 0s0 0 0 0a.07.07 0 0 0 -.05 0s0 0 0 0a.06.06 0 0 0 -.06 0s0 0 0 0a.07.07 0 0 0 -.05 0s0 0 0 0a.07.07 0 0 0 -.05 0s0 0 0 0a.08.08 0 0 0 -.05 0s0 0 0 0 0 0-.06 0 0 0 0 0a.07.07 0 0 0 -.06 0s0 0 0 0a.07.07 0 0 0 -.06 0s0 0 0 0a.07.07 0 0 0 .03 0z"/><path d="m19.43 8.1s0 0 0 0a0 0 0 0 0 0 0s0 0 0 0a0 0 0 0 0 0 0s0 0 0 0a0 0 0 0 0 0 0s0 0 0 0z"/><path d="m17.77 6.18.66-.66-.04-.04-.66.66z"/><path d="m18.39 6.18.04-.04-.66-.66-.04.04z"/><path d="m12.61 11.01.51-.5-.03-.03-.51.5z"/><path d="m13.09 11.01.03-.03-.51-.5-.03.03z"/><path d="m15.7 6.15c.07 0 .09-.1.12-.21s0-.17.07-.17.06.1.08.17.05.21.12.21.09-.1.12-.21 0-.17.07-.17.06.1.07.17.05.21.12.21.09-.1.12-.21 0-.17.07-.17c-.07 0-.09.1-.12.21s0 .17-.07.17-.06-.1-.08-.17-.05-.21-.12-.21-.09.1-.12.21 0 .17-.07.17-.08-.15-.08-.22-.05-.21-.12-.21-.09.1-.12.21 0 .17-.08.17z"/><path d="m15.5 9.13c.05 0 .11-.07.17-.15s.11-.14.14-.13c-.06 0-.13.06-.19.14s-.1.13-.13.13 0-.12 0-.19 0-.21 0-.24-.13.05-.19.14-.1.13-.13.13 0-.12 0-.19 0-.21 0-.24-.13.06-.19.14-.1.13-.13.13c.06 0 .13-.06.19-.14s.11-.14.14-.13 0 .12 0 .19 0 .21 0 .24.13-.06.19-.14.11-.14.14-.13 0 .12 0 .19 0 .21 0 .24z"/><path d="m14.74 11.47s0-.08 0-.13 0-.09 0-.1.06 0 .09 0 .1.07.13 0 0-.08 0-.13 0-.09 0-.1.06 0 .09 0 .1.07.13 0 0-.08 0-.13 0-.09 0-.1 0 .08 0 .13 0 .09 0 .1-.06 0-.09 0-.1-.07-.12 0 0 .08 0 .13 0 .09 0 .1-.06 0-.09 0-.1-.07-.13 0 0 .08 0 .13 0 .09 0 .1z"/><path d="m14.42 5.51h.72v.71h-.72zm.64.08h-.56v.56h.56z"/><path d="m18 10.92h.46v.45h-.46zm.41 0h-.36v.36h.36z"/><path d="m12.7 5.88.52-.52.52.52-.52.52zm.52-.41-.42.41.42.41.42-.41z"/><path d="m16.07 11.2.35-.35.35.35-.35.35zm.35-.28-.28.28.28.28.28-.28z"/><path d="m18.52 8.05.21-.51-.48.13.18-.46-.53.14.01.05.43-.11-.19.46.49-.13-.17.41z"/><path d="m13.06 9.2.01-.04-.31-.06.27-.23-.36-.08.24-.21-.03-.03-.29.27.35.07-.27.24z"/><path d="m16.48 8.29h.05a.39.39 0 0 1 .18-.52.4.4 0 0 1 .53.18h.05a.46.46 0 0 0 -.61-.21.45.45 0 0 0 -.2.55z"/><path d="m13.51 7.64a.32.32 0 0 1 0-.25.33.33 0 0 1 .17-.19.33.33 0 0 1 .44.15.38.38 0 0 0 -.51-.17.38.38 0 0 0 -.17.5z"/><path d="m17.26 10.71a.2.2 0 0 0 .16-.33.18.18 0 0 1 -.27.23.2.2 0 0 0 .11.1z"/><path d="m13.75 11a.17.17 0 0 1 0-.13.17.17 0 0 1 .11-.08.18.18 0 0 1 .21.13.2.2 0 0 0 -.24-.15.2.2 0 0 0 -.13.09.2.2 0 0 0 .05.14z"/><path d="m18 9.64a.38.38 0 1 1 .38.38.38.38 0 0 1 -.38-.38zm0 0a.33.33 0 1 0 .33-.33.33.33 0 0 0 -.33.33z"/><path d="m15.83 9.88a.18.18 0 1 1 .18.18.18.18 0 0 1 -.18-.18zm0 0a.15.15 0 1 0 .17-.15.15.15 0 0 0 -.15.15z"/><path d="m14.3 9.32.39.67h-.78zm0 .12-.29.5h.58z"/><path d="m17.45 8.78.32-.19v.41zm.06 0 .24.14v-.28z"/><path d="m12.73 7.17.32.19-.3.17zm0 0v.33l.27-.14z"/><path d="m13.74 8.33.32.18-.3.17zm0 0v.27l.26-.09z"/><path d="m15.29 6.91.24.41h-.47zm0 .07-.18.3h.35z"/><path d="m13.39 11.88s0 0 .06 0 0 0 0 0 0 0 .06 0 0 0 .05 0 0 0 0 0 0 0 .05 0 0 0 .05 0 0 0 0 0 0 0 .05 0 0 0 .05 0 0 0 0 0 0 0 .05 0 0 0 .05 0 0 0 0 0 0 0 .05 0 0 0 .05 0 0 0 0 0 0 0 .05 0 0 0 .05 0 0 0 0 0 0 0 .05 0 0 0 .05 0 0 0 0 0 0 0 .05 0 0 0 .05 0 0 0 0 0 0 0 .05 0 0 0 .05 0 0 0 0 0 0 0-.05 0 0 0 0 0 0 0-.05 0 0 0-.05 0 0 0 0 0 0 0-.05 0 0 0-.05 0 0 0 0 0 0 0-.05 0 0 0-.05 0 0 0 0 0 0 0-.05 0 0 0-.05 0 0 0 0 0 0 0-.05 0 0 0-.05 0 0 0 0 0 0 0-.05 0 0 0-.05 0 0 0 0 0 0 0-.05 0 0 0-.05 0 0 0 0 0 0 0-.05 0 0 0-.05 0 0 0 0 0 0 0-.05 0 0 0-.05 0 0 0 0 0 0 0-.05 0 0 0 0 0 0 0 .03 0z"/><path d="m17.4 9.77h.07a.05.05 0 0 0 0 0s0 0 0 0a0 0 0 0 0 0 0 .05.05 0 0 0 0 0 0 0 0 0 1 0 0 0 0 0 0 0 0 0 .05.05 0 0 0 0 0 0 0 0 0 1 0 0 .05.05 0 0 0 0 0 0 0 0 0 0 0 0 0 0 0 0 1 0 0 0 0 0 0 0 0 0 .05.05 0 0 0 0 0 0 0 0 0 1 0 0 .05.05 0 0 0 0 0 .06.06 0 0 0 0 0 0 0 0 0 1 0 0 0 0 0 0 0 0 0 .05.05 0 0 0 0 0s0 0 0 0a0 0 0 0 0 -.07 0s0 0 0 0a0 0 0 0 0 0 0 .05.05 0 0 0 0 0s0 0 0 0a0 0 0 0 0 -.07 0 0 0 0 0 1 0 0 0 0 0 0 0 0 0 0 0 0 0 1 0 0 .05.05 0 0 0 0 0s0 0 0 0a.05.05 0 0 0 0 0 0 0 0 0 1 0 0 0 0 0 0 0 0 0s0 0 0 0a.05.05 0 0 0 0 0 0 0 0 0 1 0 0 .05.05 0 0 0 0 0 0 0 0 0 1 0 0 0 0 0 0 0 0 0 .05.05 0 0 0 0 0s0 0 0 0a.05.05 0 0 0 0 0 0 0 0 0 0 0 0s0 0 0 0a.05.05 0 0 0 0 0 0 0 0 0 0 0 0s0 0 0 0a0 0 0 0 0 0 0 .05.05 0 0 0 0 0s0 0 0 0a0 0 0 0 0 0 0z"/><path d="m16.12 7.1s0 0 0 0 0 0 .06 0 0 0 0 0 0 0 .06 0 0 0 0 0 0 0 .06 0 0 0 0 0a.06.06 0 0 0 .06 0s0 0 0 0 0 0 .06 0 0 0 0 0a.07.07 0 0 0 .05 0s0 0 0 0 0 0 .06 0 0 0 0 0 0 0 .05 0 0 0 0 0a.07.07 0 0 0 .06 0s0 0 0 0 0 0-.06 0 0 0 0 0a.07.07 0 0 0 -.05 0s0 0 0 0a.07.07 0 0 0 -.05 0s0 0 0 0a.06.06 0 0 0 -.06 0s0 0 0 0a.07.07 0 0 0 -.05 0s0 0 0 0a.07.07 0 0 0 -.05 0s0 0 0 0a.08.08 0 0 0 -.05 0s0 0 0 0 0 0-.06 0 0 0 0 0 0 0-.06 0 0 0 0 0a.07.07 0 0 0 -.15-.1s0 0 0 0a.07.07 0 0 0 .12.1z"/><path d="m13.18 8.1s0 0 0 0a0 0 0 0 0 0 0s0 0 0 0z"/><path d="m11.44 6.18.66-.66-.04-.04-.66.66z"/><path d="m12.06 6.18.04-.04-.66-.66-.04.04z"/><path d="m6.28 11.01.51-.5-.04-.03-.5.5z"/><path d="m6.75 11.01.04-.03-.51-.5-.03.03z"/><path d="m9.37 6.15c.07 0 .09-.1.12-.21s0-.17.07-.17.06.1.07.17.05.21.12.21.09-.1.12-.21 0-.17.07-.17.06.1.07.17.05.21.12.21.09-.1.12-.21 0-.17.07-.17c-.07 0-.09.1-.12.21s0 .17-.07.17-.06-.1-.07-.17-.06-.25-.06-.25-.09.1-.12.21 0 .17-.07.17-.11-.11-.13-.18-.05-.21-.12-.21-.09.1-.12.21 0 .17-.07.17z"/><path d="m9.16 9.13c.05 0 .11-.07.17-.15s.11-.14.14-.13c-.06 0-.13.06-.19.14s-.1.13-.13.13 0-.12 0-.19 0-.21 0-.24-.13.05-.19.14-.1.13-.13.13 0-.12 0-.19 0-.21 0-.24-.13.06-.19.14-.1.13-.13.13c.06 0 .13-.06.19-.14s.11-.14.14-.13 0 .12 0 .19 0 .21 0 .24.13-.06.19-.14.11-.14.14-.13 0 .12 0 .19 0 .21 0 .24z"/><path d="m8.41 11.47s0-.08 0-.13 0-.09 0-.1.06 0 .09 0 .1.07.13 0 0-.08 0-.13 0-.09 0-.1.06 0 .09 0 .1.07.13 0 0-.08 0-.13 0-.09 0-.1 0 .08 0 .13 0 .09 0 .1-.06 0-.09 0-.1-.07-.13 0 0 .08 0 .13 0 .09 0 .1-.06 0-.09 0-.1-.07-.13 0 0 .08 0 .13 0 .09 0 .1z"/><path d="m8.09 5.51h.71v.71h-.71zm.64.08h-.56v.56h.56z"/><path d="m11.69 10.92h.46v.45h-.46zm.41 0h-.36v.36h.36z"/><path d="m6.37 5.88.52-.52.52.52-.52.52zm.52-.41-.42.41.42.41.42-.41z"/><path d="m9.74 11.2.35-.35.35.35-.35.35zm.35-.28-.28.28.28.28.28-.28z"/><path d="m12.19 8.05.21-.51-.49.13.19-.46-.54.14.02.05.43-.11-.19.46.48-.13-.16.41z"/><path d="m6.73 9.2.01-.04-.31-.06.26-.23-.35-.08.24-.21-.03-.03-.29.27.35.07-.27.24z"/><path d="m10.15 8.29h.05a.39.39 0 0 1 .18-.52.4.4 0 0 1 .53.18h.05a.46.46 0 0 0 -.61-.21.45.45 0 0 0 -.2.55z"/><path d="m7.18 7.64a.32.32 0 0 1 0-.25.33.33 0 0 1 .17-.19.33.33 0 0 1 .44.15.38.38 0 0 0 -.51-.17.38.38 0 0 0 -.17.5z"/><path d="m10.93 10.71a.21.21 0 0 0 .13 0 .2.2 0 0 0 0-.28.18.18 0 0 1 -.27.23.2.2 0 0 0 .14.05z"/><path d="m7.42 11a.17.17 0 0 1 .13-.21.18.18 0 0 1 .21.13.2.2 0 0 0 -.37-.06.2.2 0 0 0 .03.14z"/><path d="m11.65 9.64a.38.38 0 1 1 .35.36.38.38 0 0 1 -.35-.36zm0 0a.33.33 0 1 0 .35-.33.33.33 0 0 0 -.3.33z"/><path d="m9.5 9.88a.18.18 0 1 1 .18.18.18.18 0 0 1 -.18-.18zm0 0a.15.15 0 1 0 .15-.15.15.15 0 0 0 -.13.15z"/><path d="m8 9.32.39.67h-.81zm0 .12-.29.5h.58z"/><path d="m11.12 8.78.32-.19v.41zm.06 0 .24.14v-.28z"/><path d="m6.4 7.17.32.19-.3.17zm0 0v.33l.24-.14z"/><path d="m7.41 8.33.32.18-.3.17zm0 0v.27l.24-.14z"/><path d="m9 6.91.24.41h-.52zm0 .09-.18.3h.35z"/><path d="m7.06 11.88s0 0 .06 0 0 0 0 0 0 0 .06 0 0 0 .05 0 0 0 0 0 0 0 .05 0 0 0 .05 0 0 0 0 0 0 0 .05 0 0 0 .05 0 0 0 0 0 0 0 .05 0 0 0 .05 0 0 0 0 0 0 0 .05 0 0 0 .05 0 0 0 0 0 0 0 .05 0 0 0 .05 0 0 0 0 0 0 0 .05 0 0 0 .05 0 0 0 0 0 0 0 .05 0 0 0 .05 0 0 0 0 0 0 0 .05 0 0 0 .05 0 0 0 0 0 0 0-.05 0 0 0 0 0 0 0-.05 0 0 0-.05 0 0 0 0 0 0 0-.05 0 0 0-.05 0 0 0 0 0 0 0-.05 0 0 0-.05 0 0 0 0 0 0 0-.05 0 0 0-.05 0 0 0 0 0 0 0-.05 0 0 0-.05 0 0 0 0 0 0 0-.05 0 0 0-.05 0 0 0 0 0 0 0-.05 0 0 0-.05 0 0 0 0 0 0 0-.05 0 0 0-.05 0 0 0 0 0 0 0-.05 0 0 0-.05 0 0 0 0 0 0 0-.05 0h-.03s0 0 0 0 0 0 .06 0z"/><path d="m11.07 9.77h.07a.05.05 0 0 0 0 0 0 0 0 0 1 0 0 0 0 0 0 0 0 0 .05.05 0 0 0 0 0s0 0 0 0a0 0 0 0 0 0 0s0 0 0 0a0 0 0 0 0 0 0s0 0 0 0a.05.05 0 0 0 0 0s0 0 0 0a.05.05 0 0 0 0 0 .06.06 0 0 0 0 0 0 0 0 0 1 0 0 .05.05 0 0 0 0 0 .06.06 0 0 0 0 0 0 0 0 0 1 0 0 .05.05 0 0 0 0 0s0 0 0 0a0 0 0 0 0 0 0 .05.05 0 0 0 0 0 0 0 0 0 1 0 0 .05.05 0 0 0 0 0 0 0 0 0 1 0 0 .05.05 0 0 0 0 0 0 0 0 0 1 0 0 0 0 0 0 0 .07 0s0 0 0 0a.05.05 0 0 0 0 0 0 0 0 0 1 0 0 .05.05 0 0 0 0 0 0 0 0 0 0 0 0 0 0 0 0 1 0 0 .05.05 0 0 0 0 0 0 0 0 0 1 0 0 .05.05 0 0 0 0 0s0 0 0 0a0 0 0 0 0 .07 0s0 0 0 0a.05.05 0 0 0 0 0 0 0 0 0 0 0 0s0 0 0 0a0 0 0 0 0 0 0s0 0 0 0a0 0 0 0 0 0 0 .05.05 0 0 0 0 0s0 0 0 0a0 0 0 0 0 0 0z"/><path d="m9.79 7.1s0 0 0 0 0 0 .06 0 0 0 0 0 0 0 .06 0 0 0 0 0 0 0 .06 0 0 0 0 0a.06.06 0 0 0 .06 0s0 0 0 0 0 0 .06 0 0 0 0 0a.07.07 0 0 0 .05 0s0 0 0 0a.07.07 0 0 0 .06 0s0 0 0 0a.07.07 0 0 0 .05 0s0 0 0 0 0 0 .06 0 0 0 0 0 0 0-.06 0 0 0 0 0a.07.07 0 0 0 -.05 0s0 0 0 0a.07.07 0 0 0 -.05 0s0 0 0 0a.07.07 0 0 0 -.06 0s0 0 0 0a.07.07 0 0 0 -.05 0s0 0 0 0a.07.07 0 0 0 -.05 0s0 0 0 0a.07.07 0 0 0 -.05 0s0 0 0 0 0 0-.06 0 0 0 0 0 0 0-.06 0 0 0 0 0 0 0-.06 0 0 0 0 0a.07.07 0 0 0 .03 0z"/><path d="m6.85 8.1s0 0 0 0h.15s0 0 0 0 0-.1 0-.1a0 0 0 0 0 0 0s0 0 0 0a0 0 0 0 0 0 0s0 0 0 0h1s0 0 0 0a0 0 0 0 0 0 0s0 0 0 0h-1s0 0 0 0z"/><path d="m5.19 6.18.66-.66-.04-.04-.66.66z"/><path d="m5.81 6.18.04-.04-.66-.66-.04.04z"/><path d="m.03 11.01.5-.5-.03-.03-.5.5z"/><path d="m.5 11.01.03-.03-.5-.5-.03.03z"/><path d="m3.12 6.15c.07 0 .09-.1.12-.21s0-.17.07-.17.06.1.07.17.05.21.12.21.09-.1.12-.21 0-.17.07-.17.06.1.07.17.05.21.12.21.12-.1.12-.2 0-.17.07-.17c-.07 0-.09.1-.12.21s0 .17-.07.17-.06-.1-.07-.17-.05-.21-.12-.21-.09.1-.12.21 0 .17-.07.17-.06-.1-.07-.17-.05-.21-.12-.21-.09.1-.12.21 0 .17-.07.17z"/><path d="m2.91 9.13c.09 0 .09-.07.17-.13s.11-.14.14-.13c-.06 0-.13.06-.19.14s-.1.13-.13.13 0-.12 0-.19 0-.21 0-.24-.13.05-.19.14-.1.13-.13.13 0-.12 0-.19 0-.21 0-.24-.13.06-.19.14-.1.13-.13.13c.06 0 .13-.06.19-.14s.11-.14.14-.13 0 .12 0 .19 0 .21 0 .24.13-.06.19-.14.11-.14.14-.13 0 .12 0 .19 0 .21 0 .24z"/><path d="m2.16 11.47s0-.08 0-.13 0-.09 0-.1.06 0 .09 0 .1.07.13 0 0-.08 0-.13 0-.09 0-.1.06 0 .09 0 .1.07.13 0 0-.08 0-.13 0-.09 0-.1 0 .08 0 .13 0 .09 0 .1-.06 0-.09 0-.1-.07-.13 0 0 .08 0 .13 0 .09 0 .1-.06 0-.09 0-.1-.07-.13 0 0 .08 0 .13 0 .09 0 .1z"/><path d="m1.84 5.51h.72v.71h-.72zm.64.08h-.56v.56h.56z"/><path d="m5.44 10.92h.46v.45h-.46zm.41 0h-.36v.36h.36z"/><path d="m.12 5.88.52-.52.52.52-.52.52zm.52-.41-.42.41.42.41.42-.41z"/><path d="m3.49 11.2.35-.35.35.35-.35.35zm.35-.28-.28.28.28.28.28-.28z"/><path d="m5.94 8.05.21-.51-.49.13.19-.46-.54.14.02.05.43-.11-.19.46.48-.13-.16.41z"/><path d="m.48 9.2.01-.04-.31-.06.26-.23-.35-.08.24-.21-.03-.03-.29.27.35.07-.27.24z"/><path d="m3.89 8.29h.05a.39.39 0 0 1 .18-.52.4.4 0 0 1 .53.18h.05a.46.46 0 0 0 -.61-.21.45.45 0 0 0 -.2.55z"/><path d="m.93 7.64a.32.32 0 0 1 0-.25.33.33 0 0 1 .17-.19.33.33 0 0 1 .44.15.38.38 0 0 0 -.51-.17.38.38 0 0 0 -.17.5z"/><path d="m4.68 10.71a.2.2 0 0 0 .13 0 .2.2 0 0 0 0-.28.18.18 0 0 1 0 .25.18.18 0 0 1 -.25 0 .2.2 0 0 0 .12.03z"/><path d="m1.17 11a.17.17 0 0 1 .13-.21.18.18 0 0 1 .13 0 .17.17 0 0 1 .08.11.2.2 0 0 0 -.4.09z"/><path d="m5.4 9.64a.38.38 0 1 1 .38.38.38.38 0 0 1 -.38-.38zm0 0a.33.33 0 1 0 .33-.33.33.33 0 0 0 -.28.33z"/><path d="m3.25 9.88a.18.18 0 1 1 .18.18.18.18 0 0 1 -.18-.18zm0 0a.15.15 0 1 0 .15-.15.15.15 0 0 0 -.13.15z"/><path d="m1.72 9.32.39.67h-.78zm0 .12-.29.5h.57z"/><path d="m4.87 8.78.32-.19v.41zm.06 0 .24.14v-.28z"/><path d="m.15 7.17.32.19-.3.17zm0 0v.33l.24-.14z"/><path d="m1.16 8.33.32.18-.3.17zm0 0v.27l.24-.14z"/><path d="m2.71 6.91.24.41h-.48zm0 .07-.18.3h.35z"/><path d="m.81 11.88s0 0 .06 0 0 0 0 0 0 0 .06 0 0 0 .05 0 0 0 0 0 0 0 .05 0 0 0 .05 0 0 0 0 0 0 0 .05 0 0 0 .05 0 0 0 0 0 0 0 .05 0 0 0 .05 0 0 0 0 0 0 0 .05 0 0 0 .05 0 0 0 0 0 0 0 .05 0 0 0 .05 0 0 0 0 0 0 0 .05 0 0 0 .05 0 0 0 0 0 0 0 .05 0 0 0 .05 0 0 0 0 0 0 0 .05 0 0 0 .05 0 0 0 0 0 0 0-.05 0 0 0 0 0 0 0-.05 0 0 0-.05 0 0 0 0 0 0 0-.05 0 0 0-.05 0 0 0 0 0 0 0-.05 0 0 0-.05 0 0 0 0 0 0 0-.05 0 0 0-.05 0 0 0 0 0 0 0-.05 0 0 0-.05 0 0 0 0 0 0 0-.05 0 0 0-.05 0 0 0 0 0 0 0-.05 0 0 0-.05 0 0 0 0 0 0 0-.05 0 0 0-.05 0 0 0 0 0 0 0-.06 0 0 0-.05 0 0 0 0 0 0 0-.06 0 0 0 0 0 .02 0 .05 0z"/><path d="m4.82 9.77h.07a.05.05 0 0 0 0 0s0 0 0 0a0 0 0 0 0 0 0 .05.05 0 0 0 0 0s0 0 0 0a0 0 0 0 0 0 0 .05.05 0 0 0 0 0s0 0 0 0a0 0 0 0 0 0 0s0 0 0 0a0 0 0 0 0 0 0 .05.05 0 0 0 0 0s0 0 0 0a0 0 0 0 0 0 0 .06.06 0 0 0 0 0 0 0 0 0 1 0 0 .05.05 0 0 0 0 0 .06.06 0 0 0 0 0s0 0 0 0a.05.05 0 0 0 0 0h-.89s0 0 0 0a0 0 0 0 0 0 0 .05.05 0 0 0 0 0 0 0 0 0 1 0 0 .05.05 0 0 0 0 0 0 0 0 0 1 0 0 .05.05 0 0 0 0 0 0 0 0 0 1 0 0 0 0 0 0 0 -.2-.77 0 0 0 0 1 0 0 .05.05 0 0 0 0 0h.2a0 0 0 0 1 0 0 .05.05 0 0 0 0 0 0 0 0 0 0 0 0 0 0 0 0 1 0 0 0 0 0 0 0 .07 0 0 0 0 0 1 0 0 .05.05 0 0 0 0 0s0 0 0 0a0 0 0 0 0 0 0s0 0 0 0a.05.05 0 0 0 0 0 0 0 0 0 0 0 0s0 0 0 0a0 0 0 0 0 0 0s0 0 0 0a0 0 0 0 0 0 0 .05.05 0 0 0 0 0s0 0 0 0a0 0 0 0 0 0 0z"/><path d="m3.54 7.1s0 0 0 0 0 0 .06 0 0 0 0 0 0 0 .06 0 .34-.1.34-.1 0 0 .06 0 0 0 0 0 0 0 .06 0 0 0 0 0 0 0 .06 0 0 0 0 0a.07.07 0 0 0 .05 0s0 0 0 0a.07.07 0 0 0 .06 0s0 0 0 0a.07.07 0 0 0 .05 0h.66s0 0 0 0 0 0 .06 0 0 0 0 0 0 0-.06 0 0 0 0 0a.07.07 0 0 0 -.05 0s0 0 0 0a.07.07 0 0 0 -.05 0s0 0 0 0a.07.07 0 0 0 -.06 0s0 0 0 0a.07.07 0 0 0 -.05 0s0 0 0 0a.07.07 0 0 0 -.05 0s0 0 0 0a.07.07 0 0 0 -.05 0h-.69s0 0 0 0 0 0-.06 0 0 0 0 0 0 0-.06 0 0 0 0 0 0 0-.06 0 0 0 0 0a.07.07 0 0 0 -.28.1z"/><path d="m.6 8.1s0 0 0 0a0 0 0 0 0 .4-.1s0 0 0 0z"/><path d="m.97 12.89-.65-.66.04-.03.65.65z"/><path d="m.36 12.89-.04-.04.66-.65.03.03z"/><path d="m6.14 17.72-.51-.5.03-.03.51.5z"/><path d="m5.66 17.72-.03-.03.51-.5.03.03z"/><path d="m3.05 12.87c-.07 0-.09-.1-.12-.21s0-.17-.07-.17-.06.1-.07.17-.05.21-.12.21-.09-.1-.12-.21 0-.17-.07-.17-.06.1-.07.17-.05.21-.12.21-.09-.1-.12-.21 0-.17-.07-.17c.07 0 .09.1.12.21s0 .17.07.17.06-.1.07-.17.05-.21.12-.21.09.1.12.21 0 .17.07.17.06-.1.07-.17.05-.21.12-.21.09.1.12.21 0 .17.07.17z"/><path d="m3.25 15.84c-.05 0-.11-.07-.17-.15s-.11-.14-.14-.13c.06 0 .13.05.19.14s.1.13.13.13 0-.12 0-.19 0-.21 0-.24.13.05.19.14.1.13.13.13 0-.12 0-.19 0-.21 0-.24.13.06.19.14.1.13.13.13h.1c-.06 0-.13-.06-.19-.14s-.11-.14-.14-.13 0 .12 0 .19 0 .21 0 .24-.13-.06-.19-.14-.11-.14-.14-.13 0 .12 0 .19 0 .21 0 .24z"/><path d="m4 18.19s0-.08 0-.13 0-.09 0-.1 0 .04 0 .04-.1.07-.13 0 0-.08 0-.13 0-.09 0-.1-.06 0-.09 0-.1.07-.13 0 0-.08 0-.13 0-.09 0-.1 0 .08 0 .13 0 .09 0 .1.06 0 .09 0 .1-.07.13 0 0 .08 0 .13 0 .09 0 .1.06 0 .09 0 .1-.07.13 0 0 .08 0 .13 0 .09 0 .1z"/><path d="m4.33 12.93h-.72v-.71h.71zm-.64-.08h.56v-.55h-.56z"/><path d="m.73 18.09h-.46v-.45h.46zm-.41-.09h.36v-.36h-.36z"/><path d="m5.53 13.11-.53-.52.52-.52.52.52zm-.42-.52.42.41.42-.41-.42-.41z"/><path d="m2.32 18.26-.32-.35.35-.35.35.35zm-.32-.35.28.28.28-.28-.28-.28z"/><path d="m.23 14.77-.21-.52.48.13-.18-.46.53.14-.01.05-.43-.11.19.46-.49-.13.17.41z"/><path d="m5.69 15.91-.01-.03.31-.07-.27-.23.36-.07-.24-.22.03-.02.29.26-.35.07.27.24z"/><path d="m2.27 15h-.05a.39.39 0 0 0 -.22-.55.4.4 0 0 0 -.53.18h-.05a.46.46 0 0 1 .61-.21.45.45 0 0 1 .24.58z"/><path d="m5.24 14.35a.33.33 0 0 0 0-.25.33.33 0 0 0 -.61 0 .38.38 0 0 1 .51-.17.38.38 0 0 1 .17.51z"/><path d="m1.49 17.42a.2.2 0 0 1 -.15-.33.18.18 0 0 0 0 .25.18.18 0 0 0 .25 0 .2.2 0 0 1 -.1.08z"/><path d="m5 17.75a.17.17 0 0 0 0-.13.18.18 0 0 0 -.11-.08.18.18 0 0 0 -.21.13.2.2 0 0 1 .32-.08.2.2 0 0 1 0 .16z"/><path d="m.38 16.73a.38.38 0 1 1 .38-.38.38.38 0 0 1 -.38.38zm0-.71a.33.33 0 1 0 .33.33.33.33 0 0 0 -.33-.35z"/><path d="m2.74 16.77a.18.18 0 1 1 .18-.18.18.18 0 0 1 -.18.18zm0-.33a.15.15 0 1 0 .15.15.15.15 0 0 0 -.15-.15z"/><path d="m4.84 16.7h-.78l.39-.7zm-.68-.06h.58l-.29-.5z"/><path d="m1 15.67v-.37l.32.19zm0-.32v.27l.24-.14z"/><path d="m6 14.25-.3-.17.3-.19zm-.27-.18.24.14v-.27z"/><path d="m5 15.41-.3-.17.3-.24zm-.27-.19.24.14v-.27z"/><path d="m3.7 14h-.48l.24-.41zm-.41 0h.35l-.18-.3z"/><path d="m5.36 18.59s0 0-.06 0 0 0 0 0 0 0-.06 0 0 0-.05 0 0 0 0 0 0 0-.05 0 0 0-.05 0 0 0 0 0 0 0-.05 0 0 0-.05 0 0 0 0 0 0 0-.05 0 0 0-.05 0 0 0 0 0 0 0-.05 0 0 0-.05 0 0 0 0 0 0 0-.05 0 0 0-.05 0 0 0 0 0 0 0-.05 0 0 0-.05 0 0 0 0 0 0 0-.05 0 0 0-.05 0 0 0 0 0 0 0-.05 0 0 0-.05 0 0 0 0 0 0 0 .05 0 0 0 0 0 0 0 .05 0 0 0 .05 0 0 0 0 0 0 0 .05 0 0 0 .05 0 0 0 0 0 0 0 .05 0 0 0 .05 0 0 0 0 0 0 0 .05 0 0 0 .05 0 0 0 0 0 0 0 .05 0 0 0 .05 0 0 0 0 0 0 0 .05 0 0 0 .05 0 0 0 0 0 0 0 .05 0 0 0 .05 0 0 0 0 0 0 0 .05 0 0 0 .05 0 0 0 0 0 0 0 .05 0 0 0 .05 0 0 0 0 0 0 0 .05 0 0 0 0 0 0 0-.03 0z"/><path d="m1.35 16.48h-.07a.05.05 0 0 1 0 0s0 0 0 0a.05.05 0 0 1 0 0h.08s0 0 0 0a0 0 0 0 1 0 0 .05.05 0 0 1 0 0s0 0 0 0a0 0 0 0 1 0 0 .05.05 0 0 1 0 0 0 0 0 0 0 0 0 0 0 0 0 1 0 0 .05.05 0 0 1 0 0 0 0 0 0 0 0 0 .05.05 0 0 1 0 0s0 0 0 0a0 0 0 0 1 0 0 .05.05 0 0 1 0 0s0 0 0 0a0 0 0 0 1 .07 0s0 0 0 0a0 0 0 0 1 0 0 .05.05 0 0 1 0 0s0 0 0 0a.05.05 0 0 1 0 0 0 0 0 0 0 0 0 .05.05 0 0 1 0 0s0 0 0 0a0 0 0 0 1 0 0 .05.05 0 0 1 0 0 0 0 0 0 0 0 0 0 0 0 0 1 -.07 0s0 0 0 0a0 0 0 0 1 0 0 .05.05 0 0 1 0 0s0 0 0 0a0 0 0 0 1 0 0 .05.05 0 0 1 0 0h.64s0 0 0 0a0 0 0 0 1 0 0 .05.05 0 0 1 0 0s0 0 0 0a.05.05 0 0 1 0 0s0 0 0 0a0 0 0 0 1 0 0s0 0 0 0a0 0 0 0 1 0 0s0 0 0 0a0 0 0 0 1 0 0s0 0 0 0a0 0 0 0 1 0 0z"/><path d="m2.63 13.82s0 0 0 0 0 0-.06 0 0 0 0 0 0 0-.06 0 0 0 0 0 0 0-.06 0 0 0 0 0h-.45s0 0 0 0 0 0-.06 0 0 0 0 0 0 0-.06 0 0 0 0 0a.07.07 0 0 1 -.05 0s0 0 0 0 0 0-.06 0 0 0 0 0a.07.07 0 0 1 -.05 0s0 0 0 0h-.72s0 0 0 0 0 0-.06 0 0 0 0 0 0 0 .06 0 0 0 0 0a.07.07 0 0 1 .05 0s0 0 0 0a.07.07 0 0 1 .05 0s0 0 0 0 0 0 .06 0 0 0 0 0a.07.07 0 0 1 .05 0s0 0 0 0a.07.07 0 0 1 .05 0h.74s0 0 0 0a.07.07 0 0 1 .05 0s0 0 0 0 0 0 .06 0 0 0 0 0a.07.07 0 0 1 .06 0s0 0 0 0a.07.07 0 0 1 .06 0s0 0 0 0a.07.07 0 0 1 .4 0z"/><path d="m5.57 14.81s0 0 0 0a0 0 0 0 1 0 0s0 0 0 0h-.57s0 0 0 0a0 0 0 0 1 0 0s0 0 0 0z"/><path d="m7.23 12.89-.66-.66.04-.03.65.65z"/><path d="m6.61 12.89-.04-.04.66-.65.03.03z"/><path d="m12.39 17.72-.51-.5.03-.03.51.5z"/><path d="m11.91 17.72-.03-.03.51-.5.03.03z"/><path d="m9.3 12.87c-.07 0-.09-.1-.12-.21s0-.17-.07-.17-.06.1-.07.17-.05.21-.12.21-.09-.1-.12-.21 0-.17-.07-.17-.06.1-.07.17-.05.21-.12.21-.09-.1-.12-.21 0-.17-.07-.17c.07 0 .09.1.12.21s0 .17.07.17.06-.1.07-.17.05-.21.12-.21.09.1.12.21 0 .17.07.17.06-.1.07-.17.05-.21.12-.21.09.1.12.21 0 .17.07.17z"/><path d="m9.5 15.84c-.05 0-.11-.07-.17-.15s-.11-.14-.14-.13c.06 0 .13.05.2.14s.1.13.13.13 0-.12 0-.19 0-.21 0-.24.13.05.19.14.1.13.13.13 0-.12 0-.19 0-.21 0-.24.13.06.19.14.1.13.13.13c-.06 0-.13-.06-.19-.14s-.11-.14-.14-.13 0 .12 0 .19 0 .21 0 .24-.13-.06-.19-.14-.11-.14-.14-.13 0 .12 0 .19 0 .21 0 .24z"/><path d="m10.26 18.19s0-.08 0-.13 0-.09 0-.1-.06 0-.09 0-.1.07-.13 0 0-.08 0-.13 0-.09 0-.1-.06 0-.09 0-.1.07-.13 0 0-.08 0-.13 0-.09 0-.1 0 .08 0 .13 0 .09 0 .1.06 0 .09 0 .1-.07.13 0 0 .08 0 .13 0 .09 0 .1.06 0 .09 0 .1-.07.13 0 0 .08 0 .13 0 .09 0 .1z"/><path d="m10.58 12.93h-.72v-.71h.71zm-.64-.08h.56v-.55h-.56z"/><path d="m7 18.09h-.48v-.45h.48zm-.41 0h.36v-.36h-.38z"/><path d="m11.78 13.11-.52-.52.52-.52.52.52zm-.42-.52.42.41.42-.41-.42-.41z"/><path d="m8.57 18.26-.35-.35.35-.35.35.35zm-.28-.35.28.28.28-.28-.28-.28z"/><path d="m6.48 14.77-.21-.52.48.13-.18-.46.53.14-.01.05-.43-.11.19.46-.49-.13.17.41z"/><path d="m11.94 15.91-.01-.03.31-.07-.27-.23.36-.07-.24-.22.03-.02.29.26-.35.07.27.24z"/><path d="m8.52 15h-.05a.39.39 0 0 0 -.18-.52.4.4 0 0 0 -.53.18h-.05a.46.46 0 0 1 .61-.21.45.45 0 0 1 .2.55z"/><path d="m11.49 14.35a.32.32 0 0 0 0-.25.33.33 0 0 0 -.17-.19.33.33 0 0 0 -.44.15.38.38 0 0 1 .51-.17.38.38 0 0 1 .17.51z"/><path d="m7.74 17.42a.2.2 0 0 1 -.16-.33.18.18 0 0 0 0 .25.18.18 0 0 0 .25 0 .2.2 0 0 1 -.09.08z"/><path d="m11.25 17.75a.17.17 0 0 0 0-.13.18.18 0 0 0 -.32.06.2.2 0 0 1 .09-.13.2.2 0 0 1 .31.21z"/><path d="m6.63 16.73a.38.38 0 1 1 .37-.38.38.38 0 0 1 -.37.38zm0-.71a.33.33 0 1 0 .33.33.33.33 0 0 0 -.33-.35z"/><path d="m9 16.77a.18.18 0 1 1 .18-.18.18.18 0 0 1 -.18.18zm0-.33a.15.15 0 1 0 .15.15.15.15 0 0 0 -.15-.15z"/><path d="m11.09 16.7h-.78l.39-.7zm-.68-.06h.59l-.29-.5z"/><path d="m7.22 15.67v-.37l.32.19zm0-.32v.27l.24-.14z"/><path d="m12.27 14.25-.3-.17.32-.18zm-.27-.18.24.14v-.27z"/><path d="m11.26 15.41-.3-.17.32-.18zm-.26-.19.24.14v-.27z"/><path d="m9.95 14h-.48l.24-.41zm-.41 0h.35l-.18-.3z"/><path d="m11.61 18.59s0 0-.05 0 0 0 0 0 0 0-.05 0 0 0-.05 0 0 0 0 0 0 0-.05 0 0 0-.05 0 0 0 0 0 0 0-.05 0 0 0-.05 0 0 0 0 0 0 0-.05 0 0 0-.05 0 0 0 0 0 0 0-.05 0 0 0-.05 0 0 0 0 0 0 0-.05 0 0 0-.05 0 0 0 0 0 0 0-.05 0 0 0-.05 0 0 0 0 0 0 0-.05 0 0 0-.05 0 0 0 0 0 0 0-.05 0 0 0-.05 0 0 0 0 0 0 0 .05 0 0 0 0 0 0 0 .05 0 0 0 .05 0 0 0 0 0 0 0 .05 0 0 0 .05 0 0 0 0 0 0 0 .05 0 0 0 .05 0 0 0 0 0 0 0 .05 0 0 0 .05 0 0 0 0 0 0 0 .05 0 0 0 .05 0 0 0 0 0 0 0 .05 0 0 0 .05 0 0 0 0 0 0 0 .05 0 0 0 .05 0 0 0 0 0 0 0 .05 0 0 0 .05 0 0 0 0 0 0 0 .05 0 0 0 .06 0 0 0 0 0 0 0 .05 0 0 0 0 0-.03 0-.06 0z"/><path d="m7.6 16.48h-.07a.05.05 0 0 1 0 0s0 0 0 0a0 0 0 0 1 0 0h.08s0 0 0 0a0 0 0 0 1 0 0 .05.05 0 0 1 0 0s0 0 0 0a0 0 0 0 1 0 0 .05.05 0 0 1 0 0h.39s0 0 0 0a0 0 0 0 1 0 0 0 0 0 0 0 0 0 .05.05 0 0 1 0 0s0 0 0 0a0 0 0 0 1 0 0 .05.05 0 0 1 0 0s0 0 0 0a0 0 0 0 1 0 0s0 0 0 0a0 0 0 0 1 0 0 .05.05 0 0 1 0 0s0 0 0 0a.05.05 0 0 1 0 0 0 0 0 0 0 0 0 .05.05 0 0 1 0 0s0 0 0 0a0 0 0 0 1 0 0 .05.05 0 0 1 0 0 0 0 0 0 0 0 0 0 0 0 0 1 -.07 0s0 0 0 0a.05.05 0 0 1 0 0s0 0 0 0a0 0 0 0 1 -.07 0s0 0 0 0a0 0 0 0 1 0 0 .05.05 0 0 1 0 0s0 0 0 0a0 0 0 0 1 -.07 0h.21s0 0 0 0a0 0 0 0 1 -.06 0s0 0 0 0a0 0 0 0 1 0 0s0 0 0 0a0 0 0 0 1 0 0 0 0 0 0 0 0 0 .05.05 0 0 1 0 0z"/><path d="m8.88 13.82s0 0 0 0 0 0-.06 0 0 0 0 0 0 0-.06 0 0 0 0 0 0 0-.06 0 0 0 0 0a.06.06 0 0 1 -.06 0s0 0 0 0 0 0-.06 0 0 0 0 0a.07.07 0 0 1 -.05 0s0 0 0 0 0 0-.06 0 0 0 0 0a.07.07 0 0 1 -.05 0s0 0 0 0 0 0-.06 0 0 0 0 0 0 0 .06 0 0 0 0 0a.07.07 0 0 1 .05 0s0 0 0 0a.07.07 0 0 1 .05 0s0 0 0 0 0 0 .06 0 0 0 0 0a.07.07 0 0 1 .05 0h-.63s0 0 0 0a.07.07 0 0 1 .05 0s0 0 0 0a.07.07 0 0 1 .05 0s0 0 0 0 0 0 .06 0 0 0 0 0a.07.07 0 0 1 .06 0s0 0 0 0a.07.07 0 0 1 .06 0h.72s0 0 0 0a.07.07 0 0 1 -.12 0z"/><path d="m11.82 14.81s0 0 0 0z"/><path d="m13.56 12.89-.66-.66.04-.03.66.65z"/><path d="m12.94 12.89-.04-.04.66-.65.04.03z"/><path d="m18.72 17.72-.5-.5.03-.03.5.5z"/><path d="m18.25 17.72-.03-.03.5-.5.03.03z"/><path d="m15.63 12.87c-.07 0-.09-.1-.12-.21s0-.17-.07-.17-.06.1-.08.17-.05.21-.12.21-.09-.1-.12-.21 0-.17-.07-.17-.06.1-.07.17-.05.21-.12.21-.09-.1-.12-.21 0-.17-.07-.17c.07 0 .09.1.12.21s0 .17.07.17.06-.1.07-.17.05-.21.12-.21.09.1.12.21 0 .17.08.17.06-.1.07-.17.05-.21.12-.21.09.1.12.21 0 .17.07.17z"/><path d="m15.84 15.84c-.05 0-.11-.07-.17-.15s-.11-.14-.14-.13c.06 0 .13.05.2.14s.1.13.13.13 0-.12 0-.19 0-.21 0-.24.13.05.19.14.1.13.13.13 0-.12 0-.19 0-.21 0-.24.13.06.19.14.1.13.13.13c-.06 0-.12-.06-.19-.14s-.11-.14-.14-.13 0 .12 0 .19 0 .21 0 .24-.13-.06-.2-.14-.11-.14-.14-.13 0 .12 0 .19 0 .21 0 .24z"/><path d="m16.59 18.19s0-.08 0-.13 0-.09 0-.1-.06 0-.09 0-.1.07-.13 0 0-.08 0-.13 0-.09 0-.1-.06 0-.09 0-.1.07-.13 0 0-.08 0-.13 0-.09 0-.1 0 .08 0 .13 0 .09 0 .1.06 0 .09 0 .1-.07.13 0 0 .08 0 .13 0 .09 0 .1.06 0 .09 0 .1-.07.13 0 0 .08 0 .13 0 .09 0 .1z"/><path d="m16.91 12.93h-.71v-.71h.71zm-.64-.08h.56v-.55h-.56z"/><path d="m13.31 18.09h-.46v-.45h.46zm-.41 0h.36v-.36h-.36z"/><path d="m18.11 13.11-.52-.52.52-.52.52.52zm-.42-.52.42.41.41-.41-.41-.41z"/><path d="m14.91 18.26-.35-.35.35-.35.35.35zm-.28-.35.28.28.28-.28-.28-.28z"/><path d="m12.81 14.77-.21-.52.49.13-.19-.46.54.14-.02.05-.43-.11.19.46-.48-.13.16.41z"/><path d="m18.27 15.91-.01-.03.31-.07-.26-.23.35-.07-.24-.22.03-.02.29.26-.35.07.27.24z"/><path d="m14.86 15h-.05a.39.39 0 0 0 -.18-.52.4.4 0 0 0 -.53.18h-.05a.46.46 0 0 1 .61-.21.45.45 0 0 1 .2.55z"/><path d="m17.82 14.35a.32.32 0 0 0 0-.25.33.33 0 0 0 -.17-.19.33.33 0 0 0 -.44.15.38.38 0 0 1 .51-.17.38.38 0 0 1 .17.51z"/><path d="m14.07 17.42a.2.2 0 0 1 -.13 0 .2.2 0 0 1 0-.28.18.18 0 0 0 0 .25.18.18 0 0 0 .25 0 .2.2 0 0 1 -.12.03z"/><path d="m17.58 17.75a.18.18 0 0 0 0-.13.18.18 0 0 0 -.24-.05.18.18 0 0 0 -.08.11.2.2 0 0 1 .4.09z"/><path d="m13 16.73a.38.38 0 1 1 .38-.38.38.38 0 0 1 -.38.38zm0-.73a.33.33 0 1 0 .33.33.33.33 0 0 0 -.33-.33z"/><path d="m15.33 16.77a.18.18 0 1 1 .18-.18.18.18 0 0 1 -.18.18zm0-.33a.15.15 0 1 0 .15.15.15.15 0 0 0 -.15-.15z"/><path d="m17.42 16.7h-.78l.36-.7zm-.68-.06h.58l-.29-.5z"/><path d="m13.56 15.67v-.37l.32.19zm0-.32v.27l.24-.14z"/><path d="m18.6 14.25-.3-.17.32-.18zm-.27-.18.24.14v-.27z"/><path d="m17.59 15.41-.3-.17.32-.18zm-.27-.19.24.14v-.27z"/><path d="m16.28 14h-.48l.24-.41zm-.41 0h.35l-.18-.3z"/><path d="m17.94 18.59s0 0-.06 0 0 0 0 0 0 0-.05 0 0 0-.05 0 0 0 0 0 0 0-.05 0 0 0-.05 0 0 0 0 0 0 0-.05 0 0 0-.05 0 0 0 0 0 0 0-.05 0 0 0-.05 0 0 0 0 0 0 0-.05 0 0 0-.05 0 0 0 0 0 0 0-.05 0 0 0-.05 0 0 0 0 0 0 0-.05 0 0 0-.05 0 0 0 0 0 0 0-.05 0 0 0-.05 0 0 0 0 0 0 0-.05 0 0 0-.05 0 0 0 0 0 0 0 .05 0 0 0 0 0 0 0 .05 0 0 0 .05 0 0 0 0 0 0 0 .05 0 0 0 .05 0 0 0 0 0 0 0 .05 0 0 0 .05 0 0 0 0 0 0 0 .05 0 0 0 .05 0 0 0 0 0 0 0 .05 0 0 0 .05 0 0 0 0 0 0 0 .05 0 0 0 .05 0 0 0 0 0 0 0 .05 0 0 0 .05 0 0 0 0 0 0 0 .05 0 0 0 .05 0 0 0 0 0 0 0 .05 0 0 0 .05 0 0 0 0 0 0 0 .05 0 0 0 0 0 .02 0-.04 0z"/><path d="m13.93 16.48h-.07a.05.05 0 0 1 0 0s0 0 0 0a0 0 0 0 1 0 0h.08a0 0 0 0 0 0 0 0 0 0 0 1 0 0 .05.05 0 0 1 0 0s0 0 0 0a0 0 0 0 1 0 0 .05.05 0 0 1 0 0s0 0 0 0a0 0 0 0 1 0 0s0 0 0 0a0 0 0 0 1 0 0 .05.05 0 0 1 0 0s0 0 0 0a0 0 0 0 1 0 0 .05.05 0 0 1 0 0s0 0 0 0a0 0 0 0 1 0 0s0 0 0 0a0 0 0 0 1 0 0 .05.05 0 0 1 0 0s0 0 0 0a.05.05 0 0 1 0 0 0 0 0 0 0 0 0 0 0 0 0 1 0 0s0 0 0 0a.05.05 0 0 1 0 0s0 0 0 0a.05.05 0 0 1 0 0 0 0 0 0 0 0 0 0 0 0 0 1 0 0 .05.05 0 0 1 0 0 0 0 0 0 0 0 0 0 0 0 0 1 -.07 0s0 0 0 0a.05.05 0 0 1 0 0 0 0 0 0 0 0 0 0 0 0 0 1 0 0 .05.05 0 0 1 0 0s0 0 0 0a0 0 0 0 1 -.06 0s0 0 0 0a0 0 0 0 1 0 0s0 0 0 0a0 0 0 0 1 0 0s0 0 0 0a0 0 0 0 1 0 0z"/><path d="m15.21 13.82s0 0 0 0 0 0-.06 0 0 0 0 0 0 0-.06 0 0 0 0 0 0 0-.06 0 0 0 0 0 0 0-.06 0 0 0 0 0 0 0-.06 0 0 0 0 0a.08.08 0 0 1 -.05 0s0 0 0 0 0 0-.06 0 0 0 0 0a.07.07 0 0 1 -.05 0s0 0 0 0 0 0-.06 0 0 0 0 0 0 0 .06 0 0 0 0 0a.08.08 0 0 1 .05 0s0 0 0 0a.08.08 0 0 1 .05 0s0 0 0 0 0 0 .06 0 0 0 0 0a.07.07 0 0 1 .05 0s0 0 0 0a.07.07 0 0 1 .05 0s0 0 0 0a.07.07 0 0 1 .05 0s0 0 0 0 0 0 .06 0 0 0 0 0a.07.07 0 0 1 .06 0s0 0 0 0a.07.07 0 0 1 .06 0s0 0 0 0a.07.07 0 0 1 -.03 0z"/><path d="m18.15 14.81s0 0 0 0a0 0 0 0 1 0 0s0 0 0 0a0 0 0 0 1 0 0s0 0 0 0a0 0 0 0 1 0 0s0 0 0 0a0 0 0 0 1 0 0s0 0 0 0z"/><path d="m19.81 12.89-.66-.66.04-.03.66.65z"/><path d="m19.19 12.89-.04-.04.66-.65.04.03z"/><path d="m24.97 17.72-.5-.5.03-.03.5.5z"/><path d="m24.5 17.72-.03-.03.5-.5.03.03z"/><path d="m21.88 12.87c-.07 0-.09-.1-.12-.21s0-.17-.07-.17-.06.1-.08.17-.05.21-.12.21-.09-.1-.12-.21 0-.17-.07-.17-.06.1-.07.17-.05.21-.12.21-.09-.1-.12-.21 0-.17-.07-.17c.07 0 .09.1.12.21s0 .17.07.17.06-.1.07-.17.05-.21.12-.21.09.1.12.21 0 .17.07.17.06-.1.07-.17.05-.21.12-.21.09.1.12.21 0 .17.07.17z"/><path d="m22.09 15.84c-.05 0-.11-.07-.17-.15s-.11-.14-.14-.13c.06 0 .13.05.2.14s.1.13.13.13 0-.12 0-.19 0-.21 0-.24.13.05.2.14.1.13.13.13 0-.12 0-.19 0-.21 0-.24.13.06.19.14.1.13.13.13c-.06 0-.13-.06-.19-.14s-.11-.14-.14-.13 0 .12 0 .19 0 .21 0 .24-.13-.06-.2-.14-.11-.14-.14-.13 0 .12 0 .19 0 .21 0 .24z"/><path d="m22.84 18.19s0-.08 0-.13 0-.09 0-.1-.06 0-.09 0-.1.07-.13 0 0-.08 0-.13 0-.09 0-.1-.06 0-.09 0-.1.07-.12 0 0-.08 0-.13 0-.09 0-.1 0 .08 0 .13 0 .09 0 .1.06 0 .09 0 .1-.07.13 0 0 .08 0 .13 0 .09 0 .1.06 0 .09 0 .1-.07.13 0 0 .08 0 .13 0 .09 0 .1z"/><path d="m23.16 12.93h-.71v-.71h.71zm-.64-.08h.56v-.55h-.56z"/><path d="m19.56 18.09h-.46v-.45h.46zm-.41 0h.36v-.36h-.36z"/><path d="m24.36 13.11-.52-.52.52-.52.52.52zm-.42-.52.42.41.42-.41-.42-.41z"/><path d="m21.16 18.26-.35-.35.35-.35.35.35zm-.28-.35.28.28.28-.28-.28-.28z"/><path d="m19.06 14.77-.21-.52.49.13-.19-.46.54.14-.02.05-.43-.11.19.46-.48-.13.16.41z"/><path d="m24.52 15.91-.01-.03.31-.07-.26-.23.35-.07-.24-.22.03-.02.29.26-.35.07.27.24z"/><path d="m21.11 15h-.05a.39.39 0 0 0 -.18-.52.4.4 0 0 0 -.53.18h-.05a.46.46 0 0 1 .61-.21.45.45 0 0 1 .2.55z"/><path d="m24.07 14.35a.32.32 0 0 0 0-.25.32.32 0 0 0 -.17-.19.33.33 0 0 0 -.44.15.38.38 0 0 1 .51-.17.38.38 0 0 1 .17.51z"/><path d="m20.32 17.42a.2.2 0 0 1 -.13 0 .2.2 0 0 1 0-.28.17.17 0 0 0 0 .25.18.18 0 0 0 .25 0 .21.21 0 0 1 -.12.03z"/><path d="m23.83 17.75a.17.17 0 0 0 0-.13.18.18 0 0 0 -.11-.08.18.18 0 0 0 -.13 0 .17.17 0 0 0 -.08.11.2.2 0 0 1 .24-.15.2.2 0 0 1 .13.09.2.2 0 0 1 -.05.16z"/><path d="m19.21 16.73a.38.38 0 1 1 .38-.38.38.38 0 0 1 -.38.38zm0-.71a.33.33 0 1 0 .33.33.33.33 0 0 0 -.33-.35z"/><path d="m21.58 16.77a.18.18 0 1 1 .18-.18.18.18 0 0 1 -.18.18zm0-.33a.15.15 0 1 0 .15.15.15.15 0 0 0 -.15-.15z"/><path d="m23.67 16.7h-.78l.39-.67zm-.67-.06h.58l-.29-.5z"/><path d="m19.81 15.67v-.37l.32.19zm0-.32v.27l.24-.14z"/><path d="m24.85 14.25-.3-.17.32-.18zm-.27-.18.24.14v-.27z"/><path d="m23.84 15.41-.3-.17.32-.18zm-.27-.19.24.14v-.27z"/><path d="m22.53 14h-.47l.24-.41zm-.41 0h.35l-.18-.3z"/><path d="m24.19 18.59s0 0-.05 0 0 0 0 0 0 0-.06 0 0 0-.05 0 0 0 0 0 0 0-.05 0 0 0-.05 0 0 0 0 0 0 0-.05 0 0 0-.05 0 0 0 0 0 0 0-.05 0 0 0-.05 0 0 0 0 0 0 0-.05 0 0 0-.05 0 0 0 0 0 0 0-.05 0 0 0-.05 0 0 0 0 0 0 0-.05 0 0 0-.05 0 0 0 0 0 0 0-.05 0 0 0-.05 0 0 0 0 0 0 0-.05 0 0 0-.05 0 0 0 0 0 0 0 .05 0 0 0 0 0 0 0 .05 0 0 0 .05 0 0 0 0 0 0 0 .05 0 0 0 .05 0 0 0 0 0 0 0 .05 0 0 0 .05 0 0 0 0 0 0 0 .05 0 0 0 .05 0 0 0 0 0 0 0 .05 0 0 0 .05 0 0 0 0 0 0 0 .05 0 0 0 .05 0 0 0 0 0 0 0 .05 0 0 0 .05 0 0 0 0 0 0 0 .05 0 0 0 .05 0 0 0 0 0 0 0 .05 0 0 0 .05 0 0 0 0 0 0 0 .05 0 0 0 0 0-.01 0-.04 0z"/><path d="m20.18 16.48h-.07a.05.05 0 0 1 0 0s0 0 0 0a.05.05 0 0 1 0 0h.08s0 0 0 0a0 0 0 0 1 0 0 .05.05 0 0 1 0 0s0 0 0 0a0 0 0 0 1 0 0 .05.05 0 0 1 0 0s0 0 0 0a0 0 0 0 1 0 0 .05.05 0 0 1 0 0s0 0 0 0a.05.05 0 0 1 0 0s0 0 0 0a0 0 0 0 1 0 0 .05.05 0 0 1 0 0 0 0 0 0 0 0 0 .05.05 0 0 1 0 0 0 0 0 0 1 0 0 0 0 0 0 0 0 0 0 0 0 0 1 0 0 .05.05 0 0 1 0 0s0 0 0 0a0 0 0 0 1 .07 0 0 0 0 0 0 0 0 .05.05 0 0 1 0 0 0 0 0 0 0 0 0 0 0 0 0 1 -.07 0s0 0 0 0a0 0 0 0 1 0 0 .05.05 0 0 1 0 0s0 0 0 0a.05.05 0 0 1 0 0s0 0 0 0a.05.05 0 0 1 0 0s0 0 0 0a.05.05 0 0 1 0 0s0 0 0 0a.05.05 0 0 1 0 0s0 0 0 0a0 0 0 0 1 -.06 0s0 0 0 0a0 0 0 0 1 0 0s0 0 0 0a0 0 0 0 1 0 0 0 0 0 0 0 0 0 0 0 0 0 1 0 0z"/><path d="m21.46 13.82s0 0 0 0 0 0-.06 0 0 0 0 0 0 0-.06 0 0 0 0 0 0 0-.06 0 0 0 0 0 0 0-.06 0 0 0 0 0 0 0-.06 0 0 0 0 0a.07.07 0 0 1 -.05 0s0 0 0 0 0 0-.06 0 0 0 0 0a.07.07 0 0 1 -.05 0s0 0 0 0 0 0-.06 0 0 0 0 0 0 0 .06 0 0 0 0 0a.07.07 0 0 1 .05 0s0 0 0 0a.07.07 0 0 1 .05 0s0 0 0 0 0 0 .06 0 0 0 0 0a.07.07 0 0 1 .05 0s0 0 0 0a.07.07 0 0 1 .05 0s0 0 0 0a.07.07 0 0 1 .05 0s0 0 0 0 0 0 .06 0 0 0 0 0a.07.07 0 0 1 .06 0s0 0 0 0a.07.07 0 0 1 .06 0s0 0 0 0a.07.07 0 0 1 -.03 0z"/><path d="m24.4 14.81s0 0 0 0z"/><path d="m24.02 19.63.66-.66-.04-.04-.66.66z"/><path d="m24.64 19.63.04-.04-.66-.66-.04.04z"/><path d="m18.86 24.46.51-.5-.03-.03-.51.5z"/><path d="m19.34 24.46.03-.03-.51-.5-.03.03z"/><path d="m21.95 19.6c.07 0 .09-.1.12-.21s0-.17.08-.17.06.1.07.17.05.21.12.21.09-.1.12-.21 0-.17.07-.17.06.1.07.17.05.21.12.21.09-.1.12-.21 0-.17.07-.17c-.07 0-.09.1-.12.21s0 .17-.07.17-.06-.1-.07-.17-.05-.21-.12-.21-.09.1-.12.21 0 .17-.07.17-.06-.1-.07-.17-.05-.21-.12-.21-.09.1-.12.21 0 .17-.07.17z"/><path d="m21.75 22.58c.05 0 .11-.07.17-.15s.11-.14.14-.13c-.06 0-.13.06-.19.14s-.1.13-.13.13 0-.12 0-.19 0-.21 0-.24-.13.05-.2.14-.1.13-.13.13 0-.12 0-.19 0-.21 0-.24-.13.06-.19.14-.1.13-.13.13c.06 0 .13-.06.19-.14s.11-.14.14-.13 0 .12 0 .19 0 .21 0 .24.13-.06.19-.14.11-.14.14-.13 0 .12 0 .19 0 .21 0 .24z"/><path d="m21 24.92s0-.08 0-.13 0-.09 0-.1.06 0 .09 0 .1.07.13 0 0-.08 0-.13 0-.09 0-.1.06 0 .09 0 .1.07.13 0 0-.08 0-.13 0-.09 0-.1 0 .08 0 .13 0 .09 0 .1-.06 0-.09 0-.1-.07-.13 0 0 .08 0 .13 0 .09 0 .1-.06 0-.09 0-.1-.07-.13 0 0 .08 0 .13 0 .09 0 .1z"/><path d="m20.67 19h.71v.71h-.71zm.64.08h-.56v.56h.56z"/><path d="m24.27 24.37h.46v.45h-.46zm.41 0h-.36v.36h.36z"/><path d="m18.95 19.33.52-.52.52.52-.52.52zm.52-.41-.42.41.42.41.42-.41z"/><path d="m22.32 24.65.35-.35.35.35-.35.35zm.35-.28-.28.28.28.28.28-.28z"/><path d="m24.77 21.5.21-.51-.48.13.18-.46-.53.14.01.05.43-.11-.19.46.49-.13-.17.41z"/><path d="m19.31 22.65.01-.04-.31-.06.27-.23-.35-.08.23-.21-.02-.03-.3.27.35.07-.27.23z"/><path d="m22.73 21.74h.05a.39.39 0 0 1 .18-.52.4.4 0 0 1 .53.18h.05a.46.46 0 0 0 -.61-.21.45.45 0 0 0 -.2.55z"/><path d="m19.76 21.09a.33.33 0 0 1 .15-.44.33.33 0 0 1 .44.15.38.38 0 0 0 -.51-.17.38.38 0 0 0 -.17.5z"/><path d="m23.51 24.16a.2.2 0 0 0 .13 0 .2.2 0 0 0 0-.28.18.18 0 0 1 -.27.23.2.2 0 0 0 .14.05z"/><path d="m20 24.48a.17.17 0 0 1 0-.13.17.17 0 0 1 .11-.08.18.18 0 0 1 .21.13.2.2 0 1 0 -.4.09z"/><path d="m24.24 23.09a.38.38 0 1 1 .38.38.38.38 0 0 1 -.38-.38zm0 0a.33.33 0 1 0 .33-.33.33.33 0 0 0 -.28.33z"/><path d="m22.08 23.33a.18.18 0 1 1 .18.18.18.18 0 0 1 -.18-.18zm0 0a.15.15 0 1 0 .15-.15.15.15 0 0 0 -.13.15z"/><path d="m20.55 22.76.39.67h-.78zm0 .12-.29.5h.58z"/><path d="m23.7 22.23.3-.23v.37zm.06 0 .24.14v-.27z"/><path d="m19 20.62.32.18-.32.2zm0 0v.27l.24-.14z"/><path d="m20 21.78.32.18-.3.17zm0 0v.27l.24-.14z"/><path d="m21.54 20.35.24.41h-.48zm0 .07-.18.3h.35z"/><path d="m23.65 23.22h.07a0 0 0 0 0 0 0s0 0 0 0a0 0 0 0 0 0 0h-.08s0 0 0 0a0 0 0 0 0 0 0 .05.05 0 0 0 0 0 0 0 0 0 1 0 0 0 0 0 0 0 0 0s0 0 0 0a0 0 0 0 0 -.07 0s0 0 0 0a.05.05 0 0 0 0 0 0 0 0 0 1 0 0 0 0 0 0 0 0 0 .05.05 0 0 0 0 0s0 0 0 0a.05.05 0 0 0 0 0s0 0 0 0a.05.05 0 0 0 0 0 0 0 0 0 1 0 0 0 0 0 0 0 0 0 .05.05 0 0 0 0 0 0 0 0 0 1 0 0 .05.05 0 0 0 0 0 0 0 0 0 1 0 0 0 0 0 0 0 0 0 .05.05 0 0 0 0 0s0 0 0 0a.05.05 0 0 0 0 0 0 0 0 0 0 0 0s0 0 0 0a0 0 0 0 0 0 0 0 0 0 0 1 0 0 0 0 0 0 0 .07 0s0 0 0 0a0 0 0 0 0 0 0 .05.05 0 0 0 0 0 0 0 0 0 1 0 0 .05.05 0 0 0 0 0 0 0 0 0 0 0 0 0 0 0 0 1 0 0 0 0 0 0 0 0 0s0 0 0 0a.05.05 0 0 0 0 0 0 0 0 0 0 0 0 0 0 0 0 1 0 0 0 0 0 0 0 0 0 .05.05 0 0 0 0 0s0 0 0 0a0 0 0 0 0 0 0z"/><path d="m22.37 20.55s0 0 0 0a.07.07 0 0 0 .06 0s0 0 0 0 0 0 .06 0 0 0 0 0a.07.07 0 0 0 .06 0s0 0 0 0 0 0 .06 0 0 0 0 0 0 0 .06 0 0 0 0 0a.07.07 0 0 0 .05 0s0 0 0 0 0 0 .06 0 0 0 0 0a.07.07 0 0 0 .05 0s0 0 0 0 0 0 .06 0 0 0 0 0 0 0-.06 0 0 0 0 0a.07.07 0 0 0 -.05 0s0 0 0 0a.07.07 0 0 0 -.05 0s0 0 0 0a.07.07 0 0 0 -.06 0s0 0 0 0a.07.07 0 0 0 -.05 0s0 0 0 0a.07.07 0 0 0 -.05 0s0 0 0 0a.07.07 0 0 0 -.05 0s0 0 0 0 0 0-.06 0 0 0 0 0a.07.07 0 0 0 -.06 0s0 0 0 0a.07.07 0 0 0 -.06 0s0 0 0 0a.07.07 0 0 0 .03 0z"/><path d="m19.43 21.55s0 0 0 0a0 0 0 0 0 0 0s0 0 0 0a0 0 0 0 0 0 0s0 0 0 0a0 0 0 0 0 0 0s0 0 0 0z"/><path d="m17.77 19.63.66-.66-.04-.04-.66.66z"/><path d="m18.39 19.63.04-.04-.66-.66-.04.04z"/><path d="m12.61 24.46.51-.5-.03-.03-.51.5z"/><path d="m13.09 24.46.03-.03-.51-.5-.03.03z"/><path d="m15.7 19.6c.07 0 .09-.1.12-.21s0-.17.07-.17.06.1.08.17.05.21.12.21.09-.1.12-.21 0-.17.07-.17.06.1.07.17.05.21.12.21.09-.1.12-.21 0-.17.07-.17c-.07 0-.09.1-.12.21s0 .17-.07.17-.06-.1-.08-.17-.05-.21-.12-.21-.09.1-.12.21 0 .17-.07.17-.06-.1-.07-.17-.05-.21-.12-.21-.09.1-.12.21 0 .17-.08.17z"/><path d="m15.5 22.58c.05 0 .11-.07.17-.15s.11-.14.14-.13c-.06 0-.13.06-.19.14s-.1.13-.13.13 0-.12 0-.19 0-.21 0-.24-.13.05-.19.14-.1.13-.13.13 0-.12 0-.19 0-.21 0-.24-.13.06-.19.14-.1.13-.13.13c.06 0 .13-.06.19-.14s.11-.14.14-.13 0 .12 0 .19 0 .21 0 .24.13-.06.19-.14.11-.14.14-.13 0 .12 0 .19 0 .21 0 .24z"/><path d="m14.74 24.92s0-.08 0-.13 0-.09 0-.1.06 0 .09 0 .1.07.13 0 0-.08 0-.13 0-.09 0-.1.06 0 .09 0 .1.07.13 0 0-.08 0-.13 0-.09 0-.1 0 .08 0 .13 0 .09 0 .1-.06 0-.09 0-.1-.07-.12 0 0 .08 0 .13 0 .09 0 .1-.06 0-.09 0-.1-.07-.13 0 0 .08 0 .13 0 .09 0 .1z"/><path d="m14.42 19h.72v.71h-.72zm.64.08h-.56v.56h.56z"/><path d="m18 24.37h.46v.45h-.46zm.41 0h-.36v.36h.36z"/><path d="m12.7 19.33.52-.52.52.52-.52.52zm.52-.41-.42.41.42.41.42-.41z"/><path d="m16.07 24.65.35-.35.35.35-.35.35zm.35-.28-.28.28.28.28.28-.28z"/><path d="m18.52 21.5.21-.51-.48.13.18-.46-.53.14.01.05.43-.11-.19.46.49-.13-.17.41z"/><path d="m13.06 22.65.01-.04-.31-.06.27-.23-.36-.08.24-.21-.03-.03-.29.27.35.07-.27.23z"/><path d="m16.48 21.74h.05a.39.39 0 0 1 .18-.52.4.4 0 0 1 .53.18h.05a.46.46 0 0 0 -.61-.21.45.45 0 0 0 -.2.55z"/><path d="m13.51 21.09a.32.32 0 0 1 0-.25.33.33 0 0 1 .17-.19.33.33 0 0 1 .44.15.38.38 0 0 0 -.51-.17.38.38 0 0 0 -.17.5z"/><path d="m17.26 24.16a.2.2 0 0 0 .16-.33.18.18 0 0 1 -.27.23.2.2 0 0 0 .11.1z"/><path d="m13.75 24.48a.17.17 0 0 1 0-.13.17.17 0 0 1 .11-.08.18.18 0 0 1 .13 0 .18.18 0 0 1 .08.11.2.2 0 0 0 -.24-.15.2.2 0 0 0 -.13.09.2.2 0 0 0 .05.16z"/><path d="m18 23.09a.38.38 0 1 1 .38.38.38.38 0 0 1 -.38-.38zm0 0a.33.33 0 1 0 .33-.33.33.33 0 0 0 -.33.33z"/><path d="m15.83 23.33a.18.18 0 1 1 .18.18.18.18 0 0 1 -.18-.18zm0 0a.15.15 0 1 0 .15-.15.15.15 0 0 0 -.13.15z"/><path d="m14.3 22.76.39.67h-.78zm0 .12-.29.5h.58z"/><path d="m17.45 22.23.32-.19v.37zm.06 0 .24.14v-.27z"/><path d="m12.73 20.62.32.18-.3.17zm0 0v.27l.24-.14z"/><path d="m13.74 21.78.32.18-.3.17zm0 0v.27l.26-.05z"/><path d="m15.29 20.35.24.41h-.47zm0 .07-.18.3h.35z"/><path d="m17.4 23.22h.07a0 0 0 0 0 0 0s0 0 0 0a0 0 0 0 0 0 0h-.08a0 0 0 0 1 0 0 0 0 0 0 0 0 0 .05.05 0 0 0 0 0 0 0 0 0 1 0 0 .05.05 0 0 0 0 0 0 0 0 0 1 0 0 0 0 0 0 0 0 0 0 0 0 0 1 0 0 .05.05 0 0 0 0 0 0 0 0 0 1 0 0 0 0 0 0 0 0 0 .05.05 0 0 0 0 0s0 0 0 0a0 0 0 0 0 0 0s0 0 0 0a0 0 0 0 0 0 0 .05.05 0 0 0 0 0s0 0 0 0a.05.05 0 0 0 0 0 0 0 0 0 1 0 0 0 0 0 0 0 0 0s0 0 0 0a0 0 0 0 0 0 0 .05.05 0 0 0 0 0s0 0 0 0a0 0 0 0 0 .07 0 0 0 0 0 1 0 0 0 0 0 0 0 0 0 0 0 0 0 1 0 0 0 0 0 0 0 0 0 .05.05 0 0 0 0 0s0 0 0 0a0 0 0 0 0 .07 0 0 0 0 0 1 0 0 0 0 0 0 0 0 0 .05.05 0 0 0 0 0s0 0 0 0a.05.05 0 0 0 0 0 0 0 0 0 0 0 0s0 0 0 0a.05.05 0 0 0 0 0 0 0 0 0 0 0 0s0 0 0 0a0 0 0 0 0 0 0 .05.05 0 0 0 0 0s0 0 0 0a0 0 0 0 0 0 0z"/><path d="m16.12 20.55s0 0 0 0 0 0 .06 0 0 0 0 0a.07.07 0 0 0 .06 0s0 0 0 0a.07.07 0 0 0 .06 0s0 0 0 0a.06.06 0 0 0 .06 0s0 0 0 0 0 0 .06 0 0 0 0 0a.07.07 0 0 0 .05 0s0 0 0 0 0 0 .06 0 0 0 0 0 0 0 .05 0 0 0 0 0a.07.07 0 0 0 .06 0s0 0 0 0 0 0-.06 0 0 0 0 0a.07.07 0 0 0 -.05 0s0 0 0 0a.08.08 0 0 0 -.05 0s0 0 0 0a.07.07 0 0 0 -.06 0s0 0 0 0a.07.07 0 0 0 -.05 0s0 0 0 0a.07.07 0 0 0 -.05 0s0 0 0 0a.07.07 0 0 0 -.05 0s0 0 0 0 0 0-.06 0 0 0 0 0a.07.07 0 0 0 -.06 0s0 0 0 0a.07.07 0 0 0 -.06 0s0 0 0 0a.07.07 0 0 0 .03 0z"/><path d="m13.18 21.55s0 0 0 0a0 0 0 0 0 0 0s0 0 0 0z"/><path d="m11.44 19.63.66-.66-.04-.04-.66.66z"/><path d="m12.06 19.63.04-.04-.66-.66-.04.04z"/><path d="m6.28 24.46.51-.5-.04-.03-.5.5z"/><path d="m6.75 24.46.04-.03-.51-.5-.03.03z"/><path d="m9.37 19.6c.07 0 .09-.1.12-.21s0-.17.07-.17.06.1.07.17.05.21.12.21.09-.1.12-.21 0-.17.07-.17.06.1.07.17.05.21.12.21.09-.1.12-.21 0-.17.07-.17c-.07 0-.09.1-.12.21s0 .17-.07.17-.06-.1-.07-.17-.05-.21-.12-.21-.09.1-.12.21 0 .17-.07.17-.06-.1-.07-.17-.05-.21-.12-.21-.09.1-.12.21 0 .17-.07.17z"/><path d="m9.16 22.58c.05 0 .11-.07.17-.15s.11-.14.14-.13c-.06 0-.13.06-.19.14s-.1.13-.13.13 0-.12 0-.19 0-.21 0-.24-.13.05-.19.14-.1.13-.13.13 0-.12 0-.19 0-.21 0-.24-.13.06-.19.14-.1.13-.13.13c.06 0 .13-.06.19-.14s.11-.14.14-.13 0 .12 0 .19 0 .21 0 .24.13-.06.19-.14.11-.14.14-.13 0 .12 0 .19 0 .21 0 .24z"/><path d="m8.41 24.92s0-.08 0-.13 0-.09 0-.1.06 0 .09 0 .1.07.13 0 0-.08 0-.13 0-.09 0-.1.06 0 .09 0 .1.07.13 0 0-.08 0-.13 0-.09 0-.1 0 .08 0 .13 0 .09 0 .1-.06 0-.09 0-.1-.07-.13 0 0 .08 0 .13 0 .09 0 .1-.06 0-.09 0-.1-.07-.13 0 0 .08 0 .13 0 .09 0 .1z"/><path d="m8.09 19h.71v.71h-.71zm.64.08h-.56v.56h.56z"/><path d="m11.69 24.37h.46v.45h-.46zm.41 0h-.36v.36h.36z"/><path d="m6.37 19.33.52-.52.52.52-.52.52zm.52-.41-.42.41.42.41.42-.41z"/><path d="m9.74 24.65.35-.35.35.35-.35.35zm.35-.28-.28.28.28.28.28-.28z"/><path d="m12.19 21.5.21-.51-.49.13.19-.46-.54.14.02.05.43-.11-.19.46.48-.13-.16.41z"/><path d="m6.73 22.65.01-.04-.31-.06.26-.23-.35-.08.24-.21-.03-.03-.29.27.35.07-.27.23z"/><path d="m10.15 21.74h.05a.39.39 0 0 1 .18-.52.4.4 0 0 1 .53.18h.05a.46.46 0 0 0 -.61-.21.45.45 0 0 0 -.2.55z"/><path d="m7.18 21.09a.32.32 0 0 1 0-.25.33.33 0 0 1 .17-.19.33.33 0 0 1 .44.15.38.38 0 0 0 -.51-.17.38.38 0 0 0 -.17.5z"/><path d="m10.93 24.16a.21.21 0 0 0 .13 0 .2.2 0 0 0 0-.28.18.18 0 0 1 -.27.23.2.2 0 0 0 .14.05z"/><path d="m7.42 24.48a.17.17 0 0 1 .13-.21.17.17 0 0 1 .13 0 .18.18 0 0 1 .08.11.2.2 0 0 0 -.09-.13.2.2 0 0 0 -.15 0 .2.2 0 0 0 -.13.09.2.2 0 0 0 .03.14z"/><path d="m11.65 23.09a.38.38 0 1 1 .38.38.38.38 0 0 1 -.38-.38zm0 0a.33.33 0 1 0 .33-.33.33.33 0 0 0 -.28.33z"/><path d="m9.5 23.33a.18.18 0 1 1 .18.18.18.18 0 0 1 -.18-.18zm0 0a.15.15 0 1 0 .15-.15.15.15 0 0 0 -.13.15z"/><path d="m8 22.76.39.67h-.81zm0 .12-.29.5h.58z"/><path d="m11.12 22.23.32-.19v.37zm.06 0 .24.14v-.27z"/><path d="m6.4 20.62.32.18-.3.17zm0 0v.27l.24-.14z"/><path d="m7.41 21.78.32.18-.3.17zm0 0v.27l.27-.05z"/><path d="m9 20.35.24.41h-.52zm0 .07-.18.3h.35z"/><path d="m11.07 23.22h.07a0 0 0 0 0 0 0 0 0 0 0 1 0 0 0 0 0 0 0 0 0h-.08s0 0 0 0a0 0 0 0 0 0 0 .05.05 0 0 0 0 0s0 0 0 0a0 0 0 0 0 0 0 .05.05 0 0 0 0 0 0 0 0 0 1 0 0 0 0 0 0 0 0 0 .05.05 0 0 0 0 0 0 0 0 0 1 0 0 .05.05 0 0 0 0 0s0 0 0 0a.05.05 0 0 0 0 0s0 0 0 0a0 0 0 0 0 -.07 0s0 0 0 0a.05.05 0 0 0 0 0s0 0 0 0a.05.05 0 0 0 0 0 0 0 0 0 1 0 0 .05.05 0 0 0 0 0s0 0 0 0a.05.05 0 0 0 0 0 0 0 0 0 1 0 0 .05.05 0 0 0 0 0 0 0 0 0 0 0 0s0 0 0 0a0 0 0 0 0 .07 0 0 0 0 0 1 0 0 0 0 0 0 0 0 0 .05.05 0 0 0 0 0s0 0 0 0a0 0 0 0 0 .07 0s0 0 0 0a0 0 0 0 0 .07 0s0 0 0 0a0 0 0 0 0 .06 0s0 0 0 0a0 0 0 0 0 .06 0s0 0 0 0a0 0 0 0 0 0 0 .05.05 0 0 0 0 0s0 0 0 0a0 0 0 0 0 0 0z"/><path d="m9.79 20.55s0 0 0 0 0 0 .06 0 0 0 0 0 0 0 .06 0 0 0 0 0 0 0 .06 0 0 0 0 0a.06.06 0 0 0 .06 0s0 0 0 0 0 0 .06 0 0 0 0 0a.07.07 0 0 0 .05 0s0 0 0 0 0 0 .06 0 0 0 0 0a.07.07 0 0 0 .05 0s0 0 0 0 0 0 .06 0 0 0 0 0 0 0-.06 0 0 0 0 0a.07.07 0 0 0 -.05 0s0 0 0 0a.08.08 0 0 0 -.05 0s0 0 0 0 0 0-.06 0 0 0 0 0a.07.07 0 0 0 -.05 0s0 0 0 0a.07.07 0 0 0 -.05 0s0 0 0 0a.07.07 0 0 0 -.05 0s0 0 0 0 0 0-.06 0 0 0 0 0a.07.07 0 0 0 -.06 0s0 0 0 0a.07.07 0 0 0 -.06 0s0 0 0 0a.07.07 0 0 0 .03 0z"/><path d="m6.85 21.55s0 0 0 0h.15s0 0 0 0a0 0 0 0 0 0 0s0 0 0 0a0 0 0 0 0 0 0s0 0 0 0h1s0 0 0 0a0 0 0 0 0 0 0s0 0 0 0h-1s0 0 0 0z"/><path d="m5.19 19.63.66-.66-.04-.04-.66.66z"/><path d="m5.81 19.63.04-.04-.66-.66-.04.04z"/><path d="m.03 24.46.5-.5-.03-.03-.5.5z"/><path d="m.5 24.46.03-.03-.5-.5-.03.03z"/><path d="m3.12 19.6c.07 0 .09-.1.12-.21s0-.17.07-.17.06.1.07.17.05.21.12.21.09-.1.12-.21 0-.17.07-.17.06.1.07.17.05.21.12.21.12-.1.12-.2 0-.17.07-.17c-.07 0-.09.1-.12.21s0 .17-.07.17-.06-.1-.07-.17-.05-.21-.12-.21-.09.1-.12.21 0 .17-.07.17-.06-.1-.07-.17-.05-.21-.12-.21-.09.1-.12.21 0 .17-.07.17z"/><path d="m2.91 22.58c.05 0 .11-.07.17-.15s.11-.14.14-.13c-.06 0-.13.06-.19.14s-.1.13-.13.13 0-.12 0-.19 0-.21 0-.24-.13.05-.19.14-.1.13-.13.13 0-.12 0-.19 0-.21 0-.24-.13.06-.19.14-.1.13-.13.13c.06 0 .13-.06.19-.14s.11-.14.14-.13 0 .12 0 .19 0 .21 0 .24.13-.06.19-.14.11-.14.14-.13 0 .12 0 .19 0 .21 0 .24z"/><path d="m2.16 24.92s0-.08 0-.13 0-.09 0-.1.06 0 .09 0 .1.07.13 0 0-.08 0-.13 0-.09 0-.1.06 0 .09 0 .1.07.13 0 0-.08 0-.13 0-.09 0-.1 0 .08 0 .13 0 .09 0 .1-.06 0-.09 0-.1-.07-.13 0 0 .08 0 .13 0 .09 0 .1-.06 0-.09 0-.1-.07-.13 0 0 .08 0 .13 0 .09 0 .1z"/><path d="m1.84 19h.72v.71h-.72zm.64.08h-.56v.56h.56z"/><path d="m5.44 24.37h.46v.45h-.46zm.41 0h-.36v.36h.36z"/><path d="m.12 19.33.52-.52.52.52-.52.52zm.52-.41-.42.41.42.41.42-.41z"/><path d="m3.49 24.65.35-.35.35.35-.35.35zm.35-.28-.28.28.28.28.28-.28z"/><path d="m5.94 21.5.21-.51-.49.13.19-.46-.54.14.02.05.43-.11-.19.46.48-.13-.16.41z"/><path d="m.48 22.65.01-.04-.31-.06.26-.23-.35-.08.24-.21-.03-.03-.29.27.35.07-.27.23z"/><path d="m3.89 21.74h.05a.39.39 0 0 1 .18-.52.4.4 0 0 1 .53.18h.05a.46.46 0 0 0 -.61-.21.45.45 0 0 0 -.2.55z"/><path d="m.93 21.09a.32.32 0 0 1 0-.25.33.33 0 0 1 .17-.19.33.33 0 0 1 .44.15.38.38 0 0 0 -.51-.17.38.38 0 0 0 -.17.5z"/><path d="m4.68 24.16a.2.2 0 0 0 .13 0 .2.2 0 0 0 0-.28.18.18 0 0 1 -.27.23.2.2 0 0 0 .14.05z"/><path d="m1.17 24.48a.17.17 0 0 1 .13-.21.18.18 0 0 1 .21.13.2.2 0 1 0 -.4.09z"/><path d="m5.4 23.09a.38.38 0 1 1 .38.38.38.38 0 0 1 -.38-.38zm0 0a.33.33 0 1 0 .33-.33.33.33 0 0 0 -.28.33z"/><path d="m3.25 23.33a.18.18 0 1 1 .18.18.18.18 0 0 1 -.18-.18zm0 0a.15.15 0 1 0 .15-.15.15.15 0 0 0 -.13.15z"/><path d="m1.72 22.76.39.67h-.78zm0 .12-.29.5h.57z"/><path d="m4.87 22.23.32-.23v.37zm.06 0 .24.14v-.27z"/><path d="m.15 20.62.32.18-.3.2zm0 0v.27l.24-.14z"/><path d="m1.16 21.78.32.18-.3.17zm0 0v.27l.27-.05z"/><path d="m2.71 20.35.24.41h-.48zm0 .07-.18.3h.35z"/><path d="m4.82 23.22h.07a0 0 0 0 0 0 0s0 0 0 0a0 0 0 0 0 0 0h-.2s0 0 0 0a0 0 0 0 0 0 0 .05.05 0 0 0 0 0s0 0 0 0a0 0 0 0 0 0 0 .05.05 0 0 0 0 0s0 0 0 0a0 0 0 0 0 0 0 0 0 0 0 1 0 0 .05.05 0 0 0 0 0s0 0 0 0a.05.05 0 0 0 0 0s0 0 0 0a.05.05 0 0 0 0 0 0 0 0 0 0 0 0h-.69s0 0 0 0a.05.05 0 0 0 0 0s0 0 0 0a.05.05 0 0 0 0 0 0 0 0 0 1 0 0 .05.05 0 0 0 0 0 0 0 0 0 1 0 0 0 0 0 0 0 0 0 .05.05 0 0 0 0 0 0 0 0 0 1 0 0 .05.05 0 0 0 0 0 0 0 0 0 0 0 0s0 0 0 0a0 0 0 0 0 .07 0 0 0 0 0 1 0 0 0 0 0 0 0 0 0 .05.05 0 0 0 0 0s0 0 0 0a0 0 0 0 0 0 0 .05.05 0 0 0 0 0s0 0 0 0a0 0 0 0 0 0 0s0 0 0 0a0 0 0 0 0 0 0s0 0 0 0a0 0 0 0 0 0 0s0 0 0 0a0 0 0 0 0 0 0 .05.05 0 0 0 0 0 0 0 0 0 1 0 0 0 0 0 0 0 0 0z"/><path d="m3.54 20.55s0 0 0 0 0 0 .06 0 0 0 0 0a.07.07 0 0 0 .06 0s0 0 0 0 0 0 .06 0 0 0 0 0 0 0 .06 0 0 0 0 0 0 0 .06 0 0 0 0 0a.07.07 0 0 0 .05 0s0 0 0 0 0 0 .06 0 0 0 0 0a.07.07 0 0 0 .05 0h1s0 0 0 0 0 0 .06 0 0 0 0 0 0 0-.06 0 0 0 0 0a.07.07 0 0 0 -.05 0s0 0 0 0a.07.07 0 0 0 -.05 0s0 0 0 0a.07.07 0 0 0 -.06 0s0 0 0 0a.07.07 0 0 0 -.05 0s0 0 0 0a.07.07 0 0 0 -.05 0s0 0 0 0a.07.07 0 0 0 -.05 0h-.69s0 0 0 0 0 0-.06 0 0 0 0 0a.07.07 0 0 0 -.06 0s0 0 0 0a.07.07 0 0 0 -.06 0s0 0 0 0a.07.07 0 0 0 -.28 0z"/><path d="m.6 21.55s0 0 0 0a0 0 0 0 0 0 0s0 0 0 0h.4s0 0 0 0z"/></g></svg>