<svg viewBox="0 0 377.54 232.72" xmlns="http://www.w3.org/2000/svg"><g transform="translate(-65.7 -78.66)"><path d="m268.77 112.86c-39.14 12.5-163.11-49.12-153.41 35 1.52 12.51 9.58 30.19 2.77 41.88-4.93 8.75-14 13.88-22.71 17.28-22.81 9.27-31.31 26.68-25.53 51.53 15.45 66.95 99.58 51.07 143.75 31.22 31.36-14.77 68.45-17.28 100.97-4.77 25.48 10.17 41.36 31.52 71.27 25.27 26.52-5.32 30.52-30.36 22.78-53.67-4.4-14.42-7.56-20.51 1.17-34.43 7.35-13.82 20.3-24.3 21.29-40.49.22-17.54-7.84-35.22-23.44-41.86-12.76-5.44-24.33-3.24-37-6.58-28.08-7.89-46.13-51.53-81-36.52-8.69 4.1-13.57 13.55-23 16.3" fill="#a2dbf1" opacity=".22"/><g fill="#a2dbf1" opacity=".3"><path d="m254.58 106.84c3.55 0 3.55-5.5 0-5.5s-3.55 5.5 0 5.5z"/><path d="m91.64 191.41c7.09 0 7.09-11 0-11s-7.09 11 0 11z"/><path d="m422.33 235.27c7.09 0 7.09-11 0-11s-7.09 11 0 11z"/><path d="m236 104.09c7.09 0 7.09-11 0-11s-7.09 11 0 11z"/><path d="m433.33 217.81c9.22 0 9.22-14.3 0-14.3s-9.22 14.3 0 14.3z"/><path d="m73.08 209.56c9.22 0 9.22-14.3 0-14.3s-9.22 14.3 0 14.3z"/><path d="m378.33 123.62c9.22 0 9.22-14.3 0-14.3s-9.22 14.3 0 14.3z"/><path d="m251.83 95.16c10.64 0 10.64-16.5 0-16.5s-10.64 16.5 0 16.5z"/><path d="m439.24 230.73c5.32 0 5.32-8.25 0-8.25s-5.32 8.25 0 8.25z"/><path d="m71.16 186.59c5.32 0 5.32-8.25 0-8.25s-5.32 8.25 0 8.25z"/><path d="m395.52 131.59c5.32 0 5.32-8.25 0-8.25s-5.32 8.25 0 8.25z"/><path d="m394.14 116.47c3.55 0 3.55-5.5 0-5.5s-3.55 5.5 0 5.5z"/><path d="m115.57 107c7.09 0 7.09-11 0-11s-7.09 11 0 11z"/><path d="m428.52 296.59c7.09 0 7.09-11 0-11s-7.09 11 0 11z"/><path d="m71 301.41c7.09 0 7.09-11 0-11s-7.09 11 0 11z"/><path d="m132.07 98.73c3.55 0 3.55-5.5 0-5.5s-3.55 5.5 0 5.5z"/><path d="m429.21 274.59c3.55 0 3.55-5.5 0-5.5s-3.55 5.5 0 5.5z"/><path d="m87.52 308.28c3.55 0 3.55-5.5 0-5.5s-3.55 5.5 0 5.5z"/></g><g fill="#222221"><path d="m166 215.68c-3.7 1.31-6.15 1.56-8-2.19-1.46-2.89-2.44-5.86-4.28-8.57-4-5.85-7.85-6.25-14.24-5.41s-15-.79-15.95-8.12c-.69-5.22-.73-10-3-14.91-1.13-2.41-4.68-.31-3.56 2.08 2.54 5.42 1.43 11.33 3.28 16.85s8.16 7.41 13.43 8c4 .48 7.47-.49 11.38-.48 4.2 0 7.06 7.2 8.39 10.36 2.77 6.59 6.7 8.8 13.69 6.33 2.49-.88 1.42-4.87-1.1-4z"/><path d="m122.44 170.91a12.33 12.33 0 0 1 -4.54 3.53c-1.9 1-.23 3.8 1.67 2.85a15.86 15.86 0 0 0 5.73-4.72 1.65 1.65 0 0 0 -.59-2.26 1.69 1.69 0 0 0 -2.26.59z"/><path d="m116.53 166.52c0 3.49.52 7 .55 10.45a1.65 1.65 0 0 0 3.3 0c0-3.49-.54-7-.55-10.45a1.65 1.65 0 0 0 -3.3 0z"/><path d="m111 169.89c2.21 2.76 4.45 5.51 7.48 7.41 1.81 1.13 3.47-1.73 1.67-2.85-2.77-1.73-4.8-4.37-6.82-6.89-1.33-1.66-3.65.69-2.33 2.33z"/><path d="m108.21 174.84a10.73 10.73 0 0 0 11 2.63c2-.62 1.16-3.81-.88-3.18a7.39 7.39 0 0 1 -7.74-1.78c-1.54-1.46-3.88.87-2.33 2.33z"/><path d="m334.74 225.92c.15-5.39 2-7.19 7.15-7.61a99.36 99.36 0 0 0 10.15-.85c5.1-1 5-8 7-11.62 3-5.55 11.12-5 16.35-6.6 5.76-1.81 8-6.68 8.31-12.36.16-2.66-4-2.64-4.12 0-.51 8.45-6.7 8.74-13.51 10.14-6 1.23-10.06 4.52-12.15 10.31-.65 1.81-.81 5.58-3 6.16-3.49.94-7.5.51-11.09.9-6.74.73-9.07 5.15-9.25 11.55-.07 2.66 4.05 2.65 4.12 0z"/><path d="m374 181.81a13 13 0 0 0 7.2 7.2 1.65 1.65 0 0 0 2-1.15 1.69 1.69 0 0 0 -1.15-2 9.31 9.31 0 0 1 -4.9-4.9 1.69 1.69 0 0 0 -2-1.15 1.65 1.65 0 0 0 -1.15 2z"/><path d="m378.88 177.52v8.25a1.65 1.65 0 0 0 3.3 0v-8.25a1.65 1.65 0 0 0 -3.3 0z"/><path d="m384.44 178.18a15.24 15.24 0 0 1 -5.08 7c-1.65 1.35.7 3.67 2.33 2.33a18.32 18.32 0 0 0 5.92-8.43c.7-2-2.49-2.87-3.18-.88z"/><path d="m388.46 181.64a12.68 12.68 0 0 1 -6.16 4.74c-1.94.8-1.09 4 .88 3.18a16.48 16.48 0 0 0 8.14-6.26c1.14-1.81-1.72-3.46-2.85-1.67z"/></g><path d="m354.41 285.68c0 2.89-21.6 3.72-23.94 3.72h-161.68c-2.33 0-23.94-.84-23.94-3.72l19.71-29.55c0-2.89 1.89-5.23 4.22-5.23h161.69c2.33 0 4.23 2.34 4.23 5.23z" fill="#b3b3b3"/></g><g fill="#3e3e3d"><path d="m150.68 200.44h-41.55l7.27-17.6h37.59z"/><path d="m217.18 200.44h41.55l-7.27-17.6h-37.58z"/><path d="m263.35 200.44h14.63l-11.97-17.6h-11.04z"/><path d="m104.52 200.44h-14.64l11.98-17.6h11.03z"/><path d="m213.53 200.44h-59.19l3.3-17.6h52.59z"/></g><path d="m93.49 186.06h180.88v2.69h-180.88z" fill="#b3b3b3"/><path d="m91.53 192.66h184.8v2.69h-184.8z" fill="#b3b3b3"/><path d="m355.51 292.53c0 2.33-.48 4.22-2.81 4.22h-206.14c-2.33 0-2.82-1.89-2.82-4.22v-3.62c0-2.33.48-4.22 2.82-4.22h206.14c2.33 0 2.81 1.89 2.81 4.22z" fill="#3e3e3d" transform="translate(-65.7 -78.66)"/><path d="m288.27 290.82a2.2 2.2 0 0 1 -2.2 2.2h-72.88a2.2 2.2 0 0 1 -2.2-2.2 2.2 2.2 0 0 1 2.2-2.2h72.87a2.2 2.2 0 0 1 2.2 2.2z" fill="#6f6f6f" transform="translate(-65.7 -78.66)"/><rect fill="#3e3e3d" height="116.68" rx="4.23" width="174.35" x="96.76" y="61.03"/><path d="m249.63 145.56a1.76 1.76 0 0 0 0-3.52 1.76 1.76 0 0 0 0 3.52z" fill="#fff" transform="translate(-65.7 -78.66)"/><rect fill="#fff" height="100.34" rx="3.63" width="149.94" x="108.96" y="69.97"/><path d="m162.11 107.7-12.45 12.44" fill="none" stroke="#425973" stroke-linecap="round" stroke-linejoin="round" stroke-width="3.3"/><path d="m162.11 120.15-12.45-12.45" fill="none" stroke="#425973" stroke-linecap="round" stroke-linejoin="round" stroke-width="3.3"/><path d="m218.21 107.7-12.45 12.44" fill="none" stroke="#425973" stroke-linecap="round" stroke-linejoin="round" stroke-width="3.3"/><path d="m218.21 120.15-12.45-12.45" fill="none" stroke="#425973" stroke-linecap="round" stroke-linejoin="round" stroke-width="3.3"/><path d="m278.32 213.82v12.28a4.4 4.4 0 0 1 -4.4 4.4h-2.37a4.4 4.4 0 0 1 -4.4-4.4v-12.28" fill="#dd9ab2" transform="translate(-65.7 -78.66)"/><path d="m208.96 135.8-1.93 14.3-1.93-14.3z" fill="#d6819f"/><path d="m146.64 135.15h74.59" fill="none" stroke="#425973" stroke-linecap="round" stroke-linejoin="round" stroke-width="2.75"/><path d="m200.13 212c7.09 0 7.09-11 0-11s-7.09 11 0 11z" fill="#e9c2d0" transform="translate(-65.7 -78.66)"/><path d="m299.13 212c7.09 0 7.09-11 0-11s-7.09 11 0 11z" fill="#e9c2d0" transform="translate(-65.7 -78.66)"/><path d="m308.48 125.27v36.3c0 3.55 5.5 3.55 5.5 0v-36.3c0-3.55-5.5-3.55-5.5 0z" fill="#db9022" transform="translate(-65.7 -78.66)"/><path d="m311.23 175.59c5.32 0 5.32-8.25 0-8.25s-5.32 8.25 0 8.25z" fill="#db9022" transform="translate(-65.7 -78.66)"/></svg>