<svg enable-background="new 131 -131 512 512" viewBox="131 -131 512 512" xmlns="http://www.w3.org/2000/svg"><path d="m387 381c-.9 0-1.8-.1-2.8-.2-124.1-20.7-214.2-127.1-214.2-253v-175.3c0-9.2 7.5-16.7 16.7-16.7 78.9 0 133.5-25.6 191.1-64 5.6-3.7 12.9-3.7 18.5 0 57.6 38.4 112.1 64 191.1 64 9.2 0 16.7 7.5 16.7 16.7v175.3c0 125.9-90.1 232.3-214.3 253-1 .1-1.9.2-2.8.2z" fill="#7f00ff"/><path d="m389.8 380.8c124.1-20.7 214.2-127.1 214.2-253v-175.3c0-9.2-7.5-16.7-16.7-16.7-78.9 0-133.5-25.6-191.1-64-2.8-1.9-6-2.8-9.3-2.8v512c1 0 1.9-.1 2.9-.2z" fill="#6b05e2"/><path d="m387 269.7c-82.9 0-150.3-67.4-150.3-150.3s67.4-150.2 150.3-150.2 150.3 67.4 150.3 150.3-67.4 150.2-150.3 150.2z" fill="#6b05e2"/><path d="m537.3 119.4c0-82.9-67.4-150.3-150.3-150.3v300.5c82.9.1 150.3-67.3 150.3-150.2z" fill="#7f00ff"/><path d="m423.6 162.9c14.9-11.2 24.6-29 24.6-49 0-33.8-27.5-61.2-61.2-61.2s-61.2 27.5-61.2 61.2c0 20 9.7 37.8 24.6 49-31 7.7-58.9 25.3-80.1 51.1 27.6 34 69.6 55.7 116.7 55.7s89.1-21.7 116.7-55.7c-21.1-25.8-49.1-43.4-80.1-51.1z" fill="#e6f3ff"/><path d="m423.6 162.9c14.9-11.2 24.6-29 24.6-49 0-33.8-27.5-61.2-61.2-61.2v217c47 0 89.1-21.7 116.7-55.7-21.1-25.8-49.1-43.4-80.1-51.1z" fill="#cfdbe6"/></svg>