<svg enable-background="new 0 0 1620 1440" viewBox="0 0 1620 1440" xmlns="http://www.w3.org/2000/svg"><g fill="none" stroke="#449fdb"><path d="m16 0v1440" opacity=".3"/><path d="m32 0v1440"/><path d="m48 0v1440" opacity=".3"/><path d="m64 0v1440"/><path d="m80 0v1440" opacity=".3"/><path d="m96 0v1440"/><path d="m112 0v1440" opacity=".3"/><path d="m128 0v1440"/><path d="m144 0v1440" opacity=".3"/><path d="m160 0v1440"/><path d="m176 0v1440" opacity=".3"/><path d="m192 0v1440"/><path d="m208 0v1440" opacity=".3"/><path d="m224 0v1440"/><path d="m240 0v1440" opacity=".3"/><path d="m256 0v1440"/><path d="m272 0v1440" opacity=".3"/><path d="m288 0v1440"/><path d="m304 0v1440" opacity=".3"/><path d="m320 0v1440"/><path d="m336 0v1440" opacity=".3"/><path d="m352 0v1440"/><path d="m368 0v1440" opacity=".3"/><path d="m384 0v1440"/><path d="m400 0v1440" opacity=".3"/><path d="m416 0v1440"/><path d="m432 0v1440" opacity=".3"/><path d="m448 0v1440"/><path d="m464 0v1440" opacity=".3"/><path d="m480 0v1440"/><path d="m496 0v1440" opacity=".3"/><path d="m512 0v1440"/><path d="m528 0v1440" opacity=".3"/><path d="m544 0v1440"/><path d="m560 0v1440" opacity=".3"/><path d="m576 0v1440"/><path d="m592 0v1440" opacity=".3"/><path d="m608 0v1440"/><path d="m624 0v1440" opacity=".3"/><path d="m640 0v1440"/><path d="m656 0v1440" opacity=".3"/><path d="m672 0v1440"/><path d="m688 0v1440" opacity=".3"/><path d="m704 0v1440"/><path d="m720 0v1440" opacity=".3"/><path d="m736 0v1440"/><path d="m752 0v1440" opacity=".3"/><path d="m768 0v1440"/><path d="m784 0v1440" opacity=".3"/><path d="m800 0v1440"/><path d="m816 0v1440" opacity=".3"/><path d="m832 0v1440"/><path d="m848 0v1440" opacity=".3"/><path d="m864 0v1440"/><path d="m880 0v1440" opacity=".3"/><path d="m896 0v1440"/><path d="m912 0v1440" opacity=".3"/><path d="m928 0v1440"/><path d="m944 0v1440" opacity=".3"/><path d="m960 0v1440"/><path d="m976 0v1440" opacity=".3"/><path d="m992 0v1440"/><path d="m1008 0v1440" opacity=".3"/><path d="m1024 0v1440"/><path d="m1040 0v1440" opacity=".3"/><path d="m1056 0v1440"/><path d="m1072 0v1440" opacity=".3"/><path d="m1088 0v1440"/><path d="m1104 0v1440" opacity=".3"/><path d="m1120 0v1440"/><path d="m1136 0v1440" opacity=".3"/><path d="m1152 0v1440"/><path d="m1168 0v1440" opacity=".3"/><path d="m1184 0v1440"/><path d="m1200 0v1440" opacity=".3"/><path d="m1216 0v1440"/><path d="m1232 0v1440" opacity=".3"/><path d="m1248 0v1440"/><path d="m1264 0v1440" opacity=".3"/><path d="m1280 0v1440"/><path d="m1296 0v1440" opacity=".3"/><path d="m1312 0v1440"/><path d="m1328 0v1440" opacity=".3"/><path d="m1344 0v1440"/><path d="m1360 0v1440" opacity=".3"/><path d="m1376 0v1440"/><path d="m1392 0v1440" opacity=".3"/><path d="m1408 0v1440"/><path d="m1424 0v1440" opacity=".3"/><path d="m1440 0v1440"/><path d="m1456 0v1440" opacity=".3"/><path d="m1472 0v1440"/><path d="m1488 0v1440" opacity=".3"/><path d="m1504 0v1440"/><path d="m1520 0v1440" opacity=".3"/><path d="m1536 0v1440"/><path d="m1552 0v1440" opacity=".3"/><path d="m1568 0v1440"/><path d="m1584 0v1440" opacity=".3"/><path d="m1600 0v1440"/><path d="m1616 0v1440" opacity=".3"/><path d="m0 16h1620" opacity=".3"/><path d="m0 32h1620"/><path d="m0 48h1620" opacity=".3"/><path d="m0 64h1620"/><path d="m0 80h1620" opacity=".3"/><path d="m0 96h1620"/><path d="m0 112h1620" opacity=".3"/><path d="m0 128h1620"/><path d="m0 144h1620" opacity=".3"/><path d="m0 160h1620"/><path d="m0 176h1620" opacity=".3"/><path d="m0 192h1620"/><path d="m0 208h1620" opacity=".3"/><path d="m0 224h1620"/><path d="m0 240h1620" opacity=".3"/><path d="m0 256h1620"/><path d="m0 272h1620" opacity=".3"/><path d="m0 288h1620"/><path d="m0 304h1620" opacity=".3"/><path d="m0 320h1620"/><path d="m0 336h1620" opacity=".3"/><path d="m0 352h1620"/><path d="m0 368h1620" opacity=".3"/><path d="m0 384h1620"/><path d="m0 400h1620" opacity=".3"/><path d="m0 416h1620"/><path d="m0 432h1620" opacity=".3"/><path d="m0 448h1620"/><path d="m0 464h1620" opacity=".3"/><path d="m0 480h1620"/><path d="m0 496h1620" opacity=".3"/><path d="m0 512h1620"/><path d="m0 528h1620" opacity=".3"/><path d="m0 544h1620"/><path d="m0 560h1620" opacity=".3"/><path d="m0 576h1620"/><path d="m0 592h1620" opacity=".3"/><path d="m0 608h1620"/><path d="m0 624h1620" opacity=".3"/><path d="m0 640h1620"/><path d="m0 656h1620" opacity=".3"/><path d="m0 672h1620"/><path d="m0 688h1620" opacity=".3"/><path d="m0 704h1620"/><path d="m0 720h1620" opacity=".3"/><path d="m0 736h1620"/><path d="m0 752h1620" opacity=".3"/><path d="m0 768h1620"/><path d="m0 784h1620" opacity=".3"/><path d="m0 800h1620"/><path d="m0 816h1620" opacity=".3"/><path d="m0 832h1620"/><path d="m0 848h1620" opacity=".3"/><path d="m0 864h1620"/><path d="m0 880h1620" opacity=".3"/><path d="m0 896h1620"/><path d="m0 912h1620" opacity=".3"/><path d="m0 928h1620"/><path d="m0 944h1620" opacity=".3"/><path d="m0 960h1620"/><path d="m0 976h1620" opacity=".3"/><path d="m0 992h1620"/><path d="m0 1008h1620" opacity=".3"/><path d="m0 1024h1620"/><path d="m0 1040h1620" opacity=".3"/><path d="m0 1056h1620"/><path d="m0 1072h1620" opacity=".3"/><path d="m0 1088h1620"/><path d="m0 1104h1620" opacity=".3"/><path d="m0 1120h1620"/><path d="m0 1136h1620" opacity=".3"/><path d="m0 1152h1620"/><path d="m0 1168h1620" opacity=".3"/><path d="m0 1184h1620"/><path d="m0 1200h1620" opacity=".3"/><path d="m0 1216h1620"/><path d="m0 1232h1620" opacity=".3"/><path d="m0 1248h1620"/><path d="m0 1264h1620" opacity=".3"/><path d="m0 1280h1620"/><path d="m0 1296h1620" opacity=".3"/><path d="m0 1312h1620"/><path d="m0 1328h1620" opacity=".3"/><path d="m0 1344h1620"/><path d="m0 1360h1620" opacity=".3"/><path d="m0 1376h1620"/><path d="m0 1392h1620" opacity=".3"/><path d="m0 1408h1620"/><path d="m0 1424h1620" opacity=".3"/></g><g fill="#fff"><path d="m315 180h-270c-24.8 0-45 20.2-45 45v990c0 24.8 20.2 45 45 45h270c24.8 0 45-20.2 45-45v-990c0-24.8-20.2-45-45-45zm-45 270h-180v-90h180z"/><path d="m765 180h-270c-24.8 0-45 20.2-45 45v990c0 24.8 20.2 45 45 45h270c24.8 0 45-20.2 45-45v-990c0-24.8-20.2-45-45-45zm-45 270h-180v-90h180z"/><path d="m1075.9 249.6-241.1 121.5c-22.1 11.1-31.1 38.3-19.9 60.4l405 803.7c11.1 22.1 38.3 31.1 60.4 19.9l241.1-121.5c22.1-11.1 31.1-38.3 19.9-60.4l-405-803.7c-11.1-22.1-38.3-31.1-60.4-19.9z"/></g></svg>