<svg viewBox="0 0 458.26 353.58" xmlns="http://www.w3.org/2000/svg" xmlns:xlink="http://www.w3.org/1999/xlink"><linearGradient id="a" gradientUnits="userSpaceOnUse" x1="425.35" x2="428.22" y1="120.99" y2="345.76"><stop offset="0" stop-color="#393f55"/><stop offset=".67" stop-color="#393f55" stop-opacity="0"/></linearGradient><linearGradient id="b" x1="130.06" x2="145.39" xlink:href="#a" y1="392.51" y2="434.68"/><linearGradient id="c" x1="359.7" x2="362.05" xlink:href="#a" y1="318.87" y2="335.67"/><path d="m40.25 38.9h379.24v242.28h-379.24z" fill="#f3f3f3"/><path d="m418.75 284.03h-379.24l-39.51 33.28h458.26z" fill="#fff" opacity=".05"/><path d="m108.63 65.67h1v210h-1z" fill="#adb8c2" opacity=".1"/><path d="m345.63 68.18h63.5v43.48h-63.5z" fill="#adb8c2" opacity=".2"/><path d="m345.63 123.07h63.5v43.48h-63.5z" fill="#adb8c2" opacity=".2"/><path d="m345.63 177.96h63.5v43.48h-63.5z" fill="#adb8c2" opacity=".2"/><path d="m345.63 232.85h63.5v43.48h-63.5z" fill="#adb8c2" opacity=".2"/><text fill="#393f55" font-family="OpenSans-Semibold, Open Sans" font-size="24.01" font-weight="700" letter-spacing=".16em" transform="translate(123.64 89.07)">SITE</text><path d="m144.23 114.24v2.26a1.75 1.75 0 0 0 1.75 1.75h6.5a1.75 1.75 0 0 1 1.75 1.75v1a1.75 1.75 0 0 1 -1.75 1.75h-12.58a1.75 1.75 0 0 0 -1.75 1.75 1.75 1.75 0 0 0 1.75 1.75h8.1a1.75 1.75 0 0 1 1.75 1.75l-20.1 1a1.75 1.75 0 0 1 -1.75 1.75h-1.15a2.6 2.6 0 0 0 -2.6 2.6.85.85 0 0 0 .85.85h315.35v-20z" fill="#29abe2" transform="translate(-20.87 -75.33)"/><path d="m426.75 129h-57a4.75 4.75 0 0 1 -4.75-4.75 4.75 4.75 0 0 1 4.75-4.75h57a4.75 4.75 0 0 1 4.75 4.75 4.75 4.75 0 0 1 -4.75 4.75z" fill="#fff" transform="translate(-20.87 -75.33)"/><path d="m444.46 355.18-6.46-178.56a1.77 1.77 0 0 0 -2.07-1.61 2.12 2.12 0 0 0 -1.94 2.06l.75 20.54h-20l-.76-21a1.77 1.77 0 0 0 -2.07-1.61 2.12 2.12 0 0 0 -1.94 2.06l6.49 178.56a1.73 1.73 0 0 0 1.82 1.62h.25a2.12 2.12 0 0 0 1.94-2.06l-.55-15h20l.56 15.45a1.73 1.73 0 0 0 1.82 1.62h.25a2.12 2.12 0 0 0 1.91-2.07zm-26.06-56.67h20l.37 10.2h-20zm17.81-59.24h-20l-.37-10.2h20zm.13 3.69.37 10.2h-20l-.37-10.2zm.51 13.89.37 10.2h-20l-.37-10.2zm.51 13.89.37 10.2h-20l-.37-10.2zm.5 13.89.37 10.2h-20l-.37-10.2zm-2.15-59.24h-20l-.37-10.2h20zm-16.8 87h20l.37 10.2h-20zm15.93-111.1.37 10.2h-20l-.37-10.2zm-15.06 135.2-.37-10.2h20l.37 10.2z" fill="url(#a)" transform="translate(-20.87 -75.33)"/><path d="m461.92 370.25-23.92-193.5a2 2 0 0 0 -4 .49l2.75 22.25h-20l-2.75-22.74a2 2 0 0 0 -4 .49l24 193.51a2 2 0 0 0 2 1.75h.25a2 2 0 0 0 1.74-2.23l-2-16.25h20l2.01 16.73a2 2 0 0 0 2 1.75h.25a2 2 0 0 0 1.67-2.25zm-31.58-61.41h20l1.36 11.05h-20zm12-64.2h-20l-1.36-11h20zm.49 4 1.36 11.05h-20l-1.36-11.05zm1.86 15.05 1.36 11h-20l-1.36-11zm1.86 15 1.36 11h-19.91l-1.36-11zm1.86 15 1.36 11h-20l-1.36-11zm-7.92-64.2h-20l-1.36-11.05h20zm-8.33 94.3h20l1.36 11h-20zm5.11-120.4 1.36 11h-20l-1.36-11zm-1.85 146.61-1.36-11h20l1.36 11z" fill="#a67c52" transform="translate(-20.87 -75.33)"/><path d="m125.02 147.85h208.23v104.98h-208.23z" fill="#393f55"/><path d="m250 254a20 20 0 1 0 20 20 20 20 0 0 0 -20-20zm-7.16 29.59v-19.14l18.52 9.6z" fill="#29abe2" transform="translate(-20.87 -75.33)"/><path d="m324 333.3a3.62 3.62 0 1 0 3.62 3.62 3.62 3.62 0 0 0 -3.62-3.62zm13.28 0a3.62 3.62 0 1 0 3.62 3.62 3.62 3.62 0 0 0 -3.59-3.62zm13.28 0a3.62 3.62 0 1 0 3.62 3.62 3.62 3.62 0 0 0 -3.58-3.62z" fill="#ccc" transform="translate(-20.87 -75.33)"/><path d="m439.13 237.75 2.29 7h-10.5s-.26-1 1.45-1.66a3.36 3.36 0 0 0 2.12-2.54l.13-.76z" fill="#ffc9cc" transform="translate(-20.87 -75.33)"/><path d="m124.13 104.33h208.67" fill="none" stroke="#adb8c2" stroke-linecap="round" stroke-linejoin="round" stroke-width="2"/><path d="m124.13 113.83h208.67" fill="none" stroke="#adb8c2" stroke-linecap="round" stroke-linejoin="round" stroke-width="2"/><path d="m124.13 123.33h120.63" fill="none" stroke="#adb8c2" stroke-linecap="round" stroke-linejoin="round" stroke-width="2"/><path d="m295.47 135.33h37.33" fill="none" stroke="#adb8c2" stroke-linecap="round" stroke-linejoin="round" stroke-width="2"/><path d="m327.13 307.19h-127.66l-1.55 33.53h140.46z" fill="#f3f3f3"/><path d="m197.8 340.72h140.67v3.84h-141.42l1.92-33.53.5-3.84z" fill="#5183b9"/><path d="m180.8 297.19h-127.67l-31.21 33.53h140.46z" fill="#f3f3f3"/><path d="m21.92 330.72h140.47v3.83h-140.47z" fill="#5183b9"/><path d="m162.38 330.72v3.84l18.42-33.53v-3.84z" fill="#4a77a8"/><path d="m136.63 303.97h-82.39" fill="none" stroke="#adb8c2" stroke-linecap="round" stroke-linejoin="round" stroke-width="2"/><path d="m121.63 310.72h-72.89" fill="none" stroke="#adb8c2" stroke-linecap="round" stroke-linejoin="round" stroke-width="2"/><path d="m115.63 317.97h-72.89" fill="none" stroke="#adb8c2" stroke-linecap="round" stroke-linejoin="round" stroke-width="2"/><path d="m133.97 364.48h8.3v22.19h-8.3z" fill="#29abe2" transform="matrix(.90430619 .42688443 -.42688443 .90430619 152.67 -98.35)"/><path d="m129.63 383.84-.18 8.3 1.36.64 6.33-5.4s-7.75-3.46-7.51-3.54z" fill="#333" transform="translate(-20.87 -75.33)"/><path d="m115.76 311.81-.5-.24-5.66 5.72.16.07z" fill="#fff" opacity=".3"/><path d="m111.94 310.01-2.24-1.06-.73 8.04.34.16z" fill="#fff" opacity=".3"/><path d="m129.44 392.16-.23.48s-.2.42.5.75.86-.11.86-.11l.23-.48z" fill="#8193a3" transform="translate(-20.87 -75.33)"/><path d="m139.43 362.31h8.3v3.4h-8.3z" fill="#333" transform="matrix(.90430619 .42688443 -.42688443 .90430619 148.25 -101.79)"/><path d="m135.91 360.45h2.48v25.58h-2.48z" fill="#fff" opacity=".3" transform="matrix(.90430619 .42688443 -.42688443 .90430619 151.58 -98.16)"/><path d="m141.56 362.66h.56v25.58h-.56z" fill="#fff" opacity=".3" transform="matrix(.90438068 .42672659 -.42672659 .90438068 152.94 -99.96)"/><path d="m142.87 348.18h9.17v15.25h-9.17z" fill="#29abe2" transform="matrix(.90430619 .42688443 -.42688443 .90430619 145.12 -104.23)"/><path d="m146.42 347.56h9.17v1.42h-9.17z" fill="#333" transform="matrix(.90430619 .42688443 -.42688443 .90430619 142.24 -106.47)"/><path d="m144.52 345.95h2.74v16.67h-2.74z" fill="#fff" opacity=".3" transform="matrix(.9 .43 -.43 .9 144.31 -103.71)"/><path d="m150.75 348.39h.61v16.67h-.61z" fill="#fff" opacity=".3" transform="matrix(.90438068 .42672659 -.42672659 .90438068 145.81 -105.68)"/><g transform="translate(-20.87 -75.33)"><path d="m134.66 367.79c-.54-.25-1-1.39-.8-1.7a.61.61 0 0 1 .74-.18c.26.18.2.87.52 1a.86.86 0 0 0 1-.31l6.18-18.3c.7-2.07 2.65-2.85 4.82-2.62l-.38.81a3 3 0 0 0 -3.49 2.13l-6.15 18.22a1.67 1.67 0 0 1 -2.44.95z" fill="#808080"/><path d="m145.75 373.5.79 2.51 3.46 10.99-7.5 6.5-2.79-15.16s-4.83-4.18-4-5.76a30 30 0 0 1 3.08-1.25s6.96 2.25 6.96 2.17z" fill="#ffcfba"/><path d="m129.5 367.5 18.5 15.27a6.34 6.34 0 0 1 1.16 8.52 6.34 6.34 0 0 1 -8.84 1.55l-16.82-11.84z" fill="#b5ddf1"/><path d="m128.06 370.75-4.56 10.25 16.8 11.84a6.33 6.33 0 0 0 6.85.29c-10.7-3.65-18.4-12.22-19.09-22.38z" fill="#93c4de"/><path d="m150.5 410h-21.37c-15 21-53.13 9.5-53.13 9.5s17 13.5 51 8.17c0 0 20-3.17 22.5-7.67s1-10 1-10z" fill="#4a77a8"/><path d="m70.25 409-2.08 2.33a14.75 14.75 0 0 1 -10.42 4.92 12.38 12.38 0 0 0 0 3.44c.71 1.55 2.83 2.69 4.25 3.44 5.25 2.75 15-3.62 15-3.62l.75-9.75z" fill="#ffcfba"/><path d="m57.75 419.69c.71 1.55 2.83 2.69 4.25 3.44 5.25 2.75 15-3.62 15-3.62l.75-9.75-1.47-.15v.27c-.28 5.37-9.78 10.12-11.9 10.12s-6.62-3.75-6.62-3.75a12.38 12.38 0 0 0 -.01 3.44z" fill="#ffc1a6"/><path d="m108.75 361.5s4.75-12.75 10-13 11.75 5 12.5 7.5-4.25 9.75-6.75 11-15.75-5.5-15.75-5.5z" fill="#ffcfba"/><path d="m119.41 366.16c2.29.79 4.27 1.25 5.09.84 2.5-1.25 7.5-8.5 6.75-11a3.69 3.69 0 0 0 -.4-.82c-5.12.69-9.42 5.01-11.44 10.98z" fill="#ffc1a6"/><path d="m103.5 362.5s-26 18.13-23.75 23.75 8.5 4.63 8.5 4.63z" fill="#93c4de"/><path d="m129.13 410h-6.79s-1.33-22 7.17-42.5c0 0-11-11.5-26-5 0 0-26.5 18.5-27.5 57-.01 0 38.11 11.5 53.12-9.5z" fill="#b5ddf1"/><path d="m122.33 410s11.84.93 14.54 15.63c5.44-1.36 11.34-3.32 12.62-5.63 2.5-4.5 1-10 1-10z" fill="url(#b)"/><path d="m131.63 356.5 2.38 2.38s2.25-5-2-8.12-12.12-6.37-16.25-1.75a37.53 37.53 0 0 0 -5.87 8.5s6.88-.5 11 3l4.5-1.12s2-3.12 3-2.62-.37 3.88-.37 3.88 2.48.48 3.61-4.15z" fill="#333"/></g><path d="m106.65 14.5h23.25v24.25h-23.25z" fill="#333"/><path d="m119.67 16.44h10.23v19.28h-10.23z" fill="#999"/><path d="m106.65 13.59h23.25v.91h-23.25z" fill="#f2f2f2"/><ellipse cx="111.9" cy="19.5" fill="#999" rx="2.42" ry="2.33"/><ellipse cx="111.9" cy="19.5" fill="#808080" rx="1.28" ry="1.24"/><path d="m136.83 88.73v11.08a3.11 3.11 0 0 0 2.83 3.16 3 3 0 0 0 3.16-3v-6.1a1.14 1.14 0 0 1 1.18-1.14 1.14 1.14 0 0 1 1.14 1.14v2a1.94 1.94 0 0 0 1.86 1.98 2.4 2.4 0 0 0 2.4-2.4v-6.72z" fill="#29abe2" transform="translate(-20.87 -75.33)"/><path d="m137.83 99.81v-11.08h-1v11.08a3.11 3.11 0 0 0 2.83 3.16 3 3 0 0 0 .69 0 3.13 3.13 0 0 1 -2.52-3.16z" fill="#29abe2" transform="translate(-20.87 -75.33)"/><path d="m146.11 95.92v-2a1.14 1.14 0 0 0 -1.11-1.19 1.12 1.12 0 0 0 -.5.13 1.13 1.13 0 0 1 .64 1v2a1.94 1.94 0 0 0 1.86 1.99 2.4 2.4 0 0 0 .53-.06 1.93 1.93 0 0 1 -1.42-1.87z" fill="#29abe2" transform="translate(-20.87 -75.33)"/><path d="m110.03 13.71h4.62v24.88h-4.62z" fill="#fff" opacity=".2"/><path d="m150.77 94.72v4.18c.15 2.7-.33 4.77-1.45 6.16s-3.32 2.3-6.19 2.3c-5.4 0-9.79-5.51-9.79-12.29a.48.48 0 1 0 -1 0c0 7.31 4.82 13.25 10.75 13.25 3.17 0 5.58-.83 6.94-2.66 2.78-3.66.97-10.93.74-10.94z" fill="#e6e6e6" transform="translate(-20.87 -75.33)"/><path d="m81.13 12.04 9.38 26.86h-7.38l-5.12-15.61z" fill="#e8a3a8"/><path d="m69.25 114.21s5.17-26 26.42-28.21h6v28.21z" fill="#4a77a8" transform="translate(-20.87 -75.33)"/><path d="m124.62 113.98h9.24v6.28h-9.24z" fill="#ffe4c4" transform="matrix(.36909801 -.92939048 .92939048 .36909801 -48.18 118.68)"/><g transform="translate(-20.87 -75.33)"><path d="m123.64 111.47-.65 1.64-4.17-2.11a1.82 1.82 0 0 0 -2.5 1 1.82 1.82 0 0 0 1.16 2.41l4.46 1.36-.65 1.64a1.43 1.43 0 0 0 .8 1.86l2.52 1 3.41-8.59-2.52-1a1.43 1.43 0 0 0 -1.86.79z" fill="#a67c52"/><path d="m131.21 112.93c-1-.12-1.63-.08-.94.42 1.59 1.16 1.55 2.27.52 2.86s-1.25 0-.93 2.35-.4 1.17-2.18 1.32c-1 .08-.9.74-.64 1.34l1.49.59c.68.27.43 1.44.77 2 .86 1.4 1.46-2.69 1.52 2.56 0 1 .95 2.24.64-2a30 30 0 0 1 1.54-8.37l.81-2z" fill="#29abe2"/><path d="m90.81 116c-9.92-7.91-8-23.8-7.94-24.47a4 4 0 0 1 7.94 1c0 .12-1.4 12.15 5 17.23 3.7 2.94 14.63 1.55 14.63 1.55l4.06-4.11 7.5 3.13s-2.35 3.63-4.25 4.75c-11.08 6.59-23.47 3.73-26.94.92z" fill="#ffbdc0"/><path d="m93.79 88.36s3.43-9.21 7.21-9.36 8.49 3.61 9 5.42-3.07 7-4.88 7.95-11.33-4.01-11.33-4.01z" fill="#ffbdc0"/><path d="m108.37 82.2a8.82 8.82 0 0 1 -1.12 4.8l-1.45 2.17-1.81-1-2.47 3.56c1.64.57 3.06.89 3.65.59 1.81-.9 5.42-6.14 4.88-7.95a5.85 5.85 0 0 0 -1.68-2.17z" fill="#e8a3a8"/><path d="m100.43 84.7.81-2.21h2.17l.63-2.17s6.28 6.28 8.9 4.65-3.21-7.53-6.86-8.94c-4.92-1.9-7.59.72-8.49 3s-3.52 7.95-3.52 7.95l2.71-1.45s1-3.38 2.08-3.43c1.81-.09.45 2.39.45 2.39z" fill="#a67c52"/><path d="m436.57 164.19s7.11-7.42 5.59-10.78-7.17-5.57-9.1-5.16-5.24 6.06-5.28 8.05 8.79 7.89 8.79 7.89z" fill="#ebb9bc"/><path d="m430 159.18c-1.27-1.15-2.22-2.22-2.2-2.88 0-2 3.35-7.65 5.28-8.05a2.92 2.92 0 0 1 .68 0c1.16 3.39-.38 7.58-3.76 10.93z" fill="#ffc9cc"/><path d="m452.3 193.64h-2.16a.61.61 0 0 1 -.67-.67q0-2.18 0-4.35a.62.62 0 0 1 .67-.67h4.34a.63.63 0 0 1 .68.68q0 2.17 0 4.34a.62.62 0 0 1 -.67.67zm1.71-3.37a1.74 1.74 0 0 1 -.74 2 1.64 1.64 0 0 1 -1.88 0 1.74 1.74 0 0 1 -.77-2h-.53v.13q0 1.16 0 2.31c0 .24.07.31.3.31h3.85c.23 0 .3-.07.3-.3q0-1.16 0-2.33s0-.09 0-.13zm-1.7-.62a1.15 1.15 0 1 0 1.15 1.13 1.15 1.15 0 0 0 -1.15-1.13zm1.72-.23h.27a.22.22 0 0 0 .23-.23c0-.18 0-.36 0-.53a.22.22 0 0 0 -.23-.23h-.53a.22.22 0 0 0 -.23.22v.55a.22.22 0 0 0 .23.23z" fill="#fff"/><path d="m452.33 185.21a5.59 5.59 0 1 0 5.57 5.6 5.58 5.58 0 0 0 -5.57-5.6zm2.83 7.76a.62.62 0 0 1 -.67.67h-4.35a.61.61 0 0 1 -.67-.67q0-2.18 0-4.35a.62.62 0 0 1 .67-.67h4.34a.63.63 0 0 1 .68.68q0 2.17 0 4.37zm-.63-2.7h-.53a1.74 1.74 0 0 1 -.74 2 1.64 1.64 0 0 1 -1.88 0 1.74 1.74 0 0 1 -.77-2h-.53v.13q0 1.16 0 2.31c0 .24.07.31.3.31h3.85c.23 0 .3-.07.3-.3q0-1.16 0-2.33s.01-.08 0-.13zm-2.19 1.68a1.15 1.15 0 1 0 -1.18-1.12 1.15 1.15 0 0 0 1.18 1.11zm2-3.53h-.53a.22.22 0 0 0 -.23.22v.55a.22.22 0 0 0 .23.23h.52a.22.22 0 0 0 .23-.23c0-.18 0-.36 0-.53a.22.22 0 0 0 -.25-.24z" fill="#662d91"/><path d="m444.67 180.82a5.33 5.33 0 1 1 -5.34 5.33 5.34 5.34 0 0 1 5.34-5.33zm.24 4.71a2.79 2.79 0 0 1 -1.41-.37c-.41-.24-.78-.55-1.17-.83a1.33 1.33 0 0 0 .36 1.58l-.49-.12a1.37 1.37 0 0 0 .91 1.21h-.46a1.36 1.36 0 0 0 1.11.86 3.8 3.8 0 0 1 -.8.39 6.81 6.81 0 0 1 -.88.15 3.49 3.49 0 0 0 5.27-3 .39.39 0 0 1 .16-.34 4.1 4.1 0 0 0 .38-.39l-.54.13a1.69 1.69 0 0 0 .44-.63l-.49.19a.37.37 0 0 1 -.42-.07 1.22 1.22 0 0 0 -1.94.74 3.09 3.09 0 0 0 -.04.5z" fill="#29abe2"/><path d="m444.9 185.53a3.09 3.09 0 0 1 0-.51 1.22 1.22 0 0 1 1.94-.74.37.37 0 0 0 .42.07l.49-.19a1.69 1.69 0 0 1 -.44.63l.54-.13a4.1 4.1 0 0 1 -.38.39.39.39 0 0 0 -.16.34 3.49 3.49 0 0 1 -5.27 3 6.81 6.81 0 0 0 .88-.15 3.8 3.8 0 0 0 .8-.39 1.36 1.36 0 0 1 -1.11-.86h.46a1.37 1.37 0 0 1 -.91-1.21l.49.12a1.33 1.33 0 0 1 -.36-1.58c.39.28.76.59 1.17.83a2.79 2.79 0 0 0 1.44.38z" fill="#fff"/><path d="m457.33 178.27a5.47 5.47 0 1 1 -7 3.36 5.47 5.47 0 0 1 7-3.36zm.78 2.47c-.39-.14-.76-.28-1.14-.39a1.2 1.2 0 0 0 -1.47.57 7.45 7.45 0 0 0 -.36.88l-.07.2-.62-.22-.39 1.13.63.22-1.11 3.18 1.32.46 1.11-3.18.9.31.51-1.09-1-.35a.4.4 0 0 1 0-.05l.2-.57c.09-.26.21-.32.47-.22l.64.22z" fill="#0071bc"/><path d="m458.11 180.74-.38 1.09-.64-.22c-.26-.09-.38 0-.47.22l-.2.57a.4.4 0 0 0 0 .05l1 .35-.51 1.09-.9-.31-1.11 3.18-1.32-.46 1.11-3.18-.63-.22.39-1.13.62.22.07-.2a7.45 7.45 0 0 1 .36-.88 1.2 1.2 0 0 1 1.47-.57c.38.13.75.27 1.14.4z" fill="#fff"/><path d="m435.82 185.43 5 15.49h15.18l5-15.49zm4.57 10.69h1.74l.29 1.33h-1.6zm8.54-5.88v-1.33h2.55l-.14 1.33zm2.3 1.08-.14 1.33h-2.15v-1.33zm-3.37-1.08h-2.41l-.14-1.33h2.55zm0 1.08v1.33h-2.15l-.14-1.33zm-3.23 1.33h-2.14l-.29-1.33h2.28zm.12 1.08.14 1.33h-1.89l-.29-1.33zm1.08 0h2v1.27h-1.83zm2 2.4v1.33h-1.64l-.14-1.33zm1.08 0h1.78l-.14 1.33h-1.64zm0-1.08v-1.33h2l-.14 1.33zm3.12-1.33h2l-.23 1.28h-1.88zm.11-1.08.14-1.33h2.28l-.28 1.33zm.25-2.4.14-1.33h2.54l-.28 1.33zm.25-2.4.14-1.33h2.8l-.28 1.33zm-1.08 0h-2.67v-1.33h2.81zm-3.74 0h-2.67l-.14-1.33h2.81zm-3.75 0h-2.65l-.29-1.33h2.87zm.12 1.08.14 1.33h-2.33l-.29-1.33zm-3.35 1.33h-2.34l-.43-1.33h2.51zm.23 1.08.29 1.33h-2.12l-.43-1.33zm.52 2.4.29 1.33h-1.88l-.43-1.33zm1.62 2.4h1.79l.14 1.33h-1.63zm2 2.4.14 1.33h-1.35l-.29-1.33zm1.08 0h1.52v1.33h-1.38zm2.6 0h1.52l-.14 1.33h-1.27zm2.6 0h1.51l-.28 1.33h-1.37zm.11-1.08.14-1.33h1.77l-.28 1.33zm3-1.33h1.74l-.42 1.33h-1.6zm.23-1.08.28-1.33h2l-.42 1.33zm.51-2.4.28-1.33h2.38l-.42 1.33zm.51-2.4.28-1.33h2.51l-.42 1.33zm.51-2.4.28-1.33h2.77l-.42 1.33zm-16.36-1.33.29 1.33h-2.63l-.43-1.33zm1.1 12h1.49l.29 1.33h-1.28zm12.71 1.33.28-1.33h1.49l-.42 1.33z" fill="#fff"/><path d="m444.25 162.25s14.5 13.25 14 16-16.5 2.5-16.5 2.5l-1.5-4.75 6.75-.5-6-5.75s-1.5-7.75 3.25-7.5z" fill="#93c4de"/><path d="m446.23 174.9 3.5 14a1.54 1.54 0 0 1 -1.49 1.91 1.54 1.54 0 0 1 -1.49-1.16l-3.69-14.71z" fill="#333"/></g><circle cx="427.3" cy="113.87" fill="#fff" r=".69"/><path d="m424 190s-6.33 7.5-6.33 15.17 4.58 20.33 4.58 20.33l1.88-.65a13 13 0 0 1 7.82-.22l.72.21s-8.17-13.83-7.25-19.42c.42-2.53 5.67-3.17 9.83-2.67 0 0-12.58 13.92-1.75 39l7.25-2.75s-9.08-13.67 4.58-42.83c0 0-14.66-7.17-21.33-6.17z" fill="#4a77a8" transform="translate(-20.87 -75.33)"/><path d="m429.5 223.83 1.67 5.75h-10.5s-.26-1 1.45-1.66a3.36 3.36 0 0 0 2.12-2.54l.13-.76z" fill="#ffc9cc" transform="translate(-20.87 -75.33)"/><path d="m399.33 141.5s14.83 20.67 41.83 20.33c0 0 7.17-.67 4.83 8.29-3 11.5-3.75 12.5-.67 26 0 0-18.17 5-27-3.17 0 0 8.83-16.42 7.17-19.75s-20.08-8.58-28.75-27.25z" fill="#b5ddf1" transform="translate(-20.87 -75.33)"/><circle cx="384.69" cy="128.58" fill="#333" r="7.25" transform="matrix(.8067541 -.59088731 .59088731 .8067541 -22.51 176.82)"/><circle cx="384.69" cy="128.58" fill="#fff" r="4.46" transform="matrix(.8067541 -.59088731 .59088731 .8067541 -22.51 176.82)"/><path d="m390.36 132.99h2.5v10.08h-2.5z" fill="#333" transform="matrix(.8067541 -.59088731 .59088731 .8067541 -26.75 182.73)"/><path d="m378.47 66.17-6.67-4.5-3 6 7.08 3z" fill="#ffc9cc"/><path d="m446.08 144.75a3.66 3.66 0 0 0 -3.39 2.28 7.82 7.82 0 0 0 -1.75-1.07 5.52 5.52 0 0 0 -1.6-.43c-.79-.31-6.57-2.46-8.84.91a3 3 0 0 1 2.5-.56 3.17 3.17 0 0 0 -2.19 1.88s2.11-1.48 3.89-1.26a9.24 9.24 0 0 0 -1.07.61 7.84 7.84 0 0 0 -2.15 2.73c-.44.29-.92.67-.92 1s.3.5.43.7v.33a.68.68 0 0 1 -.16.11c-.69.35-2.44 1.45-1.44 2s1.44 1.18.06 1c0 0 .75 1 1.37.16s-.62-1.14-.56-1.81 1.5-.71 1.31-1.38a1.69 1.69 0 0 1 -.06-.56c.6-.57 1.54-1.35 2-1.05.66.45-.81 2.79-.81 2.79l.69 3.2c3.7 1.34 3.24 4 3.24 4s6.28-.48 8.08-4.67a7.68 7.68 0 0 0 .65-3.58 3.67 3.67 0 1 0 .77-7.25z" fill="#603813" transform="translate(-20.87 -75.33)"/><path d="m326.13 244.33 25.5 22.34 13.09-18.59-22.25-13.75z" fill="#4a77a8"/><path d="m362.83 318.21 2.67 3s-1.42 13 3.58 17.75l-15-13.29z" fill="url(#c)" transform="translate(-20.87 -75.33)"/><path d="m357.26 315.15s3.31-13-.37-15.55-11.16-1.07-13 .71-2.08 10.19-.93 12.39 14.3 2.45 14.3 2.45z" fill="#edc0ad" transform="translate(-20.87 -75.33)"/><path d="m342.32 305.58c-.24 2.83 0 5.91.61 7.11.54 1 3.78 1.64 7 2 2.83-5.41-4.56-8.21-7.61-9.11z" fill="#ffcfba" transform="translate(-20.87 -75.33)"/><path d="m334.5 303.67 24.58 2.67s2-8.58.83-9.5-15.25-3.17-16.25-.92l-1.83 5.67-7.67.67s-.66.99.34 1.41z" fill="#333" transform="translate(-20.87 -75.33)"/><path d="m341.67 301.67 4.48.54a1.11 1.11 0 0 0 1.23-.89l.59-2.93a1.11 1.11 0 0 0 -.84-1.3l-3.61-.84z" fill="#29abe2" transform="translate(-20.87 -75.33)"/><path d="m358.24 312.5-21.91 13.84-16.33 2v7.66h21l23.2-13.77a5.71 5.71 0 0 0 .63-9.38 5.71 5.71 0 0 0 -6.59-.35z" fill="#4a77a8" transform="translate(-20.87 -75.33)"/><path d="m361.7 318.34-22.61 14.17-19 1.12a.5.5 0 0 0 0 1l19.12-1.12a.51.51 0 0 0 .24-.08l22.55-14.14a4.48 4.48 0 0 0 -.3-.95z" fill="#b5ddf1" transform="translate(-20.87 -75.33)"/><path d="m320.13 332.13 17.87-1.13a.5.5 0 0 0 .23-.07l22.67-13.6a4.3 4.3 0 0 0 -.88-.64l-22.17 13.31-17.75 1.12a.5.5 0 0 0 0 1z" fill="#b5ddf1" transform="translate(-20.87 -75.33)"/><path d="m375.25 316.88-4.37-7-2.82.93-5.56-4.68-12.17 9.71 1.42.67a19.8 19.8 0 0 1 12.45-1.71z" fill="#b5ddf1" transform="translate(-20.87 -75.33)"/><path d="m299.13 253-1.66-7.92h-2v15.75h3.66z" fill="#edc0ad"/><path d="m364.72 248.08 14.5 26.25 10.25 11-2.25 5.75-16-9-12.25-16.25z" fill="#333"/><path d="m385.58 323.42-17.48 16.65a33.42 33.42 0 0 0 -10.76 24.57v5.36h8s-.23-16.11 18.84-28.79a11.29 11.29 0 0 0 1.41-17.79z" fill="#333" transform="translate(-20.87 -75.33)"/><path d="m357.33 370-9 3.42v2h18v-5.42s-9.2-.21-9 0z" fill="#4a77a8" transform="translate(-20.87 -75.33)"/><path d="m389.47 285.33-5 9.75-4.75 1v3l8.5-.25 8-12.25z" fill="#4a77a8"/><path d="m235.43 238.97h60.2v60.2h-60.2z" fill="#a67c52"/><path d="m258.86 238.97h11.43v60.2h-11.43z" fill="#c69c6d"/><path d="m292.6 347-.6.19a2.19 2.19 0 0 0 -1 .52.75.75 0 0 0 -.15.74.66.66 0 0 0 .32.44.84.84 0 0 0 .62 0 1.3 1.3 0 0 0 .8-.55 1.16 1.16 0 0 0 .1-1zm5.71 1a1.83 1.83 0 0 0 -.86.09l-.77.21a1.11 1.11 0 0 0 -.64.39.69.69 0 0 0 -.11.62.58.58 0 0 0 .43.43 1.68 1.68 0 0 0 .88 0 2.6 2.6 0 0 0 1.17-.57.74.74 0 0 0 .24-.74.49.49 0 0 0 -.33-.43zm-1.85-2a.83.83 0 0 0 .63-1.18 1.12 1.12 0 0 0 -.41-.66.86.86 0 0 0 -.73-.07.88.88 0 0 0 -.6.43 1.08 1.08 0 0 0 0 .79 1 1 0 0 0 .41.63.9.9 0 0 0 .7.06zm-17.86 4.82-.6.19a2.19 2.19 0 0 0 -1 .52.75.75 0 0 0 -.15.74.66.66 0 0 0 .32.44.84.84 0 0 0 .62 0 1.3 1.3 0 0 0 .8-.55 1.16 1.16 0 0 0 .1-1zm-5.37 0a1 1 0 0 0 -.94-.19 1.09 1.09 0 0 0 -.79.59 1.91 1.91 0 0 0 0 1.2v.15a2.3 2.3 0 0 0 .61 1.19 1.06 1.06 0 0 0 1 .15 1 1 0 0 0 .69-.65 2.3 2.3 0 0 0 0-1.3 2.24 2.24 0 0 0 -.57-1.18zm28.61-7.87a1 1 0 0 0 -.84-.1 1 1 0 0 0 -.69.51 1.5 1.5 0 0 0 -.11 1l2.16-.58a1.36 1.36 0 0 0 -.53-.86zm-21.42-4.58a2.43 2.43 0 0 0 -2.2-.33 2.48 2.48 0 0 0 -1.77 1.39 4.14 4.14 0 0 0 0 2.69 4.19 4.19 0 0 0 1.35 2.34 2.83 2.83 0 0 0 4-1.06 5.3 5.3 0 0 0 -1.35-5zm16 1.11a2.83 2.83 0 0 0 4-1.06 5.3 5.3 0 0 0 -1.35-5 2.43 2.43 0 0 0 -2.2-.33 2.48 2.48 0 0 0 -1.77 1.39 4.14 4.14 0 0 0 0 2.69 4.19 4.19 0 0 0 1.28 2.28zm8.19-14.21-43.67 11.73 6.92 25.74 43.63-11.74zm-10.93 8.55a4.19 4.19 0 0 1 2.82-2 4.11 4.11 0 0 1 3.43.38 6.08 6.08 0 0 1 1.83 6.84 4.78 4.78 0 0 1 -6.24 1.69 5.13 5.13 0 0 1 -2-3.15 5.05 5.05 0 0 1 .12-3.79zm-8.75 2.4a4.87 4.87 0 0 1 3.07-2.22 7 7 0 0 1 2.82-.18l-.19 1.37a5.41 5.41 0 0 0 -2.33.08 3.06 3.06 0 0 0 -2 1.52 3.63 3.63 0 0 0 -.17 2.7 3.83 3.83 0 0 0 1.43 2.31 2.83 2.83 0 0 0 2.4.28 7.37 7.37 0 0 0 1.48-.59l-.62-2.32-1.87.5-.34-1.26 3.31-.89 1.22 4.52a10 10 0 0 1 -1.46.8 11.58 11.58 0 0 1 -1.59.55 4.21 4.21 0 0 1 -3.48-.36 5 5 0 0 1 -2-3.12 4.71 4.71 0 0 1 .28-3.72zm-10 17.41a1.89 1.89 0 0 1 -2.8.76h-.06q.22.59.26.72l.52 2-1 .27-1.85-6.89.82-.22.31.6h.05a1.64 1.64 0 0 1 1.23-1.11 1.71 1.71 0 0 1 1.56.27 3.67 3.67 0 0 1 1 3.64zm-4.91-4.92-2.42-9 1.47-.4 2.08 7.75 3.81-1 .34 1.26zm9.48 4.29-.38-.61a2 2 0 0 1 -.53.78 2.27 2.27 0 0 1 -.85.4 1.58 1.58 0 0 1 -1.2-.08 1.47 1.47 0 0 1 -.68-1 1.3 1.3 0 0 1 .25-1.26 3.27 3.27 0 0 1 1.56-.86l.82-.25-.07-.25a1 1 0 0 0 -.4-.62.89.89 0 0 0 -.72 0 2.37 2.37 0 0 0 -.67.3 5.5 5.5 0 0 0 -.58.43l-.52-.64a3.65 3.65 0 0 1 .77-.54 4.05 4.05 0 0 1 .84-.34 2.14 2.14 0 0 1 1.48 0 1.61 1.61 0 0 1 .8 1.12l.86 3.21zm-2.61-7.31a5.13 5.13 0 0 1 -2-3.15 5.05 5.05 0 0 1 .18-3.72 4.2 4.2 0 0 1 2.82-2 4.11 4.11 0 0 1 3.43.38 6.08 6.08 0 0 1 1.83 6.84 4.79 4.79 0 0 1 -6.24 1.69zm7.24 6.09a3.6 3.6 0 0 1 -.73.27 2.15 2.15 0 0 1 -1.81-.19 3.31 3.31 0 0 1 -1-3.67 2.26 2.26 0 0 1 1.53-1.1 3.3 3.3 0 0 1 1.43-.08l-.09.9a3.17 3.17 0 0 0 -1.13 0q-1.24.33-.8 2a2 2 0 0 0 .63 1.12 1.11 1.11 0 0 0 1 .16 2.68 2.68 0 0 0 1.19-.68l.24.88a2.08 2.08 0 0 1 -.46.35zm4.61-1.26-2.09-1.68-.43.61.44 1.63-1 .27-1.8-6.7 1-.27.88 3.27.19.93.38-.87 1-1.92 1.17-.31-1.32 2.52 2.77 2.17zm4.76-1.28-.38-.61a2 2 0 0 1 -.53.78 2.27 2.27 0 0 1 -.85.4 1.58 1.58 0 0 1 -1.2-.08 1.47 1.47 0 0 1 -.68-1 1.3 1.3 0 0 1 .25-1.26 3.27 3.27 0 0 1 1.56-.86l.82-.25-.07-.25a1 1 0 0 0 -.4-.62.89.89 0 0 0 -.72 0 2.37 2.37 0 0 0 -.67.3 5.48 5.48 0 0 0 -.58.43l-.52-.64a3.65 3.65 0 0 1 .77-.54 4 4 0 0 1 .84-.34 2.14 2.14 0 0 1 1.48 0 1.61 1.61 0 0 1 .8 1.12l.86 3.21zm5.72.27a3.64 3.64 0 0 1 -1.81 1 2.76 2.76 0 0 1 -1.58.05 1.15 1.15 0 0 1 -.78-.84 1.08 1.08 0 0 1 .08-.81 1.55 1.55 0 0 1 .67-.63.77.77 0 0 1 -.41-.19.71.71 0 0 1 -.24-.37.72.72 0 0 1 0-.49 1.8 1.8 0 0 1 .35-.49 1.37 1.37 0 0 1 -.74-.36 1.76 1.76 0 0 1 -.29-2.11 2.13 2.13 0 0 1 1.28-.8l.43-.09h.35l1.65-.44.15.56-.77.37a1.36 1.36 0 0 1 .28.32 1.51 1.51 0 0 1 .2.45 1.48 1.48 0 0 1 -.2 1.3 2.2 2.2 0 0 1 -1.29.8 2.36 2.36 0 0 1 -.42.08.59.59 0 0 0 -.2.56.27.27 0 0 0 .22.2 1.37 1.37 0 0 0 .59-.07l.83-.22a1.91 1.91 0 0 1 1.29 0 1.22 1.22 0 0 1 .67.86 1.46 1.46 0 0 1 -.31 1.32zm3.93-2.84a4.75 4.75 0 0 1 -.85.31 2.39 2.39 0 0 1 -1.91-.18 2.55 2.55 0 0 1 -1.11-1.62 2.8 2.8 0 0 1 .09-2 2.08 2.08 0 0 1 1.42-1.1 2 2 0 0 1 1.64.17 2.27 2.27 0 0 1 1 1.43l.15.55-3.18.85a1.62 1.62 0 0 0 .66 1 1.35 1.35 0 0 0 1.1.11 3.73 3.73 0 0 0 .77-.29 4.19 4.19 0 0 0 .71-.47l.22.82a3.22 3.22 0 0 1 -.71.38z" fill="#333" transform="translate(-20.87 -75.33)"/></svg>